<svg width="204" height="43" viewBox="0 0 204 43" fill="none" xmlns="http://www.w3.org/2000/svg">
<path d="M43.3514 22.5326C43.7333 21.8692 43.9829 21.1413 44.2455 20.3692C44.5194 19.5676 44.8006 18.7384 45.2496 17.9755C45.84 16.973 46.7099 16.1401 47.7251 15.5596V9.25927C47.7251 8.4632 47.0732 7.81824 46.2685 7.81824H40.4437C39.639 7.81824 38.987 8.4632 38.987 9.25927V16.763H31.402C30.5973 16.763 29.9453 17.4079 29.9453 18.204V23.9681C29.9453 24.7642 30.5973 25.4091 31.402 25.4091H38.9293C40.7436 25.1972 42.4424 24.1063 43.3514 22.5326Z" fill="#E0004D"/>
<path d="M56.4852 16.6136H48.5155C47.8371 17.0979 47.2568 17.7184 46.8352 18.436C46.4176 19.1459 46.151 19.9317 45.8687 20.7641C45.5883 21.5907 45.2962 22.4465 44.8413 23.2381C43.7062 25.2102 41.575 26.5736 39.3027 26.8206V33.6609C39.3027 34.5011 39.9889 35.1818 40.8359 35.1818H46.9686C47.8155 35.1818 48.5017 34.5011 48.5017 33.6609V25.7392H56.4852C57.3321 25.7392 58.0183 25.0585 58.0183 24.2183V18.1346C58.0183 17.2963 57.3321 16.6136 56.4852 16.6136Z" fill="#213360"/>
</svg>
