<svg width="40" height="37" viewBox="0 0 40 37" fill="none" xmlns="http://www.w3.org/2000/svg">
<g clip-path="url(#clip0_1_16999)">
<path d="M19.0414 19.7509C19.5243 18.9492 19.8399 18.0695 20.172 17.1364C20.5182 16.1677 20.8739 15.1656 21.4415 14.2436C22.1882 13.0322 23.2881 12.0256 24.5718 11.3241V3.71022C24.5718 2.74818 23.7474 1.96875 22.7299 1.96875H15.3647C14.3472 1.96875 13.5228 2.74818 13.5228 3.71022V12.7783H3.93174C2.91422 12.7783 2.08984 13.5577 2.08984 14.5198V21.4856C2.08984 22.4477 2.91422 23.2271 3.93174 23.2271H13.4498C15.7439 22.971 17.892 21.6527 19.0414 19.7509Z" fill="#E0004D"/>
<path d="M34.1659 12.7783H24.5913C23.7763 13.3328 23.0792 14.0432 22.5728 14.865C22.0711 15.6778 21.7507 16.5775 21.4116 17.5306C21.0747 18.4771 20.7238 19.4569 20.1773 20.3633C18.8136 22.6214 16.2533 24.1825 13.5234 24.4653V32.2974C13.5234 33.2595 14.3478 34.0389 15.3653 34.0389H22.7329C23.7504 34.0389 24.5748 33.2595 24.5748 32.2974V23.2271H34.1659C35.1834 23.2271 36.0078 22.4477 36.0078 21.4857V14.5198C36.0078 13.56 35.1834 12.7783 34.1659 12.7783Z" fill="#203360"/>
</g>
<defs>
<clipPath id="clip0_1_16999">
<rect width="40" height="36.092" fill="white"/>
</clipPath>
</defs>
</svg>
