<svg width="348" height="218" viewBox="0 0 348 218" fill="none" xmlns="http://www.w3.org/2000/svg">
<mask id="mask0_1403_9155" style="mask-type:alpha" maskUnits="userSpaceOnUse" x="0" y="0" width="348" height="212">
<path d="M16 0.5H332C340.56 0.5 347.5 7.43959 347.5 16V196C347.5 204.56 340.56 211.5 332 211.5H16C7.43958 211.5 0.5 204.56 0.5 196V16C0.5 7.43959 7.43959 0.5 16 0.5Z" fill="#62A9E2" stroke="black"/>
</mask>
<g mask="url(#mask0_1403_9155)">
<path d="M335.928 196.503L336.028 195.951C336.473 195.824 336.918 195.697 337.363 195.548C338.286 195.251 338.408 194.222 337.652 193.68C337.307 193.436 336.951 193.203 336.595 192.98C336.729 192.28 336.862 191.59 336.996 190.89C337.074 190.508 336.951 190.126 336.584 189.924C336.261 189.733 335.772 189.765 335.494 190.041C334.982 190.561 334.459 191.081 333.936 191.601C333.313 191.335 332.679 191.091 332.023 190.879C331.634 190.752 331.155 190.932 330.911 191.229C330.632 191.569 330.621 191.961 330.799 192.354C331.066 192.927 331.333 193.5 331.6 194.063C331.367 194.338 331.133 194.614 330.911 194.89C330.877 194.901 330.855 194.922 330.822 194.933C330.51 195.092 330.321 195.4 330.276 195.718C330.243 195.771 330.21 195.813 330.165 195.867C330.01 196.089 330.099 196.387 330.299 196.546C330.421 196.641 330.566 196.673 330.699 196.652C330.944 196.822 331.255 196.875 331.6 196.832C332.001 196.779 332.401 196.715 332.802 196.652C333.102 197.299 333.402 197.957 333.703 198.604C334.059 199.358 335.483 199.241 335.627 198.392C335.75 197.766 335.816 197.14 335.928 196.503Z" fill="#F5B452"/>
<path d="M118.241 37.7882L117.818 37.4062C117.951 36.9817 118.085 36.5572 118.207 36.1222C118.452 35.2202 117.618 34.5623 116.728 34.87C116.327 35.008 115.927 35.1565 115.526 35.3263C114.992 34.8382 114.447 34.35 113.913 33.8513C113.624 33.586 113.223 33.4693 112.845 33.6391C112.5 33.7982 112.256 34.2015 112.356 34.5729C112.534 35.2733 112.701 35.9736 112.867 36.674C112.289 37.0242 111.722 37.3956 111.188 37.7988C110.865 38.0429 110.754 38.5204 110.887 38.8812C111.032 39.2844 111.366 39.5073 111.811 39.5815C112.456 39.6877 113.101 39.7832 113.746 39.8893C113.858 40.2288 113.969 40.5578 114.091 40.8974C114.091 40.9292 114.091 40.961 114.08 40.9929C114.047 41.3324 114.214 41.6508 114.469 41.8524C114.492 41.9055 114.514 41.9585 114.536 42.0116C114.647 42.2557 114.959 42.3618 115.204 42.2769C115.359 42.2344 115.459 42.1389 115.515 42.0222C115.793 41.9161 116.016 41.6932 116.16 41.4067C116.338 41.0565 116.505 40.7064 116.661 40.3562C117.395 40.4729 118.129 40.5896 118.864 40.7064C119.72 40.8337 120.399 39.6346 119.731 39.0616C119.242 38.6159 118.73 38.2339 118.241 37.7882Z" fill="#F5B452"/>
<path d="M37.6789 100.077L37.5454 99.6635C37.8013 99.43 38.0572 99.186 38.313 98.9419C38.8359 98.4219 38.5355 97.6898 37.8236 97.573C37.5009 97.52 37.1672 97.4775 36.8446 97.4457C36.6777 96.9257 36.5109 96.4058 36.344 95.8858C36.255 95.5993 36.0325 95.3765 35.7099 95.3659C35.4207 95.3446 35.0981 95.5356 35.0091 95.8115C34.8533 96.3421 34.6865 96.8727 34.5196 97.4032C33.9967 97.4245 33.4739 97.4775 32.9511 97.5518C32.6396 97.5943 32.3726 97.8808 32.317 98.1673C32.2502 98.4962 32.3948 98.7615 32.6618 98.9737C33.0512 99.2708 33.4517 99.5786 33.841 99.8757C33.7854 100.141 33.7298 100.406 33.6741 100.672C33.663 100.693 33.6519 100.714 33.6296 100.735C33.4739 100.947 33.4628 101.223 33.5518 101.457C33.5406 101.499 33.5406 101.542 33.5295 101.595C33.5073 101.796 33.6741 101.977 33.8744 102.019C33.9967 102.04 34.0969 102.019 34.1859 101.956C34.4195 101.987 34.6531 101.924 34.8645 101.775C35.1203 101.605 35.3651 101.425 35.6209 101.255C36.0659 101.595 36.5109 101.945 36.9558 102.284C37.4787 102.677 38.4131 102.115 38.1907 101.489C38.0127 100.99 37.8236 100.544 37.6789 100.077Z" fill="#F5B452"/>
<path d="M189.682 118.796L189.782 118.244C190.227 118.117 190.672 117.979 191.117 117.82C192.04 117.502 192.14 116.483 191.373 115.952C191.028 115.708 190.672 115.485 190.305 115.263C190.427 114.562 190.55 113.862 190.672 113.162C190.739 112.78 190.616 112.398 190.249 112.196C189.916 112.016 189.426 112.047 189.17 112.334C188.67 112.864 188.147 113.395 187.635 113.915C187.001 113.66 186.367 113.427 185.71 113.225C185.31 113.108 184.843 113.289 184.609 113.597C184.342 113.947 184.331 114.329 184.52 114.721C184.798 115.284 185.076 115.857 185.343 116.419C185.11 116.695 184.887 116.971 184.665 117.258C184.631 117.268 184.609 117.289 184.576 117.3C184.264 117.459 184.075 117.767 184.053 118.096C184.02 118.149 183.986 118.191 183.953 118.244C183.808 118.467 183.886 118.775 184.097 118.924C184.22 119.019 184.364 119.04 184.498 119.019C184.743 119.178 185.065 119.231 185.399 119.189C185.799 119.136 186.2 119.061 186.589 118.987C186.901 119.634 187.212 120.282 187.524 120.918C187.891 121.661 189.315 121.523 189.437 120.674C189.526 120.059 189.571 119.433 189.682 118.796Z" fill="#F5B452"/>
<path d="M301.609 33.183L301.075 32.9708C301.041 32.5251 301.008 32.0795 300.953 31.6444C300.841 30.7212 299.818 30.3923 299.106 30.9759C298.783 31.2412 298.461 31.5171 298.16 31.8036C297.471 31.5277 296.792 31.2518 296.102 30.9759C295.735 30.8273 295.312 30.8486 295.023 31.1457C294.767 31.411 294.689 31.8779 294.912 32.1856C295.335 32.7798 295.757 33.374 296.18 33.9683C295.768 34.4882 295.39 35.04 295.034 35.5918C294.823 35.9314 294.901 36.4089 295.157 36.706C295.446 37.0349 295.846 37.1304 296.28 37.0456C296.925 36.9182 297.56 36.7909 298.205 36.6742C298.427 36.95 298.661 37.2259 298.906 37.4912C298.917 37.5231 298.928 37.5549 298.939 37.5761C299.028 37.9051 299.306 38.1491 299.629 38.2446C299.673 38.2871 299.707 38.3295 299.751 38.372C299.94 38.563 300.274 38.5523 300.474 38.3932C300.597 38.2977 300.652 38.1703 300.663 38.043C300.886 37.852 301.008 37.5655 301.041 37.2472C301.075 36.8652 301.097 36.4832 301.119 36.0905C301.854 35.9526 302.577 35.8146 303.311 35.6661C304.156 35.4963 304.345 34.1381 303.5 33.8303C302.855 33.6181 302.232 33.4271 301.609 33.183Z" fill="#F5B452"/>
<path d="M172.038 35.7728C172.005 35.6878 171.972 35.6029 171.938 35.5179L171.838 35.2844C171.771 35.1676 171.682 35.072 171.571 35.0083C171.504 34.9446 171.426 34.9021 171.337 34.8809C171.215 34.8172 171.082 34.7853 170.937 34.796C170.848 34.8066 170.748 34.8172 170.659 34.8278C170.581 34.8597 170.492 34.8915 170.414 34.9234C170.292 34.9871 170.192 35.072 170.125 35.1782C170.036 35.2737 169.969 35.3905 169.936 35.5179C169.902 35.6029 169.869 35.6878 169.836 35.7728C169.824 35.794 169.824 35.8152 169.813 35.8365C169.78 35.9108 169.78 35.9426 169.769 36.0382C169.735 36.1868 169.735 36.3355 169.791 36.4947C169.813 36.6009 169.858 36.6965 169.913 36.7814C169.98 36.8663 170.047 36.9619 170.125 37.0468C170.225 37.153 170.347 37.2273 170.492 37.2698C170.625 37.3335 170.781 37.3654 170.937 37.3654C171.037 37.3547 171.137 37.3441 171.237 37.3229C171.438 37.2698 171.604 37.1742 171.749 37.0362C171.827 36.9513 171.894 36.8663 171.96 36.7708C172.027 36.6752 172.061 36.5797 172.083 36.4841C172.094 36.3886 172.116 36.2824 172.127 36.1868C172.127 36.017 172.094 35.9108 172.038 35.7728Z" fill="white"/>
<path d="M42.7193 50.1396C42.7304 50.0759 42.7415 50.0122 42.7415 49.9486C42.7415 49.6196 42.6525 49.3119 42.4857 49.0254C42.1408 48.4736 41.5067 48.1234 40.8392 48.1234H40.8281C40.5722 48.1128 40.3275 48.1659 40.0939 48.2826C39.8602 48.3569 39.66 48.4842 39.482 48.654L39.1816 49.0148C39.0148 49.3013 38.9258 49.5984 38.9258 49.9273V49.938C38.9258 50.5746 39.2929 51.1901 39.8714 51.5085C40.1717 51.6782 40.4944 51.7525 40.8392 51.7525C40.906 51.7525 40.9616 51.7313 41.0283 51.7313C41.4956 51.8268 41.9962 51.6995 42.341 51.3705C42.6748 51.0522 42.8083 50.5853 42.7193 50.1396Z" fill="white"/>
<path d="M61.2508 32.4297C60.6612 32.4297 60.6612 33.3013 61.2508 33.3013C61.8292 33.3013 61.8292 32.4297 61.2508 32.4297Z" fill="white"/>
<path d="M65.3791 145.42C65.3124 145.292 65.2123 145.197 65.0899 145.122C64.9787 145.027 64.8563 144.963 64.7006 144.931C64.6004 144.921 64.5003 144.91 64.4002 144.889C64.2 144.889 64.0108 144.942 63.8328 145.037C63.755 145.09 63.6771 145.154 63.5992 145.207C63.4546 145.345 63.3656 145.504 63.31 145.685C63.2989 145.727 63.2989 145.77 63.2877 145.812C63.2432 145.95 63.2321 146.099 63.2655 146.237C63.2766 146.386 63.3211 146.513 63.399 146.641C63.4657 146.768 63.5659 146.863 63.6882 146.948C63.7995 147.044 63.9218 147.108 64.0776 147.14C64.1777 147.15 64.2778 147.161 64.3779 147.182C64.5782 147.182 64.7673 147.129 64.9453 147.033C65.0232 146.98 65.101 146.917 65.1789 146.863C65.3235 146.725 65.4125 146.566 65.4681 146.386L65.4904 146.258C65.5349 146.12 65.546 145.972 65.5126 145.834C65.5126 145.674 65.4681 145.547 65.3791 145.42Z" fill="white"/>
<path d="M171.461 137.07C171.45 136.9 171.405 136.74 171.305 136.602C171.294 136.592 171.294 136.581 171.283 136.56C171.227 136.464 171.161 136.379 171.072 136.294C170.983 136.231 170.894 136.156 170.805 136.093C170.693 136.05 170.593 136.008 170.482 135.965H170.471C170.449 135.965 170.415 135.955 170.393 135.955C170.337 135.944 170.282 135.933 170.226 135.933C170.015 135.88 169.815 135.88 169.603 135.933C169.403 135.986 169.236 136.082 169.08 136.22C168.936 136.358 168.836 136.528 168.78 136.719C168.724 136.921 168.724 137.112 168.78 137.314C168.791 137.367 168.802 137.42 168.802 137.473C168.802 137.494 168.813 137.526 168.813 137.547C168.824 137.611 168.836 137.611 168.88 137.717C168.936 137.877 169.025 138.015 169.158 138.131C169.247 138.195 169.336 138.269 169.425 138.333C169.436 138.344 169.459 138.344 169.47 138.354C169.581 138.397 169.681 138.439 169.792 138.482C169.97 138.535 170.148 138.545 170.326 138.503C170.449 138.503 170.56 138.471 170.66 138.418C170.827 138.365 170.972 138.28 171.083 138.153C171.149 138.068 171.216 137.983 171.294 137.898C171.339 137.802 171.383 137.696 171.428 137.59C171.494 137.409 171.505 137.239 171.461 137.07Z" fill="white"/>
<path d="M325.882 106.497C325.882 106.391 325.849 106.296 325.804 106.2C325.76 106.052 325.671 105.935 325.548 105.829C325.47 105.765 325.381 105.712 325.303 105.648C325.203 105.606 325.114 105.574 325.014 105.531C324.847 105.478 324.692 105.478 324.525 105.51C324.358 105.521 324.213 105.563 324.069 105.648C324.002 105.691 323.924 105.744 323.857 105.786C323.668 105.892 323.512 106.041 323.401 106.221C323.29 106.413 323.234 106.614 323.234 106.827C323.245 106.933 323.268 107.039 323.279 107.145C323.334 107.347 323.446 107.527 323.601 107.676C323.713 107.793 323.846 107.878 324.002 107.92C324.158 107.995 324.313 108.026 324.491 108.026C324.714 108.026 324.936 107.973 325.126 107.867C325.315 107.761 325.47 107.612 325.582 107.432C325.626 107.368 325.682 107.294 325.726 107.23C325.771 107.134 325.804 107.05 325.849 106.954C325.904 106.805 325.915 106.657 325.882 106.497Z" fill="white"/>
<path d="M340.899 161.942C340.855 161.857 340.788 161.794 340.699 161.741C340.621 161.677 340.543 161.634 340.443 161.613C340.232 161.571 339.998 161.581 339.787 161.581C339.72 161.592 339.653 161.603 339.586 161.603C339.486 161.624 339.397 161.666 339.33 161.73C339.275 161.762 339.23 161.804 339.197 161.857C339.13 161.932 339.086 162.006 339.063 162.102C339.052 162.144 339.041 162.187 339.041 162.219C339.03 162.24 339.008 162.272 339.008 162.293C339.008 162.325 339.03 162.346 339.041 162.367H339.03C339.041 162.41 339.052 162.452 339.052 162.484C339.075 162.537 339.108 162.601 339.13 162.654C339.175 162.739 339.241 162.803 339.33 162.856C339.375 162.898 339.431 162.93 339.497 162.951C339.586 162.994 339.686 163.015 339.787 163.015C340.009 163.015 340.232 163.036 340.443 162.983C340.499 162.962 340.565 162.93 340.621 162.909C340.71 162.866 340.777 162.803 340.832 162.718C340.877 162.675 340.91 162.622 340.932 162.558C340.977 162.473 340.999 162.378 340.999 162.282C340.999 162.187 340.966 162.059 340.899 161.942Z" fill="white"/>
</g>
</svg>
