<svg width="34" height="36" viewBox="0 0 34 36" fill="none" xmlns="http://www.w3.org/2000/svg">
<path d="M0.8591 11.701C0.8591 12.7207 0.930515 13.7839 1.06607 14.7784C1.55225 18.3449 3.1041 23.5683 7.73216 28.1941C17.4742 37.9391 27.7031 35.005 29.0474 33.6604L32.1712 30.5366C32.8168 29.8919 33.1719 29.0321 33.1719 28.1152C33.1719 27.2002 32.8168 26.341 32.1698 25.6929C32.13 25.654 32.0869 25.6162 32.0449 25.5834L26.8497 21.5307C26.214 20.9196 25.3735 20.5838 24.4854 20.5838C23.5704 20.5838 22.7112 20.9381 22.0578 21.59L17.3637 26.5614C12.2276 24.396 9.80617 19.3144 9.29712 17.684C10.3123 17.0133 12.8596 14.6414 14.0238 13.5416C14.6693 12.8961 15.0244 12.0372 15.0244 11.123C15.0244 10.2507 14.6979 9.4222 14.105 8.78762L10.192 3.44992C10.1505 3.3939 10.104 3.33957 10.0547 3.28972C9.40835 2.64501 8.54854 2.28992 7.63413 2.28992C6.71914 2.28992 5.85993 2.64503 5.21553 3.29058L1.94604 6.55892C0.936992 7.56825 0.858844 10.7506 0.858844 11.7009L0.8591 11.701Z" fill="#213360"/>
<path d="M20.4961 2.97331C23.3684 3.16487 26.0646 4.384 28.0909 6.40634C30.1143 8.4253 31.336 11.1184 31.5292 13.9904C31.569 14.5737 32.0736 15.0148 32.6573 14.9759C33.2406 14.9361 33.6826 14.4362 33.6419 13.8478C33.4142 10.463 31.9736 7.28763 29.5869 4.90731C27.199 2.52198 24.0212 1.08476 20.637 0.859562C20.0537 0.820634 19.5496 1.26285 19.5106 1.84624C19.5089 1.87061 19.5081 1.89358 19.5081 1.91682C19.5081 2.47107 19.9374 2.93656 20.4964 2.97377L20.4961 2.97331Z" fill="#213360"/>
<path d="M27.5052 15.3279C28.0877 15.2881 28.528 14.7927 28.4899 14.1998C28.3459 12.066 27.4377 10.0636 25.9332 8.56242C24.4312 7.06046 22.4288 6.15558 20.2949 6.01277C19.7116 5.97384 19.2066 6.41522 19.1677 6.9983C19.166 7.02267 19.1651 7.04647 19.1651 7.06972C19.1651 7.62312 19.5945 8.08859 20.1535 8.12559C21.7753 8.23425 23.2961 8.92098 24.4362 10.0602C25.578 11.2003 26.2672 12.7211 26.3767 14.3429C26.4159 14.9263 26.9211 15.3665 27.5051 15.3279L27.5052 15.3279Z" fill="#213360"/>
<path d="M18.8574 11.6464C18.8557 11.6707 18.8549 11.6937 18.8549 11.7161C18.8549 12.2703 19.2851 12.7358 19.8449 12.772C20.1984 12.7952 20.712 12.914 21.1487 13.3503C21.5864 13.788 21.7082 14.3042 21.732 14.6602C21.7735 15.2435 22.279 15.683 22.8629 15.6426C23.4465 15.6026 23.8834 15.103 23.8453 14.5126C23.7748 13.4998 23.3491 12.5555 22.6459 11.8517C21.9398 11.1485 20.9949 10.7244 19.9833 10.6592C19.3996 10.6208 18.8952 11.063 18.8575 11.6464L18.8574 11.6464Z" fill="#213360"/>
</svg>
