<svg width="20" height="19" viewBox="0 0 20 19" fill="none" xmlns="http://www.w3.org/2000/svg">
<path d="M20 8.75C20 13.5825 15.5225 17.5 10 17.5C9.00956 17.5013 8.02323 17.3727 7.06625 17.1175C6.33625 17.4875 4.66 18.1975 1.84 18.66C1.59 18.7 1.4 18.44 1.49875 18.2075C1.94125 17.1625 2.34125 15.77 2.46125 14.5C0.93 12.9625 0 10.95 0 8.75C0 3.9175 4.4775 0 10 0C15.5225 0 20 3.9175 20 8.75ZM6.25 8.75C6.25 8.41848 6.1183 8.10054 5.88388 7.86612C5.64946 7.6317 5.33152 7.5 5 7.5C4.66848 7.5 4.35054 7.6317 4.11612 7.86612C3.8817 8.10054 3.75 8.41848 3.75 8.75C3.75 9.08152 3.8817 9.39946 4.11612 9.63388C4.35054 9.8683 4.66848 10 5 10C5.33152 10 5.64946 9.8683 5.88388 9.63388C6.1183 9.39946 6.25 9.08152 6.25 8.75V8.75ZM11.25 8.75C11.25 8.41848 11.1183 8.10054 10.8839 7.86612C10.6495 7.6317 10.3315 7.5 10 7.5C9.66848 7.5 9.35054 7.6317 9.11612 7.86612C8.8817 8.10054 8.75 8.41848 8.75 8.75C8.75 9.08152 8.8817 9.39946 9.11612 9.63388C9.35054 9.8683 9.66848 10 10 10C10.3315 10 10.6495 9.8683 10.8839 9.63388C11.1183 9.39946 11.25 9.08152 11.25 8.75V8.75ZM15 10C15.3315 10 15.6495 9.8683 15.8839 9.63388C16.1183 9.39946 16.25 9.08152 16.25 8.75C16.25 8.41848 16.1183 8.10054 15.8839 7.86612C15.6495 7.6317 15.3315 7.5 15 7.5C14.6685 7.5 14.3505 7.6317 14.1161 7.86612C13.8817 8.10054 13.75 8.41848 13.75 8.75C13.75 9.08152 13.8817 9.39946 14.1161 9.63388C14.3505 9.8683 14.6685 10 15 10V10Z" fill="#E0004D"/>
</svg>
