<svg width="277" height="167" viewBox="0 0 277 167" fill="none" xmlns="http://www.w3.org/2000/svg">
<path d="M12.9096 166.2C12.9096 166.2 -7.16927 141.658 2.75508 94.2554C8.99709 64.44 35.2196 49.6683 70.3716 51.0786C82.4551 51.5631 102.115 37.1168 130.363 19.3704C190.786 -18.5884 278.19 -2.46686 257.271 82.9157C247.148 124.235 289.113 124.897 268.256 166.2H12.9096Z" fill="#EBF3FA"/>
<path d="M236.422 36.6104C236.33 30.5834 226.301 29.9236 226.301 29.9236C226.301 29.9236 217.268 38.1445 215.316 37.9008C213.364 37.657 221.656 29.3736 221.656 29.3736C218.081 28.0943 207.595 30.1946 207.595 30.1946C207.595 30.1946 205.235 41.8546 203.404 41.1414C201.572 40.4282 206.023 30.9229 206.023 30.9229C202.205 31.0831 197.84 34.3559 197.84 34.3559C191.986 40.0041 199.59 47.1804 199.59 47.1804C199.59 47.1804 198.684 51.2038 195.027 55.1566C195.027 55.1566 194.25 55.8607 193.312 57.1542L194.28 57.3989C194.425 57.1612 194.576 56.9346 194.733 56.72C194.733 56.718 194.734 56.717 194.736 56.716C194.738 56.7129 194.741 56.7099 194.743 56.7069C194.848 56.5749 194.997 56.3876 195.181 56.1609C195.181 56.1609 195.181 56.1599 195.182 56.1599C195.182 56.1589 195.183 56.1599 195.183 56.1589C195.626 55.6593 195.935 55.2855 196.14 55.0105C196.141 55.0095 196.141 55.0085 196.142 55.0075C197.489 53.428 199.367 51.4012 200.344 51.1232C200.344 51.1232 200.275 50.9469 200.25 50.6306C200.28 50.7877 200.311 50.9519 200.344 51.1232C201.097 55.0659 209.223 57.7465 214.076 57.9731C218.928 58.1998 217.249 56.3997 215.304 53.6748C213.359 50.9499 208.014 50.1863 206.688 48.9755C205.361 47.7647 207.818 47.5108 210.832 48.5232C213.846 49.5356 214.601 52.9787 219.446 54.7043C224.292 56.4299 230.455 48.1082 230.455 48.1082C226.754 48.2976 221.087 44.8635 221.152 43.6295C221.217 42.3955 230.292 44.8152 231.801 44.8222C233.309 44.8283 236.514 42.6373 236.422 36.6104Z" fill="#DFEBFD"/>
<path d="M245.101 95.586C249.822 87.6572 237.278 78.848 237.278 78.848C237.278 78.848 218.9 82.4069 216.551 80.5423C214.202 78.6777 231.666 74.4519 231.666 74.4519C228.033 69.9511 212.677 64.3795 212.677 64.3795C212.677 64.3795 200.237 77.7097 198.421 75.3283C196.606 72.9469 210.043 64.0833 210.043 64.0833C204.937 61.2658 196.618 62.0747 196.618 62.0747C184.45 64.7975 188.598 80.1777 188.598 80.1777C188.598 80.1777 184.187 84.7047 176.244 86.9591C176.244 86.9591 174.665 87.2613 172.404 88.2032L173.468 89.2881C173.848 89.0937 174.226 88.9174 174.604 88.7623C174.606 88.7602 174.608 88.7592 174.611 88.7592C174.617 88.7572 174.623 88.7552 174.628 88.7522C174.869 88.6635 175.215 88.5376 175.638 88.3875C175.638 88.3875 175.639 88.3875 175.64 88.3875C175.641 88.3865 175.641 88.3875 175.642 88.3865C176.62 88.0853 177.323 87.8426 177.81 87.6471C177.812 87.6461 177.813 87.6461 177.814 87.6451C180.839 86.6539 184.915 85.4995 186.412 85.9115C186.412 85.9115 186.465 85.6264 186.686 85.1942C186.599 85.4229 186.507 85.6616 186.412 85.9115C184.226 91.6463 192.667 101.581 198.81 105.722C204.953 109.863 204.21 106.185 203.863 101.091C203.515 95.997 197.162 90.7669 196.405 88.1377C195.649 85.5075 199.056 87.1243 202.173 90.8324C205.289 94.5404 203.507 99.6265 208.438 105.716C213.369 111.806 228.086 105.841 228.086 105.841C223.111 103.156 218.481 94.1878 219.557 92.6305C220.633 91.0721 230.519 101.419 232.48 102.623C234.441 103.83 240.38 103.515 245.101 95.586Z" fill="#CDE0FB"/>
<path d="M75.3833 66.0944C78.1823 60.3848 88.0498 64.2066 88.0498 64.2066C88.0498 64.2066 92.9694 76.0601 94.9419 76.6947C96.9144 77.3283 92.7281 65.7438 92.7281 65.7438C96.7146 66.1095 105.775 72.7691 105.775 72.7691C105.775 72.7691 102.78 84.9418 104.849 85.0748C106.918 85.2068 106.947 74.1622 106.947 74.1622C110.519 76.0097 113.211 81.0706 113.211 81.0706C116.256 89.0589 105.772 92.5302 105.772 92.5302C105.772 92.5302 104.826 96.7711 106.538 102.165C106.538 102.165 106.962 103.182 107.276 104.833L106.243 104.637C106.212 104.346 106.17 104.062 106.117 103.788C106.117 103.786 106.117 103.785 106.116 103.783C106.115 103.779 106.114 103.775 106.114 103.771C106.073 103.599 106.015 103.354 105.941 103.056V103.055C105.941 103.054 105.94 103.054 105.941 103.054C105.743 102.38 105.618 101.886 105.546 101.534C105.546 101.533 105.546 101.532 105.546 101.531C104.971 99.4254 104.09 96.6573 103.283 95.9592C103.283 95.9592 103.428 95.8212 103.595 95.531C103.495 95.668 103.392 95.8101 103.283 95.9592C100.791 99.3872 91.8316 98.3375 87.0996 96.4004C82.3676 94.4633 84.7793 93.4902 87.8622 91.7535C90.9442 90.0168 96.3871 91.6608 98.1983 91.0947C100.009 90.5276 97.7785 89.1948 94.447 88.8231C91.1156 88.4514 88.847 91.4009 83.4467 90.8973C78.0464 90.3926 75.9106 79.7177 75.9106 79.7177C79.3557 81.541 86.3086 80.7795 86.8014 79.5737C87.2953 78.3669 77.5474 76.6484 76.1043 75.9845C74.6582 75.3166 72.5843 71.804 75.3833 66.0944Z" fill="#CDE0FB"/>
<path opacity="0.5" d="M237.478 164.961L226.808 164.958L221.164 164.957C218.974 164.956 217.183 163.175 217.183 160.998L217.195 121.835C217.195 119.659 218.987 117.879 221.179 117.88L226.183 117.882L237.492 117.885C239.682 117.885 241.473 119.666 241.473 121.843L241.462 161.006C241.46 163.181 239.668 164.961 237.478 164.961Z" fill="#C0D8FB"/>
<path d="M239.74 153.859L239.457 151.798L239.174 149.736C239.102 149.21 238.819 148.761 238.422 148.461C238.026 148.162 237.515 148.012 236.985 148.084C236.927 148.092 236.87 148.103 236.813 148.116C237.007 147.837 237.117 147.522 237.148 147.203C237.508 148.061 238.455 148.563 239.393 148.339C240.433 148.092 241.08 147.045 240.832 146.011L240.344 143.989L239.856 141.965C239.732 141.449 239.406 141.03 238.981 140.77C238.556 140.511 238.033 140.412 237.513 140.536C236.472 140.783 235.825 141.831 236.074 142.864L236.808 145.913C236.696 145.754 236.559 145.609 236.397 145.486C236.062 145.231 235.668 145.104 235.274 145.093C235.467 144.845 235.594 144.557 235.65 144.257C235.723 143.863 235.672 143.448 235.489 143.072C235.71 142.349 235.491 141.53 234.87 141.02L231.641 138.369C230.816 137.692 229.585 137.808 228.904 138.627C228.274 139.384 228.328 140.486 228.991 141.183C228.82 141.182 228.646 141.202 228.473 141.25L226.451 141.799L224.431 142.348C223.729 142.539 223.22 143.095 223.057 143.755L222.845 143.25L222.038 141.33C221.625 140.35 220.481 139.883 219.495 140.293C218.508 140.703 218.037 141.839 218.45 142.819L219.257 144.739L219.774 145.969C219.089 146.24 218.586 146.889 218.546 147.666L218.441 149.744L218.335 151.822C218.308 152.352 218.503 152.845 218.836 153.213C219.17 153.581 219.645 153.821 220.179 153.849C220.407 153.86 220.627 153.829 220.835 153.767C220.634 154.168 220.578 154.631 220.681 155.073C220.322 155.278 220.026 155.595 219.857 156.002L219.056 157.925L218.256 159.848C218.052 160.339 218.069 160.869 218.26 161.325C218.451 161.782 218.817 162.167 219.311 162.371C220.082 162.687 220.946 162.468 221.482 161.891C221.609 162.188 221.811 162.458 222.087 162.668C222.936 163.314 224.163 163.152 224.813 162.308L226.085 160.656L227.359 159.004C227.532 158.78 227.645 158.529 227.706 158.269C228.149 158.313 228.609 158.209 229.002 157.94L229.336 157.712L228.874 158.311L227.602 159.963C226.951 160.807 227.114 162.025 227.964 162.671C228.813 163.317 230.04 163.155 230.69 162.311L231.962 160.659L233.236 159.006C233.252 158.985 233.267 158.963 233.282 158.941C233.384 159.105 233.511 159.251 233.654 159.376L233.201 159.964C232.551 160.808 232.714 162.026 233.563 162.672C234.412 163.318 235.639 163.156 236.289 162.312L238.835 159.008C239.16 158.587 239.281 158.071 239.215 157.581C239.15 157.09 238.897 156.624 238.472 156.301C238.327 156.191 238.17 156.106 238.008 156.043C238.031 156.041 238.054 156.04 238.079 156.037C239.136 155.889 239.884 154.911 239.74 153.859ZM222.217 152.015L222.254 151.306C222.377 151.512 222.539 151.699 222.741 151.853C222.817 151.91 222.896 151.96 222.978 152.005L222.088 152.616C222.161 152.428 222.207 152.227 222.217 152.015ZM235.32 150.257L235.7 153.03C235.535 152.696 235.281 152.423 234.971 152.235C234.595 152.005 234.142 151.902 233.681 151.967C233.88 151.846 234.062 151.69 234.211 151.496L235.304 150.078C235.308 150.138 235.312 150.197 235.32 150.257ZM230.897 142.769L231.387 143.171L230.883 143.516C230.937 143.276 230.944 143.023 230.897 142.769ZM231.32 148.893C231.271 148.593 231.151 148.313 230.976 148.073C231.121 148.019 231.262 147.95 231.394 147.859L232.927 146.809L231.32 148.893ZM232.592 152.508C232.181 152.167 231.649 152.011 231.127 152.069L231.168 151.549C231.261 151.661 231.366 151.765 231.487 151.857C231.918 152.184 232.444 152.303 232.944 152.232C232.815 152.309 232.698 152.403 232.592 152.508ZM228.675 145.198C228.249 145.836 228.227 146.697 228.691 147.365C228.699 147.377 228.709 147.389 228.718 147.401C228.577 147.454 228.442 147.522 228.319 147.606C228.407 147.331 228.433 147.042 228.396 146.761C228.33 146.27 228.077 145.804 227.652 145.482C227.65 145.481 227.648 145.479 227.646 145.478L228.675 145.198ZM226.74 149.841L227.489 148.868C227.478 148.929 227.47 148.989 227.465 149.052L227.323 150.839C227.042 150.587 226.697 150.426 226.335 150.366L226.74 149.841ZM223.23 158.005L223.45 157.476C223.61 157.09 223.632 156.681 223.543 156.301C223.588 156.276 223.632 156.25 223.675 156.221L227.124 153.859C227.146 153.844 227.165 153.826 227.188 153.81C227.234 153.999 227.308 154.176 227.407 154.339L226.793 154.76C226.381 155.043 226.114 155.46 226.007 155.913C225.359 155.85 224.693 156.108 224.27 156.657L223.23 158.005ZM232.378 155.624L232.486 156.071C232.312 155.993 232.131 155.943 231.947 155.92L232.378 155.624ZM236.484 156.075L236.334 155.452L236.306 155.333C236.517 155.59 236.791 155.791 237.1 155.913C236.889 155.935 236.68 155.987 236.484 156.075ZM224.707 146.125L223.652 147.494L222.38 149.146C222.374 149.154 222.37 149.162 222.364 149.169L222.43 147.86C222.432 147.827 222.43 147.793 222.43 147.76C222.49 147.742 222.55 147.721 222.609 147.697C223.401 147.368 223.858 146.572 223.796 145.764C224.061 145.957 224.376 146.083 224.707 146.125Z" fill="#AFCDFB"/>
<path opacity="0.5" d="M226.808 164.958L221.164 164.957C218.974 164.956 217.183 163.175 217.183 160.998L217.195 121.835C217.195 119.659 218.987 117.879 221.179 117.88L226.183 117.882C226.596 118.586 226.837 119.427 226.836 120.329L226.823 164.563C226.824 164.696 226.819 164.828 226.808 164.958Z" fill="#AFCDFB"/>
<path d="M241.212 119.732L226.058 119.727L217.457 119.724C217.03 119.725 216.683 119.377 216.683 118.954L216.684 115.266C216.684 114.843 217.033 114.498 217.459 114.498L226.048 114.5C226.049 114.5 226.049 114.5 226.05 114.5L241.214 114.504C241.64 114.504 241.988 114.85 241.988 115.273L241.987 118.961C241.987 119.385 241.638 119.732 241.212 119.732Z" fill="#F99746"/>
<path d="M226.058 119.727L217.457 119.724C217.03 119.725 216.683 119.377 216.683 118.954L216.684 115.266C216.684 114.843 217.033 114.498 217.459 114.498L226.048 114.5C226.049 114.5 226.049 114.5 226.05 114.5C226.474 114.501 226.822 114.846 226.822 115.269L226.821 118.957C226.82 119.377 226.479 119.721 226.058 119.727Z" fill="#EF7E29"/>
<path d="M208.263 14.8755H95.728V165.053H208.263V14.8755Z" fill="#FF6B6B"/>
<path d="M202.899 19.7419H102.327V158.314H202.899V19.7419Z" fill="white"/>
<path d="M132.102 14.8755V19.9626C132.102 22.7721 134.393 25.0497 137.219 25.0497H164.703C167.529 25.0497 169.819 22.7721 169.819 19.9626V14.8755H132.102Z" fill="#F99746"/>
<path d="M156.529 152.017C154.933 152.53 153.377 152.798 152.154 152.697C150.289 152.542 149.238 151.571 149.196 149.963C149.163 148.686 149.696 147.568 150.742 146.663C150.732 146.576 150.724 146.488 150.717 146.401C150.648 145.501 150.841 144.903 151.292 144.624C152.02 144.172 153.102 144.79 153.148 144.816L152.905 145.227C152.663 145.087 151.943 144.779 151.544 145.028C151.2 145.241 151.16 145.831 151.189 146.309C152.04 145.698 153.151 145.198 154.505 144.835C155.506 144.565 156.622 144.386 157.63 144.305C157.635 144.194 157.644 144.093 157.657 144.011C157.69 143.791 157.768 143.532 157.986 143.48C158.069 143.462 158.229 143.464 158.372 143.681C158.464 143.82 158.51 144.019 158.519 144.259C158.866 144.251 159.19 144.257 159.475 144.278C159.478 144.272 159.48 144.266 159.483 144.26C159.413 143.696 159.463 143.032 159.557 142.603C159.679 142.052 159.877 141.773 160.156 141.747C160.324 141.732 160.47 141.821 160.535 141.98C160.692 142.354 160.399 143.364 159.976 144.332C159.976 144.334 159.977 144.335 159.977 144.337C160.374 144.403 160.644 144.513 160.728 144.665C160.792 144.78 160.8 144.957 160.632 145.111C160.311 145.404 160.055 145.331 159.931 145.26C159.827 145.201 159.741 145.099 159.674 144.968C159.354 145.598 159.004 146.137 158.73 146.364C158.478 146.576 158.256 146.491 158.173 146.445C158.129 146.421 158.088 146.389 158.051 146.348C157.941 146.613 157.819 146.868 157.686 147.098C157.185 147.971 156.62 148.421 156.053 148.394C155.821 148.383 155.615 148.291 155.441 148.125C155.128 148.799 154.734 149.441 154.343 149.92C153.945 150.408 153.437 150.587 152.912 150.424C151.983 150.136 151.143 148.8 150.827 147.218C150.033 147.989 149.647 148.903 149.673 149.951C149.709 151.323 150.556 152.087 152.191 152.222C156.319 152.564 163.556 148.752 164.103 145.947C163.659 148.228 160.225 150.827 156.529 152.017ZM151.249 146.853C151.501 148.522 152.342 149.749 153.055 149.971C153.39 150.074 153.698 149.957 153.971 149.621C154.435 149.051 154.837 148.348 155.125 147.662C155.042 147.485 154.976 147.277 154.926 147.04C154.811 146.49 154.791 145.735 154.928 145.217C154.158 145.406 153.385 145.662 152.669 145.998C152.121 146.256 151.648 146.541 151.249 146.853ZM155.655 147.634C155.758 147.789 155.895 147.911 156.077 147.919C156.44 147.934 156.876 147.55 157.272 146.862C157.478 146.503 157.642 146.121 157.766 145.753C157.686 145.455 157.645 145.106 157.631 144.786C157.1 144.828 156.521 144.9 155.925 145.007C156.236 145.607 156.055 146.622 155.655 147.634ZM158.265 145.761C158.34 145.985 158.407 146.028 158.407 146.029C158.675 145.8 158.98 145.306 159.259 144.742C159.032 144.734 158.775 144.732 158.496 144.739C158.458 145.057 158.377 145.407 158.265 145.761ZM155.454 145.15C155.332 145.402 155.245 146.21 155.393 146.93C155.632 146.141 155.682 145.458 155.454 145.15ZM160.17 144.845C160.171 144.846 160.172 144.845 160.173 144.846C160.171 144.846 160.171 144.846 160.17 144.845ZM160.099 142.404C160.057 142.525 160.016 142.699 159.986 142.901C160.043 142.706 160.082 142.536 160.099 142.404Z" fill="#F99746"/>
<path d="M132.532 81.6569H114.342V63.5891H132.532V81.6569ZM115.199 80.8057H131.675V64.4393H115.199V80.8057Z" fill="#FED9C8"/>
<path d="M123.891 78.024C123.509 78.024 123.145 77.8558 122.9 77.5606L117.287 70.8164C116.834 70.2735 116.912 69.4686 117.458 69.0193C118.005 68.57 118.815 68.6466 119.267 69.1896L123.718 74.5386L131.772 61.1127C132.135 60.5073 132.924 60.3088 133.533 60.6694C134.143 61.0301 134.343 61.8138 133.979 62.4192L124.993 77.4004C124.779 77.757 124.404 77.9877 123.987 78.02C123.956 78.023 123.923 78.024 123.891 78.024Z" fill="#F99746"/>
<path d="M132.532 109.907H114.342V91.8394H132.532V109.907ZM115.199 109.056H131.675V92.6906H115.199V109.056Z" fill="#FED9C8"/>
<path d="M123.891 106.119C123.509 106.119 123.145 105.951 122.9 105.656L117.287 98.9116C116.834 98.3687 116.912 97.5638 117.458 97.1145C118.005 96.6652 118.815 96.7418 119.267 97.2848L123.718 102.634L131.772 89.2089C132.135 88.6035 132.924 88.405 133.533 88.7656C134.143 89.1263 134.343 89.91 133.979 90.5154L124.993 105.497C124.779 105.853 124.404 106.084 123.987 106.116C123.956 106.118 123.923 106.119 123.891 106.119Z" fill="#F99746"/>
<path d="M132.532 137.571H114.342V119.504H132.532V137.571ZM115.199 136.721H131.675V120.356H115.199V136.721Z" fill="#FED9C8"/>
<path d="M123.891 133.519C123.509 133.519 123.145 133.351 122.9 133.056L117.287 126.312C116.834 125.769 116.912 124.964 117.458 124.514C118.005 124.065 118.815 124.142 119.267 124.685L123.718 130.034L131.772 116.608C132.135 116.002 132.924 115.804 133.533 116.165C134.143 116.525 134.343 117.309 133.979 117.914L124.993 132.896C124.779 133.252 124.404 133.483 123.987 133.515C123.956 133.518 123.923 133.519 123.891 133.519Z" fill="#F99746"/>
<g opacity="0.5">
<g opacity="0.5">
<path opacity="0.5" d="M168.507 67.8042H144.789V69.5671H168.507V67.8042Z" fill="#FED9C8"/>
<path opacity="0.5" d="M188.66 67.8042H183.269V69.5671H188.66V67.8042Z" fill="#FED9C8"/>
</g>
<g opacity="0.5">
<path opacity="0.5" d="M168.507 75.6782H144.789V77.4411H168.507V75.6782Z" fill="#FED9C8"/>
<path opacity="0.5" d="M188.661 75.6782H180.624V77.4411H188.661V75.6782Z" fill="#FED9C8"/>
</g>
<g opacity="0.5">
<path opacity="0.5" d="M188.66 71.7412H182.054V73.5041H188.66V71.7412Z" fill="#FED9C8"/>
<path opacity="0.5" d="M168.917 71.7412H162.31V73.5041H168.917V71.7412Z" fill="#FED9C8"/>
<path opacity="0.5" d="M159.467 71.7412H144.789V73.5041H159.467V71.7412Z" fill="#FED9C8"/>
</g>
</g>
<g opacity="0.5">
<g opacity="0.5">
<path opacity="0.5" d="M167.602 94.9363H144.789V96.6991H167.602V94.9363Z" fill="#FED9C8"/>
</g>
<g opacity="0.5">
<path opacity="0.5" d="M168.507 102.809H144.789V104.572H168.507V102.809Z" fill="#FED9C8"/>
</g>
<g opacity="0.5">
<path opacity="0.5" d="M167.306 98.8733H161.167V100.636H167.306V98.8733Z" fill="#FED9C8"/>
<path opacity="0.5" d="M159.467 98.8733H144.789V100.636H159.467V98.8733Z" fill="#FED9C8"/>
</g>
</g>
<g opacity="0.5">
<g opacity="0.5">
<path opacity="0.5" d="M168.507 122.838H144.789V124.601H168.507V122.838Z" fill="#FED9C8"/>
</g>
<g opacity="0.5">
<path opacity="0.5" d="M168.507 130.712H144.789V132.475H168.507V130.712Z" fill="#FED9C8"/>
</g>
<g opacity="0.5">
<path opacity="0.5" d="M171.482 126.775H161.167V128.538H171.482V126.775Z" fill="#FED9C8"/>
<path opacity="0.5" d="M159.467 126.775H144.789V128.538H159.467V126.775Z" fill="#FED9C8"/>
</g>
</g>
<path d="M126.786 147.23H114.342V148.482H126.786V147.23Z" fill="#FED9C8"/>
<path d="M142.111 147.23H129.667V148.482H142.111V147.23Z" fill="#FED9C8"/>
<path d="M131.599 150.006H114.342V151.257H131.599V150.006Z" fill="#FED9C8"/>
<path d="M70.4749 81.724V124.929C70.4749 127.58 68.2915 129.75 65.6212 129.75H39.7678C39.0762 129.75 38.418 129.605 37.8197 129.342C36.1129 128.594 34.9142 126.893 34.9142 124.929V81.724C34.9142 79.0716 37.0986 76.9028 39.7678 76.9028H65.6212C68.2915 76.9038 70.4749 79.0727 70.4749 81.724Z" fill="#FCECDB"/>
<path d="M59.023 93.15C56.2909 92.1306 54.9086 89.1055 55.9339 86.3927C56.9592 83.68 60.0047 82.306 62.7368 83.3244C65.4678 84.3428 66.8511 87.3689 65.8258 90.0816C64.8005 92.7944 61.7541 94.1684 59.023 93.15Z" fill="#F7E0CB"/>
<path d="M65.8245 90.0819L55.9326 86.392C56.9579 83.6792 60.0034 82.3052 62.7354 83.3236C65.4675 84.3431 66.8508 87.3691 65.8245 90.0819Z" fill="#EFCBAB"/>
<path d="M41.1685 92.3033C38.907 90.4699 38.5723 87.1638 40.417 84.9194C42.2618 82.6751 45.5891 82.3396 47.8507 84.173C50.1102 86.0054 50.4468 89.3125 48.6021 91.5568C46.7564 93.8012 43.428 94.1356 41.1685 92.3033Z" fill="#F7E0CB"/>
<path d="M48.6014 91.5568L40.4163 84.9194C42.261 82.6751 45.5884 82.3396 47.8499 84.173C50.1104 86.0054 50.4471 89.3115 48.6014 91.5568Z" fill="#EFCBAB"/>
<path d="M59.023 125.162C56.2909 124.143 54.9086 121.118 55.9339 118.405C56.9592 115.692 60.0047 114.317 62.7368 115.337C65.4678 116.355 66.8511 119.381 65.8258 122.094C64.8005 124.807 61.7541 126.181 59.023 125.162Z" fill="#F7E0CB"/>
<path d="M65.8245 122.451L55.9326 118.761C56.9579 116.048 60.0034 114.674 62.7354 115.693C65.4675 116.712 66.8508 119.738 65.8245 122.451Z" fill="#EFCBAB"/>
<path d="M46.5908 125.075C49.2728 123.934 50.5162 120.85 49.3678 118.186C48.2195 115.521 45.1143 114.286 42.4323 115.427C39.7502 116.568 38.5068 119.652 39.6552 122.316C40.8035 124.98 43.9087 126.215 46.5908 125.075Z" fill="#F7E0CB"/>
<path d="M48.6014 123.925L40.4163 117.287C42.261 115.043 45.5884 114.708 47.8499 116.541C50.1104 118.373 50.4471 121.68 48.6014 123.925Z" fill="#EFCBAB"/>
<path d="M63.14 109.582C60.5023 110.824 57.3524 109.706 56.1029 107.086C54.8535 104.468 55.9772 101.339 58.6139 100.098C61.2507 98.8565 64.4016 99.9736 65.651 102.592C66.9005 105.211 65.7758 108.341 63.14 109.582Z" fill="#F7E0CB"/>
<path d="M65.651 102.592L56.1029 107.087C54.8535 104.469 55.9772 101.339 58.6139 100.098C61.2507 98.8561 64.4016 99.9732 65.651 102.592Z" fill="#EFCBAB"/>
<path d="M39.6057 102.89C40.6898 100.198 43.7657 98.8907 46.4734 99.9675C49.1822 101.044 50.4995 104.098 49.4154 106.789C48.3313 109.48 45.2554 110.788 42.5477 109.712C39.8389 108.635 38.5215 105.58 39.6057 102.89Z" fill="#F7E0CB"/>
<path d="M42.5461 109.711L46.4729 99.9673C49.1816 101.044 50.499 104.097 49.4149 106.789C48.3308 109.48 45.2549 110.788 42.5461 109.711Z" fill="#EFCBAB"/>
<path opacity="0.5" d="M70.4749 87.6365V125.233C70.4749 127.717 68.477 129.75 66.034 129.75H42.3772C41.7444 129.75 41.142 129.614 40.5944 129.367V92.8414C40.5944 91.3475 41.2221 89.9957 42.222 89.0447C42.5912 88.6932 43.0121 88.395 43.4725 88.1663C44.1499 87.8279 44.9105 87.6375 45.7127 87.6375H70.4749V87.6365Z" fill="#EFCBAB"/>
<path d="M41.4404 135.905V92.7001C41.4404 90.0487 43.6249 87.8789 46.2941 87.8789H72.1475C74.8167 87.8789 77.0011 90.0487 77.0011 92.7001V135.905C77.0011 138.556 74.8167 140.726 72.1475 140.726H46.2931C43.6239 140.725 41.4404 138.556 41.4404 135.905Z" fill="#FCECDB"/>
<path d="M65.5474 104.127C62.8153 103.107 61.4331 100.082 62.4584 97.3692C63.4836 94.6565 66.5291 93.2814 69.2612 94.3009C71.9923 95.3193 73.3755 98.3453 72.3503 101.058C71.325 103.771 68.2785 105.145 65.5474 104.127Z" fill="#F7E0CB"/>
<path d="M72.3508 101.058L62.4589 97.3692C63.4842 94.6565 66.5296 93.2814 69.2617 94.3009C71.9928 95.3193 73.3761 98.3454 72.3508 101.058Z" fill="#EFCBAB"/>
<path d="M47.6948 103.278C45.4332 101.445 45.0986 98.1389 46.9433 95.8945C48.788 93.6502 52.1154 93.3147 54.3769 95.1481C56.6364 96.9805 56.9731 100.287 55.1284 102.532C53.2837 104.777 49.9543 105.112 47.6948 103.278Z" fill="#F7E0CB"/>
<path d="M55.1294 102.532L46.9443 95.8945C48.7891 93.6502 52.1164 93.3147 54.378 95.1481C56.6375 96.9815 56.9742 100.288 55.1294 102.532Z" fill="#EFCBAB"/>
<path d="M65.5474 136.137C62.8153 135.118 61.4331 132.093 62.4584 129.38C63.4836 126.667 66.5291 125.292 69.2612 126.312C71.9923 127.33 73.3755 130.356 72.3503 133.069C71.325 135.783 68.2785 137.157 65.5474 136.137Z" fill="#F7E0CB"/>
<path d="M72.3508 133.427L62.4589 129.738C63.4842 127.026 66.5296 125.651 69.2617 126.67C71.9928 127.688 73.3761 130.715 72.3508 133.427Z" fill="#EFCBAB"/>
<path d="M47.6948 135.291C45.4332 133.458 45.0986 130.152 46.9433 127.907C48.788 125.663 52.1154 125.327 54.3769 127.161C56.6364 128.993 56.9731 132.299 55.1284 134.545C53.2837 136.789 49.9543 137.123 47.6948 135.291Z" fill="#F7E0CB"/>
<path d="M55.1294 134.901L46.9443 128.263C48.7891 126.019 52.1164 125.684 54.378 127.517C56.6375 129.349 56.9742 132.655 55.1294 134.901Z" fill="#EFCBAB"/>
<path d="M69.6693 120.558C67.0316 121.8 63.8817 120.681 62.6322 118.063C61.3828 115.444 62.5065 112.315 65.1432 111.073C67.779 109.832 70.9309 110.949 72.1803 113.568C73.4298 116.187 72.3051 119.316 69.6693 120.558Z" fill="#F7E0CB"/>
<path d="M72.1803 113.569L62.6322 118.063C61.3828 115.444 62.5065 112.315 65.1432 111.073C67.78 109.832 70.9309 110.949 72.1803 113.569Z" fill="#EFCBAB"/>
<path d="M53.4951 120.453C56.0768 119.103 57.0683 115.93 55.7096 113.366C54.3509 110.801 51.1566 109.816 48.5749 111.166C45.9932 112.516 45.0017 115.688 46.3604 118.253C47.7191 120.817 50.9134 121.802 53.4951 120.453Z" fill="#F7E0CB"/>
<path d="M49.0724 120.687L52.9981 110.943C55.7069 112.02 57.0242 115.073 55.9401 117.765C54.857 120.456 51.7811 121.764 49.0724 120.687Z" fill="#EFCBAB"/>
<path d="M72.9972 105.112H32.3922V165.303H72.9972V105.112Z" fill="#EF7E29"/>
<path d="M78.6545 105.112H38.0494V165.304H78.6545V105.112Z" fill="#F99746"/>
<path d="M38.0481 108.604L36.1029 111.61H32.3922V105.112H38.0481V108.604Z" fill="#D8661A"/>
<path d="M34.5802 109.853H28.9243L32.3927 105.112H38.0485L34.5802 109.853Z" fill="#F99746"/>
<path opacity="0.5" d="M58.9924 165.496H38.0494V107.854L58.9924 109.853V165.496Z" fill="#EFCBAB"/>
<path d="M78.6545 109.853L75.3606 111.61H40.0067L38.0494 108.604V105.112L78.6545 109.853Z" fill="#EF7E29"/>
<path d="M81.5235 109.853H40.9184L38.0494 105.112H78.6545L81.5235 109.853Z" fill="#F99746"/>
<path d="M65.4567 165.222H21.7779C19.0742 165.222 16.8613 163.024 16.8613 160.338V134.07C16.8613 131.384 19.0742 129.186 21.7779 129.186H65.4567C68.1604 129.186 70.3733 131.384 70.3733 134.07V160.338C70.3733 163.024 68.1614 165.222 65.4567 165.222Z" fill="#FCECDB"/>
<path d="M33.313 140.791C32.2807 143.561 29.218 144.961 26.4707 143.921C23.7234 142.882 22.332 139.796 23.3644 137.027C24.3957 134.26 27.4594 132.858 30.2067 133.897C32.953 134.937 34.3444 138.024 33.313 140.791Z" fill="#F7E0CB"/>
<path d="M30.2067 133.898L26.4707 143.922C23.7234 142.882 22.332 139.797 23.3644 137.028C24.3957 134.26 27.4594 132.858 30.2067 133.898Z" fill="#EFCBAB"/>
<path d="M32.4568 158.883C30.5999 161.175 27.2533 161.514 24.9806 159.645C22.7079 157.775 22.3682 154.404 24.2251 152.112C26.0809 149.822 29.4286 149.481 31.7013 151.35C33.974 153.22 34.3117 156.594 32.4568 158.883Z" fill="#F7E0CB"/>
<path d="M31.6995 151.35L24.9788 159.645C22.7061 157.775 22.3664 154.404 24.2232 152.112C26.0791 149.822 29.4268 149.481 31.6995 151.35Z" fill="#EFCBAB"/>
<path d="M65.7289 140.791C64.6965 143.561 61.6338 144.961 58.8866 143.921C56.1393 142.882 54.7479 139.796 55.7803 137.027C56.8116 134.26 59.8753 132.858 62.6226 133.897C65.3689 134.937 66.7603 138.024 65.7289 140.791Z" fill="#F7E0CB"/>
<path d="M62.6226 133.898L58.8866 143.922C56.1393 142.882 54.7479 139.797 55.7803 137.028C56.8116 134.26 59.8763 132.858 62.6226 133.898Z" fill="#EFCBAB"/>
<path d="M64.8694 158.884C63.0774 161.096 59.895 161.49 57.6315 159.829C57.5504 159.772 57.4723 159.71 57.3932 159.645C55.1195 157.777 54.7807 154.404 56.6376 152.112C58.4925 149.822 61.8402 149.481 64.1139 151.351C64.1909 151.415 64.266 151.48 64.34 151.547C66.4078 153.449 66.6614 156.671 64.8694 158.884Z" fill="#F7E0CB"/>
<path d="M64.3382 151.548L57.6297 159.829C57.5485 159.772 57.4704 159.71 57.3913 159.645C55.1176 157.777 54.7789 154.404 56.6358 152.112C58.4907 149.822 61.8383 149.481 64.112 151.351C64.1901 151.415 64.2651 151.48 64.3382 151.548Z" fill="#EFCBAB"/>
<path d="M49.9508 136.618C51.2083 139.29 50.0765 142.482 47.4246 143.749C44.7726 145.015 41.6044 143.876 40.3469 141.204C39.0904 138.533 40.2212 135.339 42.8731 134.073C45.5251 132.807 48.6943 133.946 49.9508 136.618Z" fill="#F7E0CB"/>
<path d="M42.873 134.072L47.4244 143.747C44.7724 145.014 41.6043 143.875 40.3467 141.203C39.0902 138.531 40.222 135.338 42.873 134.072Z" fill="#EFCBAB"/>
<path d="M43.1754 160.468C40.4494 159.369 39.1259 156.254 40.2172 153.509C41.3074 150.764 44.3995 149.429 47.1244 150.528C49.8484 151.627 51.1739 154.743 50.0827 157.488C48.9925 160.233 45.8994 161.567 43.1754 160.468Z" fill="#F7E0CB"/>
<path d="M50.0835 157.488L40.2169 153.509C41.3071 150.764 44.3992 149.429 47.1242 150.528C49.8482 151.627 51.1737 154.743 50.0835 157.488Z" fill="#EFCBAB"/>
<path d="M129.143 160.984C129.143 162.171 128.654 163.249 127.866 164.032C127.078 164.814 125.993 165.3 124.798 165.3H104.284C101.896 165.3 99.9417 163.357 99.9417 160.984C99.9417 159.798 100.43 158.72 101.217 157.937C102.005 157.156 103.091 156.67 104.285 156.67H124.799C127.187 156.671 129.143 158.612 129.143 160.984Z" fill="#2B478B"/>
<path d="M118.559 160.984C118.559 162.171 118.071 163.249 117.284 164.032C116.496 164.814 115.41 165.3 114.216 165.3H104.282C101.894 165.3 99.9398 163.357 99.9398 160.984C99.9398 159.798 100.429 158.72 101.216 157.937C102.004 157.156 103.089 156.67 104.283 156.67H114.217C116.605 156.671 118.559 158.612 118.559 160.984Z" fill="#699FF0"/>
<path opacity="0.4" d="M125.146 158.989H105.578C105.239 158.989 104.962 158.714 104.962 158.378V158.24C104.962 157.903 105.239 157.628 105.578 157.628H125.146C125.484 157.628 125.761 157.903 125.761 158.24V158.378C125.761 158.713 125.484 158.989 125.146 158.989Z" fill="#E9F3FE"/>
<path d="M111.637 148.763C112.204 149.887 112.257 151.14 111.884 152.253C111.511 153.366 110.714 154.339 109.582 154.902L90.1384 164.581C87.8749 165.708 85.0931 164.789 83.9583 162.54C83.3914 161.416 83.3386 160.163 83.7098 159.051C84.083 157.939 84.8791 156.966 86.0119 156.402L105.456 146.724C107.721 145.597 110.502 146.513 111.637 148.763Z" fill="#EF7E29"/>
<path d="M101.606 153.755C102.173 154.879 102.226 156.132 101.855 157.244C101.483 158.358 100.685 159.331 99.5537 159.894L90.1384 164.58C87.8749 165.707 85.0931 164.787 83.9583 162.539C83.3914 161.415 83.3386 160.162 83.7098 159.05C84.083 157.937 84.8791 156.965 86.0119 156.401L95.4271 151.715C97.6917 150.588 100.471 151.507 101.606 153.755Z" fill="#F99746"/>
<path opacity="0.5" d="M106.893 148.755L88.347 157.988C88.0265 158.148 87.632 158.017 87.4707 157.699L87.4048 157.568C87.2436 157.249 87.3754 156.857 87.6959 156.697L106.242 147.465C106.563 147.305 106.957 147.436 107.119 147.754L107.185 147.885C107.346 148.204 107.215 148.596 106.893 148.755Z" fill="#FFE2CC"/>
<path d="M196.611 106.698C196.611 106.698 197.534 109.52 197.454 110.166C197.375 110.811 196.796 113.016 196.382 113.58C195.968 114.145 195.765 111.282 195.437 110.851C195.109 110.419 195.37 111.928 195.139 112.068C194.908 112.208 194.427 110.958 194.22 110.518C194.013 110.078 194.726 108.452 194.728 107.319C194.73 106.185 196.611 106.698 196.611 106.698Z" fill="#FFB27D"/>
<path d="M174.919 84.2852C174.664 81.0497 178.202 78.8315 180.996 80.5137C181.054 80.548 181.11 80.5833 181.166 80.6195C185.349 83.294 194.374 95.773 194.996 97.0231C195.617 98.2732 197.45 108.219 197.45 108.219C197.45 108.219 195.185 109.042 194.125 108.188C194.125 108.188 190.451 98.7558 189.907 98.2843C189.363 97.8129 175.21 89.9244 175.089 86.9668C175.058 86.1851 174.994 85.2452 174.919 84.2852Z" fill="#233862"/>
<path d="M138.486 85.2125L139.716 88.7229L157.493 82.5752L156.263 79.0648L138.486 85.2125Z" fill="#F99746"/>
<path d="M134.968 88.3969L139.716 88.7233L138.486 85.2126L134.968 88.3969Z" fill="#F9DDBF"/>
<path d="M158.738 79.5153L159.126 80.6254C159.366 81.3084 159.003 82.0538 158.315 82.2916L157.492 82.5757L156.262 79.0651L157.157 78.7558C157.805 78.5322 158.513 78.8716 158.738 79.5153Z" fill="#F9DDBF"/>
<path d="M200.173 157.326C200.173 157.326 201.86 158.855 201.53 159.941C201.202 161.027 199.679 161.751 199.473 163.079C199.268 164.407 198.445 165.131 197.705 165.131C196.965 165.131 194.175 165.131 194.175 165.131C194.175 165.131 193.63 164.197 194.946 163.915C196.263 163.633 196.759 162.074 196.677 160.625C196.594 159.177 196.8 157.246 196.8 157.246L199.597 156.602L200.173 157.326Z" fill="#233862"/>
<path d="M179.483 161.28C179.483 161.28 179.785 164.759 179.045 165.121L169.569 165.102C169.569 165.102 169.569 164.016 171.092 163.774C172.614 163.532 175.287 162.648 175.739 160.676C176.192 158.705 179.483 161.28 179.483 161.28Z" fill="#233862"/>
<path d="M171.483 112.133C171.483 112.133 171.983 118.231 172.57 125.563C173.368 135.522 174.329 147.754 174.424 150.072C174.588 154.096 175.247 160.532 175.247 160.532C175.247 160.532 176.81 162.061 179.937 161.416C179.937 161.416 182.724 152.228 183.519 142.506C183.531 142.347 183.543 142.186 183.556 142.026C184.297 132.129 185.448 111.289 185.448 111.289L171.483 112.133Z" fill="#F99746"/>
<path d="M171.483 112.133C171.483 112.133 171.983 118.231 172.57 125.563L183.519 142.506C183.531 142.347 183.543 142.186 183.556 142.026C184.297 132.129 185.448 111.289 185.448 111.289L171.483 112.133Z" fill="#EF7E29"/>
<path d="M173.764 112.857C173.764 112.857 182.773 134.944 188.695 145.324C194.619 155.704 196.47 158.601 196.47 158.601C196.47 158.601 199.863 157.273 200.171 156.368C200.171 156.368 197.907 136.329 193.939 131.444C191.698 128.684 189.065 120.4 188.942 117.503C188.818 114.606 188.14 108.873 188.14 108.873L173.764 112.857Z" fill="#F99746"/>
<path d="M181.534 79.7252C181.534 79.7252 175.499 82.7664 171.964 81.752C171.964 81.752 172.807 80.651 174.305 79.8149C174.169 79.1168 174.062 78.5104 173.998 77.9966C173.826 76.81 173.813 76.136 173.813 76.136L176.127 74.2533L178.322 72.4512C178.244 77.3972 181.534 79.7252 181.534 79.7252Z" fill="#FFB27D"/>
<path d="M187.529 110.622C185.092 112.087 182.785 113.189 180.085 113.808C176.901 114.558 172.986 114.336 171.677 114.535C171.542 114.553 171.415 114.518 171.295 114.439C171.192 114.387 170.614 110.529 170.035 105.658C170.01 105.463 169.982 105.264 169.971 105.066L169.963 105C169.738 103.096 169.541 101.097 169.37 99.0922C169.23 97.5329 169.115 95.9896 169.036 94.541C168.936 92.7288 168.894 91.0627 168.936 89.6927C168.954 89.0661 168.991 88.504 169.047 88.0155C169.392 85.1707 170.758 83.1379 172.045 81.6249L173.112 80.4191C174.349 80.4966 175.613 80.2649 176.804 79.4832C178.108 78.631 179.514 77.7143 179.78 77.8675C181.778 78.9534 183.403 81.7659 184.566 85.481C185.232 87.6196 185.743 90.0463 186.07 92.616C186.175 93.4138 186.264 94.2318 186.332 95.0467C186.345 95.1978 186.357 95.3479 186.369 95.497C186.525 97.7243 186.782 99.8115 187.066 101.675C187.448 104.189 187.882 106.295 188.189 107.778C188.343 108.532 188.461 109.116 188.531 109.534C188.593 109.897 187.857 110.419 187.529 110.622Z" fill="#2B478B"/>
<path d="M178.398 74.3403C178.398 74.3403 176.913 77.1589 173.996 77.997C173.824 76.8103 173.811 76.1364 173.811 76.1364L176.125 74.2537L178.398 74.3403Z" fill="#ED985F"/>
<path d="M172.738 76.0765C172.738 76.0765 178.57 76.9066 179.045 73.3456C179.52 69.7847 180.592 67.494 176.889 66.814C173.185 66.133 172.279 67.4003 171.825 68.5507C171.371 69.7021 171.233 75.7693 172.738 76.0765Z" fill="#FFB27D"/>
<path d="M181.018 66.307C181.07 66.2456 181.191 66.1952 181.462 66.1751C181.462 66.1751 181.243 66.0451 180.953 66.0431C180.889 65.6704 180.675 65.0116 180.024 64.8635C180.024 64.8635 180.375 65.0408 180.429 65.4377C179.664 64.6862 178.043 64.1604 173.595 64.5976C167.732 65.1738 169.742 68.8697 170.511 69.2999C171.28 69.73 173.169 68.4718 174.588 68.5554C176.007 68.639 176.316 70.6668 176.803 70.9358C177.288 71.2058 177.09 70.7162 177.735 70.411C178.379 70.1067 178.462 71.1755 178.288 71.8746C178.115 72.5737 179.026 73.4743 179.026 73.4743C179.026 73.4743 179.026 73.4743 179.909 72.4911C180.792 71.508 181.561 67.401 181.134 66.5377C181.094 66.4622 181.057 66.3846 181.018 66.307Z" fill="#2C3A64"/>
<path d="M179.166 90.009C179.166 90.009 174.249 93.7251 169.036 94.54C168.936 92.7278 168.894 91.0616 168.936 89.6917L179.166 90.009Z" fill="#233862"/>
<path d="M148.966 85.2124C148.889 85.1298 147.886 81.7995 146.151 82.0433C145.02 82.2014 143.171 82.8522 143.662 84.333C143.854 84.9152 147.303 86.9208 147.303 86.9208L148.966 85.2124Z" fill="#FFB27D"/>
<path d="M179.774 82.8276C182.578 84.4937 182.351 88.644 179.352 89.9324C179.291 89.9586 179.229 89.9848 179.167 90.0089C174.55 91.8483 159.081 91.934 157.696 91.7134C156.31 91.4928 147.085 87.2206 147.085 87.2206C147.085 87.2206 147.72 84.9087 149.035 84.5451C149.035 84.5451 158.904 87.0292 159.606 86.862C160.308 86.6948 174.976 79.7985 177.474 81.4133C178.134 81.8404 178.943 82.333 179.774 82.8276Z" fill="#2B478B"/>
<path d="M254.623 161.95C254.623 162.839 254.257 163.646 253.666 164.233C253.076 164.819 252.263 165.183 251.368 165.183H235.999C234.209 165.183 232.746 163.727 232.746 161.95C232.746 161.062 233.112 160.254 233.701 159.667C234.291 159.082 235.105 158.719 235.999 158.719H251.368C253.157 158.717 254.623 160.172 254.623 161.95Z" fill="#EF7E29"/>
<path d="M246.694 161.95C246.694 162.839 246.328 163.646 245.739 164.233C245.149 164.819 244.335 165.183 243.441 165.183H235.999C234.209 165.183 232.746 163.727 232.746 161.95C232.746 161.062 233.112 160.254 233.701 159.667C234.291 159.082 235.105 158.719 235.999 158.719H243.441C245.23 158.717 246.694 160.172 246.694 161.95Z" fill="#F99746"/>
<path opacity="0.5" d="M251.628 160.454H236.967C236.714 160.454 236.506 160.248 236.506 159.996V159.892C236.506 159.64 236.714 159.434 236.967 159.434H251.628C251.881 159.434 252.089 159.64 252.089 159.892V159.996C252.089 160.248 251.882 160.454 251.628 160.454Z" fill="#FFE2CC"/>
<path d="M276.606 166.2H0.83892C0.622908 166.2 0.445435 166.024 0.445435 165.809V165.444C0.445435 165.229 0.621894 165.053 0.83892 165.053H276.606C276.822 165.053 277 165.228 277 165.444V165.809C276.999 166.024 276.822 166.2 276.606 166.2Z" fill="#2E3552"/>
</svg>
