<svg width="65" height="65" viewBox="0 0 65 65" fill="none" xmlns="http://www.w3.org/2000/svg">
<path fill-rule="evenodd" clip-rule="evenodd" d="M32.5 65C50.4493 65 65 50.4493 65 32.5C65 14.5507 50.4493 0 32.5 0C14.5507 0 0 14.5507 0 32.5C0 50.4493 14.5507 65 32.5 65ZM32.5 60C47.6878 60 60 47.6878 60 32.5C60 17.3122 47.6878 5 32.5 5C17.3122 5 5 17.3122 5 32.5C5 47.6878 17.3122 60 32.5 60Z" fill="#FF6B6B" fill-opacity="0.14"/>
<path fill-rule="evenodd" clip-rule="evenodd" d="M47.5265 3.74837C43.5495 1.62259 39.1819 0.352065 34.7037 0.00691445C33.3271 -0.0991876 32.2061 1.0301 32.2061 2.41081C32.2061 3.79153 33.3277 4.89902 34.7027 5.02436C39.1882 5.43324 43.5184 6.93927 47.3043 9.42611C51.7887 12.3719 55.3135 16.5651 57.4444 21.4892C59.5753 26.4134 60.2191 31.8533 59.2966 37.1389C58.3742 42.4244 55.9257 47.3246 52.2528 51.2359C48.5799 55.1471 43.8431 57.8984 38.6259 59.151C33.4087 60.4035 27.9391 60.1025 22.8908 58.285C19.8585 57.1933 17.0578 55.5831 14.6063 53.5413C13.5454 52.6577 11.9692 52.6477 10.9929 53.624C10.0166 54.6003 10.0107 56.1915 11.0592 57.0899C14.4698 60.0124 18.4565 62.2023 22.7719 63.5114C27.8864 65.0629 33.3046 65.329 38.5466 64.2863C43.7885 63.2436 48.6925 60.9243 52.8239 57.5336C56.9554 54.143 60.1869 49.7858 62.2322 44.848C64.2775 39.9102 65.0735 34.5442 64.5496 29.2253C64.0258 23.9063 62.1982 18.7987 59.2289 14.3548C56.2596 9.91086 52.2401 6.26783 47.5265 3.74837Z" fill="#FF6B6B"/>
<path d="M18.662 32.653V34.137L14.84 34.144V32.653H18.662ZM24.3611 26.738C24.9958 26.738 25.5814 26.8547 26.1181 27.088C26.6548 27.3167 27.0911 27.6503 27.4271 28.089C27.7678 28.523 27.9544 29.0457 27.9871 29.657H26.1181C25.9968 29.2323 25.7914 28.9103 25.5021 28.691C25.2128 28.467 24.8464 28.355 24.4031 28.355C23.9178 28.355 23.5141 28.4927 23.1921 28.768C22.8701 29.0433 22.6391 29.4283 22.4991 29.923C22.3591 30.4177 22.3218 30.994 22.3871 31.652C22.5411 31.428 22.7371 31.239 22.9751 31.085C23.2131 30.9263 23.4791 30.805 23.7731 30.721C24.0671 30.637 24.3728 30.595 24.6901 30.595C25.3761 30.595 25.9758 30.7233 26.4891 30.98C27.0024 31.232 27.4038 31.5913 27.6931 32.058C27.9824 32.5247 28.1271 33.0707 28.1271 33.696C28.1271 34.3587 27.9638 34.9513 27.6371 35.474C27.3151 35.992 26.8648 36.4027 26.2861 36.706C25.7074 37.0047 25.0378 37.154 24.2771 37.154C23.4184 37.154 22.6764 36.9463 22.0511 36.531C21.4258 36.1157 20.9451 35.5323 20.6091 34.781C20.2778 34.0297 20.1121 33.1477 20.1121 32.135C20.1121 31.0243 20.2801 30.0653 20.6161 29.258C20.9568 28.4507 21.4444 27.83 22.0791 27.396C22.7138 26.9573 23.4744 26.738 24.3611 26.738ZM24.2141 32.121C23.9248 32.121 23.6448 32.1863 23.3741 32.317C23.1081 32.443 22.8888 32.6063 22.7161 32.807C22.5481 33.003 22.4641 33.2037 22.4641 33.409C22.4594 33.8617 22.5294 34.2513 22.6741 34.578C22.8234 34.9 23.0288 35.1497 23.2901 35.327C23.5561 35.4997 23.8618 35.586 24.2071 35.586C24.5338 35.586 24.8278 35.5113 25.0891 35.362C25.3551 35.208 25.5674 34.9957 25.7261 34.725C25.8848 34.4543 25.9641 34.144 25.9641 33.794C25.9641 33.4207 25.8871 33.1103 25.7331 32.863C25.5791 32.6157 25.3691 32.4313 25.1031 32.31C24.8418 32.184 24.5454 32.121 24.2141 32.121ZM29.5293 37V35.992V35.474C29.5293 34.9607 29.6249 34.5173 29.8163 34.144C30.0076 33.766 30.2596 33.4393 30.5723 33.164C30.8896 32.884 31.2349 32.639 31.6083 32.429C31.9863 32.219 32.3643 32.0207 32.7423 31.834C33.1203 31.6473 33.4656 31.4607 33.7783 31.274C34.0956 31.0827 34.3499 30.8703 34.5413 30.637C34.7326 30.4037 34.8283 30.1283 34.8283 29.811C34.8283 29.405 34.6859 29.0737 34.4013 28.817C34.1213 28.5603 33.7363 28.432 33.2463 28.432C32.7376 28.432 32.3059 28.579 31.9513 28.873C31.5966 29.167 31.3773 29.6103 31.2933 30.203H29.3403C29.3496 29.559 29.4989 28.9757 29.7883 28.453C30.0823 27.9257 30.5209 27.508 31.1043 27.2C31.6876 26.892 32.4203 26.738 33.3023 26.738C34.0583 26.738 34.7093 26.8663 35.2553 27.123C35.8059 27.3797 36.2306 27.7367 36.5293 28.194C36.8279 28.6513 36.9773 29.1857 36.9773 29.797C36.9773 30.3057 36.8839 30.7443 36.6973 31.113C36.5106 31.4817 36.2633 31.7967 35.9553 32.058C35.6473 32.3193 35.3089 32.548 34.9403 32.744C34.5716 32.94 34.2029 33.122 33.8343 33.29C33.4703 33.458 33.1343 33.6307 32.8263 33.808C32.5183 33.9807 32.2709 34.1767 32.0843 34.396C31.8976 34.6153 31.8043 34.879 31.8043 35.187V35.278H36.9633V37H29.5293ZM40.838 26.724C41.3187 26.724 41.7503 26.8523 42.133 27.109C42.5157 27.3657 42.819 27.7133 43.043 28.152C43.267 28.5907 43.379 29.0807 43.379 29.622C43.379 30.1587 43.2693 30.6417 43.05 31.071C42.8307 31.5003 42.5273 31.841 42.14 32.093C41.7573 32.3403 41.3233 32.464 40.838 32.464C40.3527 32.464 39.9163 32.3403 39.529 32.093C39.1417 31.841 38.836 31.5003 38.612 31.071C38.388 30.6417 38.276 30.1587 38.276 29.622C38.276 29.0807 38.388 28.5907 38.612 28.152C38.8407 27.7133 39.1487 27.3657 39.536 27.109C39.9233 26.8523 40.3573 26.724 40.838 26.724ZM40.824 31.428C41.1927 31.428 41.4587 31.2693 41.622 30.952C41.79 30.63 41.874 30.1867 41.874 29.622C41.874 29.0387 41.7877 28.5813 41.615 28.25C41.4423 27.9187 41.1787 27.753 40.824 27.753C40.5907 27.753 40.397 27.83 40.243 27.984C40.089 28.1333 39.9723 28.348 39.893 28.628C39.8183 28.908 39.781 29.2393 39.781 29.622C39.781 30.182 39.865 30.623 40.033 30.945C40.201 31.267 40.4647 31.428 40.824 31.428ZM47.481 31.386C47.9617 31.386 48.3933 31.5167 48.776 31.778C49.1633 32.0347 49.469 32.3823 49.693 32.821C49.917 33.2597 50.029 33.7473 50.029 34.284C50.029 34.8207 49.9193 35.306 49.7 35.74C49.4807 36.1693 49.1773 36.51 48.79 36.762C48.4073 37.014 47.971 37.14 47.481 37.14C46.991 37.14 46.5523 37.014 46.165 36.762C45.7777 36.51 45.472 36.1693 45.248 35.74C45.024 35.306 44.912 34.8207 44.912 34.284C44.912 33.7473 45.024 33.2597 45.248 32.821C45.4767 32.3823 45.7847 32.0347 46.172 31.778C46.564 31.5167 47.0003 31.386 47.481 31.386ZM47.467 36.083C47.705 36.083 47.901 36.0107 48.055 35.866C48.209 35.7213 48.3233 35.516 48.398 35.25C48.4773 34.9793 48.517 34.662 48.517 34.298C48.517 33.9107 48.4773 33.5793 48.398 33.304C48.3187 33.024 48.202 32.8093 48.048 32.66C47.894 32.506 47.7003 32.429 47.467 32.429C47.2337 32.429 47.04 32.506 46.886 32.66C46.7367 32.8093 46.6223 33.024 46.543 33.304C46.4683 33.584 46.431 33.9153 46.431 34.298C46.431 34.662 46.4683 34.9793 46.543 35.25C46.6177 35.516 46.732 35.7213 46.886 35.866C47.04 36.0107 47.2337 36.083 47.467 36.083ZM48.062 26.766L41.258 37.056L40.054 37.035L46.879 26.766H48.062Z" fill="#213360"/>
</svg>
