<svg width="36" height="28" viewBox="0 0 36 28" fill="none" xmlns="http://www.w3.org/2000/svg">
<path fill-rule="evenodd" clip-rule="evenodd" d="M0.87868 0.87868C0 1.75736 0 3.17157 0 6V22C0 24.8284 0 26.2426 0.87868 27.1213C1.75736 28 3.17157 28 6 28H30C32.8284 28 34.2426 28 35.1213 27.1213C36 26.2426 36 24.8284 36 22V6C36 3.17157 36 1.75736 35.1213 0.87868C34.2426 0 32.8284 0 30 0H6C3.17157 0 1.75736 0 0.87868 0.87868ZM6.5547 7.16795C6.09517 6.8616 5.4743 6.98577 5.16795 7.4453C4.8616 7.90483 4.98577 8.5257 5.4453 8.83205L16.8906 16.4622C17.5624 16.9101 18.4376 16.9101 19.1094 16.4622L30.5547 8.83205C31.0142 8.5257 31.1384 7.90483 30.8321 7.4453C30.5257 6.98577 29.9048 6.8616 29.4453 7.16795L18 14.7981L6.5547 7.16795Z" fill="#213360"/>
</svg>
