<svg width="14" height="24" viewBox="0 0 14 24" fill="none" xmlns="http://www.w3.org/2000/svg">
<path d="M9.75 0.59375C8.21672 0.59375 6.74623 1.20284 5.66204 2.28704C4.57784 3.37123 3.96875 4.84172 3.96875 6.375V9.59375H0.875C0.71967 9.59375 0.59375 9.71967 0.59375 9.875V14.125C0.59375 14.2803 0.71967 14.4062 0.875 14.4062H3.96875V23.125C3.96875 23.2803 4.09467 23.4062 4.25 23.4062H8.5C8.65533 23.4062 8.78125 23.2803 8.78125 23.125V14.4062H11.9024C12.0315 14.4062 12.144 14.3184 12.1753 14.1932L13.2378 9.94321C13.2821 9.7657 13.1479 9.59375 12.9649 9.59375H8.78125V6.375C8.78125 6.11807 8.88331 5.87167 9.06499 5.68999C9.24667 5.50831 9.49307 5.40625 9.75 5.40625H13C13.1553 5.40625 13.2812 5.28033 13.2812 5.125V0.875C13.2812 0.71967 13.1553 0.59375 13 0.59375H9.75Z" fill="#213360"/>
</svg>
