<svg width="338" height="212" viewBox="0 0 338 212" fill="none" xmlns="http://www.w3.org/2000/svg">
<mask id="mask0_1403_8859" style="mask-type:alpha" maskUnits="userSpaceOnUse" x="0" y="0" width="338" height="212">
<rect width="338" height="212" rx="16" fill="#F99746"/>
</mask>
<g mask="url(#mask0_1403_8859)">
<g clip-path="url(#clip0_1403_8859)">
<path opacity="0.25" d="M191.979 220.998C223.048 208.454 251.427 188.133 270.388 160.589C289.349 133.057 298.198 98.0317 291.171 65.3764C287.862 49.9933 280.513 34.6225 267.303 26.005C256.93 19.2393 244.14 17.3504 232.987 11.9675C204.719 -1.67481 192.091 -34.293 182.399 -64.0469C172.696 -93.8132 161.171 -126.518 133.671 -141.642C103.581 -158.185 62.6972 -145.333 42.4102 -117.703C22.1232 -90.06 20.5741 -51.7503 32.3225 -19.5766C38.9898 -1.30444 49.7591 16.6343 48.1233 36.0052C46.6609 53.3391 35.5074 68.1049 28.555 84.0683C15.6913 113.575 17.6989 149.082 33.7972 176.96C66.8488 234.208 135.17 243.937 191.979 220.998Z" fill="white"/>
<path d="M66.3047 136.095C43.2541 107.155 22.4961 75.8583 10.1405 41.0178C-2.22749 6.18965 -5.73465 -32.5769 5.5428 -67.7754C30.4399 -39.503 48.2732 -6.68726 56.9977 29.9187C65.7222 66.5247 65.4992 98.4885 66.3047 136.095Z" fill="#009B90"/>
<path d="M46.2656 139.169C43.3533 126.416 35.3971 115.428 27.1559 105.242C17.3408 93.1183 6.73258 81.4513 -5.87091 72.2288C-18.4744 63.0064 -33.2466 56.2778 -48.8368 54.9814C-19.156 83.365 12.5324 115.724 46.2656 139.169Z" fill="#009B90"/>
<path d="M5.08614 -66.627C44.3589 16.8939 68.5869 125.465 80.3477 216.949" stroke="#2D7C54" stroke-miterlimit="10"/>
<path d="M73.332 169.565C73.332 169.565 14.5529 93.8961 -48.8363 54.9814" stroke="#2D7C54" stroke-miterlimit="10"/>
<path d="M203.692 237.85C207.336 235.282 208.575 230.578 210.025 226.381C214.994 211.911 224.859 199.701 234.811 188.046C240.189 181.75 245.766 175.416 252.842 171.095C275.149 157.44 306.627 166.712 328.066 151.737C315.252 156.292 299.042 153.576 285.844 150.292C272.646 147.008 259.138 143.02 245.667 144.946C233.509 146.687 222.306 153.28 214.028 162.329C205.749 171.379 200.297 182.75 197.26 194.614C195.612 201.034 194.658 207.75 195.761 214.281C197.062 221.911 203.543 230.084 203.692 237.85Z" fill="#009B90"/>
<path d="M202.244 244.294C202.603 229.096 204.648 213.775 210.374 199.676C215.628 186.712 224.477 174.44 236.027 166.354C247.403 158.378 262.783 156.971 276.254 156.81C292.513 156.613 308.574 157.897 324.375 153.279" stroke="#2D7C54" stroke-width="1.1136" stroke-miterlimit="10"/>
<path d="M230.907 10.5604C230.907 10.5604 236.967 3.69601 238.541 -6.56353C240.115 -16.8107 239.991 -18.7244 242.321 -22.8232C242.321 -22.8232 248.914 -19.3293 242.383 -3.00788C242.383 -3.00788 250.661 -16.0947 260.514 -18.5515C260.514 -18.5515 258.097 -8.34137 248.443 -1.43994C248.443 -1.43994 257.961 -5.60054 267.949 -2.156C267.949 -2.156 263.277 2.4614 251.207 2.49844C251.207 2.49844 261.282 4.26391 263.413 12.1654C263.413 12.1654 254.379 10.869 249.174 9.14059C243.969 7.41215 236.273 8.91837 231.899 11.8691C227.524 14.8198 230.907 10.5604 230.907 10.5604Z" fill="#FF6B6B"/>
<path d="M226.46 17.8201C226.46 17.8201 226.509 13.3385 228.492 9.49892C230.475 5.65931 235.06 -3.06934 235.06 -3.06934C235.06 -3.06934 236.622 1.60981 234.664 4.89385C234.664 4.89385 237.452 3.14071 241.418 2.98022C241.418 2.98022 240.922 5.14077 237.241 7.6964C237.241 7.6964 242.855 7.52355 244.652 8.94335C244.652 8.94335 235.42 13.8077 232.619 14.7213C229.806 15.6472 226.46 17.8201 226.46 17.8201Z" fill="#009B90"/>
<path d="M252.794 50.5736C252.794 50.5736 260.354 47.6723 265.794 40.2894C271.235 32.9064 271.929 31.3755 275.423 29.1162C275.423 29.1162 279.154 34.5361 267.331 44.6475C267.331 44.6475 279.178 37.7955 287.891 39.8819C287.891 39.8819 281.806 46.8821 271.421 48.339C271.421 48.339 280.579 48.9563 286.974 55.7342C286.974 55.7342 281.422 57.438 271.978 52.549C271.978 52.549 279.129 58.0306 277.555 65.0925C277.555 65.0925 271.024 60.401 267.666 56.9194C264.307 53.4379 257.665 51.4872 253.03 52.0057C248.395 52.5243 252.794 50.5736 252.794 50.5736Z" fill="#FF6B6B"/>
<path d="M246.337 54.4385C246.337 54.4385 248.209 50.9569 251.344 48.7593C254.479 46.5617 261.642 41.5986 261.642 41.5986C261.642 41.5986 260.936 45.895 258.061 47.6605C258.061 47.6605 260.961 47.4259 264.121 48.9198C264.121 48.9198 262.844 50.4137 258.916 50.9075C258.916 50.9075 263.377 53.0557 264.195 54.9076C264.195 54.9076 254.975 54.9447 252.41 54.5249C249.844 54.0928 246.337 54.4385 246.337 54.4385Z" fill="#009B90"/>
<path d="M203.472 96.1678C204.649 84.9576 211.404 74.8462 220.165 67.7225C228.927 60.5989 239.585 56.1543 250.379 52.7715" stroke="#3B865A" stroke-width="0.7672" stroke-miterlimit="10"/>
<path d="M204.586 76.5747C208.205 53.9568 215.244 31.2278 229.719 13.4248" stroke="#3B865A" stroke-width="0.7672" stroke-miterlimit="10"/>
<path d="M224.156 -13.416C218.158 -0.934185 216.807 13.6959 220.414 27.0543C223.413 13.523 224.02 0.436224 224.156 -13.416Z" fill="#009B90"/>
<path d="M234.922 54.8457C241.627 49.0307 247.142 41.87 251.046 33.9192C251.405 33.8204 251.653 33.4253 251.764 33.771C252.756 36.9933 251.244 40.4502 249.385 43.2528C245.481 49.1171 241.441 52.1295 234.922 54.8457Z" fill="#009B90"/>
<path d="M241.914 24.7461C229.249 27.7709 217.971 36.1909 211.49 47.4504C220.524 38.6107 231.046 31.2278 241.914 24.7461Z" fill="#009B90"/>
<path d="M240.316 66.9325C229.287 64.7967 217.241 69.34 210.375 78.1921C220.785 75.5995 230.712 71.6858 240.316 66.9325Z" fill="#009B90"/>
<path d="M211.734 292.889L197.545 198.837L123.82 225.887L102.232 292.889H211.734Z" fill="#BFC8D3"/>
<path d="M150.752 -22.4412C150.752 -22.4412 173.319 -23.7129 184.819 -6.31732C188.091 -1.36656 192.652 6.52255 197.547 15.8808C184.423 20.5847 171.026 23.1403 158.621 28.2762C151.83 4.18914 147.554 -17.0584 150.752 -22.4412Z" fill="#2B478B"/>
<path d="M197.545 15.8936C209.814 39.3757 224.189 72.1544 225.701 91.266C227.833 117.995 197.594 117.995 189.923 112.057C185.288 108.464 169.004 65.0678 158.619 28.289C171.024 23.153 184.421 20.5974 197.545 15.8936Z" fill="#FFB27D"/>
<path d="M123.807 -28.0585C125.034 -38.0958 125.939 -55.1334 127.897 -63.3435C128.665 -66.5905 129.867 -68.6276 131.664 -69.6152C130.524 -60.8866 132.445 -51.6394 138.183 -45.096C141.232 -42.812 146.635 -37.7255 151.79 -36.4662C152.757 -23.6633 157.082 -15.8977 157.082 -15.8977C156.475 9.95488 132.346 -1.601 127.897 -4.34182C123.448 -7.07029 122.58 -18.0212 123.807 -28.0585Z" fill="#F0A689"/>
<path d="M148.395 22.6593C148.395 22.6593 129.645 0.461186 113.72 2.91805L92.3923 22.6593L74.1501 35.8326C71.1387 23.1038 69.0938 12.4368 69.4037 8.0293C70.4075 -6.55136 80.9538 -23.1691 96.4324 -28.6878C105.206 -31.8113 123.796 -28.0581 123.796 -28.0581C122.631 -15.4405 133.747 -1.53887 148.395 -4.77353C157.987 -6.89705 157.839 -13.7738 156.587 -18.2554C157.616 -16.0578 159.264 -12.8972 161.891 -8.56376C163.552 -5.82294 166.675 -1.72407 170.355 2.97977C168.806 3.57238 153.563 9.83181 148.395 22.6593Z" fill="#2B478B"/>
<path d="M187.507 65.5737C225.566 116.587 227.375 160.366 201.635 198.849C175.895 237.332 127.898 245.875 127.898 245.875L123.3 292.901H27.9624C27.9624 292.901 55.2018 157.243 61.7576 131.094C68.3134 104.945 93.1238 105.562 93.1238 105.562C93.1238 105.562 81.0904 65.191 74.1504 35.8321L92.3927 22.6589L113.721 2.91762C129.645 0.473108 148.396 22.6589 148.396 22.6589C153.564 9.83138 168.807 3.57195 170.356 2.967C179.997 15.276 193.468 31.6592 194.571 38.2519C196.083 47.3756 187.507 65.5737 187.507 65.5737Z" fill="#4F618E"/>
<path d="M46.2406 292.89L76.1445 117.465" stroke="#4F618E" stroke-miterlimit="10"/>
<path d="M224.649 83.9819C224.649 83.9819 191.759 56.5614 185.55 51.5242C179.341 46.4871 176.875 46.0303 176.875 46.0303L154.122 55.6478C154.122 55.6478 134.529 63.9814 136.784 68.4753C137.838 70.5741 153.725 65.0185 153.725 65.0185C153.725 65.0185 165.882 75.8089 167.556 76.7225C169.229 77.6361 192.217 81.3028 192.217 81.3028L213.458 113.205C213.458 113.193 227.685 108.192 224.649 83.9819Z" fill="#FFB27D"/>
<path d="M167.555 76.6979C167.555 76.6979 152.299 77.6856 148.457 76.6979C144.628 75.7102 141.071 73.4879 140.191 71.9447C139.311 70.4014 141.071 68.6112 141.071 68.6112L153.749 62.9814L167.555 76.6979Z" fill="#FFB27D"/>
<path d="M178.746 46.8077C178.746 46.8077 171.905 42.0174 167.568 42.8816C163.218 43.7459 154.171 42.4619 154.283 44.7953C154.394 47.1287 155.72 48.9435 161.904 50.4621C168.088 51.9807 173.665 56.2154 173.615 57.129C173.554 58.0426 178.746 46.8077 178.746 46.8077Z" fill="#FFB27D"/>
<path d="M102.232 35.8198C102.232 35.8198 91.3266 79.1543 92.1569 84.994C92.9996 90.8337 140.191 144.206 140.191 144.206L124.291 163.391C124.291 163.391 72.0681 128.415 60.3445 115.254C48.6209 102.093 52.3884 35.7951 58.2502 22.6589C64.112 9.52276 74.0634 -26.5153 99.1712 -29.5154C124.291 -32.5154 102.232 35.8198 102.232 35.8198Z" fill="#FFB27D"/>
<path d="M99.1715 -29.5154C124.279 -32.5154 102.22 35.8198 102.22 35.8198C102.22 35.8198 101.291 39.4866 100.014 44.82C86.3077 37.4989 63.2819 27.585 48.6831 21.7824C63.8024 -4.65047 74.0636 -26.5153 99.1715 -29.5154Z" fill="#2B478B"/>
<path d="M57.3086 25.2885L56.0445 30.5603C56.0445 30.5603 48.8815 25.9552 48.6832 21.7822L57.3086 25.2885Z" fill="#213360"/>
<path d="M140.191 144.206L164.01 145.527L170.355 169.577C170.355 169.577 152.411 171.935 146.313 171.602C140.216 171.269 124.279 163.392 124.279 163.392C124.279 163.392 125.493 143.033 140.191 144.206Z" fill="#FFB27D"/>
<path d="M140.192 144.206C140.192 144.206 150.676 135.477 153.75 134.131C156.823 132.786 161.57 129.748 163.602 131.773C165.635 133.798 159.723 136.835 157.096 139.539C154.456 142.243 155.212 153.712 149.747 154.058C144.294 154.379 139.151 154.959 140.192 144.206Z" fill="#FFB27D"/>
<path d="M167.555 155.724C167.555 155.724 180.84 150.193 186.628 146.279C189.899 144.07 190.692 139.193 186.628 139.872C182.563 140.551 174.966 145.946 164.011 145.526C156.513 145.23 164.754 152.687 167.555 155.724Z" fill="#FFB27D"/>
<path d="M170.354 169.564C170.354 169.564 185.275 162.07 186.626 157.885C187.976 153.7 186.626 152.008 186.626 152.008C186.626 152.008 190.641 148.44 188.633 144.144C186.626 139.86 165.446 154.366 164.009 155.712C162.583 157.083 163.228 166.861 170.354 169.564Z" fill="#FFB27D"/>
<path d="M119.543 5.01702C119.543 5.01702 116.569 -25.8233 109.43 -29.9346H102.999C102.999 -29.9346 118.006 -12.2304 113.718 7.60968C109.43 27.4497 119.543 5.01702 119.543 5.01702Z" fill="#4F618E"/>
<path d="M172.413 5.57208C172.413 5.57208 165.374 -5.41588 164.346 -20.6632L158.633 -21.9102C158.633 -21.9102 163.317 -0.78611 169.179 5.55975C175.028 11.9303 172.413 5.57208 172.413 5.57208Z" fill="#4F618E"/>
</g>
</g>
<defs>
<clipPath id="clip0_1403_8859">
<rect width="377.225" height="442" fill="white" transform="matrix(-1 0 0 1 328.066 -149)"/>
</clipPath>
</defs>
</svg>
