<svg width="18" height="15" viewBox="0 0 18 15" fill="none" xmlns="http://www.w3.org/2000/svg">
<path fill-rule="evenodd" clip-rule="evenodd" d="M0.743718 0.0644441C0.50251 0.136552 0.243906 0.356666 0.109127 0.604513L0 0.805213V7.50432V14.2034L0.109127 14.4041C0.169168 14.5145 0.29549 14.669 0.389919 14.7474C0.723141 15.024 0.0920535 15.006 9.08211 14.9948L17.1946 14.9847L17.3758 14.8933C17.6211 14.7696 17.7655 14.6315 17.893 14.3987L18 14.2034V7.50432V0.805213L17.8909 0.604513C17.7521 0.3494 17.4958 0.136044 17.2394 0.0621392C16.9467 -0.0221954 1.02604 -0.0199686 0.743718 0.0644441ZM16.4226 1.3077C16.4949 1.337 16.5894 1.41169 16.6327 1.47372C16.7097 1.58395 16.7117 1.7 16.7221 6.74211C16.7325 11.8002 16.7313 11.8963 16.6566 11.8202C16.6146 11.7775 15.726 10.8461 14.6817 9.75038C13.6374 8.65469 12.7096 7.70112 12.6199 7.63127C12.485 7.52628 12.4222 7.50432 12.2566 7.50432C11.9976 7.50432 11.9017 7.55561 11.4054 7.95971C10.8165 8.43919 10.72 8.49591 10.4932 8.49591C10.3753 8.49591 10.2498 8.46606 10.1646 8.41786C10.0889 8.37497 9.47416 7.7619 8.79866 7.05554C7.48067 5.67728 7.42442 5.63154 7.04698 5.63123C6.76973 5.63099 6.5588 5.73498 6.32195 5.98864C6.21133 6.10716 5.03356 7.47749 3.7047 9.03387L1.28859 11.8636L1.27836 6.76742C1.26878 1.97633 1.2724 1.66305 1.33877 1.5343C1.37766 1.45884 1.47242 1.36524 1.54969 1.32587C1.68415 1.25739 1.9951 1.25442 8.99062 1.25442C15.0643 1.25442 16.3133 1.26337 16.4226 1.3077ZM13.0314 2.56616C12.0103 2.83252 11.3787 3.85801 11.6388 4.82694C11.9082 5.83025 12.9638 6.44914 13.9715 6.19454C15.0027 5.93396 15.6437 4.90905 15.3829 3.9377C15.111 2.92526 14.0429 2.30226 13.0314 2.56616Z" fill="#213360"/>
</svg>
