<svg width="24" height="24" viewBox="0 0 24 24" fill="none" xmlns="http://www.w3.org/2000/svg">
<path d="M11.9999 7.93756C9.75621 7.93756 7.93736 9.7564 7.93736 12.0001C7.93736 14.2437 9.75621 16.0626 11.9999 16.0626C14.2435 16.0626 16.0624 14.2437 16.0624 12.0001C16.0624 9.7564 14.2435 7.93756 11.9999 7.93756Z" fill="#213360"/>
<path fill-rule="evenodd" clip-rule="evenodd" d="M5.46178 0.851893C9.77194 0.37017 14.2278 0.37017 18.538 0.851893C20.911 1.11711 22.825 2.98683 23.1035 5.36815C23.6188 9.7744 23.6188 14.2257 23.1035 18.632C22.825 21.0133 20.911 22.883 18.538 23.1482C14.2278 23.6299 9.77194 23.6299 5.46179 23.1482C3.08879 22.883 1.1748 21.0133 0.896279 18.632C0.380928 14.2257 0.380928 9.7744 0.896279 5.36815C1.1748 2.98683 3.08879 1.11711 5.46178 0.851893ZM18.2499 4.50006C17.5595 4.50006 16.9999 5.0597 16.9999 5.75006C16.9999 6.44041 17.5595 7.00006 18.2499 7.00006C18.9402 7.00006 19.4999 6.44041 19.4999 5.75006C19.4999 5.0597 18.9402 4.50006 18.2499 4.50006ZM6.06236 12.0001C6.06236 8.72087 8.72067 6.06256 11.9999 6.06256C15.2791 6.06256 17.9374 8.72087 17.9374 12.0001C17.9374 15.2792 15.2791 17.9376 11.9999 17.9376C8.72067 17.9376 6.06236 15.2792 6.06236 12.0001Z" fill="#213360"/>
</svg>
