<svg width="123" height="145" viewBox="0 0 123 145" fill="none" xmlns="http://www.w3.org/2000/svg">
<g clip-path="url(#clip0_1403_9240)">
<path opacity="0.5" d="M91.1314 13.3941C89.335 11.45 86.4037 10.1382 83.8516 9.62032C65.7602 5.94683 58.223 44.2776 59.9322 53.2829C61.6413 62.2883 59.4707 64.8923 44.5224 67.5531C29.5741 70.214 35.3749 79.8139 36.4864 85.1322C37.5979 90.4506 40.5258 95.2009 29.4068 98.9037C18.2877 102.607 21.5354 106.212 21.5354 106.212C21.5354 106.212 38.3407 128.753 38.081 122.199C37.8214 115.645 40.9767 106.208 58.4004 107.715C65.9048 108.364 77.7911 106.234 81.3429 98.4608C82.1703 96.6508 82.9431 93.8226 82.7407 91.812C82.4599 89.0232 80.9748 86.6622 80.3221 83.9866C78.8009 77.7526 85.0415 74.1388 88.8179 70.5921C90.7895 68.7404 92.7667 66.8358 94.3741 64.6421C97.7112 60.0873 97.3565 54.6928 94.9657 49.7864C93.8192 47.4338 92.1356 44.8771 91.8426 42.2095C91.5273 39.3441 92.586 35.6221 93.1042 32.7838C93.5106 30.5579 94.0027 28.3512 94.1617 26.0871C94.4569 21.8771 94.1344 16.6438 91.1314 13.3941Z" fill="white"/>
<g opacity="0.8">
<g opacity="0.8">
<path opacity="0.8" d="M18.6002 117.263C18.4695 117.292 18.3344 117.22 18.2866 117.089C18.2343 116.946 18.3061 116.788 18.4473 116.735C18.534 116.702 27.2183 113.417 37.1964 107.447C46.3906 101.946 58.5961 92.975 64.5287 81.4784C69.4838 71.8763 74.9433 55.649 79.5086 36.9575C83.602 20.1966 85.4952 7.65413 84.9609 5.21077C84.928 5.062 85.0209 4.91493 85.1677 4.88168C85.3145 4.84843 85.4596 4.94254 85.4924 5.09131C86.1173 7.9494 83.7215 22.0044 80.0368 37.09C75.462 55.822 69.9848 72.0943 65.0107 81.7337C59.0175 93.3486 46.7231 102.388 37.4644 107.927C27.4452 113.921 18.7231 117.219 18.6358 117.252C18.6241 117.256 18.6119 117.26 18.6002 117.263Z" fill="white"/>
</g>
<g opacity="0.8">
<path opacity="0.8" d="M79.0608 40.2518C78.9146 40.2845 78.7778 40.227 78.7444 40.0788C78.6999 39.8827 74.233 20.4451 65.984 15.1195C65.8572 15.0378 65.8217 14.876 65.9028 14.7476C65.9835 14.6191 66.1525 14.5858 66.2793 14.6675C74.7167 20.1149 79.0919 39.1451 79.2743 39.9542C79.3077 40.1024 79.2092 40.2191 79.0625 40.2518C79.0619 40.2518 79.0613 40.2518 79.0608 40.2518Z" fill="white"/>
</g>
<g opacity="0.8">
<path opacity="0.8" d="M73.0341 61.3428C72.9251 61.367 72.8078 61.3219 72.745 61.2205C72.6649 61.0915 72.7033 60.9213 72.83 60.8401C72.8851 60.8052 78.4207 57.2872 85.0439 54.592C93.9928 50.9501 100.561 50.4598 104.566 53.1359C104.692 53.2199 104.726 53.3906 104.643 53.5179C104.56 53.6453 104.392 53.6802 104.266 53.5963C95.0515 47.44 73.3377 61.1675 73.1197 61.3073C73.093 61.3242 73.0641 61.336 73.0341 61.3428Z" fill="white"/>
</g>
<g opacity="0.8">
<path opacity="0.8" d="M45.6761 102.508C45.6477 102.515 45.6177 102.517 45.5865 102.513C45.437 102.496 45.3297 102.36 45.3463 102.208C45.3552 102.129 46.2193 94.1483 45.6321 85.5464C45.0934 77.6596 43.1946 67.6219 37.2053 64.5902C37.0707 64.522 37.0162 64.3564 37.0835 64.22C37.1508 64.0836 37.3143 64.0284 37.4488 64.0966C42.4429 66.6245 45.3791 73.8306 46.1759 85.5154C46.7658 94.1664 45.8968 102.19 45.8879 102.27C45.8745 102.39 45.7867 102.484 45.6761 102.508Z" fill="white"/>
</g>
<g opacity="0.8">
<path opacity="0.8" d="M58.4522 91.0888C58.3376 91.1148 58.2159 91.0629 58.1558 90.9542C58.0824 90.8212 58.1291 90.6532 58.2604 90.5789C59.2117 90.0402 81.6432 77.4148 89.4563 79.9088C89.5997 79.9545 89.6792 80.1094 89.6342 80.2548C89.5892 80.4002 89.4363 80.4808 89.2928 80.4352C81.7011 78.0121 58.7569 90.9299 58.5261 91.0607C58.5022 91.0742 58.4772 91.0832 58.4522 91.0888Z" fill="white"/>
</g>
</g>
<path d="M117.115 31.2078C115.777 28.9154 113.195 26.9922 110.814 25.926C93.9354 18.3706 78.3906 54.1391 78.1359 63.3062C77.8813 72.4733 75.2057 74.5385 60.044 73.8578C44.8822 73.1771 48.4946 83.8211 48.444 89.2572C48.3928 94.6934 50.2371 99.9734 38.591 101.149C26.9448 102.325 29.3451 106.558 29.3451 106.558C29.3451 106.558 40.9379 132.251 42.0844 125.795C43.2309 119.34 48.3267 110.819 65.0152 116.112C72.2033 118.392 84.2626 118.921 89.3906 112.111C90.5849 110.525 91.9432 107.933 92.1751 105.926C92.4965 103.142 91.5513 100.511 91.4851 97.756C91.3311 91.336 98.1956 89.1767 102.64 86.5428C104.96 85.1679 107.297 83.7417 109.335 81.9525C113.566 78.2379 114.372 72.8936 113.085 67.5786C112.468 65.0299 111.371 62.1651 111.654 59.4963C111.958 56.6297 113.787 53.2284 114.899 50.5709C115.772 48.4865 116.723 46.4404 117.362 44.2653C118.55 40.2194 119.353 35.0396 117.115 31.2078Z" fill="#EFCBAB"/>
<g opacity="0.8">
<g opacity="0.8">
<path opacity="0.8" d="M24.1194 116.702C23.9854 116.702 23.8686 116.602 23.8503 116.464C23.8297 116.313 23.9337 116.174 24.0827 116.153C24.1738 116.14 33.3541 114.839 44.3708 111.199C54.5218 107.846 68.3536 101.765 76.6015 91.842C83.4898 83.5545 92.2859 68.9096 100.735 51.663C108.311 36.1976 112.838 24.3679 112.838 21.8654C112.838 21.7133 112.96 21.5898 113.11 21.5898C113.26 21.5898 113.382 21.7133 113.382 21.8654C113.382 24.7928 108.04 37.989 101.221 51.9087C92.754 69.1931 83.9319 83.878 77.0168 92.1976C68.685 102.222 54.7509 108.351 44.5293 111.727C33.4675 115.38 24.2472 116.688 24.1555 116.7C24.1438 116.702 24.1316 116.702 24.1194 116.702Z" fill="white"/>
</g>
<g opacity="0.8">
<path opacity="0.8" d="M99.5956 54.8229C99.446 54.8229 99.3242 54.7158 99.3237 54.5636C99.3226 54.3625 99.1124 34.3952 92.1968 27.3864C92.0906 27.2787 92.0906 27.108 92.1968 26.9998C92.303 26.8922 92.4754 26.8939 92.5816 27.0015C99.6551 34.1704 99.8625 53.7291 99.868 54.5586C99.8691 54.7107 99.7479 54.8223 99.5978 54.8223C99.5967 54.8229 99.5961 54.8229 99.5956 54.8229Z" fill="white"/>
</g>
<g opacity="0.8">
<path opacity="0.8" d="M89.2059 74.0499C89.0941 74.0499 88.9896 73.9794 88.9496 73.8667C88.899 73.7236 88.9724 73.5652 89.1142 73.514C89.1753 73.4914 95.3314 71.2718 102.373 70.0929C111.888 68.5004 118.405 69.4629 121.744 72.9538C121.848 73.0631 121.845 73.2378 121.737 73.3438C121.63 73.4497 121.457 73.4469 121.353 73.3376C113.671 65.3059 89.5406 73.9445 89.2976 74.0329C89.2676 74.0448 89.2365 74.0499 89.2059 74.0499Z" fill="white"/>
</g>
<g opacity="0.8">
<path opacity="0.8" d="M53.702 108.237C53.6725 108.237 53.6431 108.232 53.6136 108.222C53.4713 108.173 53.3956 108.016 53.4446 107.872C53.4702 107.796 56.0183 100.195 57.2822 91.6675C58.4409 83.8495 58.7306 73.6331 53.5308 69.3595C53.414 69.2637 53.3962 69.0901 53.4907 68.9712C53.5852 68.8529 53.7571 68.8349 53.8733 68.9307C58.209 72.4943 59.5368 80.1737 57.8193 91.756C56.5477 100.331 53.9856 107.973 53.9594 108.05C53.9205 108.165 53.8149 108.237 53.702 108.237Z" fill="white"/>
</g>
<g opacity="0.8">
<path opacity="0.8" d="M68.6161 99.8912C68.4988 99.8912 68.391 99.814 68.3554 99.6945C68.312 99.5485 68.3937 99.3947 68.5377 99.3513C69.5814 99.0341 94.178 91.6291 101.273 95.7776C101.403 95.8537 101.448 96.0227 101.373 96.1546C101.298 96.2864 101.131 96.3321 101.001 96.2554C94.1063 92.2242 68.947 99.8027 68.694 99.8793C68.6684 99.8872 68.6417 99.8912 68.6161 99.8912Z" fill="white"/>
</g>
</g>
<path d="M65.813 21.9452L31.4318 0.378689C30.0256 -0.445156 27.94 0.485755 26.3782 0.881899C24.8097 1.27973 23.487 2.28841 22.7091 3.68252L1.49966 41.5873C0.00399554 44.2667 -0.420238 47.4055 0.441573 50.2743L24.6435 130.832C26.1797 135.945 31.6708 138.255 36.7377 135.963L87.2811 113.11C91.6007 111.156 93.8898 105.791 92.4964 101.153L70.5202 28.0017C69.7507 25.4406 68.0715 23.2688 65.813 21.9452ZM36.3902 35.0185C32.5026 36.2289 28.3671 34.0464 27.1911 30.1318C26.0151 26.2171 28.2625 22.1148 32.1729 20.9804C36.0411 19.8579 40.0816 22.0697 41.2347 25.9089C42.3884 29.7475 40.2361 33.821 36.3902 35.0185Z" fill="url(#paint0_linear_1403_9240)"/>
<path d="M68.2889 21.1877L54.4565 13.0749L33.6741 0.854178C32.2762 0.0348414 30.6143 -0.20972 29.0647 0.18417C27.5074 0.578624 26.1935 1.58166 25.4212 2.96901L15.0178 21.6701L4.4931 40.6743C3.01078 43.3396 2.68329 46.44 3.54177 49.2987L27.653 129.554C29.1837 134.649 34.6031 136.951 39.6294 134.675L53.0431 128.603L76.4283 118.016L89.6935 112.026C93.9842 110.085 96.3028 104.711 94.9144 100.09L73.0188 27.2093C72.2526 24.6561 70.5346 22.5069 68.2889 21.1877ZM34.8333 20.2094C38.6726 19.0948 42.6869 21.301 43.8362 25.1266C44.9849 28.9505 42.8521 33.0078 39.0351 34.1956C35.1769 35.3982 31.068 33.2191 29.896 29.3185C28.725 25.4196 30.9524 21.3348 34.8333 20.2094Z" fill="#F99746"/>
<path d="M59.5733 38.3096L39.6994 44.4428L33.9336 84.9897L41.9623 81.9581L41.9468 121.771L65.4948 60.9146L53.8687 65.0434L59.5733 38.3096Z" fill="white"/>
<path opacity="0.1" d="M73.0214 27.2096L94.917 100.09C96.3053 104.711 93.9868 110.085 89.6955 112.026L76.4631 118.006L53.0608 128.599C57.9886 117.516 58.0859 108.578 56.5986 101.717C53.3415 86.6622 42.8452 83.2812 42.148 68.9569C41.284 51.2155 56.8288 45.4751 57.3509 27.5117C57.4654 23.5677 56.8499 18.7142 54.4258 13.0859L68.2915 21.188C70.5372 22.5072 72.2547 24.6564 73.0214 27.2096Z" fill="url(#paint1_linear_1403_9240)"/>
<path d="M58.7305 139.168C58.7305 140.575 57.8748 141.717 56.8184 141.717C55.7625 141.717 54.9062 140.575 54.9062 139.168C54.9062 137.76 55.7625 136.619 56.8184 136.619C57.8748 136.619 58.7305 137.76 58.7305 139.168Z" fill="url(#paint2_linear_1403_9240)"/>
<path d="M59.2617 139.192C59.2617 140.6 58.406 141.741 57.3496 141.741C56.2937 141.741 55.4375 140.6 55.4375 139.192C55.4375 137.785 56.2937 136.644 57.3496 136.644C58.406 136.644 59.2617 137.785 59.2617 139.192Z" fill="url(#paint3_linear_1403_9240)"/>
<path d="M58.1532 139.244C58.1532 139.834 57.7946 140.311 57.352 140.311C56.9094 140.311 56.5508 139.833 56.5508 139.244C56.5508 138.654 56.9094 138.176 57.352 138.176C57.7946 138.176 58.1532 138.654 58.1532 139.244Z" fill="url(#paint4_linear_1403_9240)"/>
<path d="M56.8203 136.081V138.88C56.8203 139.29 57.1489 139.623 57.5542 139.623C57.7883 139.623 58.0091 139.51 58.1469 139.318L60.6306 135.871L56.8203 136.081Z" fill="#C9CED6"/>
<path d="M79.1992 136.933C79.1992 138.34 78.343 139.481 77.2871 139.481C76.2313 139.481 75.375 138.34 75.375 136.933C75.375 135.525 76.2313 134.384 77.2871 134.384C78.3435 134.384 79.1992 135.525 79.1992 136.933Z" fill="url(#paint5_linear_1403_9240)"/>
<path d="M79.7305 136.957C79.7305 138.365 78.8742 139.506 77.8184 139.506C76.7625 139.506 75.9062 138.365 75.9062 136.957C75.9062 135.549 76.7625 134.408 77.8184 134.408C78.8748 134.408 79.7305 135.549 79.7305 136.957Z" fill="url(#paint6_linear_1403_9240)"/>
<path d="M78.6219 137.008C78.6219 137.598 78.2633 138.076 77.8207 138.076C77.3782 138.076 77.0195 137.598 77.0195 137.008C77.0195 136.419 77.3782 135.94 77.8207 135.94C78.2633 135.94 78.6219 136.418 78.6219 137.008Z" fill="url(#paint7_linear_1403_9240)"/>
<path d="M77.2891 133.845V136.644C77.2891 137.055 77.6177 137.388 78.023 137.388C78.2576 137.388 78.4778 137.275 78.6157 137.083L81.0994 133.636L77.2891 133.845Z" fill="#C9CED6"/>
<path d="M56.5321 136.516C56.2802 136.516 56.0634 136.324 56.0345 136.064C56.0033 135.785 56.2013 135.534 56.4765 135.503L80.7168 132.734C82.0362 132.504 83.1359 131.488 83.4912 130.149L92.9945 88.1421C93.5355 86.1017 95.2958 84.6337 97.3747 84.4889L104.748 84.0432C105.025 84.024 105.262 84.2398 105.278 84.5199C105.295 84.8 105.084 85.0406 104.808 85.0575L97.4392 85.5027C95.7912 85.6176 94.3929 86.7846 93.9631 88.4053L84.4598 130.412C84.0039 132.133 82.5899 133.438 80.858 133.739L56.5894 136.512C56.5699 136.515 56.551 136.516 56.5321 136.516Z" fill="#D8DEE8"/>
<path d="M72.7486 117.741C72.5306 117.741 72.3299 117.595 72.2665 117.372L66.5585 97.1293C66.4824 96.8593 66.6364 96.5781 66.9027 96.5009C67.1685 96.4243 67.4465 96.5804 67.5227 96.8497L73.2306 117.093C73.3068 117.363 73.1528 117.644 72.8865 117.721C72.8409 117.734 72.7942 117.741 72.7486 117.741Z" fill="#C2C2C2"/>
<path d="M78.5881 116.893C78.3495 116.893 78.1382 116.72 78.0949 116.474L74.5742 96.4218C74.5258 96.1452 74.7076 95.8814 74.9801 95.8324C75.2553 95.7823 75.5133 95.9676 75.5617 96.2438L79.0823 116.296C79.1307 116.573 78.9489 116.836 78.6765 116.886C78.6464 116.891 78.6175 116.893 78.5881 116.893Z" fill="#C2C2C2"/>
<path d="M82.2163 116.237C82.2096 116.237 82.2024 116.237 82.1951 116.236C81.9182 116.225 81.7036 115.988 81.7153 115.708L82.5276 95.868C82.5387 95.5874 82.7606 95.3654 83.0492 95.3817C83.3261 95.3935 83.5407 95.6302 83.529 95.9103L82.7167 115.75C82.7055 116.023 82.4837 116.237 82.2163 116.237Z" fill="#C2C2C2"/>
<path d="M64.7817 118.482C64.5721 118.482 64.377 118.348 64.3063 118.135L57.6042 97.8826C57.5164 97.6167 57.6576 97.3287 57.92 97.2391C58.1825 97.1506 58.4666 97.2932 58.555 97.5592L65.2571 117.811C65.345 118.077 65.2037 118.365 64.9413 118.455C64.8885 118.473 64.8346 118.482 64.7817 118.482Z" fill="#D8DEE8"/>
<path d="M122 86.8227C121.973 86.8227 121.945 86.8216 121.917 86.8193L105.42 85.4449C104.869 85.3993 104.458 84.9085 104.503 84.3489C104.548 83.7893 105.033 83.3723 105.585 83.4197L122.082 84.7941C122.633 84.8397 123.044 85.3305 122.998 85.8901C122.955 86.4204 122.517 86.8227 122 86.8227Z" fill="url(#paint8_linear_1403_9240)"/>
<path d="M76.0391 142.427C76.0391 143.834 75.1828 144.975 74.1269 144.975C73.0711 144.975 72.2148 143.834 72.2148 142.427C72.2148 141.019 73.0705 139.878 74.1269 139.878C75.1834 139.878 76.0391 141.019 76.0391 142.427Z" fill="url(#paint9_linear_1403_9240)"/>
<path d="M76.5703 142.451C76.5703 143.859 75.7146 145 74.6582 145C73.6023 145 72.7461 143.859 72.7461 142.451C72.7461 141.043 73.6023 139.902 74.6582 139.902C75.7146 139.902 76.5703 141.043 76.5703 142.451Z" fill="url(#paint10_linear_1403_9240)"/>
<path d="M75.4618 142.502C75.4618 143.092 75.1032 143.57 74.6606 143.57C74.218 143.57 73.8594 143.092 73.8594 142.502C73.8594 141.912 74.218 141.435 74.6606 141.435C75.1032 141.434 75.4618 141.912 75.4618 142.502Z" fill="url(#paint11_linear_1403_9240)"/>
<path d="M74.1289 139.34V142.138C74.1289 142.549 74.4575 142.882 74.8629 142.882C75.0975 142.882 75.3177 142.769 75.4556 142.577L77.9393 139.13L74.1289 139.34Z" fill="#BFC8D6"/>
<path d="M93.7617 140.629C93.7617 142.036 92.9055 143.178 91.8496 143.178C90.7938 143.178 89.9375 142.036 89.9375 140.629C89.9375 139.221 90.7932 138.08 91.8496 138.08C92.906 138.08 93.7617 139.221 93.7617 140.629Z" fill="url(#paint12_linear_1403_9240)"/>
<path d="M94.293 140.653C94.293 142.061 93.4367 143.202 92.3809 143.202C91.325 143.202 90.4688 142.061 90.4688 140.653C90.4688 139.246 91.325 138.104 92.3809 138.104C93.4373 138.104 94.293 139.246 94.293 140.653Z" fill="url(#paint13_linear_1403_9240)"/>
<path d="M93.1844 140.705C93.1844 141.295 92.8258 141.772 92.3832 141.772C91.9407 141.772 91.582 141.294 91.582 140.705C91.582 140.115 91.9407 139.637 92.3832 139.637C92.8258 139.637 93.1844 140.115 93.1844 140.705Z" fill="url(#paint14_linear_1403_9240)"/>
<path d="M91.8516 137.542V140.341C91.8516 140.752 92.1802 141.085 92.5855 141.085C92.8201 141.085 93.0403 140.972 93.1782 140.78L95.6619 137.333L91.8516 137.542Z" fill="#BFC8D6"/>
<path d="M48.341 98.6927C48.0808 98.6927 47.8606 98.4887 47.8412 98.221C47.8212 97.941 48.0291 97.6975 48.3054 97.6778L91.4772 94.5284C91.5178 94.5261 91.5579 94.5273 91.5973 94.5346L109.47 97.6198C109.743 97.6671 109.926 97.9292 109.879 98.2058C109.833 98.482 109.578 98.6685 109.301 98.6211L91.4884 95.5461L48.3772 98.6916C48.3655 98.6921 48.3533 98.6927 48.341 98.6927Z" fill="#D8DEE8"/>
<path d="M103.802 119.177C103.777 119.177 103.751 119.175 103.725 119.171L86.1383 116.436L59.3815 119.047C59.1063 119.073 58.8611 118.868 58.8344 118.589C58.8077 118.31 59.0101 118.062 59.2853 118.035L86.1044 115.419C86.1455 115.415 86.1878 115.416 86.2284 115.423L103.877 118.167C104.151 118.21 104.339 118.469 104.296 118.747C104.259 118.997 104.045 119.177 103.802 119.177Z" fill="#C9CED6"/>
<path d="M85.9493 92.3413C85.7742 92.3801 85.6079 92.2274 85.5835 92.0539C85.1464 88.9518 83.8982 85.5741 82.0945 83.2468C80.4804 81.1641 79.2355 80.2608 76.8808 79.8466C76.8781 79.846 76.8258 79.8449 76.8241 79.8443C71.8807 79.3113 71.6082 90.9973 71.6494 92.6123C71.7161 95.2253 71.5104 93.1944 71.3135 93.4142C71.1162 93.634 70.9649 94.3964 70.9271 93.0096C70.8254 89.318 71.189 79.4966 76.7696 79.0774C76.7713 79.0774 76.8041 79.0768 76.8075 79.0774C79.4574 79.4392 80.8796 80.445 82.6778 82.7487C84.5632 85.1639 85.852 88.6328 86.2718 91.8612C86.2957 92.046 86.1795 92.2838 85.9843 92.3328C85.9727 92.3362 85.9599 92.339 85.9493 92.3413Z" fill="url(#paint15_linear_1403_9240)"/>
<path d="M63.1073 119.282C65.7655 120.218 69.0015 120.684 71.7627 121.65C72.7273 117.389 74.4043 113.278 75.7476 109.131C73.1577 103.412 70.9542 97.5145 68.0413 91.9521C67.3568 92.1494 66.6846 92.3421 65.9918 92.5416C65.7127 101.838 63.869 109.11 62.0914 117.989C61.9385 118.75 62.3266 119.007 63.1073 119.282Z" fill="#EE5463"/>
<path opacity="0.3" d="M75.7489 109.13C73.1602 103.411 70.9562 97.5152 68.0427 91.9512C67.644 92.096 67.2354 92.1247 66.8428 92.3456C66.8495 93.6039 67.1064 96.9731 67.2287 97.926C67.7413 101.916 69.2737 105.86 68.7094 109.427C68.2479 112.346 66.5893 113.161 66.5938 115.799C66.5982 118.643 68.9451 120.226 71.2019 121.475C71.416 121.53 71.58 121.586 71.7724 121.648C72.7187 117.389 74.4117 113.276 75.7489 109.13Z" fill="#AA2835"/>
<path d="M68.0391 91.9524C77.1815 92.0814 84.9851 91.4491 93.9818 90.0342C97.8383 99.7586 100.479 109 103.363 119.012C93.2507 119.424 81.7007 120.021 71.7682 121.649C69.4958 112.262 70.0134 101.591 68.0391 91.9524Z" fill="#EE5463"/>
<g opacity="0.3">
<path opacity="0.3" d="M93.9822 90.0342C89.4758 90.7318 85.4492 91.2446 80.7943 91.5923C80.0715 91.6464 80.255 92.7661 80.2889 93.5707C80.4863 98.2805 89.1755 98.1047 90.5227 103.698C91.5291 107.875 87.309 112.741 84.1854 114.589C80.9227 116.519 77.9714 115.764 75.3537 117.98C74.2117 118.946 73.8192 120.029 73.3516 121.403C82.8938 120.018 93.6914 119.402 103.363 119.011C100.494 108.993 97.8192 99.7631 93.9822 90.0342Z" fill="url(#paint16_linear_1403_9240)"/>
</g>
<path d="M76.4331 94.0122C76.0589 93.2881 76.4626 95.1037 76.0028 93.5C75.1326 90.466 73.7726 85.1719 75.5452 81.6556C76.0589 80.6368 77.2438 79.7031 78.3575 79.4084C84.096 77.8892 88.0393 87.5059 89.3114 91.2978C89.7401 92.5752 89.377 92.0083 89.089 91.7931C88.801 91.5784 89.446 93.9068 88.508 91.2037C87.858 89.3294 83.4889 78.1698 78.5688 80.2147C77.6708 80.5878 76.7245 81.4054 76.2269 82.0512C74.3381 84.5008 76.2513 91.8173 76.5427 92.8468C77.3055 95.5438 76.4092 92.8716 76.5165 94.0071C76.5327 94.17 76.496 94.1333 76.4331 94.0122Z" fill="url(#paint17_linear_1403_9240)"/>
<path d="M77.4231 94.0224C77.4659 94.5881 77.0889 95.0789 76.5213 95.1172C75.9536 95.1556 75.5227 94.711 75.4799 94.1492C75.4376 93.5873 75.8029 93.096 76.3706 93.0633C76.9377 93.0306 77.3803 93.4572 77.4231 94.0224Z" fill="url(#paint18_linear_1403_9240)"/>
<path d="M90.1963 92.0582C90.2235 92.6262 89.8644 93.1807 89.3111 93.3221C88.7585 93.4636 88.3331 93.0454 88.3025 92.4853C88.2719 91.9252 88.6467 91.3701 89.2044 91.2648C89.7626 91.1588 90.1691 91.4896 90.1963 92.0582Z" fill="url(#paint19_linear_1403_9240)"/>
<path d="M97.3232 104.584C94.5682 101.963 91.5168 99.4614 88.5205 97.1167C88.2636 96.9155 88.1324 96.9414 87.8761 97.102C86.5828 97.9101 85.0427 98.7677 83.765 99.5442C83.3363 99.8051 83.2295 100.138 83.5659 100.55C86.0285 103.568 88.6461 106.711 91.0492 109.792C91.3094 110.125 91.5685 110.144 91.9116 109.886C93.6641 108.57 95.639 107.08 97.2904 105.645C97.679 105.307 97.7024 104.945 97.3232 104.584ZM87.5619 100.071C87.2389 100.355 86.8202 100.12 86.5917 99.8164C86.3632 99.5121 86.2409 99.0298 86.555 98.7379C86.8691 98.446 87.2884 98.6764 87.5163 98.9802C87.7437 99.2839 87.8844 99.7871 87.5619 100.071Z" fill="#D8DEE8"/>
<path d="M97.3221 104.47C94.5671 101.847 91.5118 99.3543 88.5121 97.0061C88.2553 96.805 88.1279 96.8354 87.8711 96.9954C86.5767 97.8007 85.041 98.6634 83.7622 99.4394C83.3329 99.6997 83.2251 100.03 83.562 100.443C86.0268 103.464 88.6456 106.605 91.0514 109.687C91.3116 110.021 91.5702 110.039 91.9138 109.781C93.6663 108.462 95.6402 106.968 97.2904 105.53C97.6774 105.192 97.7018 104.832 97.3221 104.47ZM87.5569 99.9623C87.2344 100.246 86.8158 100.013 86.5878 99.7093C86.3598 99.4056 86.2364 98.9209 86.5489 98.6279C86.8619 98.3349 87.2823 98.5671 87.5097 98.8702C87.7376 99.1739 87.8794 99.6789 87.5569 99.9623Z" fill="#F4F7FA"/>
<path d="M85.77 98.3006C85.7439 98.3062 85.7122 98.2854 85.6966 98.2589C85.3769 97.7146 84.9805 97.1234 84.4817 96.7583C83.109 95.7524 81.5549 95.6837 79.9653 95.6228C78.3757 95.5625 77.0735 95.456 75.927 94.3155C75.6323 94.0225 75.3321 93.5852 75.46 93.1778C75.5111 93.0149 75.743 93.0076 75.8909 92.9952C75.9198 92.993 75.9676 93.0296 75.9715 93.078C75.9754 93.1271 75.9181 93.1479 75.8976 93.1614C75.8192 93.2127 75.5973 93.1023 75.594 93.2787C75.5867 93.6489 75.6896 93.8647 76.0771 94.2428C77.0957 95.2374 78.453 95.4262 79.9803 95.4594C81.5699 95.4938 83.1974 95.6031 84.5818 96.6214C85.0861 96.9922 85.5131 97.6126 85.8351 98.1716C85.8556 98.2071 85.8345 98.2713 85.8067 98.2865C85.78 98.3017 85.7961 98.295 85.77 98.3006Z" fill="#26264F"/>
<path d="M86.5461 99.5103C86.4972 99.5599 86.4921 99.5548 86.4833 99.49C86.4749 99.4252 86.3748 99.5774 86.506 99.33C86.6378 99.0826 87.0698 98.5445 86.8975 97.9556C86.7913 97.5933 86.8074 97.2005 86.1669 96.7931C84.7947 95.9202 82.6462 95.3353 80.9387 94.8231C79.8929 94.5092 78.7214 94.1097 77.7145 93.6792C77.4859 93.5817 77.3525 93.5259 77.1396 93.4476C77.094 93.4307 77.0767 93.3867 77.0906 93.3433C77.1045 93.2999 77.1429 93.2751 77.189 93.2909C77.4081 93.3664 77.5438 93.4267 77.7773 93.5259C78.7753 93.9502 79.9513 94.3525 80.9888 94.6608C82.6985 95.1685 84.8892 95.7737 86.262 96.6488C86.9403 97.0816 86.942 97.5307 87.0554 97.9269C87.2383 98.5647 86.7702 99.1745 86.6284 99.4331C86.4877 99.6906 86.595 99.4607 86.5461 99.5103Z" fill="#26264F"/>
<path d="M97.3224 104.471C94.5641 101.838 91.515 99.3683 88.512 96.9993C88.2545 96.7964 88.1244 96.8922 87.8742 96.9807C87.7619 97.0207 87.6274 97.152 87.5117 97.2067C87.6452 97.5814 87.8648 98.0209 88.0772 98.3269C89.1764 99.9121 91.3159 99.978 91.9486 101.616C92.5063 103.059 91.1424 104.121 91.0835 105.848C91.054 106.706 91.5961 108.604 92.3934 109.406C94.0187 108.204 95.7895 106.853 97.2902 105.53C97.6777 105.189 97.7028 104.834 97.3224 104.471Z" fill="white"/>
<path d="M63.0104 103.207C62.9609 103.207 62.912 103.199 62.8647 103.185L48.1956 98.6709C47.9309 98.5892 47.7814 98.3051 47.8614 98.0369C47.9421 97.7687 48.2234 97.6177 48.4869 97.6983L63.061 102.183L109.337 97.6143C109.617 97.5839 109.858 97.7912 109.885 98.0707C109.911 98.3502 109.71 98.5987 109.434 98.6258L63.0588 103.204C63.0427 103.206 63.0265 103.207 63.0104 103.207Z" fill="#D8DEE8"/>
<path d="M71.9121 122.25C71.7197 122.25 71.5429 122.138 71.4589 121.959L62.5561 102.916C62.4377 102.662 62.5445 102.359 62.7947 102.239C63.0449 102.12 63.344 102.227 63.4624 102.481L72.2145 121.202L103.752 118.163C104.032 118.136 104.273 118.341 104.299 118.62C104.325 118.9 104.123 119.148 103.847 119.174L71.9593 122.247C71.9443 122.249 71.9282 122.25 71.9121 122.25Z" fill="#D8DEE8"/>
<path d="M71.9137 122.25C71.8731 122.25 71.8319 122.245 71.7908 122.234L59.2111 119.033C59.076 118.999 58.9604 118.909 58.8937 118.784L47.9014 98.4286C47.7685 98.1824 47.858 97.8736 48.1004 97.7389C48.3434 97.6048 48.6481 97.6949 48.781 97.9406L59.6676 118.102L72.0349 121.249C72.3034 121.317 72.4663 121.593 72.3991 121.865C72.3424 122.096 72.1377 122.25 71.9137 122.25Z" fill="#D8DEE8"/>
<path d="M66.2472 110.134C66.1994 110.134 66.1521 110.127 66.106 110.113L52.2903 106.009C52.0245 105.93 51.8722 105.648 51.95 105.378C52.0279 105.109 52.3075 104.954 52.5722 105.033L66.2973 109.11L107.092 105.504C107.373 105.476 107.611 105.687 107.635 105.966C107.66 106.246 107.455 106.492 107.179 106.517L66.2906 110.131C66.2761 110.132 66.2617 110.134 66.2472 110.134Z" fill="#D8DEE8"/>
<path d="M69.6234 117.353C69.5778 117.353 69.5322 117.347 69.4883 117.334L56.2531 113.576C55.9862 113.501 55.8305 113.22 55.9056 112.95C55.9801 112.68 56.257 112.522 56.5233 112.598L69.6707 116.331L105.096 113.19C105.371 113.161 105.614 113.372 105.639 113.652C105.663 113.931 105.459 114.178 105.183 114.202L69.6668 117.351C69.6523 117.352 69.6379 117.353 69.6234 117.353Z" fill="#D8DEE8"/>
<path d="M78.4249 121.623C78.2091 121.623 78.0095 121.48 77.9445 121.259L72.2671 101.955C72.1881 101.686 72.3388 101.402 72.6046 101.322C72.8692 101.242 73.1489 101.395 73.2284 101.664L78.9058 120.969C78.9848 121.238 78.8341 121.521 78.5683 121.601C78.5205 121.615 78.4721 121.623 78.4249 121.623Z" fill="#D8DEE8"/>
<path d="M84.7066 121.017C84.4675 121.017 84.2562 120.843 84.2134 120.597L80.8084 101.039C80.7606 100.763 80.9424 100.499 81.2149 100.45C81.4867 100.402 81.7481 100.586 81.7959 100.862L85.2009 120.42C85.2487 120.697 85.0669 120.96 84.7944 121.009C84.765 121.015 84.7355 121.017 84.7066 121.017Z" fill="#D8DEE8"/>
<path d="M91.7891 120.201C91.525 120.201 91.3037 119.991 91.2887 119.721L90.2156 100.301C90.2001 100.02 90.4119 99.7808 90.6882 99.765C90.9668 99.7543 91.2014 99.964 91.217 100.244L92.2901 119.664C92.3056 119.945 92.0938 120.184 91.8175 120.2C91.8086 120.2 91.7991 120.201 91.7891 120.201Z" fill="#D8DEE8"/>
<path d="M98.5017 119.438C98.4928 119.438 98.4839 119.438 98.475 119.438C98.1981 119.423 97.9862 119.184 98.0007 118.904L99.0215 99.1738C99.036 98.8937 99.2695 98.6784 99.5486 98.6931C99.8255 98.7077 100.037 98.9467 100.023 99.2273L99.0021 118.957C98.9882 119.228 98.7669 119.438 98.5017 119.438Z" fill="#D8DEE8"/>
<path d="M68.1111 121.281C67.9243 121.281 67.7453 121.175 67.6591 120.993L58.4833 101.664C58.3632 101.411 58.4683 101.107 58.7174 100.986C58.9665 100.865 59.2667 100.97 59.3868 101.223L68.5631 120.553C68.6832 120.806 68.5782 121.11 68.3291 121.231C68.2579 121.265 68.184 121.281 68.1111 121.281Z" fill="#D8DEE8"/>
<path d="M63.0126 119.985C62.8285 119.985 62.6512 119.882 62.5633 119.704L52.8226 99.9286C52.6986 99.6773 52.7993 99.3724 53.0472 99.2473C53.2952 99.1211 53.5966 99.2242 53.7195 99.475L63.4602 119.25C63.5842 119.501 63.4835 119.806 63.2355 119.931C63.1638 119.967 63.0876 119.985 63.0126 119.985Z" fill="#D8DEE8"/>
<path d="M74.0292 140.122C73.9658 140.122 73.9035 140.11 73.8446 140.087L56.3481 136.48C56.0907 136.376 55.9645 136.081 56.0668 135.82C56.1691 135.559 56.4604 135.431 56.7179 135.535L74.0959 139.094L95.987 136.383C97.5449 136.191 98.8215 135.074 99.2385 133.541L111.239 89.3881C111.787 87.373 113.536 85.9175 115.593 85.7665L121.96 85.2988C122.233 85.2824 122.477 85.4887 122.497 85.7687C122.517 86.0488 122.309 86.2922 122.033 86.3125L115.666 86.7802C114.031 86.9002 112.641 88.0566 112.205 89.658L100.205 133.811C99.6795 135.743 98.0715 137.149 96.1082 137.393L74.0903 140.119C74.0697 140.121 74.0492 140.122 74.0292 140.122Z" fill="#D8DEE8"/>
</g>
<defs>
<linearGradient id="paint0_linear_1403_9240" x1="89.0967" y1="239.617" x2="-102.563" y2="-477.85" gradientUnits="userSpaceOnUse">
<stop offset="0.003597" stop-color="#F36F56"/>
<stop offset="1" stop-color="#FFC444"/>
</linearGradient>
<linearGradient id="paint1_linear_1403_9240" x1="37.2396" y1="75.9309" x2="83.4842" y2="62.036" gradientUnits="userSpaceOnUse">
<stop offset="0.003597" stop-color="#F36F56"/>
<stop offset="1" stop-color="#FFC444"/>
</linearGradient>
<linearGradient id="paint2_linear_1403_9240" x1="54.7535" y1="137.408" x2="55.8229" y2="138.295" gradientUnits="userSpaceOnUse">
<stop stop-color="#AA80F9"/>
<stop offset="0.9964" stop-color="#6165D7"/>
</linearGradient>
<linearGradient id="paint3_linear_1403_9240" x1="55.438" y1="139.192" x2="59.2618" y2="139.192" gradientUnits="userSpaceOnUse">
<stop stop-color="#AA80F9"/>
<stop offset="0.9964" stop-color="#6165D7"/>
</linearGradient>
<linearGradient id="paint4_linear_1403_9240" x1="56.551" y1="139.244" x2="58.1532" y2="139.244" gradientUnits="userSpaceOnUse">
<stop stop-color="#40447E"/>
<stop offset="0.9964" stop-color="#3C3B6B"/>
</linearGradient>
<linearGradient id="paint5_linear_1403_9240" x1="75.2223" y1="135.172" x2="76.2918" y2="136.06" gradientUnits="userSpaceOnUse">
<stop stop-color="#AA80F9"/>
<stop offset="0.9964" stop-color="#6165D7"/>
</linearGradient>
<linearGradient id="paint6_linear_1403_9240" x1="75.9069" y1="136.957" x2="79.7307" y2="136.957" gradientUnits="userSpaceOnUse">
<stop stop-color="#AA80F9"/>
<stop offset="0.9964" stop-color="#6165D7"/>
</linearGradient>
<linearGradient id="paint7_linear_1403_9240" x1="77.0199" y1="137.008" x2="78.6221" y2="137.008" gradientUnits="userSpaceOnUse">
<stop stop-color="#40447E"/>
<stop offset="0.9964" stop-color="#3C3B6B"/>
</linearGradient>
<linearGradient id="paint8_linear_1403_9240" x1="104.5" y1="85.1189" x2="123.002" y2="85.1189" gradientUnits="userSpaceOnUse">
<stop stop-color="#40447E"/>
<stop offset="0.9964" stop-color="#3C3B6B"/>
</linearGradient>
<linearGradient id="paint9_linear_1403_9240" x1="72.062" y1="140.667" x2="73.1315" y2="141.554" gradientUnits="userSpaceOnUse">
<stop stop-color="#AA80F9"/>
<stop offset="0.9964" stop-color="#6165D7"/>
</linearGradient>
<linearGradient id="paint10_linear_1403_9240" x1="72.7465" y1="142.451" x2="76.5703" y2="142.451" gradientUnits="userSpaceOnUse">
<stop stop-color="#AA80F9"/>
<stop offset="0.9964" stop-color="#6165D7"/>
</linearGradient>
<linearGradient id="paint11_linear_1403_9240" x1="73.8595" y1="142.502" x2="75.4617" y2="142.502" gradientUnits="userSpaceOnUse">
<stop stop-color="#40447E"/>
<stop offset="0.9964" stop-color="#3C3B6B"/>
</linearGradient>
<linearGradient id="paint12_linear_1403_9240" x1="89.7848" y1="138.869" x2="90.8542" y2="139.756" gradientUnits="userSpaceOnUse">
<stop stop-color="#AA80F9"/>
<stop offset="0.9964" stop-color="#6165D7"/>
</linearGradient>
<linearGradient id="paint13_linear_1403_9240" x1="90.4693" y1="140.653" x2="94.2931" y2="140.653" gradientUnits="userSpaceOnUse">
<stop stop-color="#AA80F9"/>
<stop offset="0.9964" stop-color="#6165D7"/>
</linearGradient>
<linearGradient id="paint14_linear_1403_9240" x1="91.5823" y1="140.705" x2="93.1845" y2="140.705" gradientUnits="userSpaceOnUse">
<stop stop-color="#40447E"/>
<stop offset="0.9964" stop-color="#3C3B6B"/>
</linearGradient>
<linearGradient id="paint15_linear_1403_9240" x1="64.7283" y1="86.9366" x2="77.3518" y2="86.3951" gradientUnits="userSpaceOnUse">
<stop stop-color="#311944"/>
<stop offset="1" stop-color="#893976"/>
</linearGradient>
<linearGradient id="paint16_linear_1403_9240" x1="81.8222" y1="101.327" x2="98.266" y2="139.431" gradientUnits="userSpaceOnUse">
<stop stop-color="#AA80F9"/>
<stop offset="0.9964" stop-color="#6165D7"/>
</linearGradient>
<linearGradient id="paint17_linear_1403_9240" x1="83.6382" y1="75.2351" x2="77.9336" y2="123.281" gradientUnits="userSpaceOnUse">
<stop stop-color="#311944"/>
<stop offset="1" stop-color="#893976"/>
</linearGradient>
<linearGradient id="paint18_linear_1403_9240" x1="86.5953" y1="74.5258" x2="71.1783" y2="103.465" gradientUnits="userSpaceOnUse">
<stop stop-color="#311944"/>
<stop offset="1" stop-color="#893976"/>
</linearGradient>
<linearGradient id="paint19_linear_1403_9240" x1="97.075" y1="77.1915" x2="80.4707" y2="108.36" gradientUnits="userSpaceOnUse">
<stop stop-color="#311944"/>
<stop offset="1" stop-color="#893976"/>
</linearGradient>
<clipPath id="clip0_1403_9240">
<rect width="123" height="145" fill="white"/>
</clipPath>
</defs>
</svg>
