<svg width="640" height="610" viewBox="0 0 640 610" fill="none" xmlns="http://www.w3.org/2000/svg">
<g clip-path="url(#clip0_0_1)">
<path d="M90.4268 48.7006C90.8941 47.901 91.1995 47.0236 91.5209 46.0929C91.856 45.1266 92.2002 44.1271 92.7496 43.2075C93.4722 41.9991 94.5367 40.9951 95.779 40.2954V32.7009C95.779 31.7413 94.9812 30.9639 93.9964 30.9639H86.8685C85.8838 30.9639 85.086 31.7413 85.086 32.7009V41.7459H75.804C74.8193 41.7459 74.0215 42.5233 74.0215 43.4829V50.431C74.0215 51.3906 74.8193 52.168 75.804 52.168H85.0153C87.2355 51.9126 89.3144 50.5976 90.4268 48.7006Z" fill="#E0004D"/>
<path d="M105.063 41.7456H95.7971C95.0084 42.2987 94.3337 43.0073 93.8436 43.8269C93.3581 44.6377 93.0481 45.5351 92.7199 46.4858C92.3939 47.4298 92.0543 48.4072 91.5254 49.3112C90.2056 51.5636 87.7278 53.1207 85.0859 53.4028V61.215C85.0859 62.1746 85.8838 62.952 86.8685 62.952H93.9986C94.9834 62.952 95.7812 62.1746 95.7812 61.215V52.1678H105.063C106.048 52.1678 106.846 51.3903 106.846 50.4307V43.4826C106.846 42.5253 106.048 41.7456 105.063 41.7456Z" fill="#203360"/>
<path d="M111.845 55.2983L117.69 38.9823H121.165L126.999 55.2983H123.716L122.384 51.5183H116.517L115.151 55.2983H111.845ZM117.25 48.641H121.594L119.439 42.1643L117.25 48.641ZM128.129 58.9317V43.6311H131.435L131.446 45.3124C131.619 45.034 131.83 44.782 132.078 44.5564C132.334 44.3232 132.616 44.1201 132.924 43.9471C133.233 43.774 133.568 43.6424 133.929 43.5521C134.29 43.4543 134.67 43.4054 135.068 43.4054C135.933 43.4054 136.704 43.6198 137.381 44.0486C138.058 44.4699 138.589 45.1243 138.972 46.012C139.364 46.8921 139.559 48.0129 139.559 49.3745C139.559 50.7887 139.348 51.9509 138.927 52.8611C138.513 53.7638 137.942 54.4333 137.212 54.8696C136.482 55.3059 135.659 55.524 134.741 55.524C134.365 55.524 134.011 55.4714 133.68 55.366C133.349 55.2683 133.041 55.1291 132.755 54.9485C132.477 54.768 132.225 54.5611 131.999 54.328C131.781 54.0872 131.589 53.8277 131.424 53.5494V58.9317H128.129ZM133.951 53.1093C134.666 53.1093 135.264 52.8122 135.745 52.2179C136.234 51.6237 136.479 50.6834 136.479 49.397C136.479 48.2687 136.245 47.3885 135.779 46.7567C135.32 46.1173 134.711 45.7976 133.951 45.7976C133.101 45.7976 132.465 46.1436 132.044 46.8357C131.63 47.5202 131.424 48.374 131.424 49.397C131.424 50.0515 131.514 50.6608 131.694 51.225C131.882 51.7891 132.161 52.2443 132.529 52.5903C132.906 52.9363 133.379 53.1093 133.951 53.1093ZM145.856 55.524C144.712 55.524 143.716 55.2795 142.866 54.7906C142.023 54.3016 141.369 53.6096 140.902 52.7144C140.443 51.8192 140.214 50.7586 140.214 49.5324C140.214 48.3063 140.443 47.2343 140.902 46.3166C141.369 45.3989 142.023 44.6843 142.866 44.1727C143.716 43.6612 144.716 43.4054 145.867 43.4054C147.018 43.4054 148.015 43.6574 148.857 44.1614C149.7 44.6579 150.35 45.365 150.809 46.2828C151.268 47.2005 151.497 48.2837 151.497 49.5324C151.497 50.7059 151.272 51.744 150.82 52.6467C150.377 53.5419 149.733 54.2452 148.891 54.7567C148.056 55.2683 147.044 55.524 145.856 55.524ZM145.867 53.0755C146.446 53.0755 146.913 52.9062 147.266 52.5677C147.62 52.2292 147.875 51.7854 148.033 51.2363C148.199 50.6796 148.282 50.074 148.282 49.4196C148.282 48.8028 148.206 48.2198 148.056 47.6706C147.913 47.1215 147.665 46.6777 147.311 46.3392C146.958 46.0007 146.476 45.8314 145.867 45.8314C145.288 45.8314 144.818 45.9931 144.457 46.3166C144.103 46.6325 143.843 47.0651 143.678 47.6142C143.512 48.1558 143.43 48.7576 143.43 49.4196C143.43 50.0289 143.505 50.6157 143.655 51.1798C143.806 51.7365 144.058 52.1916 144.411 52.5451C144.765 52.8987 145.25 53.0755 145.867 53.0755ZM159.525 45.9217H156.93L156.953 52.1389C156.953 52.4248 156.987 52.6392 157.054 52.7821C157.13 52.9175 157.242 53.0078 157.393 53.0529C157.551 53.0905 157.75 53.1093 157.991 53.1093H159.559V55.1404C159.409 55.2081 159.172 55.272 158.848 55.3322C158.532 55.3924 158.089 55.4225 157.517 55.4225C156.494 55.4225 155.7 55.2908 155.136 55.0275C154.579 54.7643 154.192 54.3957 153.974 53.9217C153.756 53.4478 153.647 52.8987 153.647 52.2743V45.9217H151.751V43.6311H153.759L154.583 40.1106H156.93V43.6198H159.525V45.9217ZM164.42 55.524C163.675 55.524 163.005 55.3848 162.411 55.1065C161.817 54.8282 161.347 54.4257 161.001 53.8992C160.655 53.3651 160.482 52.7182 160.482 51.9584C160.482 50.6796 160.959 49.7092 161.915 49.0472C162.87 48.3777 164.378 48.0317 166.439 48.0091L167.895 47.9866V47.287C167.895 46.7529 167.737 46.3429 167.421 46.0571C167.113 45.7637 166.631 45.6208 165.977 45.6283C165.495 45.6358 165.036 45.7487 164.6 45.9668C164.171 46.185 163.878 46.5648 163.72 47.1065H160.978C161.023 46.264 161.268 45.5719 161.712 45.0303C162.155 44.4811 162.757 44.0749 163.517 43.8117C164.284 43.5408 165.153 43.4054 166.123 43.4054C167.32 43.4054 168.279 43.5559 169.001 43.8568C169.723 44.1502 170.246 44.5752 170.569 45.1318C170.893 45.681 171.054 46.3354 171.054 47.0952V55.2983H168.301L168.03 53.2899C167.632 54.1324 167.131 54.7154 166.53 55.0388C165.935 55.3623 165.232 55.524 164.42 55.524ZM165.525 53.3576C165.826 53.3576 166.116 53.3049 166.394 53.1996C166.68 53.0868 166.932 52.9401 167.15 52.7595C167.376 52.5715 167.556 52.3608 167.692 52.1277C167.827 51.8945 167.895 51.6537 167.895 51.4055V49.6791L166.71 49.7017C166.161 49.7092 165.65 49.7769 165.176 49.9048C164.702 50.0251 164.318 50.2245 164.025 50.5028C163.739 50.7811 163.596 51.1573 163.596 51.6312C163.596 52.1728 163.784 52.5978 164.16 52.9062C164.536 53.2071 164.991 53.3576 165.525 53.3576ZM184.341 55.2983H181.057L177.909 50.2659L176.363 51.9133V55.2983H173.068V38.5309H176.363V48.4718L180.651 43.6311H184.194L179.951 48.28L184.341 55.2983ZM187.391 50.2207C187.384 50.815 187.478 51.334 187.674 51.7779C187.869 52.2142 188.151 52.5527 188.52 52.7934C188.896 53.0266 189.347 53.1432 189.874 53.1432C190.438 53.1432 190.931 53.0228 191.352 52.7821C191.781 52.5414 192.078 52.1465 192.243 51.5973H195.211C195.083 52.4248 194.752 53.1319 194.218 53.7186C193.691 54.3054 193.052 54.753 192.3 55.0614C191.548 55.3698 190.765 55.524 189.953 55.524C188.802 55.524 187.786 55.2833 186.906 54.8019C186.034 54.3129 185.353 53.6246 184.864 52.737C184.375 51.8493 184.13 50.8037 184.13 49.6001C184.13 48.4342 184.352 47.3848 184.796 46.452C185.24 45.5117 185.883 44.7708 186.726 44.2291C187.576 43.68 188.595 43.4054 189.784 43.4054C190.972 43.4054 191.969 43.6574 192.774 44.1614C193.586 44.6579 194.195 45.3537 194.602 46.2489C195.015 47.1365 195.222 48.1634 195.222 49.3293V50.2207H187.391ZM187.38 48.2574H192.142C192.142 47.791 192.055 47.3622 191.882 46.9711C191.709 46.5799 191.446 46.2715 191.092 46.0458C190.746 45.8201 190.31 45.7073 189.784 45.7073C189.272 45.7073 188.836 45.8314 188.475 46.0797C188.121 46.3204 187.85 46.6363 187.662 47.0275C187.474 47.4186 187.38 47.8286 187.38 48.2574ZM201.606 43.4054C202.583 43.4054 203.426 43.6048 204.133 44.0035C204.848 44.4022 205.408 44.94 205.814 45.617C206.228 46.294 206.465 47.05 206.525 47.885H203.783C203.731 47.5766 203.622 47.272 203.456 46.9711C203.291 46.6626 203.057 46.4106 202.756 46.2151C202.456 46.012 202.079 45.9104 201.628 45.9104C200.861 45.9104 200.236 46.2075 199.755 46.8018C199.281 47.3885 199.044 48.2837 199.044 49.4873C199.044 50.6232 199.277 51.5259 199.744 52.1954C200.21 52.8573 200.861 53.1883 201.696 53.1883C202.14 53.1883 202.508 53.0792 202.802 52.8611C203.103 52.6429 203.336 52.3834 203.501 52.0825C203.667 51.7741 203.772 51.4883 203.817 51.225H206.491C206.439 52.0299 206.206 52.7595 205.792 53.414C205.378 54.0609 204.814 54.5762 204.099 54.9598C203.392 55.336 202.561 55.524 201.606 55.524C200.522 55.524 199.556 55.2833 198.706 54.8019C197.856 54.3204 197.186 53.6321 196.697 52.737C196.216 51.8343 195.975 50.7586 195.975 49.5099C195.975 48.3063 196.208 47.2456 196.675 46.3279C197.141 45.4102 197.795 44.6955 198.638 44.184C199.488 43.665 200.477 43.4054 201.606 43.4054ZM211.21 55.524C210.466 55.524 209.796 55.3848 209.202 55.1065C208.608 54.8282 208.137 54.4257 207.791 53.8992C207.445 53.3651 207.272 52.7182 207.272 51.9584C207.272 50.6796 207.75 49.7092 208.705 49.0472C209.661 48.3777 211.169 48.0317 213.23 48.0091L214.686 47.9866V47.287C214.686 46.7529 214.528 46.3429 214.212 46.0571C213.903 45.7637 213.422 45.6208 212.767 45.6283C212.286 45.6358 211.827 45.7487 211.391 45.9668C210.962 46.185 210.669 46.5648 210.511 47.1065H207.769C207.814 46.264 208.058 45.5719 208.502 45.0303C208.946 44.4811 209.548 44.0749 210.308 43.8117C211.075 43.5408 211.944 43.4054 212.914 43.4054C214.11 43.4054 215.069 43.5559 215.791 43.8568C216.514 44.1502 217.036 44.5752 217.36 45.1318C217.683 45.681 217.845 46.3354 217.845 47.0952V55.2983H215.092L214.821 53.2899C214.422 54.1324 213.922 54.7154 213.32 55.0388C212.726 55.3623 212.023 55.524 211.21 55.524ZM212.316 53.3576C212.617 53.3576 212.907 53.3049 213.185 53.1996C213.471 53.0868 213.723 52.9401 213.941 52.7595C214.167 52.5715 214.347 52.3608 214.483 52.1277C214.618 51.8945 214.686 51.6537 214.686 51.4055V49.6791L213.501 49.7017C212.952 49.7092 212.44 49.7769 211.966 49.9048C211.492 50.0251 211.109 50.2245 210.815 50.5028C210.53 50.7811 210.387 51.1573 210.387 51.6312C210.387 52.1728 210.575 52.5978 210.951 52.9062C211.327 53.2071 211.782 53.3576 212.316 53.3576ZM219.859 55.2983V43.6311H223.03V46.3956C223.218 45.8013 223.481 45.2823 223.82 44.8385C224.166 44.3871 224.583 44.0373 225.072 43.7891C225.561 43.5333 226.114 43.4054 226.731 43.4054C226.836 43.4054 226.934 43.413 227.024 43.428C227.122 43.4355 227.193 43.4506 227.239 43.4731V46.61C227.171 46.5799 227.088 46.5611 226.99 46.5536C226.9 46.546 226.817 46.5385 226.742 46.531C226.095 46.4783 225.542 46.4971 225.083 46.5874C224.624 46.6777 224.252 46.8319 223.966 47.05C223.68 47.2682 223.474 47.5352 223.346 47.8512C223.218 48.1671 223.154 48.5207 223.154 48.9118V55.2983H219.859ZM230.788 50.2207C230.781 50.815 230.875 51.334 231.07 51.7779C231.266 52.2142 231.548 52.5527 231.917 52.7934C232.293 53.0266 232.744 53.1432 233.271 53.1432C233.835 53.1432 234.328 53.0228 234.749 52.7821C235.178 52.5414 235.475 52.1465 235.64 51.5973H238.608C238.48 52.4248 238.149 53.1319 237.615 53.7186C237.088 54.3054 236.449 54.753 235.697 55.0614C234.944 55.3698 234.162 55.524 233.35 55.524C232.199 55.524 231.183 55.2833 230.303 54.8019C229.43 54.3129 228.75 53.6246 228.261 52.737C227.772 51.8493 227.527 50.8037 227.527 49.6001C227.527 48.4342 227.749 47.3848 228.193 46.452C228.637 45.5117 229.28 44.7708 230.123 44.2291C230.973 43.68 231.992 43.4054 233.18 43.4054C234.369 43.4054 235.366 43.6574 236.171 44.1614C236.983 44.6579 237.592 45.3537 237.998 46.2489C238.412 47.1365 238.619 48.1634 238.619 49.3293V50.2207H230.788ZM230.777 48.2574H235.539C235.539 47.791 235.452 47.3622 235.279 46.9711C235.106 46.5799 234.843 46.2715 234.489 46.0458C234.143 45.8201 233.707 45.7073 233.18 45.7073C232.669 45.7073 232.233 45.8314 231.871 46.0797C231.518 46.3204 231.247 46.6363 231.059 47.0275C230.871 47.4186 230.777 47.8286 230.777 48.2574Z" fill="#213360"/>
</g>
<g clip-path="url(#clip1_0_1)">
<ellipse cx="562.5" cy="-23" rx="229.5" ry="139" fill="url(#paint0_radial_0_1)" fill-opacity="0.2"/>
<ellipse cx="344" cy="523.5" rx="403" ry="101.5" fill="url(#paint1_radial_0_1)" fill-opacity="0.4"/>
<ellipse cx="-89" cy="192" rx="143" ry="139" fill="url(#paint2_radial_0_1)" fill-opacity="0.2"/>
<path d="M93.9268 410.361C93.9268 410.361 19.0434 265.033 72.9322 232.672C108.952 211.041 147.13 258.725 192.699 233.5C233.267 211.041 220.371 142.717 285.073 133.273C357.818 122.654 373.836 250.091 433.536 232.672C505.977 211.535 578.037 254.442 515.763 410.638L93.9268 410.361Z" fill="#E0004D" fill-opacity="0.45"/>
<path d="M36.5847 397.135C35.3281 394.364 34.0874 391.49 32.8926 388.597L35.8362 387.967C37.022 390.84 38.258 393.694 39.5055 396.448L36.5847 397.135ZM563.243 393.557L560.194 393.286C560.699 390.335 561.18 387.362 561.622 384.453L564.675 384.694C564.234 387.613 563.751 390.595 563.243 393.557ZM29.5002 379.998C28.4244 377.138 27.3829 374.227 26.4009 371.342L29.3835 370.815C30.3586 373.683 31.3955 376.578 32.4645 379.418L29.5002 379.998ZM565.934 375.812L562.876 375.604C563.265 372.642 563.625 369.66 563.945 366.745L567.006 366.92C566.685 369.847 566.324 372.838 565.934 375.812ZM23.5946 362.634C22.7064 359.721 21.8641 356.777 21.0858 353.88L24.1004 353.46C24.8741 356.337 25.7119 359.266 26.5932 362.159L23.5946 362.634ZM567.889 358.017L564.824 357.877C565.085 354.917 565.312 351.93 565.502 349.001L568.569 349.103C568.379 352.045 568.15 355.045 567.889 358.017ZM18.886 345.082C18.2039 342.134 17.5699 339.16 17.0068 336.245L20.0489 335.941C20.6097 338.836 21.2369 341.79 21.9167 344.719L18.886 345.082ZM569.038 340.182L565.969 340.117C566.088 337.143 566.17 334.154 566.214 331.231L569.286 331.254C569.242 334.191 569.157 337.194 569.038 340.182ZM15.464 327.373C15.0062 324.395 14.6079 321.4 14.2782 318.469L17.3387 318.291C17.6637 321.198 18.0597 324.172 18.5152 327.128L15.464 327.373ZM566.225 322.343C566.189 319.367 566.111 316.378 565.992 313.459L569.061 313.394C569.18 316.328 569.258 319.332 569.295 322.323L566.225 322.343ZM13.4748 309.544C13.2711 306.549 13.136 303.542 13.0742 300.605L16.1461 300.572C16.2079 303.483 16.3429 306.466 16.5444 309.438L13.4748 309.544ZM565.5 304.585C565.289 301.613 565.03 298.629 564.728 295.72L567.791 295.555C568.093 298.482 568.354 301.481 568.567 304.471L565.5 304.585ZM16.1736 291.701L13.1017 291.656C13.1864 288.653 13.3512 285.644 13.5915 282.715L16.6565 282.845C16.4208 285.746 16.2582 288.726 16.1736 291.701ZM563.664 286.873C563.254 283.902 562.789 280.934 562.283 278.05L565.33 277.773C565.838 280.674 566.308 283.662 566.72 286.653L563.664 286.873ZM17.6339 274.01L14.5781 273.788C14.9947 270.797 15.5029 267.805 16.0889 264.898L19.1287 265.216C18.5496 268.092 18.046 271.05 17.6339 274.01ZM560.562 269.262C559.923 266.31 559.221 263.368 558.477 260.518L561.496 260.109C562.247 262.981 562.954 265.947 563.597 268.923L560.562 269.262ZM197.322 268.95C193.055 268.465 189.967 267.067 185.692 264.649L187.633 262.934C191.38 265.045 194.085 266.312 197.649 266.75L197.322 268.95ZM207.977 263.684L205.242 262.679C206.648 260.695 207.89 257.943 208.937 254.498L211.937 254.971C210.82 258.652 209.525 261.502 207.977 263.684ZM176.677 258.302C174.23 256.34 171.616 254.079 168.684 251.396L171.097 250.027C173.988 252.673 176.561 254.896 178.962 256.823L176.677 258.302ZM21.1796 256.487L18.165 256.065C18.9616 253.111 19.8612 250.167 20.8409 247.313L23.8235 247.845C22.8552 250.662 21.9648 253.571 21.1796 256.487ZM555.995 251.832C555.087 248.91 554.105 246.012 553.079 243.221L556.048 242.656C557.083 245.474 558.074 248.399 558.992 251.349L555.995 251.832ZM214.004 246.063L210.958 245.781C211.429 243.139 211.853 240.247 212.251 236.938L215.311 237.128C214.909 240.469 214.481 243.392 214.004 246.063ZM161.162 244.266C158.665 241.836 156.076 239.269 153.844 237.054L156.33 235.753C158.557 237.965 161.142 240.528 163.63 242.948L161.162 244.266ZM386.022 244.083C383.63 244.083 381.284 243.569 379.047 242.553L380.684 240.681C384.044 242.21 387.35 242.214 390.918 240.994L392.239 242.991C390.129 243.716 388.036 244.083 386.022 244.083ZM27.0899 239.316L24.1531 238.67C25.3731 235.795 26.7122 232.935 28.1314 230.171L31.011 230.939C29.6124 233.661 28.2916 236.48 27.0899 239.316ZM402.281 237.207L400.024 235.706C402.352 233.889 404.849 231.648 407.656 228.853L410.144 230.151C407.266 233.015 404.694 235.323 402.281 237.207ZM370.312 235.685C368.326 233.475 366.355 230.874 364.29 227.732L367.067 226.785C369.072 229.837 370.976 232.355 372.89 234.481L370.312 235.685ZM549.685 234.704C548.449 231.837 547.128 229.014 545.761 226.315L548.648 225.557C550.03 228.289 551.367 231.145 552.619 234.046L549.685 234.704ZM146.565 229.839C143.754 227.072 141.413 224.801 139.195 222.691L141.644 221.356C143.871 223.475 146.224 225.758 149.044 228.533L146.565 229.839ZM216.234 228.193L213.169 228.05C213.402 225.457 213.638 222.544 213.892 219.142L216.96 219.262C216.705 222.672 216.467 225.593 216.234 228.193ZM35.6142 222.746L32.8033 221.853C34.4903 219.101 36.2872 216.4 38.1962 213.758L40.9202 214.782C39.0432 217.38 37.2737 220.038 35.6142 222.746ZM417.18 222.746L414.614 221.531C416.798 219.14 419.05 216.606 421.332 214.049L423.917 215.245C421.63 217.808 419.373 220.344 417.18 222.746ZM359.348 219.472C357.956 216.958 356.519 214.216 354.953 211.087L357.842 210.337C359.396 213.442 360.822 216.162 362.2 218.653L359.348 219.472ZM541.243 218.093C539.592 215.322 537.846 212.631 536.051 210.093L538.789 209.089C540.613 211.67 542.387 214.406 544.065 217.221L541.243 218.093ZM131.613 215.677C128.825 213.185 126.232 210.967 123.682 208.895L125.98 207.426C128.562 209.523 131.188 211.767 134.005 214.287L131.613 215.677ZM217.6 210.335L214.533 210.223C214.739 207.267 214.945 204.309 215.165 201.299L218.232 201.415C218.012 204.424 217.807 207.381 217.6 210.335ZM430.651 207.769L428.09 206.55C430.656 203.753 432.952 201.333 435.105 199.153L437.607 200.437C435.472 202.594 433.196 204.994 430.651 207.769ZM47.0112 207.145L44.4224 205.955C46.835 203.232 49.3254 200.771 51.8182 198.644L54.1644 200.072C51.7587 202.124 49.3529 204.505 47.0112 207.145ZM350.851 202.643C349.443 199.669 348.061 196.693 346.896 194.175L349.81 193.476C350.975 195.99 352.353 198.962 353.761 201.93L350.851 202.643ZM115.238 202.488C112.1 200.286 109.012 198.341 106.063 196.705L107.936 194.951C110.978 196.638 114.155 198.64 117.38 200.901L115.238 202.488ZM530.088 202.393C527.889 199.807 525.579 197.359 523.23 195.12L525.68 193.784C528.09 196.081 530.455 198.587 532.707 201.237L530.088 202.393ZM62.7803 194.052L60.917 192.292C64.584 190.276 68.4021 188.823 72.2637 187.97L73.1633 190.086C69.6496 190.862 66.1566 192.195 62.7803 194.052ZM445.015 193.374L442.629 191.981C445.509 189.42 448.24 187.218 450.973 185.246L453.145 186.81C450.488 188.727 447.828 190.873 445.015 193.374ZM218.919 192.506L215.854 192.374C216.119 189.157 216.385 186.236 216.662 183.445L219.725 183.602C219.448 186.385 219.184 189.296 218.919 192.506ZM95.9093 192.042C92.0775 190.667 88.3075 189.791 84.7045 189.436L85.1211 187.244C89.056 187.633 93.1441 188.579 97.2758 190.062L95.9093 192.042ZM515.329 188.465C512.371 186.283 509.311 184.356 506.23 182.74L508.038 180.95C511.259 182.64 514.45 184.649 517.526 186.92L515.329 188.465ZM342.977 185.708C341.45 182.416 340.189 179.731 339.015 177.26L341.919 176.543C343.098 179.02 344.36 181.709 345.889 185.006L342.977 185.708ZM462.338 181.161L460.578 179.348C464.355 177.444 468.17 176.034 471.918 175.156L472.865 177.26C469.409 178.071 465.865 179.383 462.338 181.161ZM495.849 178.45C492.045 177.293 488.195 176.578 484.404 176.323L484.69 174.119C488.792 174.396 492.949 175.166 497.042 176.409L495.849 178.45ZM220.707 174.718L217.646 174.522C218.029 171.416 218.445 168.419 218.885 165.61L221.936 165.858C221.501 168.649 221.087 171.63 220.707 174.718ZM334.929 168.843C333.446 165.859 332.047 163.131 330.653 160.503L333.521 159.714C334.922 162.355 336.327 165.097 337.82 168.097L334.929 168.843ZM223.502 157.032L220.462 156.716C221.082 153.619 221.767 150.639 222.492 147.86L225.511 148.268C224.79 151.018 224.115 153.966 223.502 157.032ZM326.091 152.242C324.441 149.382 322.776 146.646 321.147 144.108L323.935 143.179C325.583 145.742 327.263 148.506 328.929 151.393L326.091 152.242ZM228.116 139.612L225.136 139.076C226.207 135.986 227.388 133.075 228.645 130.425L231.552 131.14C230.323 133.731 229.167 136.581 228.116 139.612ZM315.692 136.167C313.673 133.425 311.608 130.852 309.56 128.518L312.155 127.336C314.245 129.716 316.349 132.339 318.407 135.13L315.692 136.167ZM236.167 123.032L233.413 122.052C235.43 119.108 237.666 116.505 240.06 114.315L242.473 115.684C240.209 117.754 238.087 120.225 236.167 123.032ZM302.519 121.341C299.836 118.917 297.064 116.77 294.285 114.959L296.345 113.317C299.248 115.209 302.132 117.444 304.92 119.96L302.519 121.341ZM251.041 109.951L249.386 108.087C253.023 106.409 257.033 105.317 261.3 104.844L261.767 107.03C257.924 107.458 254.316 108.44 251.041 109.951ZM284.596 109.949C281.018 108.56 277.291 107.609 273.519 107.124L274.057 104.946C278.152 105.47 282.187 106.5 286.054 108L284.596 109.949Z" fill="#E0004D" fill-opacity="0.5"/>
<path d="M589.759 363.96C563.611 361.177 567.876 386.307 530.604 386.307C496.527 386.307 485.623 290.608 460.828 317.965C333.716 458.208 407.527 258.323 306.437 255.783C260.727 254.634 230.266 289.613 219.036 351.545C202.755 407.534 164.995 308.841 126.135 318.018C101.439 323.85 104.267 386.307 70.1892 386.307C32.9176 386.307 37.1846 361.177 11.0351 363.96C-17.1177 366.953 -25.5273 411.432 -25.5273 411.432H626.321C626.321 411.432 617.911 366.953 589.759 363.96Z" fill="#E0004D" fill-opacity="0.7"/>
<path d="M566.637 388.551C542.596 387.237 546.518 399.105 512.248 399.105C480.915 399.105 481.776 372.503 460.807 366.85C422.193 356.439 390.36 409.131 375.39 382.686C346.958 312.515 264.031 277.326 225.776 382.686C210.806 409.131 175.797 361.944 140.359 366.85C118.545 369.87 120.251 399.105 88.918 399.105C54.6484 399.105 58.5703 387.237 34.5292 388.551C8.64337 389.966 0.912109 410.974 0.912109 410.974H600.256C600.254 410.974 592.523 389.966 566.637 388.551Z" fill="#E1ECEF" fill-opacity="0.7"/>
<path d="M-25.1579 410.974C-25.1579 410.974 -29.2442 423.614 -10.308 426.779C15.592 431.106 167.619 442.48 130.688 451.122C109.839 455.999 141.332 462.624 242.88 465.062C344.429 467.502 518.678 457.944 460.081 443.804C401.484 429.663 622.97 444.781 626.322 410.974H-25.1579V410.974Z" fill="#E0004D"/>
<path d="M250.91 286.767V422.729C250.91 429.556 278.37 435.091 312.245 435.091C346.119 435.091 373.579 429.556 373.579 422.729V286.767H250.91Z" fill="#2B478B"/>
<path d="M312.245 299.129C346.119 299.129 373.579 293.595 373.579 286.767C373.579 279.94 346.119 274.406 312.245 274.406C278.371 274.406 250.91 279.94 250.91 286.767C250.91 293.595 278.371 299.129 312.245 299.129Z" fill="#233862"/>
<path d="M265.494 237.272V281.547C265.494 286.752 286.426 290.97 312.245 290.97C338.064 290.97 358.996 286.752 358.996 281.547V237.272H265.494Z" fill="#2B478B"/>
<path d="M312.245 246.695C338.065 246.695 358.996 242.477 358.996 237.272C358.996 232.068 338.065 227.849 312.245 227.849C286.425 227.849 265.494 232.068 265.494 237.272C265.494 242.477 286.425 246.695 312.245 246.695Z" fill="#233862"/>
<path d="M343.435 387.661C360.663 372.06 360.663 346.765 343.435 331.164C326.207 315.563 298.275 315.563 281.047 331.164C263.819 346.765 263.82 372.06 281.047 387.661C298.275 403.262 326.207 403.262 343.435 387.661Z" fill="#233862"/>
<path d="M341.067 361.071H283.423C282.411 361.071 281.592 360.329 281.592 359.412C281.592 358.496 282.411 357.754 283.423 357.754H341.067C342.079 357.754 342.898 358.496 342.898 359.412C342.898 360.329 342.077 361.071 341.067 361.071Z" fill="#D4E8FF"/>
<path d="M341.067 348.27H283.423C282.411 348.27 281.592 347.528 281.592 346.612C281.592 345.695 282.411 344.953 283.423 344.953H341.067C342.079 344.953 342.898 345.695 342.898 346.612C342.898 347.528 342.077 348.27 341.067 348.27Z" fill="#D4E8FF"/>
<path d="M341.067 373.869H283.423C282.411 373.869 281.592 373.127 281.592 372.211C281.592 371.294 282.411 370.552 283.423 370.552H341.067C342.079 370.552 342.898 371.294 342.898 372.211C342.898 373.127 342.077 373.869 341.067 373.869Z" fill="#D4E8FF"/>
<path d="M489.551 417.432L429.996 406.349C423.133 405.072 418.963 398.8 420.685 392.343L448.946 286.322C450.668 279.864 457.628 275.663 464.491 276.94L524.045 288.023C530.909 289.3 535.078 295.572 533.357 302.03L505.096 408.05C503.375 414.51 496.415 418.71 489.551 417.432Z" fill="#2B478B"/>
<path d="M466.2 305.244C466.199 305.242 461.453 297.178 461.464 297.176L470.932 292.101C474.774 289.887 479.676 293.33 478.232 297.244C477.85 298.409 476.996 299.461 475.759 300.125C475.757 300.125 466.201 305.254 466.2 305.244Z" fill="#EE5463"/>
<path d="M449.828 308.518C448.546 306.294 449.494 303.433 451.958 302.112L461.509 296.99C461.521 296.985 466.256 305.055 466.25 305.058C461.889 306.805 453.468 314.467 449.828 308.518Z" fill="white"/>
<path d="M512.026 314.031C512.025 314.029 507.279 305.965 507.29 305.963L516.758 300.888C520.6 298.674 525.502 302.117 524.058 306.031C523.676 307.196 522.822 308.248 521.585 308.913C521.583 308.912 512.027 314.042 512.026 314.031Z" fill="#EE5463"/>
<path d="M495.653 317.305C494.37 315.081 495.319 312.22 497.782 310.899L507.333 305.778C507.344 305.772 512.08 313.842 512.075 313.845C507.713 315.592 499.293 323.254 495.653 317.305Z" fill="white"/>
<path d="M446.698 388.581C446.697 388.579 441.951 380.515 441.962 380.513L451.43 375.438C455.272 373.224 460.174 376.667 458.73 380.581C458.348 381.746 457.494 382.798 456.257 383.462C456.254 383.463 446.699 388.591 446.698 388.581Z" fill="#EE5463"/>
<path d="M430.324 391.857C429.042 389.633 429.99 386.771 432.454 385.45L442.005 380.329C442.016 380.323 446.752 388.393 446.746 388.397C442.385 390.144 433.965 397.806 430.324 391.857Z" fill="white"/>
<path d="M492.52 397.368C492.519 397.366 487.773 389.302 487.784 389.3L497.252 384.225C501.094 382.011 505.997 385.454 504.553 389.368C504.17 390.532 503.317 391.585 502.079 392.249C502.076 392.25 492.521 397.378 492.52 397.368Z" fill="#EE5463"/>
<path d="M476.149 400.642C474.866 398.418 475.815 395.557 478.278 394.236L487.829 389.114C487.84 389.109 492.576 397.179 492.571 397.182C488.21 398.931 479.788 406.592 476.149 400.642Z" fill="white"/>
<path d="M453.2 360.802C453.199 360.8 448.453 352.736 448.464 352.734L457.932 347.659C461.774 345.445 466.676 348.888 465.232 352.802C464.85 353.966 463.996 355.019 462.759 355.683C462.756 355.684 453.201 360.812 453.2 360.802Z" fill="#EE5463"/>
<path d="M436.826 364.078C435.544 361.854 436.492 358.992 438.956 357.671L448.507 352.55C448.518 352.544 453.254 360.614 453.248 360.618C448.887 362.364 440.465 370.026 436.826 364.078Z" fill="white"/>
<path d="M499.024 369.589C499.023 369.586 494.277 361.522 494.288 361.52L503.756 356.445C507.598 354.231 512.5 357.674 511.056 361.589C510.674 362.753 509.82 363.805 508.583 364.47C508.58 364.471 499.024 369.598 499.024 369.589Z" fill="#EE5463"/>
<path d="M482.651 372.864C481.368 370.64 482.317 367.779 484.78 366.458L494.331 361.337C494.342 361.331 499.078 369.401 499.073 369.405C494.711 371.151 486.291 378.813 482.651 372.864Z" fill="white"/>
<path d="M459.702 333.024C459.701 333.022 454.955 324.958 454.966 324.956L464.434 319.881C468.276 317.667 473.178 321.11 471.734 325.024C471.352 326.189 470.498 327.241 469.261 327.905C469.259 327.905 459.703 333.034 459.702 333.024Z" fill="#EE5463"/>
<path d="M443.326 336.298C442.044 334.074 442.992 331.212 445.456 329.891L455.007 324.77C455.018 324.764 459.754 332.834 459.748 332.838C455.387 334.585 446.967 342.247 443.326 336.298Z" fill="white"/>
<path d="M505.524 341.81C505.523 341.807 500.777 333.743 500.788 333.742L510.256 328.666C514.098 326.453 519 329.896 517.557 333.81C517.174 334.974 516.321 336.026 515.083 336.691C515.08 336.692 505.525 341.82 505.524 341.81Z" fill="#EE5463"/>
<path d="M489.151 345.085C487.868 342.861 488.817 339.999 491.28 338.678L500.831 333.557C500.842 333.551 505.578 341.621 505.573 341.625C501.211 343.372 492.791 351.034 489.151 345.085Z" fill="white"/>
<path d="M462.316 404.814C461.311 404.628 460.696 403.698 460.942 402.736L489.464 290.967C489.71 290.004 490.724 289.373 491.727 289.559C492.731 289.744 493.346 290.675 493.1 291.637L464.579 403.404C464.334 404.368 463.321 405 462.316 404.814Z" fill="#E0004D" fill-opacity="0.45"/>
<path d="M398.829 249.205L396.632 233.809C394.889 223.101 377.271 225.16 378.591 235.922L380.785 251.288C373.112 255.118 368.212 262.994 369.459 271.453L389.769 413.707C393.873 440.117 439.207 434.733 435.754 408.324L415.444 266.07C414.283 257.504 407.297 251.176 398.829 249.205Z" fill="#EE5463"/>
<path d="M416.968 406.503L407.423 407.621L382.837 235.422C382.496 233.036 384.357 230.851 386.991 230.542C389.626 230.233 392.039 231.918 392.38 234.304L416.968 406.503Z" fill="#EEF7FF"/>
<path d="M407.88 263.174L396.674 264.486L396.875 265.897L408.081 264.585L407.88 263.174Z" fill="#F40C0C"/>
<path d="M403.068 269.374L397.465 270.03L397.666 271.44L403.269 270.784L403.068 269.374Z" fill="#F40C0C"/>
<path d="M404.65 280.466L399.047 281.122L399.248 282.532L404.851 281.876L404.65 280.466Z" fill="#F40C0C"/>
<path d="M406.232 291.555L400.629 292.211L400.83 293.622L406.433 292.966L406.232 291.555Z" fill="#F40C0C"/>
<path d="M407.816 302.645L402.213 303.301L402.414 304.711L408.017 304.055L407.816 302.645Z" fill="#F40C0C"/>
<path d="M409.398 313.737L403.795 314.393L403.996 315.802L409.599 315.146L409.398 313.737Z" fill="#F40C0C"/>
<path d="M410.982 324.826L405.379 325.481L405.58 326.891L411.183 326.235L410.982 324.826Z" fill="#F40C0C"/>
<path d="M412.566 335.917L406.963 336.573L407.164 337.983L412.767 337.327L412.566 335.917Z" fill="#F40C0C"/>
<path d="M414.15 347.006L408.547 347.662L408.748 349.072L414.351 348.416L414.15 347.006Z" fill="#F40C0C"/>
<path d="M409.462 274.264L398.256 275.576L398.457 276.985L409.663 275.673L409.462 274.264Z" fill="#F40C0C"/>
<path d="M411.046 285.355L399.84 286.667L400.041 288.076L411.247 286.764L411.046 285.355Z" fill="#F40C0C"/>
<path d="M412.628 296.445L401.422 297.757L401.623 299.168L412.829 297.856L412.628 296.445Z" fill="#F40C0C"/>
<path d="M414.212 307.535L403.006 308.847L403.207 310.259L414.413 308.947L414.212 307.535Z" fill="#F40C0C"/>
<path d="M415.794 318.626L404.588 319.938L404.789 321.347L415.995 320.035L415.794 318.626Z" fill="#F40C0C"/>
<path d="M418.958 340.806L407.752 342.118L407.953 343.527L419.159 342.215L418.958 340.806Z" fill="#F40C0C"/>
<path d="M420.544 351.896L409.338 353.208L409.539 354.618L420.745 353.306L420.544 351.896Z" fill="#F40C0C"/>
<path d="M415.732 358.097L410.129 358.752L410.33 360.162L415.933 359.506L415.732 358.097Z" fill="#F40C0C"/>
<path d="M417.314 369.188L411.711 369.844L411.912 371.253L417.515 370.597L417.314 369.188Z" fill="#F40C0C"/>
<path d="M422.126 362.987L410.92 364.298L411.121 365.708L422.327 364.396L422.126 362.987Z" fill="#F40C0C"/>
<path d="M423.708 374.077L412.502 375.389L412.703 376.798L423.909 375.486L423.708 374.077Z" fill="#F40C0C"/>
<path d="M418.898 380.277L413.295 380.933L413.496 382.342L419.099 381.686L418.898 380.277Z" fill="#F40C0C"/>
<path d="M425.292 385.166L414.086 386.478L414.287 387.888L425.493 386.576L425.292 385.166Z" fill="#F40C0C"/>
<path d="M417.376 329.715L406.17 331.027L406.371 332.436L417.577 331.125L417.376 329.715Z" fill="#F40C0C"/>
<path d="M415.895 397.753C412.204 372.159 409.272 349.842 409.272 349.842C408.937 347.364 405.951 345.867 403.237 346.418C400.69 346.716 398.883 348.769 399.203 351.005L406.041 398.902C401.217 400.977 397.677 405.308 398.445 411.546C401.095 427.86 428.803 424.618 426.786 408.228C425.759 401.914 421.256 398.579 415.895 397.753Z" fill="#233862"/>
<path d="M234.645 462.82C234.645 462.819 238.989 448.191 239.006 448.2L255.721 452.025C262.689 453.391 264.064 462.646 257.747 465.826C255.922 466.821 253.7 467.187 251.514 466.688C251.514 466.686 234.634 462.834 234.645 462.82Z" fill="#EE5463"/>
<path d="M211.618 449.762C212.847 445.755 217.343 443.319 221.691 444.314L238.557 448.173C238.576 448.178 234.213 462.802 234.202 462.802C227.213 460.33 208.57 460.699 211.618 449.762Z" fill="white"/>
<path d="M459.017 446.262C459.017 446.26 454.997 431.367 455.015 431.368L471.872 428.228C478.776 426.714 484.97 434.512 481.087 439.866C480.006 441.482 478.236 442.688 476.032 443.099C476.032 443.097 459.015 446.278 459.017 446.262Z" fill="#EE5463"/>
<path d="M431.535 443.648C430.468 439.552 433.139 435.586 437.524 434.769L454.532 431.6C454.551 431.598 458.553 446.495 458.544 446.499C451.026 447.025 434.718 454.704 431.535 443.648Z" fill="white"/>
<path d="M385.477 431.656V438.479C385.477 443.985 374.979 448.45 362.026 448.45C355.493 448.45 349.584 447.314 345.332 445.482C341.154 443.682 338.574 441.208 338.574 438.479V431.656H385.477Z" fill="#F99746"/>
<path d="M385.477 431.656C385.257 443.588 341.393 446.12 338.668 432.546C338.567 432.047 338.538 431.565 338.577 431.1C339.229 423.199 359.019 419.926 372.704 422.768C379.474 424.173 384.753 427.076 385.477 431.656Z" fill="#EFCBAB"/>
<path d="M372.771 422.792L352.195 441.442C351.661 441.346 351.257 441.066 350.746 440.952L370.89 422.415C371.425 422.513 372.258 422.679 372.771 422.792Z" fill="#F39200"/>
<path d="M313.403 152.274C313.403 152.274 316.313 147.343 325.179 148.797C334.047 150.254 336.14 160.128 339.149 164.622C345.525 174.142 347.434 184.258 344.123 189.118C340.445 194.515 332.321 192.404 320.459 191.437C307.799 190.403 302.495 180.763 310.37 167.506L313.403 152.274Z" fill="#662948"/>
<path d="M317.078 175.2C317.078 175.204 317.074 175.204 317.072 175.21C317.052 175.239 316.999 175.315 316.911 175.435C315.598 177.28 307.191 189.469 306.67 199.44C306.612 200.564 306.413 201.675 306.087 202.765C305.383 202.718 304.658 202.672 303.921 202.623C302.949 202.561 301.963 202.497 300.985 202.433C297.969 202.238 295.085 202.05 293.266 201.934C292.084 193.969 304.12 177.638 315.094 175.703C315.094 175.699 315.094 175.699 315.094 175.699C315.098 175.699 315.101 175.695 315.105 175.695C316.278 175.35 317.009 175.208 317.078 175.2Z" fill="white"/>
<path d="M265.656 295.13L283.29 294.961C283.245 292.489 282.494 287.496 283.054 284.674L275.442 285.536C275.653 286.892 276.122 289.832 273.557 290.535C270.235 291.446 266.619 291.166 264.545 293.41C264.007 294.161 264.644 295.14 265.656 295.13Z" fill="#F99370"/>
<path d="M283.805 293.466C283.739 293.99 283.582 294.499 283.288 294.961L265.484 295.132C264.617 295.14 263.982 294.398 264.259 293.68C264.913 291.998 267.231 289.545 275.433 289.09C275.433 289.09 278.302 289.681 282.883 288.908C282.885 288.908 284.075 291.341 283.805 293.466Z" fill="#EE5463"/>
<path d="M269.497 293.077C269.356 293.077 269.223 293.004 269.165 292.883C268.493 291.477 267.312 291.056 267.262 291.038C266.319 289.778 269.012 290.656 269.829 292.639C269.932 292.84 269.746 293.081 269.497 293.077Z" fill="#E8C0A6"/>
<path d="M272.296 292.753C272.144 292.753 272.002 292.668 271.953 292.534C271.355 290.904 269.723 290.162 269.706 290.156C268.843 288.688 271.979 290.238 272.639 292.339C272.717 292.539 272.534 292.757 272.296 292.753Z" fill="#E8C0A6"/>
<path d="M275.479 292.378C275.331 292.378 275.194 292.299 275.14 292.169C274.445 290.477 272.877 289.566 272.862 289.556C272.193 288.016 275.048 289.863 275.818 291.953C275.906 292.155 275.723 292.382 275.479 292.378Z" fill="#E8C0A6"/>
<path d="M264.272 293.654L283.808 293.466C283.741 293.99 283.585 294.499 283.291 294.961L265.486 295.132C264.607 295.142 263.968 294.377 264.272 293.654Z" fill="#395B96"/>
<path d="M321.516 236.061C312.837 235.741 297.719 231.547 291.198 241.235C284.058 251.815 285.806 274.263 286.529 285.111C277.002 287.803 271.879 285.111 271.879 285.111C267.819 262.905 254.453 212.324 299.152 219.341C299.152 219.339 329.128 219.339 329.128 219.339C334.142 228.308 329.657 235.909 321.516 236.061Z" fill="#FCB4B4"/>
<path d="M286.8 295.13L304.433 294.961C304.388 292.489 303.638 287.496 304.197 284.674L296.586 285.536C296.796 286.892 297.326 289.832 294.701 290.535C291.373 291.427 287.763 291.166 285.689 293.41C285.149 294.161 285.786 295.14 286.8 295.13Z" fill="#F99370"/>
<path d="M304.952 293.464C304.887 293.988 304.729 294.497 304.435 294.959L286.63 295.13C285.764 295.138 285.129 294.396 285.405 293.678C286.06 291.996 288.378 289.543 296.579 289.086C296.579 289.086 299.453 289.758 304.034 288.985C304.034 288.987 305.22 291.341 304.952 293.464Z" fill="#EE5463"/>
<path d="M290.642 293.077C290.5 293.077 290.367 293.004 290.309 292.883C289.64 291.477 288.456 291.056 288.407 291.038C287.463 289.778 290.157 290.656 290.974 292.639C291.077 292.84 290.893 293.081 290.642 293.077Z" fill="#E8C0A6"/>
<path d="M293.439 292.753C293.286 292.753 293.145 292.668 293.096 292.534C292.497 290.904 290.865 290.162 290.848 290.156C289.986 288.688 293.121 290.238 293.782 292.339C293.859 292.539 293.679 292.755 293.439 292.753Z" fill="#E8C0A6"/>
<path d="M308.23 183.963C308.23 183.963 301.59 188.984 299.415 195.525C297.659 200.805 303.715 199.225 304.798 196.325C305.881 193.423 308.23 183.963 308.23 183.963Z" fill="#E0004D"/>
<path d="M296.623 292.378C296.475 292.378 296.338 292.299 296.285 292.169C295.59 290.477 294.022 289.566 294.007 289.556C293.338 288.016 296.192 289.863 296.962 291.953C297.05 292.155 296.868 292.382 296.623 292.378Z" fill="#E8C0A6"/>
<path d="M285.416 293.652L304.952 293.464C304.887 293.988 304.729 294.497 304.435 294.959L286.63 295.13C285.751 295.142 285.114 294.377 285.416 293.652Z" fill="#395B96"/>
<path d="M301.592 219.339L299.027 235.738C287.819 239.613 287.011 249.97 285.99 261.619C280.798 243.621 281.25 225.42 301.592 219.339Z" fill="#F49F9F"/>
<path d="M332.812 236.82C323.73 241.726 314.658 236.373 308.271 247.688C303.115 257.595 306.006 276.527 307.422 285.111C297.895 287.803 292.772 285.111 292.772 285.111C287.123 265.956 274.203 221.438 310.712 219.341C320.708 219.061 333.846 219.139 342.682 218.671C342.682 218.671 345.135 230.164 332.812 236.82Z" fill="#FCB4B4"/>
<path d="M342.859 214.14C343.633 218.991 342.509 224.631 342.509 224.631C330.707 221.34 319.978 221.035 302.051 218.838C313.372 189.079 287.148 209.902 317.08 175.197C317.151 175.202 324.516 175.08 324.516 175.08C332.934 180.635 338.329 188.702 342.859 214.14Z" fill="#EE5463"/>
<path d="M317.068 175.208C317.049 175.237 316.995 175.313 316.907 175.433C315.595 177.278 307.188 189.467 306.667 199.438C306.609 200.562 306.409 201.673 306.083 202.763C303.312 212.174 291.495 220.289 283.241 225.214C274.034 230.712 270.958 242.192 272.211 253.307C272.211 253.307 271.477 253.406 270.409 253.462C268.846 253.547 266.568 253.542 264.808 253.008C264.808 253.008 262.581 239.71 266.83 231.514C271.074 223.314 280.414 218.715 291.924 215.618C292.355 215.503 292.765 215.377 293.155 215.245C297.663 213.72 299.671 211.131 300.501 208.284V208.28C301.061 206.365 301.084 204.334 300.983 202.431C300.9 200.836 300.722 199.329 300.696 198.061C300.599 193.565 304.704 187.084 312.762 179.211C314.091 177.913 315.526 176.581 317.068 175.208Z" fill="white"/>
<path d="M344.812 217.673C344.604 221.54 344.07 225.299 342.985 228.512C340.15 236.911 330.776 239.409 321.281 242.159C311.787 244.907 311.523 253.307 311.523 253.307C307.446 254.2 302.025 253.864 299.037 253.569C297.682 253.433 296.828 253.307 296.828 253.307C298.763 231.998 312.207 227.614 319.385 221.78C326.564 215.948 320.638 204.02 320.745 195.521C320.846 187.29 324.297 175.822 324.513 175.113C324.518 175.101 324.52 175.09 324.524 175.078C325.049 175.261 325.562 175.449 326.06 175.647C339.822 181.06 343.562 192.105 344.223 199.914C344.645 204.911 345.153 211.437 344.812 217.673Z" fill="white"/>
<path d="M324.183 183.882C323.306 188.149 322.493 192.907 322.594 195.523C322.802 201.023 326.778 212.864 324.391 219.339C322.004 225.814 312.66 227.016 306.168 235.212C299.676 243.412 299.037 253.569 299.037 253.569C297.682 253.433 296.828 253.307 296.828 253.307C298.763 231.998 312.207 227.614 319.385 221.78C326.564 215.948 320.638 204.02 320.745 195.521C320.846 187.29 324.297 175.822 324.513 175.113C324.518 175.101 324.52 175.09 324.524 175.078C325.077 175.088 325.628 175.113 326.18 175.16C326.156 175.251 326.113 175.418 326.06 175.647C325.736 176.933 324.936 180.229 324.183 183.882Z" fill="#E0004D"/>
<path d="M317.078 175.2C317.078 175.204 317.074 175.204 317.072 175.21C317.053 175.239 316.999 175.315 316.911 175.435C315.599 177.28 307.192 189.469 306.67 199.44C306.613 200.564 306.413 201.675 306.087 202.765C303.316 212.176 291.499 220.29 283.245 225.216C274.038 230.714 270.962 242.194 272.215 253.308C272.215 253.308 271.481 253.408 270.413 253.464C268.155 239.424 274.492 228.214 279.734 225.117C282.73 223.345 288.445 219.123 293.157 215.247C296.687 212.343 299.657 209.632 300.502 208.286V208.282C301.665 206.431 302.982 204.476 303.919 202.623C304.569 201.337 305.034 200.1 305.133 198.983C305.371 196.264 305.253 192.124 308.227 186.725C309.709 184.031 311.417 181.289 312.759 179.211C314.11 177.117 315.092 175.701 315.092 175.701L315.103 175.695C316.278 175.35 317.01 175.208 317.078 175.2Z" fill="#E0004D"/>
<path d="M270.412 221.042H310.086L302.187 195.523H262.754L270.412 221.042Z" fill="#163260"/>
<path d="M310.086 220.916H270.412V222.648H310.086V220.916Z" fill="#234270"/>
<path d="M301.592 195.523H303.012L310.749 220.916H329.577V222.649H309.426V221.099L301.592 195.523Z" fill="#0B274F"/>
<path d="M317.259 172.885L317.079 175.196C317.079 175.196 316.942 176.529 317.122 177.589C317.455 179.549 319.728 180.178 321.279 179.015C322.726 177.927 324.515 175.08 324.515 175.08C324.515 175.08 324.504 173.742 324.641 172.81L317.259 172.885Z" fill="#F99370"/>
<path d="M326.087 166.267C326.057 166.377 326.023 166.488 325.98 166.595C325.821 166.482 324.916 170.33 324.588 173.262C321.419 174.892 317.753 174.674 317.125 174.505C317.294 170.167 317.71 163.672 321.517 162.462C324.071 161.749 326.778 163.96 326.087 166.267Z" fill="#E57D61"/>
<path d="M316.487 151.972C306.917 150.964 305.401 164.219 311.904 169.096L316.487 151.972Z" fill="#662948"/>
<path d="M327.766 161.313C328.227 164.206 328.257 167.601 326.417 170.097L326.412 170.099C321.379 177.323 304.719 172.666 309.283 164.099C309.954 163.006 310.332 161.678 310.381 160.549C310.531 148.716 326.432 151.198 327.766 161.313Z" fill="#FFB27D"/>
<path d="M315.178 162.852C314.721 162.45 315.451 161.833 315.895 162.244C316.349 162.646 315.62 163.266 315.178 162.852Z" fill="#C16256"/>
<path d="M310.969 163.344C310.512 162.942 311.242 162.324 311.685 162.736C312.142 163.138 311.413 163.758 310.969 163.344Z" fill="#C16256"/>
<path d="M313.477 166.624C312.636 166.743 311.416 166.55 312.211 165.665C312.96 164.995 313.046 163.183 313.048 163.163C313.052 162.952 313.438 162.959 313.425 163.175C313.421 163.255 313.331 165.135 312.482 165.896C312.385 165.983 312.284 166.1 312.355 166.174C312.555 166.381 313.502 166.416 314.047 166.084C314.131 166.032 314.249 166.051 314.309 166.125C314.448 166.471 313.768 166.546 313.477 166.624Z" fill="#C16256"/>
<path d="M327.766 161.313C328.227 164.206 328.257 167.601 326.417 170.097L326.413 170.099C327.262 168.228 326.943 164.643 326.943 164.643L325.77 163.328C313.775 163.187 312.012 155.245 312.012 155.245C317.281 149.029 327.14 154.641 327.766 161.313Z" fill="#E57D61"/>
<path d="M312.93 154.245C312.93 154.245 314.714 162.064 325.57 162.538L328.478 159.893C329.829 153.087 320.61 146.117 312.93 154.245Z" fill="#662948"/>
<path d="M330.249 162.165C330.635 165.476 325.867 165.855 325.567 162.538C325.183 159.228 329.948 158.848 330.249 162.165Z" fill="#F99370"/>
<path d="M329.129 161.308C328.644 159.995 325.766 161.398 326.99 161.446C326.995 161.388 328.271 160.718 328.667 161.298C327.411 161.819 326.992 163.874 327.719 163.21C327.722 163.198 327.872 162.027 328.86 161.584C329.352 164.577 329.798 162.503 329.129 161.308Z" fill="#C16256"/>
<path d="M328.789 164.142C328.958 164.6 328.136 164.822 327.981 164.36C327.814 163.903 328.637 163.68 328.789 164.142Z" fill="#F4D4BE"/>
<path d="M286.232 281.384C286.389 283.707 286.528 285.111 286.528 285.111C277.002 287.803 271.878 285.111 271.878 285.111C271.878 285.111 271.683 283.925 271.273 281.914C271.389 281.963 277.308 284.569 286.232 281.384Z" fill="#F49F9F"/>
<path d="M307.422 285.111C297.896 287.803 292.772 285.111 292.772 285.111C292.772 285.111 292.453 284.035 291.912 282.176C291.912 282.176 297.164 284.573 306.925 282.176C307.212 284.014 307.422 285.111 307.422 285.111Z" fill="#F49F9F"/>
<path d="M316.737 161.513C316.692 161.513 316.645 161.499 316.606 161.474C315.41 160.652 314.32 160.918 314.275 160.93C314.162 160.959 314.044 160.903 314.009 160.804C313.975 160.705 314.039 160.602 314.151 160.571C314.204 160.557 315.489 160.231 316.868 161.177C316.96 161.241 316.977 161.357 316.904 161.439C316.864 161.487 316.801 161.513 316.737 161.513Z" fill="#C16256"/>
<path d="M310.475 161.963C310.434 161.963 310.391 161.953 310.355 161.93C310.256 161.872 310.23 161.755 310.297 161.67C310.325 161.633 310.989 160.782 312.098 160.819C312.216 160.823 312.308 160.91 312.302 161.013C312.298 161.116 312.199 161.2 312.081 161.194C311.21 161.169 310.655 161.872 310.651 161.879C310.61 161.934 310.543 161.963 310.475 161.963Z" fill="#C16256"/>
<path d="M315.083 168.393C314.805 168.393 314.56 168.306 314.404 168.129C314.073 167.752 314.292 167.135 314.901 166.721C315.512 166.308 316.25 166.276 316.58 166.653C316.911 167.03 316.692 167.648 316.083 168.061C315.759 168.281 315.399 168.393 315.083 168.393ZM315.901 166.768C315.688 166.768 315.42 166.846 315.163 167.018C314.721 167.319 314.586 167.725 314.743 167.902C314.899 168.079 315.379 168.067 315.823 167.766C316.265 167.465 316.4 167.059 316.246 166.882C316.177 166.809 316.053 166.768 315.901 166.768Z" fill="#C16256"/>
<path d="M337.537 180.726C346.682 186.74 351.567 197.566 349.152 207.409C348.226 212.938 344.25 218.197 338.03 219.762C334.959 220.84 320.635 222.573 321.302 218.112C321.529 217.041 322.61 216.647 323.659 216.362C325.385 215.828 327.165 215.237 328.812 214.581C331.761 213.237 335.553 211.98 336.194 209.075C337.56 202.291 334.393 195.659 328.617 191.231C328.628 191.236 328.589 191.211 328.675 191.266C320.847 186.146 329.662 175.674 337.537 180.726Z" fill="#FFB27D"/>
<path d="M344.812 217.673C344.244 217.976 343.643 218.269 343.021 218.551C338.494 220.609 333.952 220.932 330.561 221.04C330.561 221.04 331.344 216.601 327.689 214.773C344.932 203.274 326.596 196.575 325.193 185.325C324.644 180.926 326.177 175.162 326.177 175.162C347.244 176.91 368.564 205.105 344.812 217.673Z" fill="white"/>
<path d="M312.564 220.916C312.564 220.916 314.332 215.495 324.879 216.119L327.088 220.916H312.564Z" fill="#FFB27D"/>
<path d="M333.008 220.893C331.501 221.04 330.561 221.042 330.561 221.042C330.561 221.042 331.344 216.603 327.688 214.775C327.688 214.775 328.588 214.262 329.764 213.352C329.764 213.352 333.772 215.933 333.008 220.893Z" fill="#E0004D"/>
<path d="M313.141 220.862C311.266 220.912 318.09 216.804 320.126 217.809C320.143 217.954 320.023 218.082 319.858 218.098C316.019 218.449 313.465 220.85 313.141 220.862Z" fill="#E57D61"/>
<path d="M316.03 220.953C314.608 220.421 319.026 219.506 321.214 218.987C321.375 218.958 321.536 219.049 321.568 219.191C321.602 219.333 321.497 219.473 321.334 219.502C319.005 219.925 316.266 220.931 316.03 220.953Z" fill="#E57D61"/>
<path d="M329.367 214.663C329.219 214.663 329.073 214.606 328.975 214.496C328.803 214.305 328.84 214.027 329.056 213.876C335.782 209.192 335.19 203.272 333.153 200.433C330.933 197.341 327.092 191.687 327.053 191.631C326.912 191.421 326.989 191.151 327.227 191.027C327.465 190.903 327.774 190.971 327.915 191.18C327.954 191.237 331.789 196.882 334.002 199.965C336.232 203.07 336.923 209.524 329.68 214.567C329.586 214.631 329.477 214.663 329.367 214.663Z" fill="#E0004D"/>
<path d="M332.115 220.982C331.855 220.982 331.634 220.805 331.615 220.574C331.593 220.332 331.801 220.12 332.078 220.102C332.16 220.097 340.322 219.537 344.079 217.552C344.317 217.428 344.624 217.494 344.768 217.704C344.912 217.912 344.834 218.184 344.596 218.308C340.633 220.399 332.496 220.959 332.151 220.98C332.14 220.982 332.127 220.982 332.115 220.982Z" fill="#E0004D"/>
<path d="M73.2773 310.811V409.199C73.2773 412.297 85.0818 414.808 99.6432 414.808C114.205 414.808 126.009 412.297 126.009 409.199V310.811H73.2773Z" fill="#213360"/>
<path d="M119.702 306.964C114.531 305.775 107.453 305.042 99.6428 305.042C91.8321 305.042 84.754 305.775 79.5835 306.964H70.9766V311.772C70.9766 315.489 83.8109 318.502 99.6428 318.502C115.475 318.502 128.309 315.489 128.309 311.772V306.964H119.702Z" fill="#F99746"/>
<path d="M99.6428 313.695C115.475 313.695 128.309 310.682 128.309 306.965C128.309 303.248 115.475 300.234 99.6428 300.234C83.8109 300.234 70.9766 303.248 70.9766 306.965C70.9766 310.682 83.8109 313.695 99.6428 313.695Z" fill="#F4B178"/>
<path d="M96.3883 401.889L88.1282 401.331C88.1265 401.331 88.1229 401.331 88.1212 401.331L79.7867 400.769C77.6385 400.623 75.7628 402.076 75.5876 404.019C75.2497 409.299 83.9964 407.776 87.539 408.414C87.5408 408.414 87.5425 408.411 87.5425 408.411C87.539 408.417 95.8787 408.977 95.8805 408.977C96.9599 409.049 97.9703 408.719 98.7312 408.126C101.387 406.196 99.8088 402.016 96.3883 401.889Z" fill="#EE5463"/>
<path d="M116.787 400.533L108.801 402.526C108.799 402.526 108.796 402.528 108.794 402.528L100.738 404.539C98.6601 405.058 97.4356 406.997 97.9913 408.88C99.6351 413.955 107.306 409.854 110.879 409.374C110.88 409.374 110.88 409.369 110.88 409.37C110.88 409.378 118.941 407.361 118.941 407.361C119.985 407.1 120.813 406.481 121.308 405.691C123.095 403.066 120.055 399.61 116.787 400.533Z" fill="#EE5463"/>
<path d="M114.232 392.773C111.459 388.119 104.896 393.572 101.513 394.713L101.511 394.718C101.509 394.71 94.0878 398.2 94.0878 398.2C93.127 398.652 92.4581 399.413 92.1555 400.278C91.0106 403.184 94.7779 405.993 97.7631 404.474L105.117 401.02C105.119 401.02 105.123 401.019 105.124 401.017L112.544 397.533C114.455 396.638 115.209 394.51 114.232 392.773Z" fill="#EE5463"/>
<path d="M91.4435 391.297C91.4418 391.297 91.4382 391.298 91.4382 391.298C91.4435 391.292 83.5214 388.869 83.5196 388.867C82.4933 388.553 81.4245 388.645 80.5256 389.049C77.4219 390.316 77.797 394.721 81.0741 395.617L88.9202 398.022C88.922 398.024 88.9255 398.024 88.9273 398.024L96.8423 400.45C98.8826 401.075 101.098 400.092 101.804 398.251C103.588 393.215 94.6977 392.713 91.4435 391.297Z" fill="#EE5463"/>
<path d="M112.222 389.294C112.22 389.294 112.217 389.296 112.217 389.296C112.224 389.291 104.873 385.677 104.873 385.677C103.921 385.209 102.851 385.134 101.89 385.392C98.5915 386.161 98.1314 390.56 101.193 391.949L108.471 395.532C108.472 395.534 108.476 395.534 108.478 395.535L115.819 399.151C117.713 400.083 120.08 399.457 121.123 397.752C123.827 393.061 115.161 391.193 112.222 389.294Z" fill="#EE5463"/>
<path d="M103.222 380.368L95.4237 382.899C95.422 382.899 95.4184 382.9 95.4167 382.9L87.5494 385.453C85.5215 386.111 84.4598 388.127 85.1694 389.967C87.2291 394.915 94.539 390.307 98.0603 389.586C98.0621 389.586 98.0621 389.581 98.0621 389.581C98.0621 389.589 105.933 387.031 105.935 387.031C106.954 386.701 107.729 386.027 108.157 385.206C109.721 382.466 106.404 379.226 103.222 380.368Z" fill="#EE5463"/>
<path d="M112.926 367.85L105.218 370.598C105.216 370.598 105.212 370.6 105.211 370.6L97.4353 373.372C95.4304 374.087 94.4395 376.132 95.211 377.952C97.4388 382.839 104.588 378.029 108.082 377.208C108.084 377.208 108.084 377.204 108.084 377.204C108.084 377.212 115.865 374.433 115.865 374.433C116.872 374.074 117.624 373.379 118.024 372.545C119.494 369.765 116.068 366.62 112.926 367.85Z" fill="#EE5463"/>
<path d="M100.174 367.527L92.2378 365.378C92.236 365.378 92.2325 365.376 92.2307 365.376L84.2237 363.208C82.1586 362.649 79.9839 363.703 79.3522 365.567C77.772 370.658 86.6762 370.871 89.9834 372.18C89.9852 372.18 89.9888 372.178 89.987 372.178C89.9817 372.185 97.9958 374.35 97.9958 374.35C99.0328 374.63 100.098 374.503 100.981 374.072C104.037 372.706 103.487 368.315 100.174 367.527Z" fill="#EE5463"/>
<path d="M92.0573 371.977L85.2783 376.287C85.2765 376.287 85.2747 376.29 85.273 376.29L78.4338 380.639C76.6696 381.761 76.2378 383.959 77.4606 385.564C80.8952 389.84 86.5948 383.642 89.7799 382.102C89.7799 382.101 89.7799 382.097 89.7799 382.097C89.7817 382.105 96.6227 377.748 96.6244 377.748C97.511 377.184 98.0595 376.35 98.2329 375.454C98.939 372.44 94.7912 370.111 92.0573 371.977Z" fill="#EE5463"/>
<path d="M98.6184 352.524C96.5817 347.568 89.2506 352.149 85.7257 352.858C85.7239 352.858 85.7239 352.863 85.7239 352.863C85.7239 352.855 77.8407 355.383 77.8407 355.383C76.8197 355.71 76.0429 356.381 75.6093 357.2C74.0327 359.934 77.3364 363.187 80.5233 362.056C80.5233 362.056 88.334 359.556 88.334 359.554C88.3357 359.554 88.3393 359.553 88.341 359.553L96.2207 357.03C98.2503 356.38 99.3209 354.367 98.6184 352.524Z" fill="#EE5463"/>
<path d="M111.933 351.621C114.377 346.818 105.619 345.342 102.579 343.578C102.577 343.578 102.574 343.58 102.574 343.58C102.579 343.575 95.041 340.296 95.041 340.296C94.066 339.872 92.9919 339.845 92.0453 340.146C88.7929 341.062 88.577 345.477 91.709 346.725L99.1746 349.975C99.1764 349.977 99.18 349.977 99.1817 349.978L106.713 353.257C108.656 354.103 110.986 353.371 111.933 351.621Z" fill="#EE5463"/>
<path d="M111.664 362.286C110.456 357.112 102.459 360.665 98.8583 360.894C98.8565 360.894 98.8548 360.899 98.8548 360.897C98.8565 360.889 90.6477 362.338 90.6477 362.338C89.5842 362.525 88.7066 363.084 88.1456 363.838C86.1425 366.331 88.8782 369.989 92.2155 369.297L100.346 367.866C100.348 367.866 100.352 367.864 100.354 367.864L108.557 366.421C110.672 366.051 112.059 364.201 111.664 362.286Z" fill="#EE5463"/>
<path d="M102.055 386.333C104.466 381.516 95.6984 380.09 92.6478 378.341C92.646 378.341 92.6425 378.343 92.6425 378.343C92.6478 378.338 85.0884 375.101 85.0867 375.101C84.1081 374.681 83.034 374.662 82.0891 374.967C78.8438 375.901 78.6562 380.316 81.7971 381.548L89.284 384.757C89.2857 384.759 89.2893 384.759 89.291 384.761L96.8451 387.998C98.7933 388.832 101.118 388.087 102.055 386.333Z" fill="#EE5463"/>
<path d="M114.954 347.793C110.799 344.077 106.285 351.031 103.418 353.018C103.418 353.02 103.418 353.023 103.418 353.023C103.415 353.016 97.4443 358.319 97.4443 358.319C96.6711 359.005 96.2782 359.91 96.2676 360.819C96.1119 363.9 100.621 365.587 102.985 363.346L108.902 358.096C108.904 358.096 108.906 358.093 108.907 358.091L114.876 352.795C116.415 351.428 116.449 349.195 114.954 347.793Z" fill="#EE5463"/>
<path d="M116.871 379.678C116.869 379.678 116.866 379.678 116.866 379.678C116.873 379.674 111.049 374.241 111.049 374.241C110.296 373.537 109.297 373.177 108.294 373.162C104.893 373.005 103.005 377.08 105.47 379.232L111.237 384.618C111.237 384.619 111.24 384.621 111.242 384.623L117.06 390.057C118.561 391.457 121.026 391.499 122.583 390.153C126.706 386.408 119.051 382.283 116.871 379.678Z" fill="#EE5463"/>
<path d="M122.215 368.69L116.719 363.078C116.719 363.077 116.715 363.075 116.713 363.073L111.168 357.412C109.738 355.952 107.276 355.811 105.654 357.093C101.349 360.667 108.795 365.094 110.844 367.786C110.846 367.786 110.849 367.786 110.849 367.786C110.842 367.789 116.393 373.452 116.393 373.452C117.111 374.186 118.09 374.587 119.092 374.64C122.484 374.933 124.57 370.938 122.215 368.69Z" fill="#EE5463"/>
<path d="M122.861 353.585C118.466 350.103 114.424 357.292 111.696 359.433C111.696 359.434 111.696 359.437 111.696 359.437C111.692 359.431 106.086 365.051 106.086 365.051C105.361 365.778 105.028 366.703 105.079 367.61C105.129 370.693 109.742 372.132 111.952 369.765L117.508 364.201C117.51 364.201 117.512 364.198 117.514 364.197L123.12 358.583C124.562 357.136 124.447 354.904 122.861 353.585Z" fill="#EE5463"/>
<path d="M158.828 432.673C161.294 429.725 158.294 416.243 158.399 412.798H169.601C169.728 416.235 166.915 429.746 169.266 432.667C169.934 433.722 158.158 433.709 158.828 432.673Z" fill="#F99370"/>
<path d="M213.679 436.73H194.068C192.906 436.73 191.996 435.826 192.102 434.779C192.287 432.943 192.725 430.421 192.585 429.254C192.662 428.178 190.953 414.24 190.824 412.796H203.177L201.185 427.188C200.951 428.886 202.069 430.502 203.862 431.039C206.286 431.763 209.045 432.077 210.868 432.501C212.629 432.905 214.211 433.459 215.001 434.684C215.587 435.59 214.837 436.73 213.679 436.73Z" fill="#F99370"/>
<path d="M191.447 434.857L191.449 434.876C191.592 435.936 192.584 436.73 193.763 436.73H213.521C214.653 436.73 215.483 435.734 215.138 434.758C214.097 431.811 210.834 429.986 201.582 429.253C201.582 429.253 198.181 430.17 192.586 429.253C192.584 429.253 191.086 432.189 191.447 434.857Z" fill="#395B96"/>
<path d="M159.737 436.732H168.354C169.561 436.732 170.546 435.828 170.489 434.735C170.117 427.39 157.916 427.331 157.599 434.741C157.552 435.83 158.532 436.732 159.737 436.732Z" fill="#395B96"/>
<path d="M208.871 434.195C209.044 434.195 209.208 434.102 209.279 433.947C210.073 432.17 211.508 431.627 211.569 431.605C212.096 431.421 211.771 430.669 211.245 430.865C211.17 430.892 209.41 431.54 208.465 433.648C208.344 433.902 208.569 434.202 208.871 434.195Z" fill="#E8C0A6"/>
<path d="M205.455 433.822C205.642 433.822 205.816 433.711 205.874 433.542C206.573 431.497 208.556 430.534 208.577 430.525C209.083 430.294 208.673 429.574 208.171 429.818C208.078 429.863 205.846 430.935 205.037 433.306C204.944 433.556 205.166 433.826 205.455 433.822Z" fill="#E8C0A6"/>
<path d="M201.567 433.391C201.75 433.391 201.919 433.289 201.982 433.123C202.807 430.975 204.697 429.825 204.718 429.814C205.196 429.536 204.704 428.859 204.233 429.15C204.146 429.203 202.074 430.464 201.153 432.862C201.049 433.113 201.272 433.395 201.567 433.391Z" fill="#E8C0A6"/>
<path d="M160.879 431.633C164.234 429.916 167.215 432.166 167.698 431.4C168.092 430.593 163.699 429.385 160.657 430.892C160.27 431.081 160.448 431.648 160.879 431.633Z" fill="#E8C0A6"/>
<path d="M215.171 434.857H191.447L191.45 434.877C191.593 435.936 192.584 436.73 193.763 436.73H213.73C214.785 436.73 215.535 435.789 215.186 434.889C215.179 434.879 215.174 434.868 215.171 434.857Z" fill="#4867AA"/>
<path d="M159.562 436.732H168.531C169.644 436.732 170.547 435.897 170.5 434.891C170.5 434.881 170.5 434.87 170.497 434.859H157.593C157.593 434.872 157.591 434.885 157.591 434.898C157.551 435.902 158.451 436.732 159.562 436.732Z" fill="#4867AA"/>
<path d="M188.912 253.36C188.912 253.36 190.041 247.597 184.456 245.731L180.928 248.132L188.912 253.36Z" fill="#8C4225"/>
<path d="M198.578 296.413C214.258 307.107 238.795 303.906 247.869 288.35L245.572 284.027C219.267 294.266 208.911 274.205 187.568 273.048L191.867 278.015C191.867 278.015 198.21 296.071 198.578 296.413Z" fill="white"/>
<path d="M157.043 426.515C157.043 426.515 166.47 428.589 171.33 426.36C173.859 412.002 180.877 372.025 183.322 344.63C183.415 346.228 188.551 410.65 189.529 426.36C192.883 427.377 199.627 428.602 203.398 426.141C205.093 409.604 210.536 355.156 202.337 310.688C202.337 310.688 179.867 312.95 162.319 308.149C157.49 322.254 156.21 409.589 157.043 426.515Z" fill="#233862"/>
<path d="M185.129 272.673C185.284 268.287 185.886 259.588 181.955 258.421C179.133 257.533 175.791 259.711 176.66 262.592C176.916 262.445 177.736 270.66 177.169 272.94C169.719 274.965 192.126 281.62 185.129 272.673Z" fill="#FFB27D"/>
<path d="M176.584 262.218C176.602 262.343 176.628 262.47 176.659 262.591C176.844 262.481 177.359 267.013 177.364 270.303C180.777 271.708 184.495 271.159 185.191 271.029C185.381 266.489 185.688 259.69 181.954 258.422C179.291 257.389 176.115 259.588 176.584 262.218Z" fill="#E57D61"/>
<path d="M171.218 259.189C171.793 262.409 172.993 266.039 175.801 268.17H175.806C179.901 270.978 185.899 270.679 190.064 267.584H190.067C193.28 264.865 194.298 261.203 192.605 258.382C191.499 256.72 189.46 255.256 188.911 253.362C184.143 240.751 169.195 247.803 171.218 259.189Z" fill="#FFB27D"/>
<path d="M184.792 257.202C185.118 256.642 184.141 256.192 183.831 256.761C183.505 257.321 184.485 257.771 184.792 257.202Z" fill="#C16256"/>
<path d="M189.32 256.514C189.645 255.954 188.668 255.504 188.358 256.073C188.033 256.631 189.012 257.081 189.32 256.514Z" fill="#C16256"/>
<path d="M171.221 259.189C171.795 262.409 172.995 266.039 175.803 268.17H175.808C176.04 268.346 176.2 268.431 176.455 268.578C174.317 266.657 173.164 262.613 173.164 262.613L173.668 259.123C177.118 255.956 175.632 252.396 175.632 252.396C181.403 253.863 183.347 250.639 183.347 250.639C185.17 250.851 187.09 250 187.09 250C180.524 241.399 169.189 250.547 171.221 259.189Z" fill="#E57D61"/>
<path d="M172.991 250.796C175.443 251.675 176.305 256.833 170.508 260.361C170.508 260.361 167.7 251.859 172.991 250.796Z" fill="#8C4225"/>
<path d="M243.371 284.844C242.391 289.213 246.657 290.229 246.657 290.229C247.471 289.123 247.871 288.349 247.869 288.351L245.572 284.027C245.572 284.027 244.559 284.335 243.371 284.844Z" fill="#E0004D"/>
<path d="M187.606 260.753C188.591 260.743 190.124 260.14 188.879 259.348C187.862 258.849 187.114 256.941 187.107 256.922C187.025 256.697 186.631 256.818 186.723 257.043C186.755 257.128 187.531 259.106 188.685 259.673C189.482 260.116 187.82 260.545 187.133 260.324C187.025 260.293 186.91 260.348 186.877 260.443C186.819 260.774 187.353 260.728 187.606 260.753Z" fill="#C16256"/>
<path d="M160.069 328.088C172.27 332.681 202.658 333.055 205.607 329.803C211.371 316.918 200.736 282.571 187.57 273.05C187.455 273.021 185.969 272.677 185.134 272.677C185.193 272.887 186.667 278.442 177.171 272.942C177.117 272.999 174.855 273.038 174.253 273.413C174.93 282.397 155.634 318.253 160.069 328.088Z" fill="#2B478B"/>
<path d="M199.203 280.758L205.101 299.877C214.299 304.468 230.018 303.526 237.32 298.361C211.184 307.529 209.05 289.412 199.557 280.758H199.203V280.758Z" fill="#E0004D"/>
<path d="M173.946 245.837C175.868 243.774 179.365 242.766 180.165 240.664C180.165 240.664 181.351 242.676 181.212 244.924C182.143 243.98 182.996 242.946 183.664 241.838C184.607 242.7 185.11 243.687 185.263 244.701C188.256 244.111 190.882 245.198 190.882 245.198C189.344 249.136 185.755 250.002 182.94 250.017C180.605 252.042 176.874 252.959 173.266 250.955L169.79 255.022C164.856 247.27 173.946 245.837 173.946 245.837Z" fill="#8C4225"/>
<path d="M151.057 385.851C160.037 388.147 167.711 388.024 171.574 387.731C173.285 387.602 174.246 387.44 174.246 387.44C174.246 387.44 177.263 330.987 178.18 319.053C179.659 306.742 180.739 278.289 174.246 273.413L171.879 273.78C156.11 291.503 152.512 377.169 151.057 385.851Z" fill="white"/>
<path d="M203.177 387.891C203.177 387.891 204.038 388.007 205.318 388.05C207.861 388.137 212.068 387.914 214.419 385.851C214.719 381.295 218.803 278.934 190.442 273.288L190.44 273.286C189.516 273.103 188.56 273.023 187.568 273.05C206.086 288.826 205.006 374.632 203.177 387.891Z" fill="white"/>
<path d="M176.086 265.536C176.086 265.538 185.945 270.86 190.068 267.582C193.706 264.691 194.287 261.208 192.607 258.38C192.607 258.38 187.968 259.843 177.485 259.442C177.485 259.442 178.219 263.723 176.086 265.536Z" fill="white"/>
<path d="M177.484 259.626C177.712 259.633 177.763 259.314 177.538 259.263L173.197 258.2C171.788 258.612 177.534 259.512 177.484 259.626Z" fill="#C16256"/>
<path d="M176.083 265.72C176.276 265.727 176.365 265.476 176.196 265.383C176.072 265.417 171.96 262.575 171.93 263.037C171.623 263.322 175.94 265.616 176.083 265.72Z" fill="#C16256"/>
<path d="M168.962 260.815C169.837 264.474 174.773 263.53 173.936 259.862C173.062 256.204 168.125 257.149 168.962 260.815Z" fill="#F99370"/>
<path d="M170.244 261.573C170.377 261.575 170.48 261.45 170.438 261.335C169.667 259.389 170.621 258.569 172.072 259.11C173.497 258.669 168.45 257.478 170.049 261.443C170.075 261.522 170.157 261.573 170.244 261.573Z" fill="#C16256"/>
<path d="M172.144 261.313C172.76 261.235 171.591 259.522 170.025 259.405C169.76 259.384 169.734 259.762 169.997 259.772C171.574 259.921 171.771 261.267 172.144 261.313Z" fill="#C16256"/>
<path d="M173.853 284.205C174.873 291.395 167.405 302.989 179.09 306.237L170.29 308.149L167.836 299.531L173.853 284.205Z" fill="#E0004D"/>
<path d="M203.177 387.891C203.177 387.891 204.038 388.007 205.317 388.05C207.05 373.151 206.565 354.031 206.173 344.632C205.765 334.927 204.462 314.876 200.864 297.209C197.261 279.541 190.442 273.288 190.442 273.288L190.44 273.286C189.516 273.103 188.56 273.023 187.568 273.05C206.086 288.826 205.006 374.632 203.177 387.891Z" fill="#E0004D"/>
<path d="M158.445 316.226L158.293 317.587C165.238 320.692 178.182 319.053 178.182 319.053C178.313 317.239 178.442 315.494 178.564 313.819L160.264 308.954C159.678 311.862 158.9 313.212 158.445 316.226Z" fill="#E0004D"/>
<path d="M171.574 387.731C173.285 387.602 174.246 387.44 174.246 387.44C174.246 387.44 177.263 330.987 178.18 319.053C179.659 306.742 180.742 278.289 174.249 273.413L171.881 273.78C174.066 274.948 177.073 283.551 176.989 295.53C176.876 311.588 175.074 331.078 174.174 344.632C173.405 356.252 171.968 380.934 171.574 387.731Z" fill="#E0004D"/>
<path d="M182.224 256.442C182.287 256.442 182.345 256.41 182.374 256.355C183.091 254.933 184.776 254.967 184.788 254.969C184.875 254.967 184.957 254.908 184.959 254.825C184.961 254.742 184.891 254.672 184.8 254.67C184.779 254.668 182.88 254.63 182.074 256.23C182.036 256.306 182.071 256.393 182.156 256.43C182.177 256.438 182.2 256.442 182.224 256.442Z" fill="#C16256"/>
<path d="M189.005 254.72C189.054 254.72 189.106 254.699 189.136 254.661C189.19 254.595 189.176 254.502 189.103 254.451C189.066 254.425 188.152 253.814 186.651 254.296C186.565 254.323 186.52 254.408 186.551 254.487C186.581 254.565 186.675 254.606 186.762 254.578C188.086 254.154 188.871 254.669 188.904 254.691C188.934 254.71 188.97 254.72 189.005 254.72Z" fill="#C16256"/>
<path d="M174.254 273.411C176.286 275.139 188.677 282.621 187.568 273.048C187.453 273.02 185.967 272.676 185.13 272.674C185.189 272.884 186.148 278.081 177.168 272.94C177.13 272.918 174.842 273.063 174.254 273.411Z" fill="#D1A68F"/>
<path d="M250.172 276.952C251.187 277.344 249.194 279.52 249.166 280.448C251.018 279.909 252.713 278.879 252.727 278.881C254.452 277.357 256.084 275.75 257.635 274.075C258.118 273.528 259.1 274.173 258.662 274.761C257.382 276.551 256.013 278.295 254.551 279.97C254.565 279.985 254.56 279.981 254.574 279.994C256.597 278.837 258.559 277.584 260.399 276.198C260.626 276.026 260.912 275.922 261.21 275.929C263.772 275.971 256.14 281.159 255.528 281.63C255.533 281.639 255.533 281.637 255.537 281.643C257.628 280.851 259.621 279.843 261.477 278.665C261.752 278.491 262.089 278.408 262.417 278.465C264.686 278.862 256.721 283.39 255.927 283.672C255.927 283.681 255.929 283.689 255.929 283.698C257.656 283.297 259.332 282.709 260.964 282.046C261.229 281.938 261.527 281.906 261.808 281.978C264.1 282.558 256.658 285.568 255.894 285.782C255.094 286.22 252.169 288.043 247.692 288.665C246.297 288.858 244.338 285.763 244.994 284.216C245.367 283.337 246.721 281.367 247.082 280.887C247.518 279.972 248.89 276.602 250.172 276.952Z" fill="#F99370"/>
<path d="M214.694 280.894C214.699 280.898 244.578 302.961 244.545 302.982L218.784 331.558C208.578 343.683 185.527 337.657 184.435 322.524C183.938 318.079 185.314 313.46 188.68 309.726C188.684 309.724 214.673 280.862 214.694 280.894Z" fill="#EE5463"/>
<path d="M267.923 249.643C276.071 255.763 277.253 266.695 270.551 274.128L244.562 302.957C244.53 302.986 214.678 280.891 214.688 280.87C227.505 269.743 245.385 233.532 267.923 249.643Z" fill="white"/>
<path d="M200.006 303.969C200.7 304.746 197.817 305.825 197.311 306.633C199.228 306.941 201.258 306.75 201.267 306.759C203.581 306.143 205.852 305.413 208.089 304.591C208.799 304.313 209.333 305.3 208.639 305.631C206.584 306.672 204.472 307.633 202.315 308.493C202.32 308.512 202.32 308.506 202.325 308.525C204.711 308.359 207.09 308.083 209.434 307.639C209.725 307.584 210.03 307.614 210.29 307.743C212.533 308.866 203.105 310.216 202.322 310.374C202.325 310.382 202.322 310.38 202.325 310.39C204.582 310.577 206.863 310.531 209.113 310.276C209.446 310.238 209.788 310.308 210.048 310.497C211.848 311.808 202.468 312.435 201.621 312.348C201.617 312.356 201.614 312.363 201.61 312.371C203.344 312.749 205.128 312.94 206.912 313.046C207.203 313.063 207.482 313.163 207.693 313.343C209.42 314.827 201.286 314.332 200.499 314.199C199.566 314.247 196.718 315.198 192.44 313.848C191.106 313.428 190.511 307.835 191.863 307.552C192.878 307.342 194.674 306.406 195.241 306.137C196.101 305.515 199.055 303.114 200.006 303.969Z" fill="#FFB27D"/>
<path d="M189.502 314.781C190.463 314.492 191.441 314.182 192.439 313.849C192.603 313.07 193.611 309.395 191.862 307.553C150.108 305.901 181.968 292.883 171.882 273.776C141.936 275.568 126.923 330.686 189.502 314.781Z" fill="white"/>
<path d="M189.498 314.78C190.459 314.492 191.439 314.182 192.438 313.849C192.602 313.069 193.61 309.395 191.861 307.553C191.861 307.553 190.717 307.444 189.498 307.444C189.498 307.444 191.558 310.73 189.498 314.78Z" fill="#E0004D"/>
<path d="M92.4517 429.273V436.097C92.4517 441.602 81.9531 446.067 69.0003 446.067C62.4672 446.067 56.5588 444.931 52.3066 443.099C48.1288 441.3 45.5488 438.825 45.5488 436.097V429.273H92.4517Z" fill="#F99746"/>
<path d="M92.4513 429.273C92.2318 441.203 48.3672 443.737 45.6422 430.163C45.5413 429.664 45.513 429.182 45.5519 428.717C46.2031 420.816 65.9934 417.544 79.6789 420.385C86.4508 421.792 91.7275 424.695 92.4513 429.273Z" fill="#EFCBAB"/>
<path d="M79.7459 420.41L59.1699 439.061C58.6355 438.965 58.2321 438.684 57.7207 438.571L77.8649 420.034C78.3993 420.131 79.2345 420.298 79.7459 420.41Z" fill="#F39200"/>
<path d="M169.112 525L175.328 507.648H179.024L185.228 525H181.736L180.32 520.98H174.08L172.628 525H169.112ZM174.86 517.92H179.48L177.188 511.032L174.86 517.92ZM188.11 528.864V512.592H191.626L191.638 514.38C191.822 514.084 192.046 513.816 192.31 513.576C192.582 513.328 192.882 513.112 193.21 512.928C193.538 512.744 193.894 512.604 194.278 512.508C194.662 512.404 195.066 512.352 195.49 512.352C196.41 512.352 197.23 512.58 197.95 513.036C198.67 513.484 199.234 514.18 199.642 515.124C200.058 516.06 200.266 517.252 200.266 518.7C200.266 520.204 200.042 521.44 199.594 522.408C199.154 523.368 198.546 524.08 197.77 524.544C196.994 525.008 196.118 525.24 195.142 525.24C194.742 525.24 194.366 525.184 194.014 525.072C193.662 524.968 193.334 524.82 193.03 524.628C192.734 524.436 192.466 524.216 192.226 523.968C191.994 523.712 191.79 523.436 191.614 523.14V528.864H188.11ZM194.302 522.672C195.062 522.672 195.698 522.356 196.21 521.724C196.73 521.092 196.99 520.092 196.99 518.724C196.99 517.524 196.742 516.588 196.246 515.916C195.758 515.236 195.11 514.896 194.302 514.896C193.398 514.896 192.722 515.264 192.274 516C191.834 516.728 191.614 517.636 191.614 518.724C191.614 519.42 191.71 520.068 191.902 520.668C192.102 521.268 192.398 521.752 192.79 522.12C193.19 522.488 193.694 522.672 194.302 522.672ZM208.642 525.24C207.426 525.24 206.366 524.98 205.462 524.46C204.566 523.94 203.87 523.204 203.374 522.252C202.886 521.3 202.642 520.172 202.642 518.868C202.642 517.564 202.886 516.424 203.374 515.448C203.87 514.472 204.566 513.712 205.462 513.168C206.366 512.624 207.43 512.352 208.654 512.352C209.878 512.352 210.938 512.62 211.834 513.156C212.73 513.684 213.422 514.436 213.91 515.412C214.398 516.388 214.642 517.54 214.642 518.868C214.642 520.116 214.402 521.22 213.922 522.18C213.45 523.132 212.766 523.88 211.87 524.424C210.982 524.968 209.906 525.24 208.642 525.24ZM208.654 522.636C209.27 522.636 209.766 522.456 210.142 522.096C210.518 521.736 210.79 521.264 210.958 520.68C211.134 520.088 211.222 519.444 211.222 518.748C211.222 518.092 211.142 517.472 210.982 516.888C210.83 516.304 210.566 515.832 210.19 515.472C209.814 515.112 209.302 514.932 208.654 514.932C208.038 514.932 207.538 515.104 207.154 515.448C206.778 515.784 206.502 516.244 206.326 516.828C206.15 517.404 206.062 518.044 206.062 518.748C206.062 519.396 206.142 520.02 206.302 520.62C206.462 521.212 206.73 521.696 207.106 522.072C207.482 522.448 207.998 522.636 208.654 522.636ZM224.86 515.028H222.1L222.124 521.64C222.124 521.944 222.16 522.172 222.232 522.324C222.312 522.468 222.432 522.564 222.592 522.612C222.76 522.652 222.972 522.672 223.228 522.672H224.896V524.832C224.736 524.904 224.484 524.972 224.14 525.036C223.804 525.1 223.332 525.132 222.724 525.132C221.636 525.132 220.792 524.992 220.192 524.712C219.6 524.432 219.188 524.04 218.956 523.536C218.724 523.032 218.608 522.448 218.608 521.784V515.028H216.592V512.592H218.728L219.604 508.848H222.1V512.58H224.86V515.028ZM230.65 519.6C230.642 520.232 230.742 520.784 230.95 521.256C231.158 521.72 231.458 522.08 231.85 522.336C232.25 522.584 232.73 522.708 233.29 522.708C233.89 522.708 234.414 522.58 234.862 522.324C235.318 522.068 235.634 521.648 235.81 521.064H238.966C238.83 521.944 238.478 522.696 237.91 523.32C237.35 523.944 236.67 524.42 235.87 524.748C235.07 525.076 234.238 525.24 233.374 525.24C232.15 525.24 231.07 524.984 230.134 524.472C229.206 523.952 228.482 523.22 227.962 522.276C227.442 521.332 227.182 520.22 227.182 518.94C227.182 517.7 227.418 516.584 227.89 515.592C228.362 514.592 229.046 513.804 229.942 513.228C230.846 512.644 231.93 512.352 233.194 512.352C234.458 512.352 235.518 512.62 236.374 513.156C237.238 513.684 237.886 514.424 238.318 515.376C238.758 516.32 238.978 517.412 238.978 518.652V519.6H230.65ZM230.638 517.512H235.702C235.702 517.016 235.61 516.56 235.426 516.144C235.242 515.728 234.962 515.4 234.586 515.16C234.218 514.92 233.754 514.8 233.194 514.8C232.65 514.8 232.186 514.932 231.802 515.196C231.426 515.452 231.138 515.788 230.938 516.204C230.738 516.62 230.638 517.056 230.638 517.512ZM254.118 525H250.626L247.278 519.648L245.634 521.4V525H242.13V507.168H245.634V517.74L250.194 512.592H253.962L249.45 517.536L254.118 525ZM270.258 525.24C268.618 525.24 267.198 524.884 265.998 524.172C264.806 523.452 263.882 522.432 263.226 521.112C262.578 519.784 262.254 518.2 262.254 516.36C262.254 514.512 262.582 512.92 263.238 511.584C263.902 510.248 264.834 509.22 266.034 508.5C267.234 507.772 268.642 507.408 270.258 507.408C271.866 507.408 273.266 507.768 274.458 508.488C275.65 509.208 276.57 510.236 277.218 511.572C277.874 512.908 278.202 514.504 278.202 516.36C278.202 518.192 277.878 519.772 277.23 521.1C276.59 522.428 275.674 523.452 274.482 524.172C273.29 524.884 271.882 525.24 270.258 525.24ZM270.258 522.36C271.106 522.36 271.838 522.16 272.454 521.76C273.078 521.352 273.558 520.712 273.894 519.84C274.23 518.96 274.398 517.816 274.398 516.408C274.398 514.96 274.226 513.788 273.882 512.892C273.546 511.996 273.066 511.34 272.442 510.924C271.826 510.5 271.098 510.288 270.258 510.288C269.418 510.288 268.686 510.5 268.062 510.924C267.438 511.34 266.954 512 266.61 512.904C266.266 513.8 266.094 514.968 266.094 516.408C266.094 517.824 266.266 518.968 266.61 519.84C266.954 520.712 267.438 521.352 268.062 521.76C268.686 522.16 269.418 522.36 270.258 522.36ZM281.251 525V512.592H284.695V514.344C284.887 514.04 285.135 513.748 285.439 513.468C285.751 513.18 286.143 512.944 286.615 512.76C287.087 512.576 287.647 512.484 288.295 512.484C289.055 512.484 289.763 512.632 290.419 512.928C291.083 513.224 291.619 513.692 292.027 514.332C292.435 514.964 292.639 515.792 292.639 516.816V525H289.135V517.248C289.135 516.576 288.935 516.072 288.535 515.736C288.135 515.4 287.647 515.232 287.071 515.232C286.687 515.232 286.315 515.3 285.955 515.436C285.603 515.572 285.315 515.776 285.091 516.048C284.867 516.32 284.755 516.656 284.755 517.056V525H281.251ZM300.158 525.216C299.246 525.216 298.522 525.108 297.986 524.892C297.45 524.676 297.054 524.392 296.798 524.04C296.542 523.68 296.378 523.284 296.306 522.852C296.234 522.412 296.198 521.968 296.198 521.52V507.168H299.63V521.088C299.63 521.544 299.726 521.916 299.918 522.204C300.118 522.484 300.49 522.656 301.034 522.72L301.622 522.756V524.916C301.382 524.996 301.138 525.064 300.89 525.12C300.642 525.184 300.398 525.216 300.158 525.216ZM308.157 512.592V525H304.809V512.592H308.157ZM308.193 507.66V510.816H304.785V507.66H308.193ZM312.122 525V512.592H315.566V514.344C315.758 514.04 316.006 513.748 316.31 513.468C316.622 513.18 317.014 512.944 317.486 512.76C317.958 512.576 318.518 512.484 319.166 512.484C319.926 512.484 320.634 512.632 321.29 512.928C321.954 513.224 322.49 513.692 322.898 514.332C323.306 514.964 323.51 515.792 323.51 516.816V525H320.006V517.248C320.006 516.576 319.806 516.072 319.406 515.736C319.006 515.4 318.518 515.232 317.942 515.232C317.558 515.232 317.186 515.3 316.826 515.436C316.474 515.572 316.186 515.776 315.962 516.048C315.738 516.32 315.626 516.656 315.626 517.056V525H312.122ZM329.949 519.6C329.941 520.232 330.041 520.784 330.249 521.256C330.457 521.72 330.757 522.08 331.149 522.336C331.549 522.584 332.029 522.708 332.589 522.708C333.189 522.708 333.713 522.58 334.161 522.324C334.617 522.068 334.933 521.648 335.109 521.064H338.265C338.129 521.944 337.777 522.696 337.209 523.32C336.649 523.944 335.969 524.42 335.169 524.748C334.369 525.076 333.537 525.24 332.673 525.24C331.449 525.24 330.369 524.984 329.433 524.472C328.505 523.952 327.781 523.22 327.261 522.276C326.741 521.332 326.481 520.22 326.481 518.94C326.481 517.7 326.717 516.584 327.189 515.592C327.661 514.592 328.345 513.804 329.241 513.228C330.145 512.644 331.229 512.352 332.493 512.352C333.757 512.352 334.817 512.62 335.673 513.156C336.537 513.684 337.185 514.424 337.617 515.376C338.057 516.32 338.277 517.412 338.277 518.652V519.6H329.949ZM329.937 517.512H335.001C335.001 517.016 334.909 516.56 334.725 516.144C334.541 515.728 334.261 515.4 333.885 515.16C333.517 514.92 333.053 514.8 332.493 514.8C331.949 514.8 331.485 514.932 331.101 515.196C330.725 515.452 330.437 515.788 330.237 516.204C330.037 516.62 329.937 517.056 329.937 517.512ZM362.225 525H358.409L353.813 516.924L351.245 520.02V525H347.609V507.648H351.245V515.592L357.569 507.648H361.589L356.321 514.368L362.225 525ZM365.088 525V507.168H368.568V514.38C368.768 514.092 369.02 513.808 369.324 513.528C369.628 513.24 370.008 513 370.464 512.808C370.92 512.616 371.476 512.52 372.132 512.52C372.924 512.52 373.644 512.676 374.292 512.988C374.948 513.292 375.472 513.736 375.864 514.32C376.264 514.904 376.464 515.616 376.464 516.456V525H372.948V516.972C372.948 516.412 372.744 515.984 372.336 515.688C371.936 515.384 371.448 515.232 370.872 515.232C370.496 515.232 370.132 515.3 369.78 515.436C369.428 515.572 369.14 515.78 368.916 516.06C368.7 516.332 368.592 516.672 368.592 517.08V525H365.088ZM384.466 525.24C383.89 525.24 383.322 525.152 382.762 524.976C382.21 524.8 381.706 524.54 381.25 524.196C380.794 523.852 380.426 523.428 380.146 522.924C379.874 522.42 379.738 521.836 379.738 521.172V512.592H383.242V520.728C383.242 521.304 383.43 521.776 383.806 522.144C384.182 522.512 384.734 522.696 385.462 522.696C386.15 522.696 386.694 522.52 387.094 522.168C387.502 521.808 387.706 521.308 387.706 520.668V512.592H391.174V525H388.534L388.126 522.54C387.982 523.268 387.71 523.828 387.31 524.22C386.918 524.604 386.466 524.868 385.954 525.012C385.45 525.164 384.954 525.24 384.466 525.24ZM399.655 525.24C398.791 525.24 397.959 525.1 397.159 524.82C396.359 524.532 395.683 524.084 395.131 523.476C394.579 522.86 394.227 522.064 394.075 521.088H397.111C397.215 521.528 397.403 521.876 397.675 522.132C397.955 522.388 398.271 522.572 398.623 522.684C398.975 522.788 399.311 522.84 399.631 522.84C400.303 522.84 400.843 522.736 401.251 522.528C401.667 522.312 401.875 521.984 401.875 521.544C401.875 521.208 401.751 520.94 401.503 520.74C401.263 520.54 400.863 520.388 400.303 520.284L398.119 519.828C397.023 519.596 396.143 519.204 395.479 518.652C394.815 518.092 394.475 517.3 394.459 516.276C394.459 515.532 394.655 514.864 395.047 514.272C395.447 513.68 396.035 513.212 396.811 512.868C397.587 512.524 398.539 512.352 399.667 512.352C401.195 512.352 402.415 512.688 403.327 513.36C404.247 514.032 404.715 514.98 404.731 516.204H401.803C401.715 515.724 401.475 515.356 401.083 515.1C400.699 514.836 400.215 514.704 399.631 514.704C399.023 514.704 398.523 514.812 398.131 515.028C397.739 515.244 397.543 515.572 397.543 516.012C397.543 516.34 397.703 516.6 398.023 516.792C398.343 516.976 398.839 517.136 399.511 517.272L401.527 517.728C402.223 517.896 402.787 518.128 403.219 518.424C403.659 518.712 403.999 519.028 404.239 519.372C404.479 519.716 404.643 520.064 404.731 520.416C404.827 520.76 404.875 521.072 404.875 521.352C404.875 522.176 404.655 522.88 404.215 523.464C403.775 524.04 403.163 524.48 402.379 524.784C401.595 525.088 400.687 525.24 399.655 525.24ZM412.625 525.24C412.049 525.24 411.481 525.152 410.921 524.976C410.369 524.8 409.865 524.54 409.409 524.196C408.953 523.852 408.585 523.428 408.305 522.924C408.033 522.42 407.897 521.836 407.897 521.172V512.592H411.401V520.728C411.401 521.304 411.589 521.776 411.965 522.144C412.341 522.512 412.893 522.696 413.621 522.696C414.309 522.696 414.853 522.52 415.253 522.168C415.661 521.808 415.865 521.308 415.865 520.668V512.592H419.333V525H416.693L416.285 522.54C416.141 523.268 415.869 523.828 415.469 524.22C415.077 524.604 414.625 524.868 414.113 525.012C413.609 525.164 413.113 525.24 412.625 525.24ZM427.814 525.24C426.95 525.24 426.118 525.1 425.318 524.82C424.518 524.532 423.842 524.084 423.29 523.476C422.738 522.86 422.386 522.064 422.234 521.088H425.27C425.374 521.528 425.562 521.876 425.834 522.132C426.114 522.388 426.43 522.572 426.782 522.684C427.134 522.788 427.47 522.84 427.79 522.84C428.462 522.84 429.002 522.736 429.41 522.528C429.826 522.312 430.034 521.984 430.034 521.544C430.034 521.208 429.91 520.94 429.662 520.74C429.422 520.54 429.022 520.388 428.462 520.284L426.278 519.828C425.182 519.596 424.302 519.204 423.638 518.652C422.974 518.092 422.634 517.3 422.618 516.276C422.618 515.532 422.814 514.864 423.206 514.272C423.606 513.68 424.194 513.212 424.97 512.868C425.746 512.524 426.698 512.352 427.826 512.352C429.354 512.352 430.574 512.688 431.486 513.36C432.406 514.032 432.874 514.98 432.89 516.204H429.962C429.874 515.724 429.634 515.356 429.242 515.1C428.858 514.836 428.374 514.704 427.79 514.704C427.182 514.704 426.682 514.812 426.29 515.028C425.898 515.244 425.702 515.572 425.702 516.012C425.702 516.34 425.862 516.6 426.182 516.792C426.502 516.976 426.998 517.136 427.67 517.272L429.686 517.728C430.382 517.896 430.946 518.128 431.378 518.424C431.818 518.712 432.158 519.028 432.398 519.372C432.638 519.716 432.802 520.064 432.89 520.416C432.986 520.76 433.034 521.072 433.034 521.352C433.034 522.176 432.814 522.88 432.374 523.464C431.934 524.04 431.322 524.48 430.538 524.784C429.754 525.088 428.846 525.24 427.814 525.24ZM197.826 550.388C197.826 551.788 197.598 553.004 197.142 554.036C196.686 555.06 195.946 555.852 194.922 556.412C193.906 556.964 192.558 557.24 190.878 557.24C189.19 557.24 187.838 556.96 186.822 556.4C185.806 555.832 185.07 555.028 184.614 553.988C184.166 552.948 183.942 551.708 183.942 550.268V539.648H187.506V550.532C187.506 551.828 187.818 552.776 188.442 553.376C189.066 553.968 189.878 554.264 190.878 554.264C191.542 554.264 192.13 554.136 192.642 553.88C193.154 553.616 193.554 553.212 193.842 552.668C194.138 552.116 194.286 551.404 194.286 550.532V539.648H197.826V550.388ZM201.585 557V544.592H205.029V546.344C205.221 546.04 205.469 545.748 205.773 545.468C206.085 545.18 206.477 544.944 206.949 544.76C207.421 544.576 207.981 544.484 208.629 544.484C209.389 544.484 210.097 544.632 210.753 544.928C211.417 545.224 211.953 545.692 212.361 546.332C212.769 546.964 212.973 547.792 212.973 548.816V557H209.469V549.248C209.469 548.576 209.269 548.072 208.869 547.736C208.469 547.4 207.981 547.232 207.405 547.232C207.021 547.232 206.649 547.3 206.289 547.436C205.937 547.572 205.649 547.776 205.425 548.048C205.201 548.32 205.089 548.656 205.089 549.056V557H201.585ZM223.552 547.028H220.792L220.816 553.64C220.816 553.944 220.852 554.172 220.924 554.324C221.004 554.468 221.124 554.564 221.284 554.612C221.452 554.652 221.664 554.672 221.92 554.672H223.588V556.832C223.428 556.904 223.176 556.972 222.832 557.036C222.496 557.1 222.024 557.132 221.416 557.132C220.328 557.132 219.484 556.992 218.884 556.712C218.292 556.432 217.88 556.04 217.648 555.536C217.416 555.032 217.3 554.448 217.3 553.784V547.028H215.284V544.592H217.42L218.296 540.848H220.792V544.58H223.552V547.028ZM231.316 557.24C230.74 557.24 230.172 557.152 229.612 556.976C229.06 556.8 228.556 556.54 228.1 556.196C227.644 555.852 227.276 555.428 226.996 554.924C226.724 554.42 226.588 553.836 226.588 553.172V544.592H230.092V552.728C230.092 553.304 230.28 553.776 230.656 554.144C231.032 554.512 231.584 554.696 232.312 554.696C233 554.696 233.544 554.52 233.944 554.168C234.352 553.808 234.556 553.308 234.556 552.668V544.592H238.024V557H235.384L234.976 554.54C234.832 555.268 234.56 555.828 234.16 556.22C233.768 556.604 233.316 556.868 232.804 557.012C232.3 557.164 231.804 557.24 231.316 557.24ZM253.655 557H250.163L246.815 551.648L245.171 553.4V557H241.667V539.168H245.171V549.74L249.731 544.592H253.499L248.987 549.536L253.655 557ZM277.198 557H273.382L268.786 548.924L266.218 552.02V557H262.582V539.648H266.218V547.592L272.542 539.648H276.562L271.294 546.368L277.198 557ZM282.168 551.6C282.16 552.232 282.26 552.784 282.468 553.256C282.676 553.72 282.976 554.08 283.368 554.336C283.768 554.584 284.248 554.708 284.808 554.708C285.408 554.708 285.932 554.58 286.38 554.324C286.836 554.068 287.152 553.648 287.328 553.064H290.484C290.348 553.944 289.996 554.696 289.428 555.32C288.868 555.944 288.188 556.42 287.388 556.748C286.588 557.076 285.756 557.24 284.892 557.24C283.668 557.24 282.588 556.984 281.652 556.472C280.724 555.952 280 555.22 279.48 554.276C278.96 553.332 278.7 552.22 278.7 550.94C278.7 549.7 278.936 548.584 279.408 547.592C279.88 546.592 280.564 545.804 281.46 545.228C282.364 544.644 283.448 544.352 284.712 544.352C285.976 544.352 287.036 544.62 287.892 545.156C288.756 545.684 289.404 546.424 289.836 547.376C290.276 548.32 290.496 549.412 290.496 550.652V551.6H282.168ZM282.156 549.512H287.22C287.22 549.016 287.128 548.56 286.944 548.144C286.76 547.728 286.48 547.4 286.104 547.16C285.736 546.92 285.272 546.8 284.712 546.8C284.168 546.8 283.704 546.932 283.32 547.196C282.944 547.452 282.656 547.788 282.456 548.204C282.256 548.62 282.156 549.056 282.156 549.512ZM293.648 560.864V544.592H297.164L297.176 546.38C297.36 546.084 297.584 545.816 297.848 545.576C298.12 545.328 298.42 545.112 298.748 544.928C299.076 544.744 299.432 544.604 299.816 544.508C300.2 544.404 300.604 544.352 301.028 544.352C301.948 544.352 302.768 544.58 303.488 545.036C304.208 545.484 304.772 546.18 305.18 547.124C305.596 548.06 305.804 549.252 305.804 550.7C305.804 552.204 305.58 553.44 305.132 554.408C304.692 555.368 304.084 556.08 303.308 556.544C302.532 557.008 301.656 557.24 300.68 557.24C300.28 557.24 299.904 557.184 299.552 557.072C299.2 556.968 298.872 556.82 298.568 556.628C298.272 556.436 298.004 556.216 297.764 555.968C297.532 555.712 297.328 555.436 297.152 555.14V560.864H293.648ZM299.84 554.672C300.6 554.672 301.236 554.356 301.748 553.724C302.268 553.092 302.528 552.092 302.528 550.724C302.528 549.524 302.28 548.588 301.784 547.916C301.296 547.236 300.648 546.896 299.84 546.896C298.936 546.896 298.26 547.264 297.812 548C297.372 548.728 297.152 549.636 297.152 550.724C297.152 551.42 297.248 552.068 297.44 552.668C297.64 553.268 297.936 553.752 298.328 554.12C298.728 554.488 299.232 554.672 299.84 554.672ZM311.733 551.6C311.725 552.232 311.825 552.784 312.033 553.256C312.241 553.72 312.541 554.08 312.933 554.336C313.333 554.584 313.813 554.708 314.373 554.708C314.973 554.708 315.497 554.58 315.945 554.324C316.401 554.068 316.717 553.648 316.893 553.064H320.049C319.913 553.944 319.561 554.696 318.993 555.32C318.433 555.944 317.753 556.42 316.953 556.748C316.153 557.076 315.321 557.24 314.457 557.24C313.233 557.24 312.153 556.984 311.217 556.472C310.289 555.952 309.565 555.22 309.045 554.276C308.525 553.332 308.265 552.22 308.265 550.94C308.265 549.7 308.501 548.584 308.973 547.592C309.445 546.592 310.129 545.804 311.025 545.228C311.929 544.644 313.013 544.352 314.277 544.352C315.541 544.352 316.601 544.62 317.457 545.156C318.321 545.684 318.969 546.424 319.401 547.376C319.841 548.32 320.061 549.412 320.061 550.652V551.6H311.733ZM311.721 549.512H316.785C316.785 549.016 316.693 548.56 316.509 548.144C316.325 547.728 316.045 547.4 315.669 547.16C315.301 546.92 314.837 546.8 314.277 546.8C313.733 546.8 313.269 546.932 312.885 547.196C312.509 547.452 312.221 547.788 312.021 548.204C311.821 548.62 311.721 549.056 311.721 549.512ZM323.213 557V544.592H326.585V547.532C326.785 546.9 327.065 546.348 327.425 545.876C327.793 545.396 328.237 545.024 328.757 544.76C329.277 544.488 329.865 544.352 330.521 544.352C330.633 544.352 330.737 544.36 330.833 544.376C330.937 544.384 331.013 544.4 331.061 544.424V547.76C330.989 547.728 330.901 547.708 330.797 547.7C330.701 547.692 330.613 547.684 330.533 547.676C329.845 547.62 329.257 547.64 328.769 547.736C328.281 547.832 327.885 547.996 327.581 548.228C327.277 548.46 327.057 548.744 326.921 549.08C326.785 549.416 326.717 549.792 326.717 550.208V557H323.213ZM337.643 557.216C336.731 557.216 336.007 557.108 335.471 556.892C334.935 556.676 334.539 556.392 334.283 556.04C334.027 555.68 333.863 555.284 333.791 554.852C333.719 554.412 333.683 553.968 333.683 553.52V539.168H337.115V553.088C337.115 553.544 337.211 553.916 337.403 554.204C337.603 554.484 337.975 554.656 338.519 554.72L339.107 554.756V556.916C338.867 556.996 338.623 557.064 338.375 557.12C338.127 557.184 337.883 557.216 337.643 557.216ZM346.593 557.24C346.017 557.24 345.449 557.152 344.889 556.976C344.337 556.8 343.833 556.54 343.377 556.196C342.921 555.852 342.553 555.428 342.273 554.924C342.001 554.42 341.865 553.836 341.865 553.172V544.592H345.369V552.728C345.369 553.304 345.557 553.776 345.933 554.144C346.309 554.512 346.861 554.696 347.589 554.696C348.277 554.696 348.821 554.52 349.221 554.168C349.629 553.808 349.833 553.308 349.833 552.668V544.592H353.301V557H350.661L350.253 554.54C350.109 555.268 349.837 555.828 349.437 556.22C349.045 556.604 348.593 556.868 348.081 557.012C347.577 557.164 347.081 557.24 346.593 557.24ZM360.473 557.24C359.681 557.24 358.969 557.092 358.337 556.796C357.705 556.5 357.205 556.072 356.837 555.512C356.469 554.944 356.285 554.256 356.285 553.448C356.285 552.088 356.793 551.056 357.809 550.352C358.825 549.64 360.429 549.272 362.621 549.248L364.169 549.224V548.48C364.169 547.912 364.001 547.476 363.665 547.172C363.337 546.86 362.825 546.708 362.129 546.716C361.617 546.724 361.129 546.844 360.665 547.076C360.209 547.308 359.897 547.712 359.729 548.288H356.813C356.861 547.392 357.121 546.656 357.593 546.08C358.065 545.496 358.705 545.064 359.513 544.784C360.329 544.496 361.253 544.352 362.285 544.352C363.557 544.352 364.577 544.512 365.345 544.832C366.113 545.144 366.669 545.596 367.013 546.188C367.357 546.772 367.529 547.468 367.529 548.276V557H364.601L364.313 554.864C363.889 555.76 363.357 556.38 362.717 556.724C362.085 557.068 361.337 557.24 360.473 557.24ZM361.649 554.936C361.969 554.936 362.277 554.88 362.573 554.768C362.877 554.648 363.145 554.492 363.377 554.3C363.617 554.1 363.809 553.876 363.953 553.628C364.097 553.38 364.169 553.124 364.169 552.86V551.024L362.909 551.048C362.325 551.056 361.781 551.128 361.277 551.264C360.773 551.392 360.365 551.604 360.053 551.9C359.749 552.196 359.597 552.596 359.597 553.1C359.597 553.676 359.797 554.128 360.197 554.456C360.597 554.776 361.081 554.936 361.649 554.936ZM371.351 557V544.592H374.795V546.344C374.987 546.04 375.235 545.748 375.539 545.468C375.851 545.18 376.243 544.944 376.715 544.76C377.187 544.576 377.747 544.484 378.395 544.484C379.155 544.484 379.863 544.632 380.519 544.928C381.183 545.224 381.719 545.692 382.127 546.332C382.535 546.964 382.739 547.792 382.739 548.816V557H379.235V549.248C379.235 548.576 379.035 548.072 378.635 547.736C378.235 547.4 377.747 547.232 377.171 547.232C376.787 547.232 376.415 547.3 376.055 547.436C375.703 547.572 375.415 547.776 375.191 548.048C374.967 548.32 374.855 548.656 374.855 549.056V557H371.351ZM386.298 557V544.592H389.73V546.344C390.106 545.8 390.61 545.332 391.242 544.94C391.882 544.548 392.686 544.352 393.654 544.352C394.078 544.352 394.51 544.428 394.95 544.58C395.39 544.732 395.802 544.956 396.186 545.252C396.578 545.54 396.894 545.904 397.134 546.344C397.534 545.776 398.058 545.304 398.706 544.928C399.362 544.544 400.09 544.352 400.89 544.352C401.354 544.352 401.822 544.428 402.294 544.58C402.774 544.732 403.214 544.98 403.614 545.324C404.014 545.668 404.334 546.128 404.574 546.704C404.822 547.272 404.946 547.976 404.946 548.816V557H401.442V549.248C401.442 548.752 401.342 548.356 401.142 548.06C400.95 547.756 400.702 547.54 400.398 547.412C400.102 547.276 399.786 547.208 399.45 547.208C399.138 547.208 398.822 547.272 398.502 547.4C398.182 547.52 397.91 547.716 397.686 547.988C397.462 548.26 397.35 548.616 397.35 549.056V557H393.858V548.936C393.858 548.56 393.758 548.244 393.558 547.988C393.358 547.732 393.106 547.54 392.802 547.412C392.506 547.276 392.202 547.208 391.89 547.208C391.57 547.208 391.25 547.276 390.93 547.412C390.61 547.54 390.342 547.744 390.126 548.024C389.91 548.296 389.802 548.64 389.802 549.056V557H386.298ZM412.941 557.24C412.365 557.24 411.797 557.152 411.237 556.976C410.685 556.8 410.181 556.54 409.725 556.196C409.269 555.852 408.901 555.428 408.621 554.924C408.349 554.42 408.213 553.836 408.213 553.172V544.592H411.717V552.728C411.717 553.304 411.905 553.776 412.281 554.144C412.657 554.512 413.209 554.696 413.937 554.696C414.625 554.696 415.169 554.52 415.569 554.168C415.977 553.808 416.181 553.308 416.181 552.668V544.592H419.649V557H417.009L416.601 554.54C416.457 555.268 416.185 555.828 415.785 556.22C415.393 556.604 414.941 556.868 414.429 557.012C413.925 557.164 413.429 557.24 412.941 557.24Z" fill="url(#paint3_linear_0_1)"/>
</g>
<defs>
<radialGradient id="paint0_radial_0_1" cx="0" cy="0" r="1" gradientUnits="userSpaceOnUse" gradientTransform="translate(562.5 -23) rotate(90) scale(139 229.5)">
<stop stop-color="#E0004D"/>
<stop offset="1" stop-color="#E0004D" stop-opacity="0"/>
</radialGradient>
<radialGradient id="paint1_radial_0_1" cx="0" cy="0" r="1" gradientUnits="userSpaceOnUse" gradientTransform="translate(344 523.5) rotate(90) scale(101.5 403)">
<stop stop-color="#DD372C"/>
<stop offset="1" stop-color="#DA2323" stop-opacity="0"/>
</radialGradient>
<radialGradient id="paint2_radial_0_1" cx="0" cy="0" r="1" gradientUnits="userSpaceOnUse" gradientTransform="translate(-89 192) rotate(90) scale(139 143)">
<stop stop-color="#E0004D"/>
<stop offset="1" stop-color="#E0004D" stop-opacity="0"/>
</radialGradient>
<linearGradient id="paint3_linear_0_1" x1="240.55" y1="470.195" x2="221.799" y2="629.185" gradientUnits="userSpaceOnUse">
<stop stop-color="#7987BC"/>
<stop offset="0.469007" stop-color="#2B4179"/>
<stop offset="1" stop-color="#000C36"/>
</linearGradient>
<clipPath id="clip0_0_1">
<rect width="170.328" height="36" fill="white" transform="translate(72 29)"/>
</clipPath>
<clipPath id="clip1_0_1">
<rect width="660" height="610" fill="white" transform="translate(-15)"/>
</clipPath>
</defs>
</svg>
