<svg width="231" height="206" viewBox="0 0 231 206" fill="none" xmlns="http://www.w3.org/2000/svg">
<mask id="mask0_1403_9335" style="mask-type:alpha" maskUnits="userSpaceOnUse" x="0" y="0" width="231" height="206">
<rect width="231" height="206" fill="url(#paint0_linear_1403_9335)"/>
</mask>
<g mask="url(#mask0_1403_9335)">
<path d="M138.319 71.2501C139.286 70.1837 140.254 69.1188 141.221 68.0542C142.288 68.1434 159.871 69.8719 166.185 83.3339C167.053 85.1853 170.253 92.01 167.202 97.3482C162.086 106.296 141.774 106.927 130.225 97.8957C121.15 90.7979 117.372 77.6449 121.023 74.3692C125.441 70.4058 142.995 78.8882 144.331 79.5337C147.014 80.8304 149.508 82.2775 149.806 81.8862C150.315 81.2196 143.998 75.8692 138.319 71.2501Z" fill="#E14757"/>
<path d="M30.9833 194.86C30.9833 194.86 31.3742 192.469 29.7398 191.556C28.1073 190.644 19.7435 188.668 15.9342 189.438C12.1252 190.209 15.8377 192.521 18.3792 193.748C20.9207 194.976 26.7614 197.452 28.1373 197.502C29.5108 197.55 30.9833 194.86 30.9833 194.86Z" fill="#EE5463"/>
<path d="M38.6003 197.448C36.0087 196.167 33.7821 195.204 32.1087 194.523C28.4069 193.014 26.8205 192.63 25.2778 192.454C23.9322 192.3 20.9178 192.11 20.776 192.738C20.6323 193.375 23.5834 194.271 31.1463 197.898C32.2445 198.424 35.7333 200.109 35.7333 200.109L38.6003 197.448Z" fill="#FFB27D"/>
<path d="M144.091 150.522C150.313 154.792 150.799 162.47 152.074 176.155C153.142 187.635 154.877 204.583 157.669 225.926C159.255 240.883 160.841 255.839 162.427 270.793C159.83 271.28 157.232 271.766 154.634 272.253C150.037 266.265 144.079 256.893 141.219 244.471C138.849 234.181 141.035 232.362 139.007 220.585C137.893 214.108 136.534 210.616 125.582 183.653C116.869 162.204 115.198 158.186 117.647 154.213C121.966 147.205 136.181 145.094 144.091 150.522Z" fill="#233862"/>
<path opacity="0.4" d="M150.263 255.629C150.725 251.289 153.379 246.444 151.886 238.294C150.125 228.676 144.921 227.172 143.691 218.074C142.51 209.332 146.928 207.849 146.42 199.113C145.829 188.964 139.662 187.441 135.217 176.147C131.163 165.843 131.525 154.989 132.73 147.554C126.473 147.613 120.242 150.047 117.634 154.293C115.195 158.264 116.859 162.279 125.534 183.714C136.441 210.66 137.791 214.15 138.901 220.622C140.92 232.392 138.742 234.208 141.103 244.493C143.953 256.907 149.883 266.273 154.46 272.257C155.316 272.096 156.171 271.935 157.029 271.774C151.308 265.187 149.812 259.884 150.263 255.629Z" fill="#2B478B"/>
<path d="M31.0427 199.84C45.2937 212.527 71.7172 232.953 89.1259 225.416C98.3306 221.431 99.9116 211.836 120.198 168.777C125.077 158.422 129.285 149.853 132.284 143.829C120.66 143.24 109.034 142.651 97.4103 142.062C92.5183 155.354 89.789 166.347 88.2184 173.718C84.467 191.338 84.2402 202.901 77.7735 204.804C74.6121 205.734 72.0063 203.755 66.7964 201.13C59.9754 197.693 49.6874 193.65 35.209 191.761C33.8218 194.452 32.4332 197.146 31.0427 199.84Z" fill="#233862"/>
<path d="M-38.157 65.939C-36.4416 45.2751 -8.40195 30.429 8.5434 35.2182C20.7514 38.668 21.8743 50.8036 34.4897 51.9984C45.7257 53.0618 47.9084 43.7236 61.2995 44.6645C71.7755 45.4005 74.6687 51.4146 85.3148 49.9283C89.6175 49.3271 91.7916 47.9769 97.9 47.8811C102.611 47.8092 106.855 47.7993 110.813 50.5116C111.499 50.9816 117.083 54.9095 117.101 61.015C117.124 67.9499 110.29 72.0029 108.361 73.146C101.953 76.9467 95.7622 76.0701 91.9008 76.4143C70.9113 78.2852 71.0595 112.703 43.6718 128.168C28.4841 136.743 7.47241 137.995 -0.938388 129.715C-1.84415 128.823 -7.45468 123.299 -7.12101 116.394C-6.86225 111.038 -3.22837 109.078 -4.3997 105.85C-6.04384 101.316 -13.5214 101.217 -20.1168 98.0347C-31.4247 92.5783 -39.1479 77.8724 -38.157 65.939Z" fill="#233862"/>
<path d="M84.463 77.8137C92.9185 76.2075 103.415 74.3481 114.359 73.4483C137.888 71.5141 139.373 82.7555 137.384 93.6275C135.355 104.721 137.466 113.791 138.251 117.012C139.513 122.2 141.396 126.198 145.162 134.193C151.703 148.082 154.96 150.946 153.364 155.106C151.037 161.171 141.181 162.727 139.444 162.968C130.654 164.182 127.741 159.589 120.234 160.173C111.513 160.85 110.878 167.408 99.924 173.779C86.993 181.3 68.6989 183.351 58.3765 175.852C54.3903 172.957 51.2748 168.51 52.3362 166.731C53.7801 164.307 61.6454 169.042 68.1392 165.375C72.441 162.945 71.2775 159.577 76.1064 155.18C81.9182 149.888 86.494 152.135 90.465 148.677C96.6573 143.284 92.5695 131.68 88.9158 112.002C87.4002 103.853 85.5677 92.1971 84.463 77.8137Z" fill="#EE5463"/>
<path d="M84.5671 78.0181C72.3704 80.8984 70.6435 94.1468 58.3082 98.9984C50.8346 101.939 38.7695 102.068 18.6932 89.4692C16.5552 90.9709 14.4171 92.4726 12.2794 93.9761C17.7498 107.629 26.2119 114.284 30.2452 116.999C53.295 132.51 89.1027 125.224 105.043 105.268C110.046 99.005 112.238 92.563 113.288 88.401C105.539 82.1393 94.8192 75.597 84.5671 78.0181Z" fill="#EE5463"/>
<path d="M109.905 63.832C109.021 63.4407 108.017 63.9894 107.913 64.9166C107.626 67.4781 106.847 71.8931 104.798 73.3403C101.849 75.4245 96.7863 75.6942 96.2913 76.3942C95.7977 77.092 112.75 81.9243 122.189 76.5351C122.254 76.4978 122.318 76.4532 122.377 76.4057L122.893 75.9942C123.914 75.1808 123.295 73.565 121.96 73.5598C119.913 73.5507 114.454 73.0787 112.69 71.1473C112.487 70.9255 112.022 68.9732 111.998 68.6795L111.732 65.4248C111.691 64.9227 111.366 64.4773 110.889 64.2661L109.905 63.832Z" fill="#FFB27D"/>
<path d="M107.059 65.7182C104.835 63.9764 105.347 61.124 105.752 60.4279C106.327 59.4376 107.578 58.6396 108.441 58.5249C111.031 58.1828 116.53 64.1375 114.37 66.5055C111.96 69.1498 108.563 67.5804 108.563 67.5804C108.287 67.6719 107.668 67.8313 106.957 67.6226C106.751 67.5612 105.849 67.2941 105.801 66.7781C105.762 66.3695 106.265 65.8812 107.059 65.7182Z" fill="#FFB27D"/>
<path d="M16.9178 91.2555L15.2953 89.2722C15.2953 89.2722 19.1635 78.8575 14.0284 78.2614C8.89102 77.6638 10.8221 80.0746 11.6413 81.2452C12.4602 82.414 12.4739 86.724 11.9092 88.1453C11.345 89.5684 13.707 93.5145 13.707 93.5145L16.9178 91.2555Z" fill="#FFB27D"/>
<path opacity="0.5" d="M77.8451 171.528C80.4674 168.947 77.5119 165.394 80.2848 161.564C82.8223 158.058 86.6616 159.149 91.986 156.533C98.3859 153.389 102.506 147.067 103.92 141.949C104.928 138.301 104.319 136.149 99.0514 119.398C94.0334 103.446 92.7505 99.5607 90.4799 99.4371C86.3477 99.2115 85.4066 111.792 77.7176 113.225C73.3749 114.035 71.9647 110.34 66.0662 109.37C56.0514 107.724 51.1287 116.893 41.1388 118.447C38.586 118.843 35.3703 118.777 31.4461 117.522C48.6312 128.204 72.3021 126.831 89.6764 117.31C92.9851 133.856 95.846 143.902 90.2215 148.801C86.2538 152.257 81.6792 150.009 75.868 155.301C71.0408 159.697 72.202 163.065 67.9036 165.494C61.4121 169.159 53.55 164.428 52.1063 166.849C51.1442 168.461 53.6265 172.256 57.0672 175.109C58.5243 174.173 60.1853 173.383 62.0709 172.88C69.2789 170.964 74.7499 174.572 77.8451 171.528Z" fill="#E14757"/>
<path d="M158.856 39.1153L158.775 36.7551L161.661 35.4655C162.306 35.1771 163.072 35.3299 163.56 35.8421C166.14 38.5526 173.61 47.5901 172.271 60.1616C172.2 60.822 171.711 61.3622 171.043 61.5155C169.834 61.7912 168.481 61.9158 168.481 61.9158L158.856 39.1153Z" fill="#233862"/>
<path d="M138.6 60.6105L137.425 67.8481C137.425 67.8481 136.781 69.8355 136.838 70.7128C135.661 71.4486 133.464 71.23 133.464 71.23L132.215 62.1572L138.372 60.5075L138.6 60.6105Z" fill="url(#paint1_linear_1403_9335)"/>
<path d="M140.801 69.3978L139.297 66.7983C139.297 66.7983 137.71 64.7186 134.544 64.903C131.377 65.0878 131.758 66.6896 131.758 66.6896L133.894 66.8907C133.894 66.8907 135.274 67.0118 136.558 68.668C138.207 70.2911 139.654 70.9062 139.654 70.9062L140.801 69.3978Z" fill="#FFB27D"/>
<path d="M126.479 57.8659C126.479 57.8659 150.563 47.5908 158.605 36.7886C170.222 44.6875 168.409 62.1194 168.409 62.1194C168.409 62.1194 139.6 61.1496 128.828 64.5069C126.028 62.804 126.479 57.8659 126.479 57.8659Z" fill="#334F95"/>
<path d="M178.978 64.5842C178.352 64.0888 178.009 63.2902 178.155 62.4709C182.162 39.8902 167.955 31.0723 167.815 30.9878C166.736 30.3423 166.389 28.9758 167.041 27.9397C167.692 26.9037 169.095 26.5897 170.175 27.237C170.875 27.6556 187.183 37.7713 182.654 63.2858C182.441 64.4861 181.262 65.2773 180.017 65.052C179.625 64.9822 179.272 64.8156 178.978 64.5842Z" fill="white"/>
<path d="M178.021 20.556C178.778 19.3533 180.407 18.9873 181.661 19.7395C182.474 20.2249 201.412 31.9726 196.153 61.6046C195.906 62.9981 194.535 63.9169 193.093 63.6562C192.633 63.5742 192.222 63.38 191.884 63.1113C191.157 62.5353 190.758 61.6081 190.927 60.6585C195.58 34.4338 179.081 24.1937 178.92 24.0959C177.666 23.3458 177.264 21.7587 178.021 20.556Z" fill="white"/>
</g>
<defs>
<linearGradient id="paint0_linear_1403_9335" x1="-47.8997" y1="-31.0478" x2="95.313" y2="274.929" gradientUnits="userSpaceOnUse">
<stop stop-color="#4F5C8E"/>
<stop offset="0.397905" stop-color="#213360"/>
<stop offset="0.875393" stop-color="#000C36"/>
</linearGradient>
<linearGradient id="paint1_linear_1403_9335" x1="144.825" y1="61.5898" x2="122.258" y2="73.3109" gradientUnits="userSpaceOnUse">
<stop stop-color="#AB316D"/>
<stop offset="1" stop-color="#792D3D"/>
</linearGradient>
</defs>
</svg>
