<svg width="20" height="20" viewBox="0 0 20 20" fill="none" xmlns="http://www.w3.org/2000/svg">
<path fill-rule="evenodd" clip-rule="evenodd" d="M3.28817 5.13973C2.5 5.99987 2.5 7.33319 2.5 9.99984C2.5 12.6665 2.5 13.9998 3.28817 14.8599C3.34713 14.9243 3.40888 14.986 3.47323 15.045C4.33336 15.8332 5.66669 15.8332 8.33333 15.8332H11.6667C14.3333 15.8332 15.6666 15.8332 16.5268 15.045C16.5911 14.986 16.6529 14.9243 16.7118 14.8599C17.5 13.9998 17.5 12.6665 17.5 9.99984C17.5 7.33319 17.5 5.99987 16.7118 5.13973C16.6529 5.07538 16.5911 5.01364 16.5268 4.95467C15.6666 4.1665 14.3333 4.1665 11.6667 4.1665H8.33333C5.66669 4.1665 4.33336 4.1665 3.47323 4.95467C3.40888 5.01364 3.34713 5.07538 3.28817 5.13973ZM15.5547 8.33189C16.0142 8.02554 16.1384 7.40467 15.8321 6.94514C15.5257 6.48561 14.9048 6.36143 14.4453 6.66779L10 9.63132L5.5547 6.66779C5.09517 6.36143 4.4743 6.48561 4.16795 6.94514C3.8616 7.40467 3.98577 8.02554 4.4453 8.33189L8.8906 11.2954C9.5624 11.7433 10.4376 11.7433 11.1094 11.2954L15.5547 8.33189Z" fill="#213360"/>
</svg>
