<svg width="20" height="20" viewBox="0 0 20 20" fill="none" xmlns="http://www.w3.org/2000/svg">
<path d="M13.9768 8.58413H13.8227L13.8228 6.28893C13.8228 4.18636 12.1122 2.47607 10.0096 2.47607C7.90708 2.47607 6.19648 4.18645 6.19648 6.28893V8.58413H6.04235C5.23087 8.58413 4.57227 9.24216 4.57227 10.0542V15.9925C4.57227 16.8046 5.23064 17.4626 6.04235 17.4626H13.9766C14.7881 17.4626 15.4467 16.8047 15.4467 15.9925L15.4468 10.0542C15.4467 9.24228 14.7882 8.58413 13.9768 8.58413H13.9768ZM7.6365 6.28893C7.6365 4.98045 8.70101 3.91593 10.0096 3.91593C11.3182 3.91593 12.3827 4.98045 12.3827 6.28893V8.58413H7.63644L7.6365 6.28893ZM10.6231 13.6921V15.2359C10.6231 15.5746 10.3484 15.8493 10.0097 15.8493C9.67094 15.8493 9.39627 15.5747 9.39627 15.2359V13.6921C8.9071 13.4615 8.56816 12.9655 8.56816 12.3888C8.56816 11.5925 9.21347 10.9471 10.0098 10.9471C10.8061 10.9471 11.4514 11.5925 11.4514 12.3888C11.4513 12.9655 11.1122 13.4613 10.6231 13.6921Z" fill="#213360"/>
</svg>
