<svg width="20" height="20" viewBox="0 0 20 20" fill="none" xmlns="http://www.w3.org/2000/svg">
<path d="M16.4081 15.3152C17.2635 14.2868 17.8585 13.0677 18.1427 11.7609C18.4268 10.4542 18.3918 9.09828 18.0406 7.80792C17.6894 6.51755 17.0323 5.33069 16.1249 4.34773C15.2176 3.36477 14.0866 2.61462 12.8277 2.16076C11.5688 1.7069 10.2191 1.56267 8.89258 1.74027C7.56611 1.91787 6.30196 2.41208 5.20707 3.18108C4.11218 3.95009 3.21876 4.97127 2.60239 6.15825C1.98603 7.34522 1.66485 8.66306 1.66602 10.0003C1.66647 11.9442 2.35207 13.8259 3.60252 15.3152L3.59061 15.3253C3.6323 15.3753 3.67996 15.4182 3.72285 15.4676C3.77645 15.5289 3.83423 15.5866 3.88963 15.6461C4.05642 15.8271 4.22797 16.0008 4.40786 16.1639C4.46266 16.2139 4.51925 16.2603 4.57464 16.308C4.76526 16.4722 4.96123 16.6282 5.16435 16.7734C5.19056 16.7912 5.21439 16.8145 5.2406 16.8329V16.8258C6.6357 17.8067 8.29999 18.3332 10.0059 18.3332C11.7118 18.3332 13.3761 17.8067 14.7712 16.8258V16.8329C14.7974 16.8145 14.8207 16.7912 14.8475 16.7734C15.05 16.6276 15.2466 16.4722 15.4372 16.308C15.4926 16.2603 15.5491 16.2133 15.604 16.1639C15.7838 16.0003 15.9554 15.8271 16.1222 15.6461C16.1776 15.5866 16.2348 15.5289 16.289 15.4676C16.3313 15.4182 16.3795 15.3753 16.4212 15.3247L16.4081 15.3152ZM10.0053 5.2389C10.5355 5.2389 11.0537 5.39597 11.4945 5.69027C11.9353 5.98456 12.2789 6.40285 12.4818 6.89225C12.6846 7.38164 12.7377 7.92015 12.6343 8.43969C12.5309 8.95923 12.2756 9.43645 11.9007 9.81102C11.5258 10.1856 11.0482 10.4407 10.5282 10.544C10.0083 10.6473 9.46933 10.5943 8.97953 10.3916C8.48974 10.1889 8.0711 9.8456 7.77657 9.40516C7.48203 8.96472 7.32482 8.4469 7.32482 7.91718C7.32482 7.20686 7.60723 6.52562 8.10992 6.02335C8.61261 5.52107 9.2944 5.2389 10.0053 5.2389ZM5.24417 15.3152C5.2545 14.5337 5.57235 13.7877 6.12894 13.2386C6.68554 12.6895 7.43613 12.3814 8.21832 12.381H11.7923C12.5745 12.3814 13.3251 12.6895 13.8817 13.2386C14.4383 13.7877 14.7561 14.5337 14.7664 15.3152C13.4601 16.4915 11.7639 17.1424 10.0053 17.1424C8.24676 17.1424 6.55055 16.4915 5.24417 15.3152Z" fill="#213360"/>
</svg>
