<svg width="569" height="412" viewBox="0 0 569 412" fill="none" xmlns="http://www.w3.org/2000/svg">
<g filter="url(#filter0_dd_4_4788)">
<rect x="16" y="12" width="537" height="380" rx="10" fill="white"/>
<line x1="58" y1="239.5" x2="536" y2="239.5" stroke="#D5D7DD" stroke-dasharray="4 4"/>
<line x1="58" y1="339.5" x2="536" y2="339.5" stroke="#D5D7DD" stroke-dasharray="4 4"/>
<line x1="58" y1="289.5" x2="536" y2="289.5" stroke="#D5D7DD" stroke-dasharray="4 4"/>
<path d="M78.525 358.1C78.1683 358.1 77.8183 358.055 77.475 357.965C77.1317 357.875 76.8183 357.74 76.535 357.56C76.2517 357.38 76.0167 357.155 75.83 356.885C75.6467 356.615 75.5367 356.298 75.5 355.935H76.995C77.045 356.155 77.14 356.34 77.28 356.49C77.42 356.64 77.5967 356.755 77.81 356.835C78.0233 356.915 78.26 356.955 78.52 356.955C78.7867 356.955 79.03 356.922 79.25 356.855C79.47 356.788 79.6467 356.688 79.78 356.555C79.9133 356.418 79.98 356.248 79.98 356.045C79.98 355.862 79.925 355.712 79.815 355.595C79.7083 355.478 79.5633 355.383 79.38 355.31C79.1967 355.237 78.9883 355.177 78.755 355.13L77.505 354.875C76.9583 354.772 76.525 354.555 76.205 354.225C75.885 353.892 75.72 353.448 75.71 352.895C75.7067 352.442 75.8267 352.05 76.07 351.72C76.3167 351.387 76.65 351.13 77.07 350.95C77.4933 350.77 77.9667 350.68 78.49 350.68C79.1133 350.68 79.6367 350.778 80.06 350.975C80.4867 351.168 80.81 351.432 81.03 351.765C81.2533 352.095 81.3683 352.463 81.375 352.87H79.91C79.8833 352.617 79.8067 352.415 79.68 352.265C79.5533 352.115 79.39 352.007 79.19 351.94C78.9933 351.873 78.7683 351.84 78.515 351.84C78.3217 351.84 78.145 351.862 77.985 351.905C77.8283 351.948 77.695 352.01 77.585 352.09C77.475 352.167 77.39 352.258 77.33 352.365C77.27 352.472 77.24 352.592 77.24 352.725C77.24 352.935 77.31 353.105 77.45 353.235C77.59 353.365 77.8517 353.472 78.235 353.555L79.475 353.81C79.9183 353.897 80.27 354.025 80.53 354.195C80.7933 354.365 80.99 354.557 81.12 354.77C81.2533 354.983 81.34 355.202 81.38 355.425C81.4233 355.645 81.445 355.848 81.445 356.035C81.445 356.425 81.3217 356.777 81.075 357.09C80.8317 357.4 80.4917 357.647 80.055 357.83C79.6183 358.01 79.1083 358.1 78.525 358.1ZM83.7 355.75C83.6967 356.013 83.7383 356.243 83.825 356.44C83.9117 356.633 84.0367 356.783 84.2 356.89C84.3667 356.993 84.5667 357.045 84.8 357.045C85.05 357.045 85.2683 356.992 85.455 356.885C85.645 356.778 85.7767 356.603 85.85 356.36H87.165C87.1083 356.727 86.9617 357.04 86.725 357.3C86.4917 357.56 86.2083 357.758 85.875 357.895C85.5417 358.032 85.195 358.1 84.835 358.1C84.325 358.1 83.875 357.993 83.485 357.78C83.0983 357.563 82.7967 357.258 82.58 356.865C82.3633 356.472 82.255 356.008 82.255 355.475C82.255 354.958 82.3533 354.493 82.55 354.08C82.7467 353.663 83.0317 353.335 83.405 353.095C83.7817 352.852 84.2333 352.73 84.76 352.73C85.2867 352.73 85.7283 352.842 86.085 353.065C86.445 353.285 86.715 353.593 86.895 353.99C87.0783 354.383 87.17 354.838 87.17 355.355V355.75H83.7ZM83.695 354.88H85.805C85.805 354.673 85.7667 354.483 85.69 354.31C85.6133 354.137 85.4967 354 85.34 353.9C85.1867 353.8 84.9933 353.75 84.76 353.75C84.5333 353.75 84.34 353.805 84.18 353.915C84.0233 354.022 83.9033 354.162 83.82 354.335C83.7367 354.508 83.695 354.69 83.695 354.88ZM88.1836 358V352.83H89.6186V353.56C89.6986 353.433 89.8019 353.312 89.9286 353.195C90.0586 353.075 90.2219 352.977 90.4186 352.9C90.6153 352.823 90.8486 352.785 91.1186 352.785C91.4353 352.785 91.7303 352.847 92.0036 352.97C92.2803 353.093 92.5036 353.288 92.6736 353.555C92.8436 353.818 92.9286 354.163 92.9286 354.59V358H91.4686V354.77C91.4686 354.49 91.3853 354.28 91.2186 354.14C91.0519 354 90.8486 353.93 90.6086 353.93C90.4486 353.93 90.2936 353.958 90.1436 354.015C89.9969 354.072 89.8769 354.157 89.7836 354.27C89.6903 354.383 89.6436 354.523 89.6436 354.69V358H88.1836ZM95.5813 352.83V358H94.1863V352.83H95.5813ZM95.5963 350.775V352.09H94.1763V350.775H95.5963ZM96.9336 358V352.83H98.3686V353.56C98.4486 353.433 98.5519 353.312 98.6786 353.195C98.8086 353.075 98.9719 352.977 99.1686 352.9C99.3653 352.823 99.5986 352.785 99.8686 352.785C100.185 352.785 100.48 352.847 100.754 352.97C101.03 353.093 101.254 353.288 101.424 353.555C101.594 353.818 101.679 354.163 101.679 354.59V358H100.219V354.77C100.219 354.49 100.135 354.28 99.9686 354.14C99.8019 354 99.5986 353.93 99.3586 353.93C99.1986 353.93 99.0436 353.958 98.8936 354.015C98.7469 354.072 98.6269 354.157 98.5336 354.27C98.4403 354.383 98.3936 354.523 98.3936 354.69V358H96.9336Z" fill="#737A8D"/>
<path d="M293.9 358H292.31L290.395 354.635L289.325 355.925V358H287.81V350.77H289.325V354.08L291.96 350.77H293.635L291.44 353.57L293.9 358ZM296.176 358.1C295.846 358.1 295.549 358.038 295.286 357.915C295.022 357.792 294.814 357.613 294.661 357.38C294.507 357.143 294.431 356.857 294.431 356.52C294.431 355.953 294.642 355.523 295.066 355.23C295.489 354.933 296.157 354.78 297.071 354.77L297.716 354.76V354.45C297.716 354.213 297.646 354.032 297.506 353.905C297.369 353.775 297.156 353.712 296.866 353.715C296.652 353.718 296.449 353.768 296.256 353.865C296.066 353.962 295.936 354.13 295.866 354.37H294.651C294.671 353.997 294.779 353.69 294.976 353.45C295.172 353.207 295.439 353.027 295.776 352.91C296.116 352.79 296.501 352.73 296.931 352.73C297.461 352.73 297.886 352.797 298.206 352.93C298.526 353.06 298.757 353.248 298.901 353.495C299.044 353.738 299.116 354.028 299.116 354.365V358H297.896L297.776 357.11C297.599 357.483 297.377 357.742 297.111 357.885C296.847 358.028 296.536 358.1 296.176 358.1ZM296.666 357.14C296.799 357.14 296.927 357.117 297.051 357.07C297.177 357.02 297.289 356.955 297.386 356.875C297.486 356.792 297.566 356.698 297.626 356.595C297.686 356.492 297.716 356.385 297.716 356.275V355.51L297.191 355.52C296.947 355.523 296.721 355.553 296.511 355.61C296.301 355.663 296.131 355.752 296.001 355.875C295.874 355.998 295.811 356.165 295.811 356.375C295.811 356.615 295.894 356.803 296.061 356.94C296.227 357.073 296.429 357.14 296.666 357.14ZM300.408 358V352.83H301.838V353.56C301.995 353.333 302.205 353.138 302.468 352.975C302.735 352.812 303.07 352.73 303.473 352.73C303.65 352.73 303.83 352.762 304.013 352.825C304.197 352.888 304.368 352.982 304.528 353.105C304.692 353.225 304.823 353.377 304.923 353.56C305.09 353.323 305.308 353.127 305.578 352.97C305.852 352.81 306.155 352.73 306.488 352.73C306.682 352.73 306.877 352.762 307.073 352.825C307.273 352.888 307.457 352.992 307.623 353.135C307.79 353.278 307.923 353.47 308.023 353.71C308.127 353.947 308.178 354.24 308.178 354.59V358H306.718V354.77C306.718 354.563 306.677 354.398 306.593 354.275C306.513 354.148 306.41 354.058 306.283 354.005C306.16 353.948 306.028 353.92 305.888 353.92C305.758 353.92 305.627 353.947 305.493 354C305.36 354.05 305.247 354.132 305.153 354.245C305.06 354.358 305.013 354.507 305.013 354.69V358H303.558V354.64C303.558 354.483 303.517 354.352 303.433 354.245C303.35 354.138 303.245 354.058 303.118 354.005C302.995 353.948 302.868 353.92 302.738 353.92C302.605 353.92 302.472 353.948 302.338 354.005C302.205 354.058 302.093 354.143 302.003 354.26C301.913 354.373 301.868 354.517 301.868 354.69V358H300.408ZM310.833 352.83V358H309.438V352.83H310.833ZM310.848 350.775V352.09H309.428V350.775H310.848ZM314.201 358.1C313.841 358.1 313.495 358.042 313.161 357.925C312.828 357.805 312.546 357.618 312.316 357.365C312.086 357.108 311.94 356.777 311.876 356.37H313.141C313.185 356.553 313.263 356.698 313.376 356.805C313.493 356.912 313.625 356.988 313.771 357.035C313.918 357.078 314.058 357.1 314.191 357.1C314.471 357.1 314.696 357.057 314.866 356.97C315.04 356.88 315.126 356.743 315.126 356.56C315.126 356.42 315.075 356.308 314.971 356.225C314.871 356.142 314.705 356.078 314.471 356.035L313.561 355.845C313.105 355.748 312.738 355.585 312.461 355.355C312.185 355.122 312.043 354.792 312.036 354.365C312.036 354.055 312.118 353.777 312.281 353.53C312.448 353.283 312.693 353.088 313.016 352.945C313.34 352.802 313.736 352.73 314.206 352.73C314.843 352.73 315.351 352.87 315.731 353.15C316.115 353.43 316.31 353.825 316.316 354.335H315.096C315.06 354.135 314.96 353.982 314.796 353.875C314.636 353.765 314.435 353.71 314.191 353.71C313.938 353.71 313.73 353.755 313.566 353.845C313.403 353.935 313.321 354.072 313.321 354.255C313.321 354.392 313.388 354.5 313.521 354.58C313.655 354.657 313.861 354.723 314.141 354.78L314.981 354.97C315.271 355.04 315.506 355.137 315.686 355.26C315.87 355.38 316.011 355.512 316.111 355.655C316.211 355.798 316.28 355.943 316.316 356.09C316.356 356.233 316.376 356.363 316.376 356.48C316.376 356.823 316.285 357.117 316.101 357.36C315.918 357.6 315.663 357.783 315.336 357.91C315.01 358.037 314.631 358.1 314.201 358.1Z" fill="#737A8D"/>
<path d="M500.81 358V350.77H502.93L504.585 355.925L506.255 350.77H508.37V358H506.895V352.47L505.155 358H504.01L502.28 352.495V358H500.81ZM511.275 352.83V358H509.88V352.83H511.275ZM511.29 350.775V352.09H509.87V350.775H511.29ZM512.627 358V352.83H514.062V353.56C514.142 353.433 514.245 353.312 514.372 353.195C514.502 353.075 514.665 352.977 514.862 352.9C515.059 352.823 515.292 352.785 515.562 352.785C515.879 352.785 516.174 352.847 516.447 352.97C516.724 353.093 516.947 353.288 517.117 353.555C517.287 353.818 517.372 354.163 517.372 354.59V358H515.912V354.77C515.912 354.49 515.829 354.28 515.662 354.14C515.495 354 515.292 353.93 515.052 353.93C514.892 353.93 514.737 353.958 514.587 354.015C514.44 354.072 514.32 354.157 514.227 354.27C514.134 354.383 514.087 354.523 514.087 354.69V358H512.627ZM520.95 359.71C520.03 359.71 519.33 359.593 518.85 359.36C518.373 359.127 518.135 358.82 518.135 358.44C518.135 358.263 518.181 358.115 518.275 357.995C518.368 357.875 518.476 357.78 518.6 357.71C518.726 357.637 518.841 357.582 518.945 357.545C519.051 357.505 519.116 357.478 519.14 357.465C519.086 357.435 519.01 357.392 518.91 357.335C518.81 357.275 518.716 357.195 518.63 357.095C518.546 356.992 518.505 356.858 518.505 356.695C518.505 356.512 518.591 356.342 518.765 356.185C518.941 356.028 519.208 355.92 519.565 355.86C519.225 355.7 518.966 355.483 518.79 355.21C518.613 354.937 518.525 354.657 518.525 354.37C518.525 354.03 518.631 353.738 518.845 353.495C519.058 353.252 519.348 353.067 519.715 352.94C520.085 352.813 520.503 352.75 520.97 352.75C521.326 352.75 521.618 352.788 521.845 352.865C522.071 352.938 522.281 353.035 522.475 353.155C522.551 353.125 522.653 353.087 522.78 353.04C522.906 352.99 523.043 352.937 523.19 352.88C523.336 352.82 523.48 352.762 523.62 352.705C523.76 352.645 523.885 352.592 523.995 352.545L523.99 353.675L523.095 353.82C523.131 353.91 523.16 354.007 523.18 354.11C523.2 354.213 523.21 354.298 523.21 354.365C523.21 354.665 523.121 354.945 522.945 355.205C522.771 355.465 522.51 355.675 522.16 355.835C521.813 355.995 521.383 356.075 520.87 356.075C520.806 356.075 520.721 356.073 520.615 356.07C520.511 356.067 520.426 356.062 520.36 356.055C520.163 356.065 520.028 356.09 519.955 356.13C519.881 356.17 519.845 356.217 519.845 356.27C519.845 356.35 519.92 356.403 520.07 356.43C520.22 356.453 520.446 356.475 520.75 356.495C520.856 356.502 521.005 356.51 521.195 356.52C521.385 356.53 521.595 356.543 521.825 356.56C522.458 356.603 522.93 356.76 523.24 357.03C523.553 357.297 523.71 357.633 523.71 358.04C523.71 358.523 523.48 358.922 523.02 359.235C522.563 359.552 521.873 359.71 520.95 359.71ZM521.185 358.895C521.591 358.895 521.881 358.845 522.055 358.745C522.228 358.645 522.315 358.502 522.315 358.315C522.315 358.158 522.248 358.032 522.115 357.935C521.981 357.835 521.786 357.777 521.53 357.76L520.345 357.68C520.191 357.673 520.055 357.697 519.935 357.75C519.818 357.803 519.726 357.877 519.66 357.97C519.596 358.063 519.565 358.163 519.565 358.27C519.565 358.487 519.696 358.645 519.96 358.745C520.223 358.845 520.631 358.895 521.185 358.895ZM520.91 355.26C521.186 355.26 521.408 355.185 521.575 355.035C521.745 354.882 521.83 354.675 521.83 354.415C521.83 354.145 521.745 353.928 521.575 353.765C521.408 353.602 521.186 353.52 520.91 353.52C520.636 353.52 520.413 353.602 520.24 353.765C520.07 353.928 519.985 354.145 519.985 354.415C519.985 354.672 520.066 354.877 520.23 355.03C520.396 355.183 520.623 355.26 520.91 355.26ZM527.2 359.71C526.28 359.71 525.58 359.593 525.1 359.36C524.623 359.127 524.385 358.82 524.385 358.44C524.385 358.263 524.431 358.115 524.525 357.995C524.618 357.875 524.726 357.78 524.85 357.71C524.976 357.637 525.091 357.582 525.195 357.545C525.301 357.505 525.366 357.478 525.39 357.465C525.336 357.435 525.26 357.392 525.16 357.335C525.06 357.275 524.966 357.195 524.88 357.095C524.796 356.992 524.755 356.858 524.755 356.695C524.755 356.512 524.841 356.342 525.015 356.185C525.191 356.028 525.458 355.92 525.815 355.86C525.475 355.7 525.216 355.483 525.04 355.21C524.863 354.937 524.775 354.657 524.775 354.37C524.775 354.03 524.881 353.738 525.095 353.495C525.308 353.252 525.598 353.067 525.965 352.94C526.335 352.813 526.753 352.75 527.22 352.75C527.576 352.75 527.868 352.788 528.095 352.865C528.321 352.938 528.531 353.035 528.725 353.155C528.801 353.125 528.903 353.087 529.03 353.04C529.156 352.99 529.293 352.937 529.44 352.88C529.586 352.82 529.73 352.762 529.87 352.705C530.01 352.645 530.135 352.592 530.245 352.545L530.24 353.675L529.345 353.82C529.381 353.91 529.41 354.007 529.43 354.11C529.45 354.213 529.46 354.298 529.46 354.365C529.46 354.665 529.371 354.945 529.195 355.205C529.021 355.465 528.76 355.675 528.41 355.835C528.063 355.995 527.633 356.075 527.12 356.075C527.056 356.075 526.971 356.073 526.865 356.07C526.761 356.067 526.676 356.062 526.61 356.055C526.413 356.065 526.278 356.09 526.205 356.13C526.131 356.17 526.095 356.217 526.095 356.27C526.095 356.35 526.17 356.403 526.32 356.43C526.47 356.453 526.696 356.475 527 356.495C527.106 356.502 527.255 356.51 527.445 356.52C527.635 356.53 527.845 356.543 528.075 356.56C528.708 356.603 529.18 356.76 529.49 357.03C529.803 357.297 529.96 357.633 529.96 358.04C529.96 358.523 529.73 358.922 529.27 359.235C528.813 359.552 528.123 359.71 527.2 359.71ZM527.435 358.895C527.841 358.895 528.131 358.845 528.305 358.745C528.478 358.645 528.565 358.502 528.565 358.315C528.565 358.158 528.498 358.032 528.365 357.935C528.231 357.835 528.036 357.777 527.78 357.76L526.595 357.68C526.441 357.673 526.305 357.697 526.185 357.75C526.068 357.803 525.976 357.877 525.91 357.97C525.846 358.063 525.815 358.163 525.815 358.27C525.815 358.487 525.946 358.645 526.21 358.745C526.473 358.845 526.881 358.895 527.435 358.895ZM527.16 355.26C527.436 355.26 527.658 355.185 527.825 355.035C527.995 354.882 528.08 354.675 528.08 354.415C528.08 354.145 527.995 353.928 527.825 353.765C527.658 353.602 527.436 353.52 527.16 353.52C526.886 353.52 526.663 353.602 526.49 353.765C526.32 353.928 526.235 354.145 526.235 354.415C526.235 354.672 526.316 354.877 526.48 355.03C526.646 355.183 526.873 355.26 527.16 355.26ZM532.891 358.1C532.651 358.1 532.415 358.063 532.181 357.99C531.951 357.917 531.741 357.808 531.551 357.665C531.361 357.522 531.208 357.345 531.091 357.135C530.978 356.925 530.921 356.682 530.921 356.405V352.83H532.381V356.22C532.381 356.46 532.46 356.657 532.616 356.81C532.773 356.963 533.003 357.04 533.306 357.04C533.593 357.04 533.82 356.967 533.986 356.82C534.156 356.67 534.241 356.462 534.241 356.195V352.83H535.686V358H534.586L534.416 356.975C534.356 357.278 534.243 357.512 534.076 357.675C533.913 357.835 533.725 357.945 533.511 358.005C533.301 358.068 533.095 358.1 532.891 358.1Z" fill="#737A8D"/>
<path d="M35.23 330.67C36.09 330.67 36.7683 330.992 37.265 331.635C37.7617 332.275 38.01 333.197 38.01 334.4C38.01 335.597 37.765 336.515 37.275 337.155C36.785 337.792 36.1033 338.11 35.23 338.11C34.3533 338.11 33.6683 337.792 33.175 337.155C32.685 336.518 32.44 335.602 32.44 334.405C32.44 333.605 32.5533 332.927 32.78 332.37C33.0067 331.813 33.3283 331.392 33.745 331.105C34.1617 330.815 34.6567 330.67 35.23 330.67ZM35.23 336.915C35.66 336.915 35.975 336.723 36.175 336.34C36.375 335.953 36.475 335.308 36.475 334.405C36.475 333.482 36.3733 332.82 36.17 332.42C35.9667 332.02 35.6517 331.82 35.225 331.82C34.7983 331.82 34.48 332.022 34.27 332.425C34.0633 332.828 33.96 333.488 33.96 334.405C33.96 335.305 34.0633 335.948 34.27 336.335C34.4767 336.722 34.7967 336.915 35.23 336.915Z" fill="#737A8D"/>
<path d="M32.565 290V289.28V288.91C32.565 288.543 32.6333 288.227 32.77 287.96C32.9067 287.69 33.0867 287.457 33.31 287.26C33.5367 287.06 33.7833 286.885 34.05 286.735C34.32 286.585 34.59 286.443 34.86 286.31C35.13 286.177 35.3767 286.043 35.6 285.91C35.8267 285.773 36.0083 285.622 36.145 285.455C36.2817 285.288 36.35 285.092 36.35 284.865C36.35 284.575 36.2483 284.338 36.045 284.155C35.845 283.972 35.57 283.88 35.22 283.88C34.8567 283.88 34.5483 283.985 34.295 284.195C34.0417 284.405 33.885 284.722 33.825 285.145H32.43C32.4367 284.685 32.5433 284.268 32.75 283.895C32.96 283.518 33.2733 283.22 33.69 283C34.1067 282.78 34.63 282.67 35.26 282.67C35.8 282.67 36.265 282.762 36.655 282.945C37.0483 283.128 37.3517 283.383 37.565 283.71C37.7783 284.037 37.885 284.418 37.885 284.855C37.885 285.218 37.8183 285.532 37.685 285.795C37.5517 286.058 37.375 286.283 37.155 286.47C36.935 286.657 36.6933 286.82 36.43 286.96C36.1667 287.1 35.9033 287.23 35.64 287.35C35.38 287.47 35.14 287.593 34.92 287.72C34.7 287.843 34.5233 287.983 34.39 288.14C34.2567 288.297 34.19 288.485 34.19 288.705V288.77H37.875V290H32.565Z" fill="#737A8D"/>
<path d="M35.725 234.77H37.16V239.175H38.275V240.4H37.16V242H35.755L35.76 240.4H32.43V239.2L35.725 234.77ZM33.78 239.175H35.76V236.525L33.78 239.175Z" fill="#737A8D"/>
<line x1="58" y1="189.5" x2="536" y2="189.5" stroke="#D5D7DD" stroke-dasharray="4 4"/>
<path d="M35.475 184.67C35.9283 184.67 36.3467 184.753 36.73 184.92C37.1133 185.083 37.425 185.322 37.665 185.635C37.9083 185.945 38.0417 186.318 38.065 186.755H36.73C36.6433 186.452 36.4967 186.222 36.29 186.065C36.0833 185.905 35.8217 185.825 35.505 185.825C35.1583 185.825 34.87 185.923 34.64 186.12C34.41 186.317 34.245 186.592 34.145 186.945C34.045 187.298 34.0183 187.71 34.065 188.18C34.175 188.02 34.315 187.885 34.485 187.775C34.655 187.662 34.845 187.575 35.055 187.515C35.265 187.455 35.4833 187.425 35.71 187.425C36.2 187.425 36.6283 187.517 36.995 187.7C37.3617 187.88 37.6483 188.137 37.855 188.47C38.0617 188.803 38.165 189.193 38.165 189.64C38.165 190.113 38.0483 190.537 37.815 190.91C37.585 191.28 37.2633 191.573 36.85 191.79C36.4367 192.003 35.9583 192.11 35.415 192.11C34.8017 192.11 34.2717 191.962 33.825 191.665C33.3783 191.368 33.035 190.952 32.795 190.415C32.5583 189.878 32.44 189.248 32.44 188.525C32.44 187.732 32.56 187.047 32.8 186.47C33.0433 185.893 33.3917 185.45 33.845 185.14C34.2983 184.827 34.8417 184.67 35.475 184.67ZM35.37 188.515C35.1633 188.515 34.9633 188.562 34.77 188.655C34.58 188.745 34.4233 188.862 34.3 189.005C34.18 189.145 34.12 189.288 34.12 189.435C34.1167 189.758 34.1667 190.037 34.27 190.27C34.3767 190.5 34.5233 190.678 34.71 190.805C34.9 190.928 35.1183 190.99 35.365 190.99C35.5983 190.99 35.8083 190.937 35.995 190.83C36.185 190.72 36.3367 190.568 36.45 190.375C36.5633 190.182 36.62 189.96 36.62 189.71C36.62 189.443 36.565 189.222 36.455 189.045C36.345 188.868 36.195 188.737 36.005 188.65C35.8183 188.56 35.6067 188.515 35.37 188.515Z" fill="#737A8D"/>
<line x1="58" y1="139.5" x2="536" y2="139.5" stroke="#D5D7DD" stroke-dasharray="4 4"/>
<path d="M35.35 134.67C35.8467 134.67 36.29 134.748 36.68 134.905C37.0733 135.062 37.3833 135.292 37.61 135.595C37.8367 135.895 37.95 136.265 37.95 136.705C37.95 137.075 37.8483 137.39 37.645 137.65C37.4417 137.91 37.1917 138.11 36.895 138.25C37.115 138.297 37.33 138.407 37.54 138.58C37.7533 138.75 37.9283 138.96 38.065 139.21C38.2017 139.457 38.27 139.718 38.27 139.995C38.27 140.425 38.1483 140.798 37.905 141.115C37.665 141.432 37.325 141.677 36.885 141.85C36.4483 142.02 35.9367 142.105 35.35 142.105C34.77 142.105 34.2617 142.02 33.825 141.85C33.3883 141.677 33.0483 141.432 32.805 141.115C32.5617 140.798 32.44 140.425 32.44 139.995C32.44 139.718 32.5083 139.457 32.645 139.21C32.7817 138.96 32.955 138.75 33.165 138.58C33.375 138.407 33.5917 138.297 33.815 138.25C33.5183 138.11 33.2667 137.91 33.06 137.65C32.8533 137.39 32.75 137.075 32.75 136.705C32.75 136.265 32.8633 135.895 33.09 135.595C33.32 135.292 33.6317 135.062 34.025 134.905C34.4183 134.748 34.86 134.67 35.35 134.67ZM35.35 137.685C35.6833 137.685 35.9567 137.597 36.17 137.42C36.3867 137.24 36.495 136.992 36.495 136.675C36.495 136.362 36.3867 136.113 36.17 135.93C35.9533 135.747 35.68 135.655 35.35 135.655C35.0233 135.655 34.7517 135.747 34.535 135.93C34.3183 136.113 34.21 136.362 34.21 136.675C34.21 136.992 34.3183 137.24 34.535 137.42C34.7517 137.597 35.0233 137.685 35.35 137.685ZM35.35 141.005C35.7767 141.005 36.11 140.91 36.35 140.72C36.5933 140.527 36.715 140.272 36.715 139.955C36.715 139.742 36.66 139.555 36.55 139.395C36.44 139.232 36.2833 139.103 36.08 139.01C35.8767 138.917 35.6333 138.87 35.35 138.87C35.0733 138.87 34.8333 138.917 34.63 139.01C34.4267 139.103 34.27 139.232 34.16 139.395C34.05 139.555 33.995 139.742 33.995 139.955C33.995 140.272 34.1167 140.527 34.36 140.72C34.6033 140.91 34.9333 141.005 35.35 141.005Z" fill="#737A8D"/>
<path d="M362.37 355.99C362.37 356.45 362.32 356.837 362.22 357.15C362.12 357.463 361.937 357.7 361.67 357.86C361.403 358.02 361.02 358.1 360.52 358.1C360.29 358.1 360.053 358.08 359.81 358.04C359.567 358.003 359.388 357.97 359.275 357.94L359.305 356.605C359.402 356.625 359.512 356.652 359.635 356.685C359.762 356.718 359.902 356.735 360.055 356.735C360.392 356.735 360.618 356.647 360.735 356.47C360.852 356.29 360.91 356 360.91 355.6V350.77H362.37V355.99ZM365.553 358.1C365.313 358.1 365.077 358.063 364.843 357.99C364.613 357.917 364.403 357.808 364.213 357.665C364.023 357.522 363.87 357.345 363.753 357.135C363.64 356.925 363.583 356.682 363.583 356.405V352.83H365.043V356.22C365.043 356.46 365.122 356.657 365.278 356.81C365.435 356.963 365.665 357.04 365.968 357.04C366.255 357.04 366.482 356.967 366.648 356.82C366.818 356.67 366.903 356.462 366.903 356.195V352.83H368.348V358H367.248L367.078 356.975C367.018 357.278 366.905 357.512 366.738 357.675C366.575 357.835 366.387 357.945 366.173 358.005C365.963 358.068 365.757 358.1 365.553 358.1ZM369.566 358V352.83H370.996V353.56C371.153 353.333 371.363 353.138 371.626 352.975C371.893 352.812 372.228 352.73 372.631 352.73C372.808 352.73 372.988 352.762 373.171 352.825C373.355 352.888 373.526 352.982 373.686 353.105C373.85 353.225 373.981 353.377 374.081 353.56C374.248 353.323 374.466 353.127 374.736 352.97C375.01 352.81 375.313 352.73 375.646 352.73C375.84 352.73 376.035 352.762 376.231 352.825C376.431 352.888 376.615 352.992 376.781 353.135C376.948 353.278 377.081 353.47 377.181 353.71C377.285 353.947 377.336 354.24 377.336 354.59V358H375.876V354.77C375.876 354.563 375.835 354.398 375.751 354.275C375.671 354.148 375.568 354.058 375.441 354.005C375.318 353.948 375.186 353.92 375.046 353.92C374.916 353.92 374.785 353.947 374.651 354C374.518 354.05 374.405 354.132 374.311 354.245C374.218 354.358 374.171 354.507 374.171 354.69V358H372.716V354.64C372.716 354.483 372.675 354.352 372.591 354.245C372.508 354.138 372.403 354.058 372.276 354.005C372.153 353.948 372.026 353.92 371.896 353.92C371.763 353.92 371.63 353.948 371.496 354.005C371.363 354.058 371.251 354.143 371.161 354.26C371.071 354.373 371.026 354.517 371.026 354.69V358H369.566ZM379.982 358.1C379.652 358.1 379.356 358.038 379.092 357.915C378.829 357.792 378.621 357.613 378.467 357.38C378.314 357.143 378.237 356.857 378.237 356.52C378.237 355.953 378.449 355.523 378.872 355.23C379.296 354.933 379.964 354.78 380.877 354.77L381.522 354.76V354.45C381.522 354.213 381.452 354.032 381.312 353.905C381.176 353.775 380.962 353.712 380.672 353.715C380.459 353.718 380.256 353.768 380.062 353.865C379.872 353.962 379.742 354.13 379.672 354.37H378.457C378.477 353.997 378.586 353.69 378.782 353.45C378.979 353.207 379.246 353.027 379.582 352.91C379.922 352.79 380.307 352.73 380.737 352.73C381.267 352.73 381.692 352.797 382.012 352.93C382.332 353.06 382.564 353.248 382.707 353.495C382.851 353.738 382.922 354.028 382.922 354.365V358H381.702L381.582 357.11C381.406 357.483 381.184 357.742 380.917 357.885C380.654 358.028 380.342 358.1 379.982 358.1ZM380.472 357.14C380.606 357.14 380.734 357.117 380.857 357.07C380.984 357.02 381.096 356.955 381.192 356.875C381.292 356.792 381.372 356.698 381.432 356.595C381.492 356.492 381.522 356.385 381.522 356.275V355.51L380.997 355.52C380.754 355.523 380.527 355.553 380.317 355.61C380.107 355.663 379.937 355.752 379.807 355.875C379.681 355.998 379.617 356.165 379.617 356.375C379.617 356.615 379.701 356.803 379.867 356.94C380.034 357.073 380.236 357.14 380.472 357.14ZM387.13 353.845H385.98L385.99 356.6C385.99 356.727 386.005 356.822 386.035 356.885C386.069 356.945 386.119 356.985 386.185 357.005C386.255 357.022 386.344 357.03 386.45 357.03H387.145V357.93C387.079 357.96 386.974 357.988 386.83 358.015C386.69 358.042 386.494 358.055 386.24 358.055C385.787 358.055 385.435 357.997 385.185 357.88C384.939 357.763 384.767 357.6 384.67 357.39C384.574 357.18 384.525 356.937 384.525 356.66V353.845H383.685V352.83H384.575L384.94 351.27H385.98V352.825H387.13V353.845Z" fill="#737A8D"/>
<path d="M433.525 358.1C433.168 358.1 432.818 358.055 432.475 357.965C432.132 357.875 431.818 357.74 431.535 357.56C431.252 357.38 431.017 357.155 430.83 356.885C430.647 356.615 430.537 356.298 430.5 355.935H431.995C432.045 356.155 432.14 356.34 432.28 356.49C432.42 356.64 432.597 356.755 432.81 356.835C433.023 356.915 433.26 356.955 433.52 356.955C433.787 356.955 434.03 356.922 434.25 356.855C434.47 356.788 434.647 356.688 434.78 356.555C434.913 356.418 434.98 356.248 434.98 356.045C434.98 355.862 434.925 355.712 434.815 355.595C434.708 355.478 434.563 355.383 434.38 355.31C434.197 355.237 433.988 355.177 433.755 355.13L432.505 354.875C431.958 354.772 431.525 354.555 431.205 354.225C430.885 353.892 430.72 353.448 430.71 352.895C430.707 352.442 430.827 352.05 431.07 351.72C431.317 351.387 431.65 351.13 432.07 350.95C432.493 350.77 432.967 350.68 433.49 350.68C434.113 350.68 434.637 350.778 435.06 350.975C435.487 351.168 435.81 351.432 436.03 351.765C436.253 352.095 436.368 352.463 436.375 352.87H434.91C434.883 352.617 434.807 352.415 434.68 352.265C434.553 352.115 434.39 352.007 434.19 351.94C433.993 351.873 433.768 351.84 433.515 351.84C433.322 351.84 433.145 351.862 432.985 351.905C432.828 351.948 432.695 352.01 432.585 352.09C432.475 352.167 432.39 352.258 432.33 352.365C432.27 352.472 432.24 352.592 432.24 352.725C432.24 352.935 432.31 353.105 432.45 353.235C432.59 353.365 432.852 353.472 433.235 353.555L434.475 353.81C434.918 353.897 435.27 354.025 435.53 354.195C435.793 354.365 435.99 354.557 436.12 354.77C436.253 354.983 436.34 355.202 436.38 355.425C436.423 355.645 436.445 355.848 436.445 356.035C436.445 356.425 436.322 356.777 436.075 357.09C435.832 357.4 435.492 357.647 435.055 357.83C434.618 358.01 434.108 358.1 433.525 358.1ZM438.99 358.1C438.66 358.1 438.364 358.038 438.1 357.915C437.837 357.792 437.629 357.613 437.475 357.38C437.322 357.143 437.245 356.857 437.245 356.52C437.245 355.953 437.457 355.523 437.88 355.23C438.304 354.933 438.972 354.78 439.885 354.77L440.53 354.76V354.45C440.53 354.213 440.46 354.032 440.32 353.905C440.184 353.775 439.97 353.712 439.68 353.715C439.467 353.718 439.264 353.768 439.07 353.865C438.88 353.962 438.75 354.13 438.68 354.37H437.465C437.485 353.997 437.594 353.69 437.79 353.45C437.987 353.207 438.254 353.027 438.59 352.91C438.93 352.79 439.315 352.73 439.745 352.73C440.275 352.73 440.7 352.797 441.02 352.93C441.34 353.06 441.572 353.248 441.715 353.495C441.859 353.738 441.93 354.028 441.93 354.365V358H440.71L440.59 357.11C440.414 357.483 440.192 357.742 439.925 357.885C439.662 358.028 439.35 358.1 438.99 358.1ZM439.48 357.14C439.614 357.14 439.742 357.117 439.865 357.07C439.992 357.02 440.104 356.955 440.2 356.875C440.3 356.792 440.38 356.698 440.44 356.595C440.5 356.492 440.53 356.385 440.53 356.275V355.51L440.005 355.52C439.762 355.523 439.535 355.553 439.325 355.61C439.115 355.663 438.945 355.752 438.815 355.875C438.689 355.998 438.625 356.165 438.625 356.375C438.625 356.615 438.709 356.803 438.875 356.94C439.042 357.073 439.244 357.14 439.48 357.14ZM446.103 358.1C445.846 358.1 445.624 358.067 445.438 358C445.251 357.933 445.093 357.845 444.963 357.735C444.833 357.622 444.726 357.497 444.643 357.36C444.559 357.223 444.494 357.083 444.448 356.94L444.283 358H443.223V350.57H444.688V353.53C444.751 353.42 444.833 353.317 444.933 353.22C445.033 353.123 445.149 353.038 445.283 352.965C445.416 352.892 445.563 352.835 445.723 352.795C445.886 352.752 446.059 352.73 446.243 352.73C446.886 352.73 447.389 352.962 447.753 353.425C448.119 353.888 448.303 354.542 448.303 355.385C448.303 355.932 448.219 356.408 448.053 356.815C447.886 357.222 447.639 357.538 447.313 357.765C446.986 357.988 446.583 358.1 446.103 358.1ZM445.783 357.05C446.096 357.05 446.356 356.922 446.563 356.665C446.773 356.405 446.878 355.972 446.878 355.365C446.878 354.828 446.778 354.432 446.578 354.175C446.381 353.918 446.113 353.79 445.773 353.79C445.529 353.79 445.328 353.848 445.168 353.965C445.008 354.078 444.888 354.252 444.808 354.485C444.731 354.718 444.691 355.012 444.688 355.365C444.688 355.975 444.778 356.408 444.958 356.665C445.141 356.922 445.416 357.05 445.783 357.05ZM452.271 353.845H451.121L451.131 356.6C451.131 356.727 451.146 356.822 451.176 356.885C451.209 356.945 451.259 356.985 451.326 357.005C451.396 357.022 451.484 357.03 451.591 357.03H452.286V357.93C452.219 357.96 452.114 357.988 451.971 358.015C451.831 358.042 451.634 358.055 451.381 358.055C450.928 358.055 450.576 357.997 450.326 357.88C450.079 357.763 449.908 357.6 449.811 357.39C449.714 357.18 449.666 356.937 449.666 356.66V353.845H448.826V352.83H449.716L450.081 351.27H451.121V352.825H452.271V353.845ZM455.206 358.1C454.966 358.1 454.729 358.063 454.496 357.99C454.266 357.917 454.056 357.808 453.866 357.665C453.676 357.522 453.522 357.345 453.406 357.135C453.292 356.925 453.236 356.682 453.236 356.405V352.83H454.696V356.22C454.696 356.46 454.774 356.657 454.931 356.81C455.087 356.963 455.317 357.04 455.621 357.04C455.907 357.04 456.134 356.967 456.301 356.82C456.471 356.67 456.556 356.462 456.556 356.195V352.83H458.001V358H456.901L456.731 356.975C456.671 357.278 456.557 357.512 456.391 357.675C456.227 357.835 456.039 357.945 455.826 358.005C455.616 358.068 455.409 358.1 455.206 358.1Z" fill="#737A8D"/>
<path d="M226.42 358H224.905L223.73 355.215H222.265V358H220.81V350.77H223.86C224.437 350.77 224.908 350.862 225.275 351.045C225.642 351.228 225.912 351.483 226.085 351.81C226.258 352.133 226.345 352.507 226.345 352.93C226.345 353.31 226.285 353.632 226.165 353.895C226.048 354.155 225.893 354.372 225.7 354.545C225.51 354.718 225.302 354.86 225.075 354.97L226.42 358ZM223.6 354.09C223.99 354.09 224.298 353.985 224.525 353.775C224.755 353.565 224.87 353.295 224.87 352.965C224.87 352.632 224.76 352.368 224.54 352.175C224.32 351.982 224.042 351.885 223.705 351.885H222.265V354.09H223.6ZM228.99 358.1C228.66 358.1 228.364 358.038 228.1 357.915C227.837 357.792 227.629 357.613 227.475 357.38C227.322 357.143 227.245 356.857 227.245 356.52C227.245 355.953 227.457 355.523 227.88 355.23C228.304 354.933 228.972 354.78 229.885 354.77L230.53 354.76V354.45C230.53 354.213 230.46 354.032 230.32 353.905C230.184 353.775 229.97 353.712 229.68 353.715C229.467 353.718 229.264 353.768 229.07 353.865C228.88 353.962 228.75 354.13 228.68 354.37H227.465C227.485 353.997 227.594 353.69 227.79 353.45C227.987 353.207 228.254 353.027 228.59 352.91C228.93 352.79 229.315 352.73 229.745 352.73C230.275 352.73 230.7 352.797 231.02 352.93C231.34 353.06 231.572 353.248 231.715 353.495C231.859 353.738 231.93 354.028 231.93 354.365V358H230.71L230.59 357.11C230.414 357.483 230.192 357.742 229.925 357.885C229.662 358.028 229.35 358.1 228.99 358.1ZM229.48 357.14C229.614 357.14 229.742 357.117 229.865 357.07C229.992 357.02 230.104 356.955 230.2 356.875C230.3 356.792 230.38 356.698 230.44 356.595C230.5 356.492 230.53 356.385 230.53 356.275V355.51L230.005 355.52C229.762 355.523 229.535 355.553 229.325 355.61C229.115 355.663 228.945 355.752 228.815 355.875C228.689 355.998 228.625 356.165 228.625 356.375C228.625 356.615 228.709 356.803 228.875 356.94C229.042 357.073 229.244 357.14 229.48 357.14ZM236.103 358.1C235.846 358.1 235.624 358.067 235.438 358C235.251 357.933 235.093 357.845 234.963 357.735C234.833 357.622 234.726 357.497 234.643 357.36C234.559 357.223 234.494 357.083 234.448 356.94L234.283 358H233.223V350.57H234.688V353.53C234.751 353.42 234.833 353.317 234.933 353.22C235.033 353.123 235.149 353.038 235.283 352.965C235.416 352.892 235.563 352.835 235.723 352.795C235.886 352.752 236.059 352.73 236.243 352.73C236.886 352.73 237.389 352.962 237.753 353.425C238.119 353.888 238.303 354.542 238.303 355.385C238.303 355.932 238.219 356.408 238.053 356.815C237.886 357.222 237.639 357.538 237.313 357.765C236.986 357.988 236.583 358.1 236.103 358.1ZM235.783 357.05C236.096 357.05 236.356 356.922 236.563 356.665C236.773 356.405 236.878 355.972 236.878 355.365C236.878 354.828 236.778 354.432 236.578 354.175C236.381 353.918 236.113 353.79 235.773 353.79C235.529 353.79 235.328 353.848 235.168 353.965C235.008 354.078 234.888 354.252 234.808 354.485C234.731 354.718 234.691 355.012 234.688 355.365C234.688 355.975 234.778 356.408 234.958 356.665C235.141 356.922 235.416 357.05 235.783 357.05ZM241.114 358.1C240.874 358.1 240.637 358.063 240.404 357.99C240.174 357.917 239.964 357.808 239.774 357.665C239.584 357.522 239.431 357.345 239.314 357.135C239.201 356.925 239.144 356.682 239.144 356.405V352.83H240.604V356.22C240.604 356.46 240.682 356.657 240.839 356.81C240.996 356.963 241.226 357.04 241.529 357.04C241.816 357.04 242.042 356.967 242.209 356.82C242.379 356.67 242.464 356.462 242.464 356.195V352.83H243.909V358H242.809L242.639 356.975C242.579 357.278 242.466 357.512 242.299 357.675C242.136 357.835 241.947 357.945 241.734 358.005C241.524 358.068 241.317 358.1 241.114 358.1Z" fill="#737A8D"/>
<path d="M148.525 358.1C148.168 358.1 147.818 358.055 147.475 357.965C147.132 357.875 146.818 357.74 146.535 357.56C146.252 357.38 146.017 357.155 145.83 356.885C145.647 356.615 145.537 356.298 145.5 355.935H146.995C147.045 356.155 147.14 356.34 147.28 356.49C147.42 356.64 147.597 356.755 147.81 356.835C148.023 356.915 148.26 356.955 148.52 356.955C148.787 356.955 149.03 356.922 149.25 356.855C149.47 356.788 149.647 356.688 149.78 356.555C149.913 356.418 149.98 356.248 149.98 356.045C149.98 355.862 149.925 355.712 149.815 355.595C149.708 355.478 149.563 355.383 149.38 355.31C149.197 355.237 148.988 355.177 148.755 355.13L147.505 354.875C146.958 354.772 146.525 354.555 146.205 354.225C145.885 353.892 145.72 353.448 145.71 352.895C145.707 352.442 145.827 352.05 146.07 351.72C146.317 351.387 146.65 351.13 147.07 350.95C147.493 350.77 147.967 350.68 148.49 350.68C149.113 350.68 149.637 350.778 150.06 350.975C150.487 351.168 150.81 351.432 151.03 351.765C151.253 352.095 151.368 352.463 151.375 352.87H149.91C149.883 352.617 149.807 352.415 149.68 352.265C149.553 352.115 149.39 352.007 149.19 351.94C148.993 351.873 148.768 351.84 148.515 351.84C148.322 351.84 148.145 351.862 147.985 351.905C147.828 351.948 147.695 352.01 147.585 352.09C147.475 352.167 147.39 352.258 147.33 352.365C147.27 352.472 147.24 352.592 147.24 352.725C147.24 352.935 147.31 353.105 147.45 353.235C147.59 353.365 147.852 353.472 148.235 353.555L149.475 353.81C149.918 353.897 150.27 354.025 150.53 354.195C150.793 354.365 150.99 354.557 151.12 354.77C151.253 354.983 151.34 355.202 151.38 355.425C151.423 355.645 151.445 355.848 151.445 356.035C151.445 356.425 151.322 356.777 151.075 357.09C150.832 357.4 150.492 357.647 150.055 357.83C149.618 358.01 149.108 358.1 148.525 358.1ZM153.7 355.75C153.697 356.013 153.738 356.243 153.825 356.44C153.912 356.633 154.037 356.783 154.2 356.89C154.367 356.993 154.567 357.045 154.8 357.045C155.05 357.045 155.268 356.992 155.455 356.885C155.645 356.778 155.777 356.603 155.85 356.36H157.165C157.108 356.727 156.962 357.04 156.725 357.3C156.492 357.56 156.208 357.758 155.875 357.895C155.542 358.032 155.195 358.1 154.835 358.1C154.325 358.1 153.875 357.993 153.485 357.78C153.098 357.563 152.797 357.258 152.58 356.865C152.363 356.472 152.255 356.008 152.255 355.475C152.255 354.958 152.353 354.493 152.55 354.08C152.747 353.663 153.032 353.335 153.405 353.095C153.782 352.852 154.233 352.73 154.76 352.73C155.287 352.73 155.728 352.842 156.085 353.065C156.445 353.285 156.715 353.593 156.895 353.99C157.078 354.383 157.17 354.838 157.17 355.355V355.75H153.7ZM153.695 354.88H155.805C155.805 354.673 155.767 354.483 155.69 354.31C155.613 354.137 155.497 354 155.34 353.9C155.187 353.8 154.993 353.75 154.76 353.75C154.533 353.75 154.34 353.805 154.18 353.915C154.023 354.022 153.903 354.162 153.82 354.335C153.737 354.508 153.695 354.69 153.695 354.88ZM159.834 358.09C159.454 358.09 159.152 358.045 158.929 357.955C158.705 357.865 158.54 357.747 158.434 357.6C158.327 357.45 158.259 357.285 158.229 357.105C158.199 356.922 158.184 356.737 158.184 356.55V350.57H159.614V356.37C159.614 356.56 159.654 356.715 159.734 356.835C159.817 356.952 159.972 357.023 160.199 357.05L160.444 357.065V357.965C160.344 357.998 160.242 358.027 160.139 358.05C160.035 358.077 159.934 358.09 159.834 358.09ZM162.887 358.1C162.557 358.1 162.26 358.038 161.997 357.915C161.733 357.792 161.525 357.613 161.372 357.38C161.218 357.143 161.142 356.857 161.142 356.52C161.142 355.953 161.353 355.523 161.777 355.23C162.2 354.933 162.868 354.78 163.782 354.77L164.427 354.76V354.45C164.427 354.213 164.357 354.032 164.217 353.905C164.08 353.775 163.867 353.712 163.577 353.715C163.363 353.718 163.16 353.768 162.967 353.865C162.777 353.962 162.647 354.13 162.577 354.37H161.362C161.382 353.997 161.49 353.69 161.687 353.45C161.883 353.207 162.15 353.027 162.487 352.91C162.827 352.79 163.212 352.73 163.642 352.73C164.172 352.73 164.597 352.797 164.917 352.93C165.237 353.06 165.468 353.248 165.612 353.495C165.755 353.738 165.827 354.028 165.827 354.365V358H164.607L164.487 357.11C164.31 357.483 164.088 357.742 163.822 357.885C163.558 358.028 163.247 358.1 162.887 358.1ZM163.377 357.14C163.51 357.14 163.638 357.117 163.762 357.07C163.888 357.02 164 356.955 164.097 356.875C164.197 356.792 164.277 356.698 164.337 356.595C164.397 356.492 164.427 356.385 164.427 356.275V355.51L163.902 355.52C163.658 355.523 163.432 355.553 163.222 355.61C163.012 355.663 162.842 355.752 162.712 355.875C162.585 355.998 162.522 356.165 162.522 356.375C162.522 356.615 162.605 356.803 162.772 356.94C162.938 357.073 163.14 357.14 163.377 357.14ZM169.096 358.1C168.736 358.1 168.389 358.042 168.056 357.925C167.722 357.805 167.441 357.618 167.211 357.365C166.981 357.108 166.834 356.777 166.771 356.37H168.036C168.079 356.553 168.157 356.698 168.271 356.805C168.387 356.912 168.519 356.988 168.666 357.035C168.812 357.078 168.952 357.1 169.086 357.1C169.366 357.1 169.591 357.057 169.761 356.97C169.934 356.88 170.021 356.743 170.021 356.56C170.021 356.42 169.969 356.308 169.866 356.225C169.766 356.142 169.599 356.078 169.366 356.035L168.456 355.845C167.999 355.748 167.632 355.585 167.356 355.355C167.079 355.122 166.937 354.792 166.931 354.365C166.931 354.055 167.012 353.777 167.176 353.53C167.342 353.283 167.587 353.088 167.911 352.945C168.234 352.802 168.631 352.73 169.101 352.73C169.737 352.73 170.246 352.87 170.626 353.15C171.009 353.43 171.204 353.825 171.211 354.335H169.991C169.954 354.135 169.854 353.982 169.691 353.875C169.531 353.765 169.329 353.71 169.086 353.71C168.832 353.71 168.624 353.755 168.461 353.845C168.297 353.935 168.216 354.072 168.216 354.255C168.216 354.392 168.282 354.5 168.416 354.58C168.549 354.657 168.756 354.723 169.036 354.78L169.876 354.97C170.166 355.04 170.401 355.137 170.581 355.26C170.764 355.38 170.906 355.512 171.006 355.655C171.106 355.798 171.174 355.943 171.211 356.09C171.251 356.233 171.271 356.363 171.271 356.48C171.271 356.823 171.179 357.117 170.996 357.36C170.812 357.6 170.557 357.783 170.231 357.91C169.904 358.037 169.526 358.1 169.096 358.1ZM173.834 358.1C173.504 358.1 173.207 358.038 172.944 357.915C172.681 357.792 172.472 357.613 172.319 357.38C172.166 357.143 172.089 356.857 172.089 356.52C172.089 355.953 172.301 355.523 172.724 355.23C173.147 354.933 173.816 354.78 174.729 354.77L175.374 354.76V354.45C175.374 354.213 175.304 354.032 175.164 353.905C175.027 353.775 174.814 353.712 174.524 353.715C174.311 353.718 174.107 353.768 173.914 353.865C173.724 353.962 173.594 354.13 173.524 354.37H172.309C172.329 353.997 172.437 353.69 172.634 353.45C172.831 353.207 173.097 353.027 173.434 352.91C173.774 352.79 174.159 352.73 174.589 352.73C175.119 352.73 175.544 352.797 175.864 352.93C176.184 353.06 176.416 353.248 176.559 353.495C176.702 353.738 176.774 354.028 176.774 354.365V358H175.554L175.434 357.11C175.257 357.483 175.036 357.742 174.769 357.885C174.506 358.028 174.194 358.1 173.834 358.1ZM174.324 357.14C174.457 357.14 174.586 357.117 174.709 357.07C174.836 357.02 174.947 356.955 175.044 356.875C175.144 356.792 175.224 356.698 175.284 356.595C175.344 356.492 175.374 356.385 175.374 356.275V355.51L174.849 355.52C174.606 355.523 174.379 355.553 174.169 355.61C173.959 355.663 173.789 355.752 173.659 355.875C173.532 355.998 173.469 356.165 173.469 356.375C173.469 356.615 173.552 356.803 173.719 356.94C173.886 357.073 174.087 357.14 174.324 357.14Z" fill="#737A8D"/>
<rect x="82" y="262" width="14" height="78" rx="7" fill="url(#paint0_linear_4_4788)"/>
<rect x="154" y="215" width="14" height="125" rx="7" fill="url(#paint1_linear_4_4788)"/>
<rect x="225" y="252" width="14" height="88" rx="7" fill="url(#paint2_linear_4_4788)"/>
<rect x="294" y="190" width="14" height="150" rx="7" fill="url(#paint3_linear_4_4788)"/>
<rect x="366" y="215" width="14" height="125" rx="7" fill="url(#paint4_linear_4_4788)"/>
<rect x="437" y="262" width="14" height="78" rx="7" fill="url(#paint5_linear_4_4788)"/>
<rect x="512" y="215" width="14" height="125" rx="7" fill="url(#paint6_linear_4_4788)"/>
<path d="M33.62 63V48.54H38.94C39.9933 48.54 40.9367 48.7233 41.77 49.09C42.6033 49.45 43.26 49.9833 43.74 50.69C44.2267 51.3967 44.47 52.26 44.47 53.28C44.47 54.24 44.2567 55.06 43.83 55.74C43.4033 56.42 42.8033 56.94 42.03 57.3C41.2633 57.66 40.36 57.84 39.32 57.84H36.56V63H33.62ZM36.53 55.58H39.24C39.9733 55.58 40.5733 55.3467 41.04 54.88C41.5067 54.4067 41.74 53.8233 41.74 53.13C41.74 52.41 41.4933 51.84 41 51.42C40.5067 50.9933 39.9067 50.78 39.2 50.78H36.53V55.58ZM46.2969 63V52.66H49.1069V55.11C49.2735 54.5833 49.5069 54.1233 49.8069 53.73C50.1135 53.33 50.4835 53.02 50.9169 52.8C51.3502 52.5733 51.8402 52.46 52.3869 52.46C52.4802 52.46 52.5669 52.4667 52.6469 52.48C52.7335 52.4867 52.7969 52.5 52.8369 52.52V55.3C52.7769 55.2733 52.7035 55.2567 52.6169 55.25C52.5369 55.2433 52.4635 55.2367 52.3969 55.23C51.8235 55.1833 51.3335 55.2 50.9269 55.28C50.5202 55.36 50.1902 55.4967 49.9369 55.69C49.6835 55.8833 49.5002 56.12 49.3869 56.4C49.2735 56.68 49.2169 56.9933 49.2169 57.34V63H46.2969ZM58.8228 63.2C57.8095 63.2 56.9261 62.9833 56.1728 62.55C55.4261 62.1167 54.8461 61.5033 54.4328 60.71C54.0261 59.9167 53.8228 58.9767 53.8228 57.89C53.8228 56.8033 54.0261 55.8533 54.4328 55.04C54.8461 54.2267 55.4261 53.5933 56.1728 53.14C56.9261 52.6867 57.8128 52.46 58.8328 52.46C59.8528 52.46 60.7361 52.6833 61.4828 53.13C62.2295 53.57 62.8061 54.1967 63.2128 55.01C63.6195 55.8233 63.8228 56.7833 63.8228 57.89C63.8228 58.93 63.6228 59.85 63.2228 60.65C62.8295 61.4433 62.2595 62.0667 61.5128 62.52C60.7728 62.9733 59.8761 63.2 58.8228 63.2ZM58.8328 61.03C59.3461 61.03 59.7595 60.88 60.0728 60.58C60.3861 60.28 60.6128 59.8867 60.7528 59.4C60.8995 58.9067 60.9728 58.37 60.9728 57.79C60.9728 57.2433 60.9061 56.7267 60.7728 56.24C60.6461 55.7533 60.4261 55.36 60.1128 55.06C59.7995 54.76 59.3728 54.61 58.8328 54.61C58.3195 54.61 57.9028 54.7533 57.5828 55.04C57.2695 55.32 57.0395 55.7033 56.8928 56.19C56.7461 56.67 56.6728 57.2033 56.6728 57.79C56.6728 58.33 56.7395 58.85 56.8728 59.35C57.0061 59.8433 57.2295 60.2467 57.5428 60.56C57.8561 60.8733 58.2861 61.03 58.8328 61.03ZM71.7475 52.66V54.69H69.5675V63H66.6475V54.69H64.7375V52.66H66.6475V51.17C66.6475 50.3367 66.8908 49.69 67.3775 49.23C67.8708 48.77 68.5675 48.54 69.4675 48.54H71.8375L71.8475 50.48H70.4875C70.1142 50.48 69.8575 50.5733 69.7175 50.76C69.5842 50.94 69.5175 51.24 69.5175 51.66V52.66H71.7475ZM76.3975 52.66V63H73.6075V52.66H76.3975ZM76.4275 48.55V51.18H73.5875V48.55H76.4275ZM85.3508 54.69H83.0508L83.0708 60.2C83.0708 60.4533 83.1008 60.6433 83.1608 60.77C83.2274 60.89 83.3274 60.97 83.4608 61.01C83.6008 61.0433 83.7774 61.06 83.9908 61.06H85.3808V62.86C85.2474 62.92 85.0374 62.9767 84.7508 63.03C84.4708 63.0833 84.0774 63.11 83.5708 63.11C82.6641 63.11 81.9608 62.9933 81.4608 62.76C80.9674 62.5267 80.6241 62.2 80.4308 61.78C80.2374 61.36 80.1408 60.8733 80.1408 60.32V54.69H78.4608V52.66H80.2408L80.9708 49.54H83.0508V52.65H85.3508V54.69Z" fill="#213360"/>
<path d="M33.146 74.324C33.174 74.324 33.258 74.326 33.398 74.33C33.542 74.33 33.716 74.33 33.92 74.33C34.124 74.326 34.336 74.326 34.556 74.33C34.776 74.33 34.978 74.332 35.162 74.336C36.226 74.352 37.088 74.526 37.748 74.858C38.412 75.186 38.898 75.664 39.206 76.292C39.518 76.92 39.674 77.692 39.674 78.608C39.674 79.568 39.506 80.374 39.17 81.026C38.838 81.678 38.33 82.17 37.646 82.502C36.966 82.834 36.1 83 35.048 83H33.146V74.324ZM34.286 75.278V82.046H35.048C35.764 82.046 36.38 81.936 36.896 81.716C37.412 81.492 37.808 81.13 38.084 80.63C38.364 80.13 38.504 79.462 38.504 78.626C38.504 77.79 38.368 77.128 38.096 76.64C37.828 76.152 37.44 75.804 36.932 75.596C36.424 75.384 35.812 75.278 35.096 75.278H34.286ZM42.9543 83.12C42.5543 83.12 42.2003 83.05 41.8923 82.91C41.5843 82.766 41.3423 82.56 41.1663 82.292C40.9943 82.024 40.9083 81.7 40.9083 81.32C40.9083 80.632 41.1483 80.12 41.6283 79.784C42.1083 79.448 42.8783 79.268 43.9383 79.244L45.0483 79.214V78.728C45.0483 78.348 44.9343 78.048 44.7063 77.828C44.4783 77.604 44.1243 77.492 43.6443 77.492C43.2883 77.496 42.9743 77.58 42.7023 77.744C42.4343 77.908 42.2603 78.176 42.1803 78.548H41.2023C41.2263 78.144 41.3403 77.804 41.5443 77.528C41.7483 77.248 42.0323 77.036 42.3963 76.892C42.7643 76.748 43.1983 76.676 43.6983 76.676C44.2383 76.676 44.6863 76.752 45.0423 76.904C45.4023 77.056 45.6703 77.28 45.8463 77.576C46.0263 77.872 46.1163 78.236 46.1163 78.668V83H45.1683L45.0903 81.836C44.8503 82.32 44.5443 82.656 44.1723 82.844C43.8043 83.028 43.3983 83.12 42.9543 83.12ZM43.2903 82.322C43.4983 82.322 43.7043 82.284 43.9083 82.208C44.1163 82.132 44.3063 82.03 44.4783 81.902C44.6503 81.77 44.7863 81.624 44.8863 81.464C44.9903 81.3 45.0443 81.132 45.0483 80.96V79.898L44.1243 79.916C43.6523 79.924 43.2563 79.972 42.9363 80.06C42.6203 80.148 42.3823 80.286 42.2223 80.474C42.0663 80.662 41.9883 80.908 41.9883 81.212C41.9883 81.56 42.1083 81.832 42.3483 82.028C42.5923 82.224 42.9063 82.322 43.2903 82.322ZM50.8708 77.606H49.4728V81.464C49.4728 81.684 49.4948 81.846 49.5388 81.95C49.5868 82.05 49.6648 82.114 49.7728 82.142C49.8848 82.17 50.0368 82.184 50.2288 82.184H50.9068V82.928C50.8308 82.956 50.7148 82.98 50.5588 83C50.4068 83.02 50.2168 83.03 49.9888 83.03C49.5608 83.03 49.2288 82.972 48.9928 82.856C48.7568 82.74 48.5908 82.568 48.4948 82.34C48.4028 82.112 48.3568 81.832 48.3568 81.5V77.606H47.3488V76.796H48.3868L48.6568 74.99H49.4728V76.79H50.8708V77.606ZM54.1457 83.12C53.7457 83.12 53.3917 83.05 53.0837 82.91C52.7757 82.766 52.5337 82.56 52.3577 82.292C52.1857 82.024 52.0997 81.7 52.0997 81.32C52.0997 80.632 52.3397 80.12 52.8197 79.784C53.2997 79.448 54.0697 79.268 55.1297 79.244L56.2397 79.214V78.728C56.2397 78.348 56.1257 78.048 55.8977 77.828C55.6697 77.604 55.3157 77.492 54.8357 77.492C54.4797 77.496 54.1657 77.58 53.8937 77.744C53.6257 77.908 53.4517 78.176 53.3717 78.548H52.3937C52.4177 78.144 52.5317 77.804 52.7357 77.528C52.9397 77.248 53.2237 77.036 53.5877 76.892C53.9557 76.748 54.3897 76.676 54.8897 76.676C55.4297 76.676 55.8777 76.752 56.2337 76.904C56.5937 77.056 56.8617 77.28 57.0377 77.576C57.2177 77.872 57.3077 78.236 57.3077 78.668V83H56.3597L56.2817 81.836C56.0417 82.32 55.7357 82.656 55.3637 82.844C54.9957 83.028 54.5897 83.12 54.1457 83.12ZM54.4817 82.322C54.6897 82.322 54.8957 82.284 55.0997 82.208C55.3077 82.132 55.4977 82.03 55.6697 81.902C55.8417 81.77 55.9777 81.624 56.0777 81.464C56.1817 81.3 56.2357 81.132 56.2397 80.96V79.898L55.3157 79.916C54.8437 79.924 54.4477 79.972 54.1277 80.06C53.8117 80.148 53.5737 80.286 53.4137 80.474C53.2577 80.662 53.1797 80.908 53.1797 81.212C53.1797 81.56 53.2997 81.832 53.5397 82.028C53.7837 82.224 54.0977 82.322 54.4817 82.322ZM64.0544 83.12C63.2504 83.12 62.6124 82.844 62.1404 82.292C61.6684 81.74 61.4324 80.934 61.4324 79.874C61.4324 79.23 61.5264 78.668 61.7144 78.188C61.9064 77.708 62.1904 77.336 62.5664 77.072C62.9424 76.808 63.4104 76.676 63.9704 76.676C64.2664 76.676 64.5284 76.714 64.7564 76.79C64.9884 76.866 65.1884 76.962 65.3564 77.078C65.5244 77.194 65.6604 77.314 65.7644 77.438C65.8724 77.562 65.9524 77.676 66.0044 77.78V74.084H67.1204V83H66.2744L66.1544 81.728C66.1144 81.848 66.0504 81.988 65.9624 82.148C65.8744 82.304 65.7504 82.458 65.5904 82.61C65.4304 82.758 65.2244 82.88 64.9724 82.976C64.7244 83.072 64.4184 83.12 64.0544 83.12ZM64.2524 82.268C64.8804 82.268 65.3284 82.078 65.5964 81.698C65.8684 81.314 66.0044 80.688 66.0044 79.82C66.0004 79.336 65.9384 78.924 65.8184 78.584C65.7024 78.244 65.5184 77.986 65.2664 77.81C65.0184 77.63 64.6884 77.54 64.2764 77.54C63.7644 77.54 63.3484 77.722 63.0284 78.086C62.7084 78.45 62.5484 79.028 62.5484 79.82C62.5484 80.596 62.6924 81.198 62.9804 81.626C63.2724 82.054 63.6964 82.268 64.2524 82.268ZM70.2235 76.796V83H69.1495V76.796H70.2235ZM70.2475 74.33V75.482H69.1135V74.33H70.2475ZM72.2461 83V76.796H73.3201V77.696C73.4201 77.524 73.5581 77.362 73.7341 77.21C73.9141 77.058 74.1301 76.936 74.3821 76.844C74.6381 76.752 74.9321 76.706 75.2641 76.706C75.6561 76.706 76.0161 76.784 76.3441 76.94C76.6761 77.096 76.9401 77.34 77.1361 77.672C77.3361 78 77.4361 78.424 77.4361 78.944V83H76.3261V79.052C76.3261 78.568 76.1981 78.21 75.9421 77.978C75.6901 77.742 75.3621 77.624 74.9581 77.624C74.6781 77.624 74.4161 77.67 74.1721 77.762C73.9281 77.85 73.7301 77.986 73.5781 78.17C73.4261 78.35 73.3501 78.578 73.3501 78.854V83H72.2461ZM79.5847 84.98C79.2207 84.98 78.9707 84.954 78.8347 84.902C78.6987 84.85 78.6307 84.824 78.6307 84.824V84.104L79.2607 84.116C79.4927 84.124 79.6847 84.108 79.8367 84.068C79.9887 84.028 80.1107 83.974 80.2027 83.906C80.2947 83.838 80.3647 83.762 80.4127 83.678C80.4647 83.594 80.5067 83.514 80.5387 83.438L80.7547 82.85L78.3307 76.796H79.4527L81.2827 81.584L83.1007 76.796H84.1867L81.5707 83.468C81.4107 83.86 81.2307 84.166 81.0307 84.386C80.8347 84.606 80.6147 84.76 80.3707 84.848C80.1307 84.936 79.8687 84.98 79.5847 84.98ZM86.8645 83.12C86.4645 83.12 86.1105 83.05 85.8025 82.91C85.4945 82.766 85.2525 82.56 85.0765 82.292C84.9045 82.024 84.8185 81.7 84.8185 81.32C84.8185 80.632 85.0585 80.12 85.5385 79.784C86.0185 79.448 86.7885 79.268 87.8485 79.244L88.9585 79.214V78.728C88.9585 78.348 88.8445 78.048 88.6165 77.828C88.3885 77.604 88.0345 77.492 87.5545 77.492C87.1985 77.496 86.8845 77.58 86.6125 77.744C86.3445 77.908 86.1705 78.176 86.0905 78.548H85.1125C85.1365 78.144 85.2505 77.804 85.4545 77.528C85.6585 77.248 85.9425 77.036 86.3065 76.892C86.6745 76.748 87.1085 76.676 87.6085 76.676C88.1485 76.676 88.5965 76.752 88.9525 76.904C89.3125 77.056 89.5805 77.28 89.7565 77.576C89.9365 77.872 90.0265 78.236 90.0265 78.668V83H89.0785L89.0005 81.836C88.7605 82.32 88.4545 82.656 88.0825 82.844C87.7145 83.028 87.3085 83.12 86.8645 83.12ZM87.2005 82.322C87.4085 82.322 87.6145 82.284 87.8185 82.208C88.0265 82.132 88.2165 82.03 88.3885 81.902C88.5605 81.77 88.6965 81.624 88.7965 81.464C88.9005 81.3 88.9545 81.132 88.9585 80.96V79.898L88.0345 79.916C87.5625 79.924 87.1665 79.972 86.8465 80.06C86.5305 80.148 86.2925 80.286 86.1325 80.474C85.9765 80.662 85.8985 80.908 85.8985 81.212C85.8985 81.56 86.0185 81.832 86.2585 82.028C86.5025 82.224 86.8165 82.322 87.2005 82.322ZM94.7809 77.606H93.3829V81.464C93.3829 81.684 93.4049 81.846 93.4489 81.95C93.4969 82.05 93.5749 82.114 93.6829 82.142C93.7949 82.17 93.9469 82.184 94.1389 82.184H94.8169V82.928C94.7409 82.956 94.6249 82.98 94.4689 83C94.3169 83.02 94.1269 83.03 93.8989 83.03C93.4709 83.03 93.1389 82.972 92.9029 82.856C92.6669 82.74 92.5009 82.568 92.4049 82.34C92.3129 82.112 92.2669 81.832 92.2669 81.5V77.606H91.2589V76.796H92.2969L92.5669 74.99H93.3829V76.79H94.7809V77.606ZM98.0559 83.12C97.6559 83.12 97.3019 83.05 96.9939 82.91C96.6859 82.766 96.4439 82.56 96.2679 82.292C96.0959 82.024 96.0099 81.7 96.0099 81.32C96.0099 80.632 96.2499 80.12 96.7299 79.784C97.2099 79.448 97.9799 79.268 99.0399 79.244L100.15 79.214V78.728C100.15 78.348 100.036 78.048 99.8079 77.828C99.5799 77.604 99.2259 77.492 98.7459 77.492C98.3899 77.496 98.0759 77.58 97.8039 77.744C97.5359 77.908 97.3619 78.176 97.2819 78.548H96.3039C96.3279 78.144 96.4419 77.804 96.6459 77.528C96.8499 77.248 97.1339 77.036 97.4979 76.892C97.8659 76.748 98.2999 76.676 98.7999 76.676C99.3399 76.676 99.7879 76.752 100.144 76.904C100.504 77.056 100.772 77.28 100.948 77.576C101.128 77.872 101.218 78.236 101.218 78.668V83H100.27L100.192 81.836C99.9519 82.32 99.6459 82.656 99.2739 82.844C98.9059 83.028 98.4999 83.12 98.0559 83.12ZM98.3919 82.322C98.5999 82.322 98.8059 82.284 99.0099 82.208C99.2179 82.132 99.4079 82.03 99.5799 81.902C99.7519 81.77 99.8879 81.624 99.9879 81.464C100.092 81.3 100.146 81.132 100.15 80.96V79.898L99.2259 79.916C98.7539 79.924 98.3579 79.972 98.0379 80.06C97.7219 80.148 97.4839 80.286 97.3239 80.474C97.1679 80.662 97.0899 80.908 97.0899 81.212C97.0899 81.56 97.2099 81.832 97.4499 82.028C97.6939 82.224 98.0079 82.322 98.3919 82.322ZM108.561 83H107.385L105.441 79.886L104.217 81.152V83H103.113V74.084H104.217V79.898L107.133 76.796H108.405L106.167 79.16L108.561 83ZM111.439 83.12C111.039 83.12 110.685 83.05 110.377 82.91C110.069 82.766 109.827 82.56 109.651 82.292C109.479 82.024 109.393 81.7 109.393 81.32C109.393 80.632 109.633 80.12 110.113 79.784C110.593 79.448 111.363 79.268 112.423 79.244L113.533 79.214V78.728C113.533 78.348 113.419 78.048 113.191 77.828C112.963 77.604 112.609 77.492 112.129 77.492C111.773 77.496 111.459 77.58 111.187 77.744C110.919 77.908 110.745 78.176 110.665 78.548H109.687C109.711 78.144 109.825 77.804 110.029 77.528C110.233 77.248 110.517 77.036 110.881 76.892C111.249 76.748 111.683 76.676 112.183 76.676C112.723 76.676 113.171 76.752 113.527 76.904C113.887 77.056 114.155 77.28 114.331 77.576C114.511 77.872 114.601 78.236 114.601 78.668V83H113.653L113.575 81.836C113.335 82.32 113.029 82.656 112.657 82.844C112.289 83.028 111.883 83.12 111.439 83.12ZM111.775 82.322C111.983 82.322 112.189 82.284 112.393 82.208C112.601 82.132 112.791 82.03 112.963 81.902C113.135 81.77 113.271 81.624 113.371 81.464C113.475 81.3 113.529 81.132 113.533 80.96V79.898L112.609 79.916C112.137 79.924 111.741 79.972 111.421 80.06C111.105 80.148 110.867 80.286 110.707 80.474C110.551 80.662 110.473 80.908 110.473 81.212C110.473 81.56 110.593 81.832 110.833 82.028C111.077 82.224 111.391 82.322 111.775 82.322ZM116.496 83V76.796H117.57V77.696C117.67 77.524 117.808 77.362 117.984 77.21C118.164 77.058 118.38 76.936 118.632 76.844C118.888 76.752 119.182 76.706 119.514 76.706C119.906 76.706 120.266 76.784 120.594 76.94C120.926 77.096 121.19 77.34 121.386 77.672C121.586 78 121.686 78.424 121.686 78.944V83H120.576V79.052C120.576 78.568 120.448 78.21 120.192 77.978C119.94 77.742 119.612 77.624 119.208 77.624C118.928 77.624 118.666 77.67 118.422 77.762C118.178 77.85 117.98 77.986 117.828 78.17C117.676 78.35 117.6 78.578 117.6 78.854V83H116.496ZM128.273 83.12C127.469 83.12 126.831 82.844 126.359 82.292C125.887 81.74 125.651 80.934 125.651 79.874C125.651 79.23 125.745 78.668 125.933 78.188C126.125 77.708 126.409 77.336 126.785 77.072C127.161 76.808 127.629 76.676 128.189 76.676C128.485 76.676 128.747 76.714 128.975 76.79C129.207 76.866 129.407 76.962 129.575 77.078C129.743 77.194 129.879 77.314 129.983 77.438C130.091 77.562 130.171 77.676 130.223 77.78V74.084H131.339V83H130.493L130.373 81.728C130.333 81.848 130.269 81.988 130.181 82.148C130.093 82.304 129.969 82.458 129.809 82.61C129.649 82.758 129.443 82.88 129.191 82.976C128.943 83.072 128.637 83.12 128.273 83.12ZM128.471 82.268C129.099 82.268 129.547 82.078 129.815 81.698C130.087 81.314 130.223 80.688 130.223 79.82C130.219 79.336 130.157 78.924 130.037 78.584C129.921 78.244 129.737 77.986 129.485 77.81C129.237 77.63 128.907 77.54 128.495 77.54C127.983 77.54 127.567 77.722 127.247 78.086C126.927 78.45 126.767 79.028 126.767 79.82C126.767 80.596 126.911 81.198 127.199 81.626C127.491 82.054 127.915 82.268 128.471 82.268ZM134.888 83.12C134.488 83.12 134.134 83.05 133.826 82.91C133.518 82.766 133.276 82.56 133.1 82.292C132.928 82.024 132.842 81.7 132.842 81.32C132.842 80.632 133.082 80.12 133.562 79.784C134.042 79.448 134.812 79.268 135.872 79.244L136.982 79.214V78.728C136.982 78.348 136.868 78.048 136.64 77.828C136.412 77.604 136.058 77.492 135.578 77.492C135.222 77.496 134.908 77.58 134.636 77.744C134.368 77.908 134.194 78.176 134.114 78.548H133.136C133.16 78.144 133.274 77.804 133.478 77.528C133.682 77.248 133.966 77.036 134.33 76.892C134.698 76.748 135.132 76.676 135.632 76.676C136.172 76.676 136.62 76.752 136.976 76.904C137.336 77.056 137.604 77.28 137.78 77.576C137.96 77.872 138.05 78.236 138.05 78.668V83H137.102L137.024 81.836C136.784 82.32 136.478 82.656 136.106 82.844C135.738 83.028 135.332 83.12 134.888 83.12ZM135.224 82.322C135.432 82.322 135.638 82.284 135.842 82.208C136.05 82.132 136.24 82.03 136.412 81.902C136.584 81.77 136.72 81.624 136.82 81.464C136.924 81.3 136.978 81.132 136.982 80.96V79.898L136.058 79.916C135.586 79.924 135.19 79.972 134.87 80.06C134.554 80.148 134.316 80.286 134.156 80.474C134 80.662 133.922 80.908 133.922 81.212C133.922 81.56 134.042 81.832 134.282 82.028C134.526 82.224 134.84 82.322 135.224 82.322ZM141.511 83.078C141.175 83.078 140.903 83.032 140.695 82.94C140.491 82.848 140.333 82.724 140.221 82.568C140.113 82.412 140.039 82.234 139.999 82.034C139.963 81.83 139.945 81.62 139.945 81.404V74.084H141.037V81.296C141.037 81.608 141.097 81.842 141.217 81.998C141.341 82.154 141.513 82.24 141.733 82.256L142.069 82.262V82.982C141.977 83.01 141.881 83.032 141.781 83.048C141.681 83.068 141.591 83.078 141.511 83.078ZM145.177 83.12C144.777 83.12 144.423 83.05 144.115 82.91C143.807 82.766 143.565 82.56 143.389 82.292C143.217 82.024 143.131 81.7 143.131 81.32C143.131 80.632 143.371 80.12 143.851 79.784C144.331 79.448 145.101 79.268 146.161 79.244L147.271 79.214V78.728C147.271 78.348 147.157 78.048 146.929 77.828C146.701 77.604 146.347 77.492 145.867 77.492C145.511 77.496 145.197 77.58 144.925 77.744C144.657 77.908 144.483 78.176 144.403 78.548H143.425C143.449 78.144 143.563 77.804 143.767 77.528C143.971 77.248 144.255 77.036 144.619 76.892C144.987 76.748 145.421 76.676 145.921 76.676C146.461 76.676 146.909 76.752 147.265 76.904C147.625 77.056 147.893 77.28 148.069 77.576C148.249 77.872 148.339 78.236 148.339 78.668V83H147.391L147.313 81.836C147.073 82.32 146.767 82.656 146.395 82.844C146.027 83.028 145.621 83.12 145.177 83.12ZM145.513 82.322C145.721 82.322 145.927 82.284 146.131 82.208C146.339 82.132 146.529 82.03 146.701 81.902C146.873 81.77 147.009 81.624 147.109 81.464C147.213 81.3 147.267 81.132 147.271 80.96V79.898L146.347 79.916C145.875 79.924 145.479 79.972 145.159 80.06C144.843 80.148 144.605 80.286 144.445 80.474C144.289 80.662 144.211 80.908 144.211 81.212C144.211 81.56 144.331 81.832 144.571 82.028C144.815 82.224 145.129 82.322 145.513 82.322ZM150.234 83V76.796H151.302V77.696C151.474 77.424 151.71 77.186 152.01 76.982C152.31 76.778 152.7 76.676 153.18 76.676C153.404 76.676 153.632 76.714 153.864 76.79C154.1 76.866 154.316 76.98 154.512 77.132C154.708 77.284 154.86 77.47 154.968 77.69C155.16 77.386 155.42 77.142 155.748 76.958C156.076 76.77 156.446 76.676 156.858 76.676C157.074 76.676 157.3 76.71 157.536 76.778C157.772 76.842 157.99 76.958 158.19 77.126C158.394 77.29 158.56 77.52 158.688 77.816C158.816 78.108 158.88 78.484 158.88 78.944V83H157.764V79.052C157.764 78.676 157.704 78.386 157.584 78.182C157.464 77.974 157.306 77.828 157.11 77.744C156.918 77.66 156.712 77.618 156.492 77.618C156.3 77.618 156.096 77.656 155.88 77.732C155.664 77.808 155.48 77.936 155.328 78.116C155.176 78.296 155.1 78.542 155.1 78.854V83H153.996V78.728C153.996 78.484 153.93 78.28 153.798 78.116C153.67 77.952 153.508 77.828 153.312 77.744C153.12 77.66 152.928 77.618 152.736 77.618C152.524 77.618 152.31 77.66 152.094 77.744C151.882 77.828 151.702 77.962 151.554 78.146C151.41 78.326 151.338 78.562 151.338 78.854V83H150.234ZM164.667 83.276C164.667 83.856 164.541 84.286 164.289 84.566C164.041 84.85 163.601 84.992 162.969 84.992C162.629 84.992 162.415 84.968 162.327 84.92C162.235 84.872 162.189 84.848 162.189 84.848V84.11L162.801 84.08C163.081 84.06 163.277 83.986 163.389 83.858C163.501 83.73 163.557 83.524 163.557 83.24V76.796H164.667V83.276ZM164.697 74.33V75.482H163.521V74.33H164.697ZM168.815 83.12C168.491 83.116 168.185 83.07 167.897 82.982C167.613 82.89 167.361 82.756 167.141 82.58C166.921 82.404 166.747 82.186 166.619 81.926C166.495 81.662 166.433 81.356 166.433 81.008V76.796H167.543V80.894C167.543 81.298 167.667 81.626 167.915 81.878C168.167 82.13 168.545 82.256 169.049 82.256C169.505 82.256 169.871 82.138 170.147 81.902C170.427 81.662 170.567 81.306 170.567 80.834V76.796H171.671V83H170.789L170.675 81.812C170.599 82.124 170.469 82.376 170.285 82.568C170.105 82.76 169.887 82.902 169.631 82.994C169.379 83.082 169.107 83.124 168.815 83.12ZM176.636 77.606H175.238V81.464C175.238 81.684 175.26 81.846 175.304 81.95C175.352 82.05 175.43 82.114 175.538 82.142C175.65 82.17 175.802 82.184 175.994 82.184H176.672V82.928C176.596 82.956 176.48 82.98 176.324 83C176.172 83.02 175.982 83.03 175.754 83.03C175.326 83.03 174.994 82.972 174.758 82.856C174.522 82.74 174.356 82.568 174.26 82.34C174.168 82.112 174.122 81.832 174.122 81.5V77.606H173.114V76.796H174.152L174.422 74.99H175.238V76.79H176.636V77.606ZM179.911 83.12C179.511 83.12 179.157 83.05 178.849 82.91C178.541 82.766 178.299 82.56 178.123 82.292C177.951 82.024 177.865 81.7 177.865 81.32C177.865 80.632 178.105 80.12 178.585 79.784C179.065 79.448 179.835 79.268 180.895 79.244L182.005 79.214V78.728C182.005 78.348 181.891 78.048 181.663 77.828C181.435 77.604 181.081 77.492 180.601 77.492C180.245 77.496 179.931 77.58 179.659 77.744C179.391 77.908 179.217 78.176 179.137 78.548H178.159C178.183 78.144 178.297 77.804 178.501 77.528C178.705 77.248 178.989 77.036 179.353 76.892C179.721 76.748 180.155 76.676 180.655 76.676C181.195 76.676 181.643 76.752 181.999 76.904C182.359 77.056 182.627 77.28 182.803 77.576C182.983 77.872 183.073 78.236 183.073 78.668V83H182.125L182.047 81.836C181.807 82.32 181.501 82.656 181.129 82.844C180.761 83.028 180.355 83.12 179.911 83.12ZM180.247 82.322C180.455 82.322 180.661 82.284 180.865 82.208C181.073 82.132 181.263 82.03 181.435 81.902C181.607 81.77 181.743 81.624 181.843 81.464C181.947 81.3 182.001 81.132 182.005 80.96V79.898L181.081 79.916C180.609 79.924 180.213 79.972 179.893 80.06C179.577 80.148 179.339 80.286 179.179 80.474C179.023 80.662 178.945 80.908 178.945 81.212C178.945 81.56 179.065 81.832 179.305 82.028C179.549 82.224 179.863 82.322 180.247 82.322ZM186.661 83.12C186.261 83.12 185.907 83.05 185.599 82.91C185.291 82.766 185.049 82.56 184.873 82.292C184.701 82.024 184.615 81.7 184.615 81.32C184.615 80.632 184.855 80.12 185.335 79.784C185.815 79.448 186.585 79.268 187.645 79.244L188.755 79.214V78.728C188.755 78.348 188.641 78.048 188.413 77.828C188.185 77.604 187.831 77.492 187.351 77.492C186.995 77.496 186.681 77.58 186.409 77.744C186.141 77.908 185.967 78.176 185.887 78.548H184.909C184.933 78.144 185.047 77.804 185.251 77.528C185.455 77.248 185.739 77.036 186.103 76.892C186.471 76.748 186.905 76.676 187.405 76.676C187.945 76.676 188.393 76.752 188.749 76.904C189.109 77.056 189.377 77.28 189.553 77.576C189.733 77.872 189.823 78.236 189.823 78.668V83H188.875L188.797 81.836C188.557 82.32 188.251 82.656 187.879 82.844C187.511 83.028 187.105 83.12 186.661 83.12ZM186.997 82.322C187.205 82.322 187.411 82.284 187.615 82.208C187.823 82.132 188.013 82.03 188.185 81.902C188.357 81.77 188.493 81.624 188.593 81.464C188.697 81.3 188.751 81.132 188.755 80.96V79.898L187.831 79.916C187.359 79.924 186.963 79.972 186.643 80.06C186.327 80.148 186.089 80.286 185.929 80.474C185.773 80.662 185.695 80.908 185.695 81.212C185.695 81.56 185.815 81.832 186.055 82.028C186.299 82.224 186.613 82.322 186.997 82.322ZM191.719 83V76.796H192.793V77.696C192.893 77.524 193.031 77.362 193.207 77.21C193.387 77.058 193.603 76.936 193.855 76.844C194.111 76.752 194.405 76.706 194.737 76.706C195.129 76.706 195.489 76.784 195.817 76.94C196.149 77.096 196.413 77.34 196.609 77.672C196.809 78 196.909 78.424 196.909 78.944V83H195.799V79.052C195.799 78.568 195.671 78.21 195.415 77.978C195.163 77.742 194.835 77.624 194.431 77.624C194.151 77.624 193.889 77.67 193.645 77.762C193.401 77.85 193.203 77.986 193.051 78.17C192.899 78.35 192.823 78.578 192.823 78.854V83H191.719ZM201.41 83V76.796H202.466V77.99C202.57 77.694 202.716 77.45 202.904 77.258C203.092 77.062 203.306 76.916 203.546 76.82C203.79 76.724 204.042 76.676 204.302 76.676C204.394 76.676 204.484 76.682 204.572 76.694C204.66 76.706 204.728 76.726 204.776 76.754V77.828C204.716 77.8 204.638 77.782 204.542 77.774C204.45 77.762 204.372 77.756 204.308 77.756C204.06 77.74 203.828 77.756 203.612 77.804C203.396 77.848 203.206 77.926 203.042 78.038C202.878 78.15 202.748 78.298 202.652 78.482C202.56 78.662 202.514 78.882 202.514 79.142V83H201.41ZM208.343 83.12C208.019 83.116 207.713 83.07 207.425 82.982C207.141 82.89 206.889 82.756 206.669 82.58C206.449 82.404 206.275 82.186 206.147 81.926C206.023 81.662 205.961 81.356 205.961 81.008V76.796H207.071V80.894C207.071 81.298 207.195 81.626 207.443 81.878C207.695 82.13 208.073 82.256 208.577 82.256C209.033 82.256 209.399 82.138 209.675 81.902C209.955 81.662 210.095 81.306 210.095 80.834V76.796H211.199V83H210.317L210.203 81.812C210.127 82.124 209.997 82.376 209.813 82.568C209.633 82.76 209.415 82.902 209.159 82.994C208.907 83.082 208.635 83.124 208.343 83.12ZM213 84.932V76.796H214.104L214.116 77.876C214.188 77.748 214.28 77.614 214.392 77.474C214.508 77.334 214.648 77.204 214.812 77.084C214.98 76.964 215.174 76.866 215.394 76.79C215.618 76.714 215.872 76.676 216.156 76.676C216.652 76.676 217.088 76.79 217.464 77.018C217.844 77.242 218.14 77.586 218.352 78.05C218.564 78.514 218.67 79.102 218.67 79.814C218.67 80.526 218.566 81.128 218.358 81.62C218.154 82.108 217.858 82.48 217.47 82.736C217.082 82.992 216.614 83.12 216.066 83.12C215.79 83.12 215.544 83.08 215.328 83C215.116 82.924 214.93 82.824 214.77 82.7C214.614 82.572 214.482 82.436 214.374 82.292C214.27 82.148 214.184 82.01 214.116 81.878V84.932H213ZM215.856 82.256C216.368 82.256 216.786 82.062 217.11 81.674C217.434 81.282 217.596 80.674 217.596 79.85C217.596 79.142 217.448 78.58 217.152 78.164C216.856 77.748 216.424 77.54 215.856 77.54C215.28 77.54 214.844 77.754 214.548 78.182C214.252 78.606 214.104 79.162 214.104 79.85C214.104 80.294 214.17 80.698 214.302 81.062C214.434 81.426 214.63 81.716 214.89 81.932C215.15 82.148 215.472 82.256 215.856 82.256ZM221.325 76.796V83H220.251V76.796H221.325ZM221.349 74.33V75.482H220.215V74.33H221.349ZM224.993 83.12C224.593 83.12 224.239 83.05 223.931 82.91C223.623 82.766 223.381 82.56 223.205 82.292C223.033 82.024 222.947 81.7 222.947 81.32C222.947 80.632 223.187 80.12 223.667 79.784C224.147 79.448 224.917 79.268 225.977 79.244L227.087 79.214V78.728C227.087 78.348 226.973 78.048 226.745 77.828C226.517 77.604 226.163 77.492 225.683 77.492C225.327 77.496 225.013 77.58 224.741 77.744C224.473 77.908 224.299 78.176 224.219 78.548H223.241C223.265 78.144 223.379 77.804 223.583 77.528C223.787 77.248 224.071 77.036 224.435 76.892C224.803 76.748 225.237 76.676 225.737 76.676C226.277 76.676 226.725 76.752 227.081 76.904C227.441 77.056 227.709 77.28 227.885 77.576C228.065 77.872 228.155 78.236 228.155 78.668V83H227.207L227.129 81.836C226.889 82.32 226.583 82.656 226.211 82.844C225.843 83.028 225.437 83.12 224.993 83.12ZM225.329 82.322C225.537 82.322 225.743 82.284 225.947 82.208C226.155 82.132 226.345 82.03 226.517 81.902C226.689 81.77 226.825 81.624 226.925 81.464C227.029 81.3 227.083 81.132 227.087 80.96V79.898L226.163 79.916C225.691 79.924 225.295 79.972 224.975 80.06C224.659 80.148 224.421 80.286 224.261 80.474C224.105 80.662 224.027 80.908 224.027 81.212C224.027 81.56 224.147 81.832 224.387 82.028C224.631 82.224 224.945 82.322 225.329 82.322ZM230.051 83V74.084H231.131V77.708C231.235 77.536 231.375 77.376 231.551 77.228C231.727 77.076 231.941 76.954 232.193 76.862C232.445 76.766 232.737 76.718 233.069 76.718C233.473 76.718 233.839 76.794 234.167 76.946C234.495 77.094 234.755 77.306 234.947 77.582C235.139 77.858 235.235 78.186 235.235 78.566V83H234.125V78.788C234.125 78.416 233.997 78.13 233.741 77.93C233.489 77.726 233.159 77.624 232.751 77.624C232.475 77.624 232.215 77.67 231.971 77.762C231.727 77.85 231.529 77.986 231.377 78.17C231.229 78.35 231.155 78.58 231.155 78.86V83H230.051Z" fill="#737A8D"/>
<path d="M396 48C396 45.7909 397.791 44 400 44H533C535.209 44 537 45.7909 537 48V64C537 66.2091 535.209 68 533 68H400C397.791 68 396 66.2091 396 64V48Z" fill="white"/>
<path d="M409.146 60V51.324H410.682L413.298 58.488L415.95 51.324H417.48V60H416.334V52.986L413.82 60H412.782L410.286 53.052V60H409.146ZM420.747 53.796V60H419.673V53.796H420.747ZM420.771 51.33V52.482H419.637V51.33H420.771ZM422.77 60V53.796H423.844V54.696C423.944 54.524 424.082 54.362 424.258 54.21C424.438 54.058 424.654 53.936 424.906 53.844C425.162 53.752 425.456 53.706 425.788 53.706C426.18 53.706 426.54 53.784 426.868 53.94C427.2 54.096 427.464 54.34 427.66 54.672C427.86 55 427.96 55.424 427.96 55.944V60H426.85V56.052C426.85 55.568 426.722 55.21 426.466 54.978C426.214 54.742 425.886 54.624 425.482 54.624C425.202 54.624 424.94 54.67 424.696 54.762C424.452 54.85 424.254 54.986 424.102 55.17C423.95 55.35 423.874 55.578 423.874 55.854V60H422.77ZM432.311 62.052C431.335 62.052 430.575 61.91 430.031 61.626C429.491 61.346 429.221 60.944 429.221 60.42C429.221 60.196 429.273 60.006 429.377 59.85C429.481 59.69 429.605 59.558 429.749 59.454C429.893 59.35 430.027 59.268 430.151 59.208C430.275 59.144 430.355 59.098 430.391 59.07C430.323 59.03 430.237 58.98 430.133 58.92C430.033 58.86 429.945 58.78 429.869 58.68C429.793 58.58 429.755 58.45 429.755 58.29C429.755 58.094 429.847 57.914 430.031 57.75C430.215 57.586 430.487 57.464 430.847 57.384C430.483 57.2 430.199 56.956 429.995 56.652C429.791 56.348 429.689 56.018 429.689 55.662C429.689 55.262 429.797 54.914 430.013 54.618C430.233 54.322 430.545 54.096 430.949 53.94C431.353 53.78 431.833 53.7 432.389 53.7C432.793 53.7 433.133 53.748 433.409 53.844C433.685 53.936 433.941 54.068 434.177 54.24C434.241 54.212 434.341 54.17 434.477 54.114C434.617 54.054 434.771 53.99 434.939 53.922C435.107 53.854 435.263 53.79 435.407 53.73C435.555 53.666 435.673 53.618 435.761 53.586L435.755 54.612L434.669 54.816C434.729 54.944 434.777 55.084 434.813 55.236C434.853 55.388 434.873 55.53 434.873 55.662C434.873 56.026 434.777 56.356 434.585 56.652C434.397 56.948 434.111 57.184 433.727 57.36C433.343 57.536 432.863 57.624 432.287 57.624C432.239 57.624 432.177 57.624 432.101 57.624C432.029 57.62 431.967 57.616 431.915 57.612C431.491 57.624 431.199 57.672 431.039 57.756C430.879 57.836 430.799 57.926 430.799 58.026C430.799 58.142 430.889 58.222 431.069 58.266C431.249 58.31 431.555 58.348 431.987 58.38C432.143 58.388 432.335 58.398 432.563 58.41C432.795 58.422 433.051 58.438 433.331 58.458C433.983 58.498 434.485 58.664 434.837 58.956C435.189 59.248 435.365 59.642 435.365 60.138C435.365 60.702 435.113 61.162 434.609 61.518C434.105 61.874 433.339 62.052 432.311 62.052ZM432.509 61.338C433.081 61.338 433.519 61.252 433.823 61.08C434.127 60.908 434.279 60.648 434.279 60.3C434.279 60.052 434.185 59.85 433.997 59.694C433.813 59.534 433.531 59.442 433.151 59.418L431.411 59.304C431.255 59.296 431.093 59.336 430.925 59.424C430.757 59.508 430.613 59.626 430.493 59.778C430.377 59.93 430.319 60.102 430.319 60.294C430.319 60.622 430.497 60.878 430.853 61.062C431.213 61.246 431.765 61.338 432.509 61.338ZM432.317 56.91C432.765 56.91 433.125 56.806 433.397 56.598C433.673 56.39 433.811 56.082 433.811 55.674C433.811 55.254 433.673 54.934 433.397 54.714C433.125 54.494 432.765 54.384 432.317 54.384C431.865 54.384 431.499 54.496 431.219 54.72C430.943 54.94 430.805 55.258 430.805 55.674C430.805 56.066 430.937 56.37 431.201 56.586C431.465 56.802 431.837 56.91 432.317 56.91ZM439.694 62.052C438.718 62.052 437.958 61.91 437.414 61.626C436.874 61.346 436.604 60.944 436.604 60.42C436.604 60.196 436.656 60.006 436.76 59.85C436.864 59.69 436.988 59.558 437.132 59.454C437.276 59.35 437.41 59.268 437.534 59.208C437.658 59.144 437.738 59.098 437.774 59.07C437.706 59.03 437.62 58.98 437.516 58.92C437.416 58.86 437.328 58.78 437.252 58.68C437.176 58.58 437.138 58.45 437.138 58.29C437.138 58.094 437.23 57.914 437.414 57.75C437.598 57.586 437.87 57.464 438.23 57.384C437.866 57.2 437.582 56.956 437.378 56.652C437.174 56.348 437.072 56.018 437.072 55.662C437.072 55.262 437.18 54.914 437.396 54.618C437.616 54.322 437.928 54.096 438.332 53.94C438.736 53.78 439.216 53.7 439.772 53.7C440.176 53.7 440.516 53.748 440.792 53.844C441.068 53.936 441.324 54.068 441.56 54.24C441.624 54.212 441.724 54.17 441.86 54.114C442 54.054 442.154 53.99 442.322 53.922C442.49 53.854 442.646 53.79 442.79 53.73C442.938 53.666 443.056 53.618 443.144 53.586L443.138 54.612L442.052 54.816C442.112 54.944 442.16 55.084 442.196 55.236C442.236 55.388 442.256 55.53 442.256 55.662C442.256 56.026 442.16 56.356 441.968 56.652C441.78 56.948 441.494 57.184 441.11 57.36C440.726 57.536 440.246 57.624 439.67 57.624C439.622 57.624 439.56 57.624 439.484 57.624C439.412 57.62 439.35 57.616 439.298 57.612C438.874 57.624 438.582 57.672 438.422 57.756C438.262 57.836 438.182 57.926 438.182 58.026C438.182 58.142 438.272 58.222 438.452 58.266C438.632 58.31 438.938 58.348 439.37 58.38C439.526 58.388 439.718 58.398 439.946 58.41C440.178 58.422 440.434 58.438 440.714 58.458C441.366 58.498 441.868 58.664 442.22 58.956C442.572 59.248 442.748 59.642 442.748 60.138C442.748 60.702 442.496 61.162 441.992 61.518C441.488 61.874 440.722 62.052 439.694 62.052ZM439.892 61.338C440.464 61.338 440.902 61.252 441.206 61.08C441.51 60.908 441.662 60.648 441.662 60.3C441.662 60.052 441.568 59.85 441.38 59.694C441.196 59.534 440.914 59.442 440.534 59.418L438.794 59.304C438.638 59.296 438.476 59.336 438.308 59.424C438.14 59.508 437.996 59.626 437.876 59.778C437.76 59.93 437.702 60.102 437.702 60.294C437.702 60.622 437.88 60.878 438.236 61.062C438.596 61.246 439.148 61.338 439.892 61.338ZM439.7 56.91C440.148 56.91 440.508 56.806 440.78 56.598C441.056 56.39 441.194 56.082 441.194 55.674C441.194 55.254 441.056 54.934 440.78 54.714C440.508 54.494 440.148 54.384 439.7 54.384C439.248 54.384 438.882 54.496 438.602 54.72C438.326 54.94 438.188 55.258 438.188 55.674C438.188 56.066 438.32 56.37 438.584 56.586C438.848 56.802 439.22 56.91 439.7 56.91ZM446.636 60.12C446.312 60.116 446.006 60.07 445.718 59.982C445.434 59.89 445.182 59.756 444.962 59.58C444.742 59.404 444.568 59.186 444.44 58.926C444.316 58.662 444.254 58.356 444.254 58.008V53.796H445.364V57.894C445.364 58.298 445.488 58.626 445.736 58.878C445.988 59.13 446.366 59.256 446.87 59.256C447.326 59.256 447.692 59.138 447.968 58.902C448.248 58.662 448.388 58.306 448.388 57.834V53.796H449.492V60H448.61L448.496 58.812C448.42 59.124 448.29 59.376 448.106 59.568C447.926 59.76 447.708 59.902 447.452 59.994C447.2 60.082 446.928 60.124 446.636 60.12ZM452.939 60.12C452.539 60.12 452.185 60.05 451.877 59.91C451.569 59.766 451.327 59.56 451.151 59.292C450.979 59.024 450.893 58.7 450.893 58.32C450.893 57.632 451.133 57.12 451.613 56.784C452.093 56.448 452.863 56.268 453.923 56.244L455.033 56.214V55.728C455.033 55.348 454.919 55.048 454.691 54.828C454.463 54.604 454.109 54.492 453.629 54.492C453.273 54.496 452.959 54.58 452.687 54.744C452.419 54.908 452.245 55.176 452.165 55.548H451.187C451.211 55.144 451.325 54.804 451.529 54.528C451.733 54.248 452.017 54.036 452.381 53.892C452.749 53.748 453.183 53.676 453.683 53.676C454.223 53.676 454.671 53.752 455.027 53.904C455.387 54.056 455.655 54.28 455.831 54.576C456.011 54.872 456.101 55.236 456.101 55.668V60H455.153L455.075 58.836C454.835 59.32 454.529 59.656 454.157 59.844C453.789 60.028 453.383 60.12 452.939 60.12ZM453.275 59.322C453.483 59.322 453.689 59.284 453.893 59.208C454.101 59.132 454.291 59.03 454.463 58.902C454.635 58.77 454.771 58.624 454.871 58.464C454.975 58.3 455.029 58.132 455.033 57.96V56.898L454.109 56.916C453.637 56.924 453.241 56.972 452.921 57.06C452.605 57.148 452.367 57.286 452.207 57.474C452.051 57.662 451.973 57.908 451.973 58.212C451.973 58.56 452.093 58.832 452.333 59.028C452.577 59.224 452.891 59.322 453.275 59.322ZM457.996 60V53.796H459.07V54.696C459.17 54.524 459.308 54.362 459.484 54.21C459.664 54.058 459.88 53.936 460.132 53.844C460.388 53.752 460.682 53.706 461.014 53.706C461.406 53.706 461.766 53.784 462.094 53.94C462.426 54.096 462.69 54.34 462.886 54.672C463.086 55 463.186 55.424 463.186 55.944V60H462.076V56.052C462.076 55.568 461.948 55.21 461.692 54.978C461.44 54.742 461.112 54.624 460.708 54.624C460.428 54.624 460.166 54.67 459.922 54.762C459.678 54.85 459.48 54.986 459.328 55.17C459.176 55.35 459.1 55.578 459.1 55.854V60H457.996Z" fill="#1A1E2B"/>
<path d="M513 44H533C535.209 44 537 45.7909 537 48V64C537 66.2091 535.209 68 533 68H513V44Z" fill="#F5F6F9"/>
<path d="M528.158 53.568C528.474 53.2539 528.984 53.2541 529.3 53.5686C529.617 53.8848 529.617 54.3986 529.3 54.7148L525.706 58.2965C525.316 58.6854 524.684 58.6854 524.294 58.2965L520.7 54.7148C520.383 54.3986 520.383 53.8848 520.7 53.5686C521.016 53.2541 521.526 53.2539 521.842 53.568L525 56.7085L528.158 53.568Z" fill="#737A8D"/>
<rect x="395.5" y="43.5" width="142" height="25" rx="4.5" stroke="#D5D7DD"/>
</g>
<defs>
<filter id="filter0_dd_4_4788" x="0" y="0" width="569" height="412" filterUnits="userSpaceOnUse" color-interpolation-filters="sRGB">
<feFlood flood-opacity="0" result="BackgroundImageFix"/>
<feColorMatrix in="SourceAlpha" type="matrix" values="0 0 0 0 0 0 0 0 0 0 0 0 0 0 0 0 0 0 127 0" result="hardAlpha"/>
<feMorphology radius="4" operator="dilate" in="SourceAlpha" result="effect1_dropShadow_4_4788"/>
<feOffset dy="4"/>
<feGaussianBlur stdDeviation="6"/>
<feComposite in2="hardAlpha" operator="out"/>
<feColorMatrix type="matrix" values="0 0 0 0 0 0 0 0 0 0.607843 0 0 0 0 0.564706 0 0 0 0.08 0"/>
<feBlend mode="normal" in2="BackgroundImageFix" result="effect1_dropShadow_4_4788"/>
<feColorMatrix in="SourceAlpha" type="matrix" values="0 0 0 0 0 0 0 0 0 0 0 0 0 0 0 0 0 0 127 0" result="hardAlpha"/>
<feMorphology radius="2" operator="dilate" in="SourceAlpha" result="effect2_dropShadow_4_4788"/>
<feOffset dy="2"/>
<feGaussianBlur stdDeviation="1.5"/>
<feComposite in2="hardAlpha" operator="out"/>
<feColorMatrix type="matrix" values="0 0 0 0 0.129412 0 0 0 0 0.2 0 0 0 0 0.376471 0 0 0 0.02 0"/>
<feBlend mode="normal" in2="effect1_dropShadow_4_4788" result="effect2_dropShadow_4_4788"/>
<feBlend mode="normal" in="SourceGraphic" in2="effect2_dropShadow_4_4788" result="shape"/>
</filter>
<linearGradient id="paint0_linear_4_4788" x1="63.9167" y1="255.055" x2="101.81" y2="338.907" gradientUnits="userSpaceOnUse">
<stop stop-color="#005FAF"/>
<stop offset="1" stop-color="#21CDC0" stop-opacity="0.6"/>
</linearGradient>
<linearGradient id="paint1_linear_4_4788" x1="135.917" y1="203.87" x2="212.79" y2="310.019" gradientUnits="userSpaceOnUse">
<stop stop-color="#005FAF"/>
<stop offset="1" stop-color="#21CDC0" stop-opacity="0.6"/>
</linearGradient>
<linearGradient id="paint2_linear_4_4788" x1="206.917" y1="244.164" x2="253.016" y2="334.583" gradientUnits="userSpaceOnUse">
<stop stop-color="#005FAF"/>
<stop offset="1" stop-color="#21CDC0" stop-opacity="0.6"/>
</linearGradient>
<linearGradient id="paint3_linear_4_4788" x1="275.917" y1="176.644" x2="372.06" y2="287.276" gradientUnits="userSpaceOnUse">
<stop stop-color="#005FAF"/>
<stop offset="1" stop-color="#21CDC0" stop-opacity="0.6"/>
</linearGradient>
<linearGradient id="paint4_linear_4_4788" x1="347.917" y1="203.87" x2="424.79" y2="310.019" gradientUnits="userSpaceOnUse">
<stop stop-color="#005FAF"/>
<stop offset="1" stop-color="#21CDC0" stop-opacity="0.6"/>
</linearGradient>
<linearGradient id="paint5_linear_4_4788" x1="418.917" y1="255.055" x2="456.81" y2="338.907" gradientUnits="userSpaceOnUse">
<stop stop-color="#005FAF"/>
<stop offset="1" stop-color="#21CDC0" stop-opacity="0.6"/>
</linearGradient>
<linearGradient id="paint6_linear_4_4788" x1="493.917" y1="203.87" x2="570.79" y2="310.019" gradientUnits="userSpaceOnUse">
<stop stop-color="#005FAF"/>
<stop offset="1" stop-color="#21CDC0" stop-opacity="0.6"/>
</linearGradient>
</defs>
</svg>
