<svg width="277" height="168" viewBox="0 0 277 168" fill="none" xmlns="http://www.w3.org/2000/svg">
<path d="M13.8814 166.2C13.8814 166.2 -6.15361 141.658 3.74906 94.2554C9.97744 64.44 36.1427 49.6683 71.2179 51.0786C83.275 51.5631 102.892 37.1168 131.078 19.3704C191.37 -18.5884 278.582 -2.46687 257.709 82.9157C247.608 124.235 289.481 124.897 268.67 166.2H13.8814Z" fill="#E0004D" fill-opacity="0.5"/>
<path d="M93.1393 69.0993C95.9553 60.779 110.39 64.1267 110.39 64.1267C110.39 64.1267 119.461 79.3696 122.322 79.8622C125.184 80.3547 117.183 65.34 117.183 65.34C122.794 65.0846 136.642 72.4558 136.642 72.4558C136.642 72.4558 134.772 89.6317 137.671 89.4214C140.573 89.2109 138.533 74.1338 138.533 74.1338C143.846 75.9786 148.54 82.3746 148.54 82.3746C154.277 92.6977 140.358 99.4186 140.358 99.4186C140.358 99.4186 139.841 105.384 143.235 112.422C143.235 112.422 144.017 113.728 144.764 115.922L143.291 115.85C143.193 115.458 143.081 115.08 142.955 114.715C142.954 114.713 142.953 114.709 142.953 114.709C142.951 114.704 142.949 114.699 142.947 114.693C142.859 114.466 142.731 114.143 142.573 113.749L142.573 113.748L142.573 113.746C142.171 112.864 141.903 112.214 141.737 111.747C141.737 111.747 141.736 111.745 141.736 111.742C140.54 108.978 138.795 105.368 137.543 104.567C137.543 104.567 137.718 104.352 137.895 103.924C137.783 104.129 137.665 104.343 137.543 104.567C134.725 109.716 122.072 109.98 115.129 108.231C108.186 106.483 111.356 104.7 115.315 101.747C119.273 98.7947 127.148 100.008 129.558 98.8927C131.968 97.7763 128.617 96.3802 123.916 96.5028C119.215 96.6254 116.616 101.08 109.015 101.414C101.414 101.748 96.4355 87.5857 96.4355 87.5857C101.568 89.4217 111.088 87.0677 111.548 85.3271C112.008 83.5878 98.1336 83.0872 96.0023 82.4544C93.867 81.8206 90.3232 77.4184 93.1393 69.0993Z" fill="#E0004D"/>
<path d="M253.836 158.707C266.754 150.971 255.755 128.542 255.755 128.542C255.755 128.542 226.788 119.371 224.895 114.862C223.003 110.353 251.188 117.853 251.188 117.853C249.525 108.552 231.992 88.5957 231.992 88.5957C231.992 88.5957 203.857 98.099 203.129 93.2623C202.402 88.4242 228.469 86.1221 228.469 86.1221C223.392 78.0986 210.906 72.7929 210.906 72.7929C191.44 67.2481 185.344 92.6023 185.344 92.6023C185.344 92.6023 175.523 95.6852 162.445 92.7517C162.445 92.7517 159.96 91.9579 156 91.5552L156.67 93.9443C157.363 93.9599 158.04 94.0002 158.701 94.0716C158.706 94.0703 158.709 94.0716 158.713 94.0729C158.722 94.0742 158.732 94.0756 158.741 94.0756C159.156 94.1353 159.745 94.2237 160.466 94.3367C160.467 94.3367 160.467 94.3367 160.468 94.3367C160.469 94.3367 160.469 94.338 160.472 94.3367C162.102 94.6654 163.292 94.8615 164.14 94.959C164.142 94.959 164.145 94.959 164.147 94.959C169.232 95.8853 175.943 97.3936 177.754 99.1513C177.754 99.1513 178.051 98.7824 178.704 98.3316C178.401 98.5927 178.086 98.8655 177.754 99.1513C170.162 105.703 174.435 126.559 179.956 137.294C185.479 148.029 187.292 142.161 190.773 134.562C194.254 126.964 189.282 114.497 190.257 110.125C191.233 105.754 194.826 110.729 196.372 118.487C197.917 126.245 191.409 132.176 193.681 144.772C195.953 157.369 221.582 160.231 221.582 160.231C216.587 152.5 216.992 135.998 219.741 134.592C222.49 133.188 228.502 155.76 230.357 159.019C232.211 162.28 240.919 166.443 253.836 158.707Z" fill="#E0004D"/>
<path d="M17.8783 111.93C20.8842 107.563 28.449 111.972 28.449 111.972C28.449 111.972 30.9613 122.397 32.4895 123.171C34.0178 123.945 32.0702 113.837 32.0702 113.837C35.2758 114.644 41.8227 121.298 41.8227 121.298C41.8227 121.298 37.8387 130.984 39.5096 131.355C41.1805 131.726 42.6027 122.597 42.6027 122.597C45.2818 124.577 46.837 129.103 46.837 129.103C48.3098 136.093 39.3185 137.636 39.3185 137.636C39.3185 137.636 38.0099 141.023 38.7226 145.701C38.7226 145.701 38.9406 146.595 38.9869 148L38.1692 147.707C38.1805 147.463 38.1821 147.223 38.173 146.989C38.1735 146.987 38.1735 146.986 38.173 146.984C38.173 146.981 38.1724 146.978 38.1724 146.974C38.1611 146.827 38.145 146.617 38.1224 146.36C38.1224 146.36 38.1224 146.36 38.1224 146.359C38.1224 146.359 38.1218 146.359 38.1224 146.358C38.0465 145.777 38.0061 145.352 37.9921 145.051C37.9921 145.05 37.9921 145.049 37.9921 145.049C37.7897 143.235 37.4226 140.835 36.8525 140.155C36.8525 140.155 36.9881 140.059 37.1609 139.84C37.0624 139.941 36.9602 140.046 36.8525 140.155C34.3865 142.674 27.2104 140.672 23.5962 138.47C19.9815 136.269 22.0723 135.77 24.8063 134.725C27.5404 133.679 31.772 135.728 33.3201 135.489C34.8688 135.249 33.2179 133.865 30.5479 133.135C27.8773 132.406 25.6536 134.558 21.3127 133.457C16.9718 132.357 16.581 123.259 16.581 123.259C19.16 125.203 24.9274 125.453 25.483 124.518C26.0385 123.583 18.3052 120.927 17.2119 120.196C16.1181 119.464 14.8719 116.296 17.8783 111.93Z" fill="#E0004D"/>
<path d="M182.849 76.2439V123.236C182.849 126.12 180.492 128.48 177.609 128.48H149.702C148.955 128.48 148.244 128.322 147.599 128.035C145.757 127.221 144.462 125.372 144.462 123.236V76.2439C144.462 73.3586 146.82 71 149.702 71H177.609C180.492 71 182.849 73.3599 182.849 76.2439Z" fill="#FCECDB"/>
<path d="M170.485 88.672C167.535 87.5634 166.044 84.2721 167.15 81.3226C168.257 78.3718 171.544 76.8764 174.493 77.9851C177.442 79.0937 178.934 82.385 177.828 85.3345C176.722 88.2866 173.433 89.7807 170.485 88.672Z" fill="#F7E0CB"/>
<path d="M177.833 85.3358L167.155 81.3226C168.262 78.3718 171.549 76.8764 174.498 77.9851C177.446 79.0937 178.939 82.385 177.833 85.3358Z" fill="#EFCBAB"/>
<path d="M151.216 87.7509C148.774 85.7571 148.412 82.1614 150.404 79.7194C152.396 77.2773 155.988 76.9137 158.429 78.9075C160.869 80.9012 161.232 84.4969 159.24 86.939C157.25 89.3798 153.656 89.7434 151.216 87.7509Z" fill="#F7E0CB"/>
<path d="M159.236 86.939L150.401 79.7194C152.393 77.2773 155.984 76.9137 158.425 78.9075C160.865 80.9012 161.229 84.4969 159.236 86.939Z" fill="#EFCBAB"/>
<path d="M170.485 123.491C167.535 122.383 166.044 119.093 167.15 116.142C168.257 113.191 171.544 111.696 174.493 112.804C177.442 113.912 178.934 117.203 177.828 120.154C176.722 123.105 173.433 124.6 170.485 123.491Z" fill="#F7E0CB"/>
<path d="M177.833 120.542L167.155 116.528C168.262 113.578 171.549 112.082 174.498 113.191C177.446 114.3 178.939 117.591 177.833 120.542Z" fill="#EFCBAB"/>
<path d="M151.216 122.57C148.774 120.576 148.412 116.981 150.404 114.538C152.396 112.096 155.988 111.733 158.429 113.727C160.869 115.72 161.232 119.316 159.24 121.758C157.25 124.199 153.656 124.563 151.216 122.57Z" fill="#F7E0CB"/>
<path d="M159.236 122.143L150.401 114.923C152.393 112.481 155.984 112.118 158.425 114.112C160.865 116.105 161.229 119.702 159.236 122.143Z" fill="#EFCBAB"/>
<path d="M174.932 106.543C172.085 107.893 168.685 106.678 167.336 103.83C165.987 100.982 167.2 97.5777 170.047 96.2275C172.893 94.8774 176.294 96.0927 177.643 98.9407C178.992 101.79 177.778 105.194 174.932 106.543Z" fill="#F7E0CB"/>
<path d="M177.643 98.9407L167.336 103.83C165.987 100.982 167.2 97.5777 170.047 96.2275C172.894 94.8774 176.295 96.0927 177.643 98.9407Z" fill="#EFCBAB"/>
<path d="M149.528 99.2642C150.698 96.3365 154.018 94.9144 156.942 96.086C159.865 97.2576 161.288 100.578 160.117 103.506C158.946 106.432 155.627 107.856 152.703 106.684C149.779 105.514 148.359 102.191 149.528 99.2642Z" fill="#F7E0CB"/>
<path d="M152.701 106.685L156.939 96.0872C159.863 97.2588 161.285 100.58 160.114 103.507C158.945 106.434 155.625 107.857 152.701 106.685Z" fill="#EFCBAB"/>
<path opacity="0.5" d="M182.841 82.6736V123.566C182.841 126.268 180.685 128.479 178.047 128.479H152.51C151.827 128.479 151.177 128.331 150.586 128.062V88.335C150.586 86.7099 151.264 85.2403 152.343 84.2049C152.743 83.8221 153.197 83.4983 153.692 83.2491C154.424 82.8817 155.244 82.6736 156.111 82.6736H182.841Z" fill="#EFCBAB"/>
<path d="M151.501 135.171V88.1792C151.501 85.2952 153.859 82.9353 156.74 82.9353H184.648C187.53 82.9353 189.888 85.2952 189.888 88.1792V135.173C189.888 138.057 187.53 140.417 184.648 140.417H156.74C153.859 140.415 151.501 138.055 151.501 135.171Z" fill="#FCECDB"/>
<path d="M177.524 100.607C174.574 99.4986 173.083 96.2074 174.189 93.2579C175.295 90.3071 178.583 88.8117 181.532 89.9204C184.48 91.029 185.973 94.3203 184.867 97.2698C183.76 100.222 180.472 101.716 177.524 100.607Z" fill="#F7E0CB"/>
<path d="M184.872 97.2712L174.194 93.2579C175.3 90.3071 178.587 88.8117 181.537 89.9204C184.485 91.0291 185.978 94.3204 184.872 97.2712Z" fill="#EFCBAB"/>
<path d="M158.254 99.6863C155.813 97.6925 155.451 94.0968 157.443 91.6547C159.435 89.2126 163.026 88.849 165.468 90.8428C167.908 92.8365 168.271 96.4323 166.279 98.8744C164.287 101.315 160.694 101.679 158.254 99.6863Z" fill="#F7E0CB"/>
<path d="M166.275 98.8727L157.439 91.653C159.431 89.2109 163.023 88.8473 165.464 90.8411C167.903 92.8348 168.267 96.4318 166.275 98.8727Z" fill="#EFCBAB"/>
<path d="M177.524 135.425C174.574 134.316 173.083 131.026 174.189 128.075C175.295 125.125 178.583 123.629 181.532 124.738C184.48 125.845 185.973 129.138 184.867 132.087C183.76 135.038 180.472 136.534 177.524 135.425Z" fill="#F7E0CB"/>
<path d="M184.872 132.475L174.194 128.462C175.3 125.511 178.587 124.016 181.537 125.124C184.485 126.233 185.978 129.524 184.872 132.475Z" fill="#EFCBAB"/>
<path d="M167.053 132.418C168.341 129.542 167.056 126.165 164.182 124.875C161.308 123.586 157.934 124.873 156.646 127.749C155.357 130.626 156.643 134.003 159.517 135.292C162.391 136.581 165.765 135.295 167.053 132.418Z" fill="#F7E0CB"/>
<path d="M166.275 134.078L157.439 126.859C159.431 124.417 163.023 124.053 165.464 126.047C167.903 128.041 168.267 131.638 166.275 134.078Z" fill="#EFCBAB"/>
<path d="M181.973 118.48C179.127 119.83 175.726 118.615 174.377 115.767C173.028 112.919 174.241 109.515 177.088 108.165C179.934 106.814 183.335 108.03 184.684 110.878C186.033 113.726 184.819 117.13 181.973 118.48Z" fill="#F7E0CB"/>
<path d="M184.684 110.878L174.377 115.767C173.028 112.919 174.241 109.515 177.088 108.165C179.934 106.814 183.335 108.03 184.684 110.878Z" fill="#EFCBAB"/>
<path d="M156.567 111.199C157.738 108.272 161.057 106.85 163.981 108.021C166.905 109.193 168.327 112.514 167.156 115.441C165.986 118.368 162.666 119.791 159.743 118.62C156.819 117.449 155.397 114.126 156.567 111.199Z" fill="#F7E0CB"/>
<path d="M159.739 118.621L163.978 108.022C166.901 109.194 168.324 112.515 167.153 115.443C165.982 118.369 162.663 119.792 159.739 118.621Z" fill="#EFCBAB"/>
<path d="M185.577 101.682H141.746V167.151H185.577V101.682Z" fill="#EF7E29"/>
<path d="M191.682 101.682H147.851V167.152H191.682V101.682Z" fill="#F99746"/>
<path d="M147.852 105.482L145.75 108.751H141.746V101.682H147.852V105.482Z" fill="#D8661A"/>
<path d="M144.106 106.84H138L141.744 101.682H147.85L144.106 106.84Z" fill="#F99746"/>
<path opacity="0.5" d="M170.458 167.36H147.851V104.666L170.458 106.839V167.36Z" fill="#EFCBAB"/>
<path d="M191.682 106.839L188.126 108.751H149.964L147.851 105.482V101.682L191.682 106.839Z" fill="#EF7E29"/>
<path d="M194.778 106.84H150.947L147.851 101.682H191.682L194.778 106.84Z" fill="#F99746"/>
<path d="M94.8483 84.3482C93.5453 80.6202 87.8808 79.9214 85.6005 83.2563C85.1912 83.8562 84.9317 84.5448 84.9087 85.3348C84.7833 89.7065 94.4562 106.628 95.7405 108.124C98.0783 110.849 112.188 117.402 112.188 117.402L115.186 117.013C115.186 117.013 113.491 116.063 111.735 114.501C108.11 111.276 102.825 106.032 101.858 105.305C100.196 104.057 97.3231 91.4266 94.8483 84.3482Z" fill="#ED985F"/>
<path d="M178.755 166.493H114.385C110.4 166.493 107.14 163.587 107.14 160.035V125.3C107.14 121.748 110.4 118.842 114.385 118.842H178.755C182.74 118.842 186 121.748 186 125.3V160.035C186 163.587 182.74 166.493 178.755 166.493Z" fill="#FCECDB"/>
<path d="M131.386 134.188C129.866 137.849 125.35 139.701 121.302 138.327C117.254 136.952 115.203 132.872 116.725 129.211C118.245 125.551 122.76 123.697 126.808 125.072C130.856 126.446 132.907 130.529 131.386 134.188Z" fill="#F7E0CB"/>
<path d="M126.808 125.073L121.302 138.328C117.254 136.954 115.203 132.874 116.725 129.212C118.244 125.553 122.76 123.7 126.808 125.073Z" fill="#EFCBAB"/>
<path d="M130.119 158.112C127.383 161.141 122.451 161.591 119.101 159.119C115.751 156.647 115.251 152.188 117.987 149.158C120.721 146.13 125.655 145.679 129.005 148.151C132.354 150.624 132.853 155.084 130.119 158.112Z" fill="#F7E0CB"/>
<path d="M129.006 148.152L119.101 159.12C115.751 156.648 115.251 152.189 117.987 149.159C120.721 146.129 125.656 145.679 129.006 148.152Z" fill="#EFCBAB"/>
<path d="M179.158 134.188C177.637 137.849 173.123 139.701 169.074 138.327C165.026 136.952 162.975 132.872 164.497 129.211C166.017 125.551 170.532 123.697 174.58 125.072C178.628 126.446 180.677 130.529 179.158 134.188Z" fill="#F7E0CB"/>
<path d="M174.58 125.073L169.074 138.328C165.026 136.954 162.975 132.874 164.497 129.212C166.017 125.553 170.533 123.7 174.58 125.073Z" fill="#EFCBAB"/>
<path d="M177.892 158.113C175.25 161.039 170.56 161.558 167.224 159.361C167.105 159.286 166.989 159.205 166.874 159.12C163.524 156.648 163.024 152.189 165.76 149.159C168.494 146.129 173.428 145.679 176.778 148.152C176.892 148.236 177.003 148.321 177.111 148.411C180.159 150.926 180.532 155.188 177.892 158.113Z" fill="#F7E0CB"/>
<path d="M177.111 148.412L167.224 159.361C167.105 159.286 166.989 159.205 166.874 159.12C163.524 156.648 163.024 152.189 165.76 149.159C168.494 146.129 173.428 145.679 176.778 148.152C176.891 148.238 177.002 148.322 177.111 148.412Z" fill="#EFCBAB"/>
<path d="M155.905 128.669C157.757 132.203 156.09 136.425 152.182 138.099C148.275 139.772 143.605 138.268 141.752 134.733C139.9 131.2 141.568 126.977 145.475 125.303C149.382 123.63 154.053 125.136 155.905 128.669Z" fill="#F7E0CB"/>
<path d="M145.474 125.304L152.182 138.099C148.275 139.773 143.605 138.268 141.753 134.733C139.901 131.2 141.567 126.978 145.474 125.304Z" fill="#EFCBAB"/>
<path d="M145.916 160.209C141.899 158.756 139.949 154.634 141.556 151.005C143.163 147.376 147.719 145.61 151.736 147.064C155.75 148.517 157.703 152.638 156.096 156.267C154.489 159.895 149.93 161.66 145.916 160.209Z" fill="#F7E0CB"/>
<path d="M156.097 156.266L141.557 151.005C143.164 147.376 147.72 145.61 151.737 147.064C155.751 148.516 157.704 152.637 156.097 156.266Z" fill="#EFCBAB"/>
<path d="M98.9422 62.9617C99.02 62.6817 92.0972 65.7507 91.747 66.0975C88.501 69.3079 89.4264 73.4958 91.2843 73.5356C92.4763 73.5613 92.2442 75.3264 92.2442 75.3264L105.518 70.3215C105.516 70.3227 103.919 62.0162 98.9422 62.9617Z" fill="#B5453C"/>
<path d="M100.578 63.608C100.578 63.608 101.053 59 95.2756 59C95.2756 59 97.0269 59.4226 97.9321 60.2692C97.9321 60.2692 94.248 58.341 90.2367 61.3034C86.2254 64.2657 88.7189 71.6961 87.4995 73.1066C86.2802 74.5172 81.5309 74.7998 82.1118 79.3616C82.6926 83.9233 97.1826 89.6361 96.2529 93.4104C96.2529 93.4104 101.932 85.971 97.8715 82.5744C97.8715 82.5744 99.8505 84.2355 100.052 86.2113C100.052 86.2113 100.59 82.3548 97.8369 81.1215C95.401 80.0296 93.4048 76.0382 93.6152 75.3252C93.8256 74.6122 100.578 63.608 100.578 63.608Z" fill="#B5453C"/>
<path d="M84.347 163.255L81.4744 162.879C81.4744 162.879 71.8173 156.038 70.3789 143.275C70.2318 141.977 70.2016 140.657 70.3097 139.329C70.3226 139.176 70.3039 139.022 70.2088 138.894C70.2088 138.892 70.2073 138.892 70.2059 138.89C69.8974 138.467 69.1278 137.41 68.0857 135.904C67.0594 134.422 65.3024 131.619 63.3681 128.474C59.8858 122.81 55.8313 116.036 54.4404 113.879C50.0096 107.002 52.1457 102.379 52.1457 102.379C52.1457 102.379 64.5068 101.29 67.894 98.6484L69.1133 100.325C69.1133 100.325 71.7914 110.892 71.6645 110.941C71.7957 111.301 71.9297 111.666 72.0667 112.038C74.1797 117.853 76.6113 125.12 77.9373 131.038C78.6825 134.368 79.0774 137.27 78.8655 139.247C78.7935 139.925 78.8814 140.967 79.0846 142.254C80.2824 149.84 84.347 163.255 84.347 163.255Z" fill="#2B478B"/>
<path d="M90.3789 166.495H78.3955C78.3955 166.495 78.1086 164.868 78.7342 163.633C79.3338 162.449 80.1885 162.41 78.8437 160.553C79.6048 161.252 82.0536 161.541 83.7861 161.333C83.998 161.64 85.154 163.698 85.8631 164.151C86.6458 164.653 90.1382 164.475 90.3789 166.495Z" fill="#233862"/>
<path d="M72.0714 112.039C71.025 117.184 68.5516 125.748 63.3714 128.474C59.8891 122.81 55.8346 116.036 54.4437 113.879C50.0129 107.002 52.149 102.379 52.149 102.379C52.149 102.379 64.5101 101.29 67.8973 98.6484L69.1166 100.325C69.1166 100.325 71.7947 110.892 71.6678 110.941C71.8005 111.301 71.9345 111.667 72.0714 112.039Z" fill="#233862"/>
<path d="M63.6698 103.175L63.7101 101.178C59.2448 101.68 48.3136 96.4219 48.3136 96.4219C48.3136 96.4219 43.6422 99.1916 43.0022 107.1C42.6894 110.96 40.7148 127.285 40.4971 132.161C40.4178 133.927 40.3905 135.188 40.3818 135.692C40.3833 135.695 40.3833 135.696 40.3818 135.697C40.3789 135.851 40.2982 135.986 40.1916 136.108C39.2676 137.155 38.4663 138.264 37.7715 139.414C30.9582 150.713 34.5213 166.066 34.5213 166.066L36.1039 165.708C36.1039 165.708 41.865 149.791 45.6312 142.907C46.2697 141.739 46.8506 140.831 47.3363 140.305C48.7518 138.773 50.245 136.17 51.7166 133.037C54.4984 127.115 57.1995 119.3 59.1252 113.249C59.2607 113.271 63.6698 103.175 63.6698 103.175Z" fill="#2B478B"/>
<path d="M89.8002 89.8422C82.4997 88.3495 87.1639 79.2067 87.5877 79.3673C88.5995 79.1836 90.8206 77.6009 92.8083 74.5088L93.0764 74.7169L97.5604 78.2201C97.5604 78.2201 96.5241 79.5831 95.6521 80.9178C94.9703 81.9622 94.3923 82.9925 94.4831 83.3458C94.842 83.5976 91.7474 90.2405 89.8002 89.8422Z" fill="#FFB27D"/>
<path d="M94.4074 83.0508C94.4074 83.0508 95.6902 85.3079 96.3763 87.2631C97.0609 89.2183 98.7747 95.4373 98.7747 95.4373C98.7747 95.4373 95.2405 99.0317 90.3255 98.821C90.3255 98.821 87.682 95.1328 88.6131 91.803C89.5443 88.4732 94.4074 83.0508 94.4074 83.0508Z" fill="white"/>
<path d="M97.5565 78.222C97.5565 78.222 96.5202 79.5824 95.6481 80.9197C92.8606 79.3884 92.8577 76.3117 93.0725 74.7188L97.5565 78.222Z" fill="#ED985F"/>
<path d="M97.6839 79.9775C97.6839 79.9775 90.9153 76.6207 93.3253 72.8966C95.7352 69.1724 96.4847 66.2306 100.908 68.2166C105.332 70.2027 105.244 72.0513 104.778 73.4695C104.314 74.8852 99.5058 80.7547 97.6839 79.9775Z" fill="#FFB27D"/>
<path d="M105.92 71.2942C105.61 69.6409 104.667 69.4829 104.01 69.5933C101.511 65.909 97.426 67.3465 97.426 67.3465C95.2452 69.786 92.0916 70.2023 92.0916 70.2023C92.0916 70.2023 92.8771 71.5049 96.1129 72.3116C97.1017 72.5583 98.2231 72.4093 99.3055 72.0843C97.0599 73.1993 94.7119 73.6271 94.7119 73.6271C98.9769 73.9753 103.034 70.5003 103.455 70.1277C103.653 70.666 103.997 71.7939 103.791 72.6174C103.51 73.7376 102.394 75.7661 103.076 76.0281C103.076 76.0307 106.385 73.7749 105.92 71.2942Z" fill="#B5453C"/>
<path d="M44.0491 166.495H32.0656C32.0656 166.495 31.7788 164.868 32.4044 163.633C33.004 162.449 33.9437 161.909 33.7189 160.476C34.4799 161.174 35.7209 161.957 37.4534 161.749C37.6653 162.056 38.8241 163.697 39.5333 164.151C40.316 164.653 43.8069 164.475 44.0491 166.495Z" fill="#233862"/>
<path d="M90.6581 97.0901C89.1159 97.5692 86.9524 97.8326 84.7385 98.0471C81.5877 98.3541 78.3331 98.5622 76.6294 99.1699C76.2964 99.2881 75.3278 99.649 74.3564 100.276V100.277C74.3564 100.277 74.3319 100.29 74.2901 100.322C73.9687 100.532 73.6458 100.773 73.3503 101.045C72.8977 101.46 72.5042 101.943 72.2506 102.5C71.625 103.876 72.4538 107.691 72.9828 109.777C73.1961 110.616 72.7522 111.483 71.8945 111.88C70.6968 112.432 69.5192 112.942 68.3618 113.409C68.2998 113.433 68.2407 113.456 68.1802 113.482C68.1917 113.27 68.1946 113.059 68.1946 112.854C68.196 111.415 67.9914 110.218 67.9914 110.218C67.7074 111.671 66.6336 113.239 65.6333 114.445C49.5521 120.197 38.3153 117.697 38.4998 114.832C39.134 104.884 46.6608 96.4233 46.6608 96.4233C60.6981 81.8748 89.0928 78.044 89.0928 78.044C89.0928 78.044 90.452 77.8976 92.0937 79.6549C94.4546 82.187 94.5714 82.846 94.5714 82.846C94.5714 82.846 95.1955 95.6795 90.6581 97.0901Z" fill="white"/>
<path d="M84.7364 98.0475C81.5857 98.3545 78.3325 98.5639 76.6274 99.169C75.9312 89.8939 80.8419 82.917 80.8419 82.917C80.8419 82.917 84.046 94.5366 84.7364 98.0475Z" fill="white"/>
<path d="M88.0448 81.123C88.0448 81.123 80.1476 81.818 79.5148 86.3926C78.8821 90.966 87.0863 109.595 88.261 111.281C90.4 114.352 102.996 124.878 102.996 124.878L105.318 123.624C105.318 123.624 96.383 110.143 95.0008 108.882C92.8287 106.901 90.72 82.707 88.0448 81.123Z" fill="#FFB27D"/>
<path d="M92.0945 89.8592C92.0945 89.8592 92.906 78.0676 82.779 80.9182C72.652 83.7701 84.3501 104.052 84.3501 104.052C84.3501 104.052 90.2943 103.79 92.4015 99.1677L92.0945 89.8592Z" fill="#E0004D"/>
<path d="M72.9834 109.777C73.1967 110.616 72.7527 111.483 71.8951 111.88C70.6974 112.432 69.5198 112.942 68.3624 113.409C68.3004 113.233 68.2456 113.049 68.1952 112.854C68.0121 112.128 67.9286 111.258 67.992 110.218C68.2601 105.814 71.6256 102.48 73.3495 101.048C72.8969 101.463 72.5034 101.946 72.2497 102.502C71.6242 103.875 72.453 107.691 72.9834 109.777Z" fill="white"/>
<path d="M89.0933 78.042C89.0933 78.042 90.3299 76.6495 91.1645 76.6944C91.1645 76.6944 94.543 80.9106 94.5704 82.8453C94.5718 82.8453 90.3573 77.8468 89.0933 78.042Z" fill="white"/>
<path d="M121.513 118.843C121.513 118.843 119.716 118.872 119.328 118.823C118.947 118.774 118.439 118.626 117.927 118.611C117.424 118.594 116.961 118.739 116.488 118.827C116.418 118.839 116.346 118.845 116.275 118.845H113.294C113.294 118.845 112.996 118.717 112.669 118.248C112.527 118.046 112.509 117.563 112.187 117.402C110.383 116.504 115.185 117.013 115.185 117.013C115.185 117.013 118.201 116.964 118.479 117.149C118.973 117.48 121.625 118.716 121.513 118.843Z" fill="#ED985F"/>
<path d="M113.295 118.844C113.295 118.844 115.124 119.315 115.621 119.618L116.146 119.913C116.146 119.913 116.45 119.611 115.972 119.275C115.719 119.097 115.022 118.58 115 117.985C114.979 117.39 112.913 117.909 113.295 118.844Z" fill="#ED985F"/>
<path d="M105.319 123.625C105.319 123.625 106.626 124.66 107.621 124.878C108.616 125.097 109.746 127.635 109.926 127.998C110.106 128.36 108.976 127.837 108.525 127.219C108.072 126.601 107.764 126.36 107.633 126.493C107.5 126.628 107.712 128.32 108.464 129.259C109.218 130.2 109.669 131.032 109.127 130.978C108.585 130.924 105.361 130.227 104.698 128.481C104.035 126.735 104.521 126.673 102.997 124.878C101.474 123.083 105.319 123.625 105.319 123.625Z" fill="#FFB27D"/>
<path d="M232.338 163.998C230.687 161.818 232.696 151.848 232.625 149.3H225.125C225.04 151.842 226.923 161.834 225.349 163.994C224.902 164.774 232.787 164.764 232.338 163.998Z" fill="#F99370"/>
<path d="M195.614 166.998H208.743C209.522 166.998 210.131 166.329 210.06 165.555C209.936 164.198 209.643 162.333 209.737 161.469C209.685 160.673 210.829 150.366 210.915 149.298H202.645L203.979 159.942C204.135 161.198 203.387 162.392 202.186 162.789C200.563 163.325 198.716 163.557 197.495 163.871C196.317 164.169 195.257 164.579 194.728 165.485C194.336 166.155 194.838 166.998 195.614 166.998Z" fill="#F99370"/>
<path d="M210.498 165.614L210.497 165.628C210.401 166.412 209.737 166.999 208.948 166.999H195.719C194.961 166.999 194.405 166.262 194.636 165.54C195.333 163.361 197.517 162.011 203.712 161.47C203.712 161.47 205.989 162.148 209.735 161.47C209.737 161.47 210.74 163.641 210.498 165.614Z" fill="#395B96"/>
<path d="M231.729 167H225.96C225.152 167 224.493 166.331 224.531 165.522C224.78 160.091 232.949 160.047 233.161 165.527C233.192 166.333 232.536 167 231.729 167Z" fill="#395B96"/>
<path d="M198.833 165.124C198.717 165.124 198.607 165.055 198.56 164.94C198.028 163.626 197.067 163.224 197.026 163.209C196.673 163.072 196.891 162.516 197.243 162.661C197.293 162.681 198.472 163.16 199.104 164.719C199.186 164.907 199.035 165.129 198.833 165.124Z" fill="#E8C0A6"/>
<path d="M201.119 164.847C200.994 164.847 200.878 164.766 200.838 164.64C200.371 163.128 199.043 162.416 199.029 162.409C198.69 162.238 198.965 161.706 199.3 161.887C199.363 161.92 200.857 162.712 201.399 164.466C201.462 164.651 201.312 164.851 201.119 164.847Z" fill="#E8C0A6"/>
<path d="M203.722 164.529C203.6 164.529 203.487 164.454 203.444 164.331C202.892 162.743 201.627 161.892 201.613 161.884C201.293 161.678 201.622 161.178 201.938 161.393C201.996 161.432 203.383 162.364 204 164.138C204.069 164.324 203.92 164.532 203.722 164.529Z" fill="#E8C0A6"/>
<path d="M230.965 163.229C228.719 161.959 226.723 163.623 226.399 163.056C226.136 162.46 229.077 161.567 231.114 162.681C231.373 162.821 231.254 163.24 230.965 163.229Z" fill="#E8C0A6"/>
<path d="M194.614 165.614H210.498L210.497 165.628C210.401 166.411 209.737 166.999 208.948 166.999H195.579C194.873 166.999 194.371 166.303 194.605 165.638C194.61 165.63 194.613 165.622 194.614 165.614Z" fill="#4867AA"/>
<path d="M231.846 167H225.842C225.096 167 224.492 166.383 224.523 165.639C224.523 165.631 224.523 165.623 224.525 165.615H233.165C233.165 165.625 233.166 165.634 233.166 165.643C233.193 166.386 232.59 167 231.846 167Z" fill="#4867AA"/>
<path d="M212.197 31.389C212.197 31.389 211.44 27.1269 215.18 25.7471L217.542 27.5225L212.197 31.389Z" fill="#8C4225"/>
<path d="M205.723 63.2278C195.225 71.1366 178.797 68.7693 172.721 57.2656L174.259 54.0679C191.871 61.6407 198.805 46.8043 213.095 45.9487L210.216 49.6221C210.216 49.6221 205.97 62.9751 205.723 63.2278Z" fill="white"/>
<path d="M233.533 159.444C233.533 159.444 227.221 160.978 223.967 159.33C222.274 148.712 217.575 119.147 215.938 98.887C215.875 100.069 212.437 147.712 211.782 159.33C209.536 160.082 205.021 160.988 202.496 159.168C201.361 146.938 197.717 106.672 203.207 73.7855C203.207 73.7855 218.251 75.4589 230 71.908C233.233 82.3394 234.09 146.927 233.533 159.444Z" fill="#233862"/>
<path d="M214.729 45.6715C214.625 42.4282 214.222 35.9951 216.854 35.1317C218.743 34.4755 220.981 36.0861 220.399 38.2164C220.228 38.1081 219.679 44.1833 220.058 45.8693C225.046 47.3669 210.044 52.2883 214.729 45.6715Z" fill="#FFB27D"/>
<path d="M220.45 37.9401C220.438 38.0327 220.42 38.1269 220.4 38.2164C220.276 38.1348 219.931 41.4864 219.928 43.9196C217.643 44.9588 215.153 44.5522 214.687 44.4565C214.56 41.0986 214.355 36.0705 216.855 35.1333C218.638 34.3688 220.764 35.9951 220.45 37.9401Z" fill="#E57D61"/>
<path d="M224.042 35.6995C223.657 38.081 222.854 40.7654 220.973 42.3415H220.97C218.229 44.4183 214.212 44.197 211.423 41.9082H211.422C209.27 39.8973 208.589 37.1893 209.722 35.103C210.463 33.8738 211.828 32.7907 212.196 31.3904C215.388 22.064 225.396 27.279 224.042 35.6995Z" fill="#FFB27D"/>
<path d="M224.04 35.6998C223.656 38.0813 222.852 40.7657 220.972 42.3418H220.969C220.814 42.4721 220.707 42.5349 220.536 42.6432C221.967 41.2225 222.739 38.232 222.739 38.232L222.402 35.6512C220.092 33.309 221.087 30.6764 221.087 30.6764C217.223 31.7611 215.922 29.3766 215.922 29.3766C214.701 29.5336 213.415 28.9041 213.415 28.9041C217.811 22.5432 225.401 29.3091 224.04 35.6998Z" fill="#E57D61"/>
<path d="M222.855 29.4927C221.214 30.1426 220.636 33.9573 224.517 36.5663C224.517 36.5663 226.397 30.2792 222.855 29.4927Z" fill="#8C4225"/>
<path d="M175.733 54.6725C176.389 57.9032 173.533 58.6552 173.533 58.6552C172.988 57.8373 172.72 57.2643 172.722 57.2659L174.26 54.0681C174.26 54.0681 174.938 54.2957 175.733 54.6725Z" fill="white"/>
<path d="M231.507 86.6535C223.338 90.0506 202.992 90.3269 201.018 87.9219C197.159 78.3931 204.279 52.9918 213.095 45.9511C213.172 45.9291 214.167 45.6748 214.725 45.6748C214.686 45.8302 213.699 49.9384 220.057 45.871C220.093 45.9134 221.607 45.9417 222.011 46.2195C221.557 52.863 234.476 79.3805 231.507 86.6535Z" fill="#2B478B"/>
<path d="M205.306 51.6509L201.357 65.7903C195.199 69.1858 184.674 68.4888 179.786 64.6694C197.285 71.4495 198.713 58.0511 205.069 51.6509H205.306Z" fill="white"/>
<path d="M222.216 25.8257C220.929 24.2998 218.588 23.5541 218.052 22C218.052 22 217.258 23.4882 217.351 25.1506C216.728 24.4521 216.157 23.6876 215.709 22.8681C215.078 23.5055 214.741 24.2354 214.639 24.9858C212.635 24.5494 210.877 25.3531 210.877 25.3531C211.907 28.2652 214.309 28.9057 216.194 28.9166C217.757 30.4143 220.256 31.0924 222.671 29.6105L224.999 32.6183C228.302 26.8853 222.216 25.8257 222.216 25.8257Z" fill="#8C4225"/>
<path d="M237.541 129.371C231.529 131.07 226.39 130.979 223.804 130.762C222.658 130.666 222.015 130.547 222.015 130.547C222.015 130.547 219.995 88.7976 219.381 79.972C218.391 70.8671 217.667 49.8251 222.015 46.2192L223.6 46.4908C234.157 59.5973 236.566 122.951 237.541 129.371Z" fill="white"/>
<path d="M202.644 130.88C202.644 130.88 202.068 130.966 201.211 130.998C199.508 131.062 196.691 130.897 195.117 129.371C194.916 126.002 192.182 50.3022 211.171 46.1265L211.172 46.1249C211.791 45.9899 212.431 45.9303 213.095 45.9507C200.696 57.6176 201.42 121.075 202.644 130.88Z" fill="white"/>
<path d="M220.783 40.3934C220.783 40.395 214.182 44.3306 211.421 41.9068C208.986 39.7687 208.596 37.1926 209.722 35.1016C209.722 35.1016 212.828 36.1832 219.846 35.8865C219.846 35.8865 219.355 39.0528 220.783 40.3934Z" fill="white"/>
<path d="M219.847 36.0237C219.695 36.0284 219.66 35.7929 219.811 35.7552L222.718 34.9688C223.661 35.2733 219.814 35.9389 219.847 36.0237Z" fill="#C16256"/>
<path d="M220.785 40.5302C220.656 40.535 220.596 40.3497 220.709 40.2806C220.792 40.3058 223.545 38.2038 223.566 38.546C223.771 38.7563 220.88 40.4533 220.785 40.5302Z" fill="#C16256"/>
<path d="M225.553 36.902C224.968 39.6084 221.663 38.9098 222.223 36.1971C222.808 33.4923 226.114 34.1909 225.553 36.902Z" fill="#F99370"/>
<path d="M224.695 37.4632C224.605 37.4647 224.536 37.3721 224.564 37.2873C225.081 35.8478 224.442 35.2418 223.471 35.6421C222.516 35.3156 225.895 34.4349 224.825 37.3674C224.808 37.4255 224.753 37.4632 224.695 37.4632Z" fill="#C16256"/>
<path d="M223.422 37.2713C223.009 37.2132 223.793 35.9464 224.841 35.86C225.018 35.8443 225.036 36.1237 224.86 36.1316C223.804 36.2415 223.672 37.2367 223.422 37.2713Z" fill="#C16256"/>
<path d="M222.278 54.2C221.596 59.517 226.596 68.0913 218.772 70.4932L224.664 71.9076L226.307 65.5341L222.278 54.2Z" fill="white"/>
<path d="M202.644 130.88C202.644 130.88 202.068 130.966 201.211 130.998C200.051 119.979 200.376 105.839 200.638 98.8883C200.911 91.7111 201.784 76.8825 204.193 63.8169C206.605 50.7512 211.171 46.1265 211.171 46.1265L211.172 46.1249C211.791 45.9899 212.431 45.9303 213.095 45.9507C200.696 57.6176 201.42 121.075 202.644 130.88Z" fill="white"/>
<path d="M232.594 77.8809L232.696 78.8872C228.046 81.1839 219.38 79.972 219.38 79.972C219.292 78.6297 219.205 77.3393 219.124 76.1007L231.376 72.5027C231.769 74.6534 232.29 75.6518 232.594 77.8809Z" fill="white"/>
<path d="M223.804 130.762C222.658 130.666 222.015 130.547 222.015 130.547C222.015 130.547 219.995 88.7976 219.381 79.972C218.391 70.8671 217.666 49.8251 222.013 46.2192L223.598 46.4908C222.135 47.3542 220.122 53.7167 220.178 62.5753C220.254 74.451 221.461 88.8651 222.063 98.8884C222.578 107.482 223.54 125.736 223.804 130.762Z" fill="white"/>
<path d="M222.009 46.2176C220.649 47.4954 212.353 53.029 213.095 45.9491C213.172 45.9287 214.167 45.6744 214.727 45.6729C214.688 45.8283 214.046 49.6712 220.059 45.8691C220.084 45.8534 221.615 45.9601 222.009 46.2176Z" fill="#D1A68F"/>
<path d="M171.181 48.8361C170.501 49.1265 171.835 50.7356 171.854 51.4216C170.614 51.0229 169.479 50.2615 169.47 50.2631C168.315 49.136 167.223 47.9476 166.184 46.709C165.86 46.304 165.203 46.7812 165.496 47.2161C166.353 48.5394 167.27 49.8298 168.249 51.0684C168.24 51.0794 168.243 51.0763 168.233 51.0857C166.879 50.2301 165.565 49.3039 164.333 48.2788C164.181 48.1517 163.99 48.0748 163.79 48.0795C162.075 48.1109 167.185 51.9475 167.595 52.296C167.591 52.3023 167.591 52.3007 167.588 52.3054C166.188 51.7199 164.854 50.9742 163.611 50.103C163.428 49.9742 163.202 49.913 162.982 49.9554C161.463 50.249 166.796 53.5974 167.328 53.8062C167.328 53.8125 167.326 53.8187 167.326 53.825C166.17 53.5283 165.047 53.0935 163.955 52.6037C163.778 52.5236 163.578 52.5001 163.39 52.5535C161.855 52.982 166.838 55.208 167.35 55.3666C167.885 55.69 169.844 57.0385 172.841 57.4984C173.775 57.6413 175.087 55.3525 174.648 54.2081C174.398 53.5582 173.491 52.1014 173.249 51.7466C172.957 51.07 172.039 48.5771 171.181 48.8361Z" fill="#F99370"/>
<path d="M194.934 51.751C194.931 51.7541 174.926 68.0709 174.948 68.0866L192.196 89.2195C199.029 98.1864 214.463 93.7296 215.194 82.5384C215.527 79.2512 214.606 75.8352 212.352 73.0739C212.349 73.0723 194.949 51.7274 194.934 51.751Z" fill="#699FF0"/>
<path d="M159.295 28.6403C153.84 33.1661 153.049 41.2507 157.536 46.7482L174.936 68.068C174.958 68.09 194.945 51.7497 194.938 51.734C186.357 43.505 174.385 16.7253 159.295 28.6403Z" fill="#2B478B"/>
<path d="M204.768 68.8171C204.303 69.3917 206.234 70.1891 206.573 70.7872C205.289 71.0149 203.93 70.8736 203.923 70.8799C202.374 70.4246 200.854 69.8846 199.356 69.2771C198.881 69.0714 198.523 69.8014 198.988 70.0463C200.364 70.8155 201.778 71.5266 203.222 72.1624C203.219 72.1765 203.219 72.1718 203.216 72.186C201.618 72.0635 200.025 71.8594 198.456 71.5313C198.261 71.4905 198.057 71.5125 197.883 71.6083C196.381 72.4387 202.693 73.4371 203.217 73.5533C203.216 73.5596 203.217 73.558 203.216 73.5658C201.704 73.704 200.177 73.6695 198.671 73.4811C198.448 73.4528 198.219 73.5046 198.044 73.6443C196.839 74.6145 203.12 75.0776 203.686 75.0132C203.69 75.0195 203.691 75.0242 203.694 75.0305C202.533 75.3099 201.339 75.4512 200.144 75.5297C199.95 75.5423 199.763 75.616 199.622 75.7495C198.465 76.8468 203.911 76.481 204.438 76.3821C205.063 76.4182 206.97 77.1215 209.834 76.1231C210.727 75.8123 211.125 71.6758 210.22 71.467C209.54 71.3116 208.338 70.6193 207.958 70.4199C207.382 69.9599 205.405 68.1845 204.768 68.8171Z" fill="#FFB27D"/>
<path d="M211.801 76.8121C211.157 76.5986 210.503 76.3694 209.834 76.1229C209.724 75.5468 209.049 72.8294 210.22 71.4668C238.176 70.2455 216.845 60.6178 223.598 46.4878C243.647 47.8127 253.7 88.5748 211.801 76.8121Z" fill="white"/>
<path d="M211.803 76.8118C211.159 76.5983 210.503 76.3691 209.835 76.1226C209.725 75.5465 209.05 72.8291 210.221 71.4665C210.221 71.4665 210.987 71.3865 211.803 71.3865C211.803 71.3865 210.423 73.8166 211.803 76.8118Z" fill="white"/>
<line x1="172.817" y1="34.2561" x2="200.256" y2="67.1832" stroke="white" stroke-opacity="0.3" stroke-width="4" stroke-linecap="round"/>
<path d="M276.161 167.147H0.393485C0.177474 167.147 0 166.971 0 166.757V166.391C0 166.176 0.17646 166 0.393485 166H276.161C276.377 166 276.554 166.175 276.554 166.391V166.757C276.553 166.971 276.377 167.147 276.161 167.147Z" fill="#2E3552"/>
</svg>
