<svg width="459" height="259" viewBox="0 0 459 259" fill="none" xmlns="http://www.w3.org/2000/svg">
<path d="M25.4309 257.911C25.4309 257.911 -39.5473 104.301 100.212 75.7455C187.417 57.9264 185.137 -4.02359 308.532 0.206541C434.894 4.5367 385.131 123.919 401.527 151.226C417.923 178.534 459.997 189.49 444.74 257.911H25.4309Z" fill="#EBF3FA"/>
<path d="M323.019 33.4541C318.536 23.345 301.242 29.3869 301.242 29.3869C301.242 29.3869 292.001 49.7116 288.552 50.6941C285.103 51.6766 293.06 31.7747 293.06 31.7747C286.145 32.1651 270.07 43.1938 270.07 43.1938C270.07 43.1938 274.489 64.5622 270.906 64.6655C267.321 64.7687 267.958 45.5444 267.958 45.5444C261.669 48.5387 256.702 57.1796 256.702 57.1796C250.941 70.8929 268.847 77.5817 268.847 77.5817C268.847 77.5817 270.218 85.0208 266.925 94.3038C266.925 94.3038 266.128 96.0462 265.483 98.9002L267.28 98.6227C267.353 98.1177 267.443 97.6273 267.553 97.1529C267.553 97.1497 267.553 97.1465 267.555 97.1449C267.556 97.1384 267.558 97.132 267.559 97.1239C267.64 96.8271 267.756 96.4044 267.901 95.8897V95.8881C267.901 95.8865 267.903 95.8865 267.901 95.8849C268.285 94.7249 268.534 93.8731 268.679 93.2648C268.679 93.2632 268.681 93.2616 268.681 93.2584C269.805 89.63 271.499 84.8675 272.937 83.7011C272.937 83.7011 272.695 83.4526 272.425 82.9363C272.588 83.18 272.759 83.4349 272.937 83.7011C277.03 89.8204 292.584 88.5475 300.884 85.4677C309.185 82.3878 305.076 80.547 299.855 77.3349C294.634 74.1228 285.124 76.6476 282.029 75.5506C278.935 74.4519 282.873 72.2707 288.655 71.8286C294.437 71.3866 298.175 76.6605 307.541 76.1168C316.906 75.5731 321.262 57.1264 321.262 57.1264C315.193 60.0868 303.224 58.3332 302.444 56.202C301.665 54.0724 318.623 51.6831 321.159 50.6166C323.7 49.5486 327.502 43.5632 323.019 33.4541Z" fill="#DFEBFD"/>
<path d="M373.187 208.409C389.274 198.802 375.577 170.949 375.577 170.949C375.577 170.949 339.503 159.561 337.146 153.961C334.79 148.361 369.89 157.675 369.89 157.675C367.818 146.125 345.983 121.343 345.983 121.343C345.983 121.343 310.947 133.144 310.04 127.138C309.135 121.13 341.597 118.271 341.597 118.271C335.274 108.307 319.725 101.718 319.725 101.718C295.483 94.8326 287.892 126.318 287.892 126.318C287.892 126.318 275.662 130.147 259.375 126.504C259.375 126.504 256.281 125.518 251.349 125.018L252.183 127.985C253.046 128.004 253.89 128.054 254.713 128.143C254.719 128.141 254.723 128.143 254.727 128.144C254.739 128.146 254.752 128.148 254.763 128.148C255.279 128.222 256.013 128.332 256.91 128.472C256.912 128.472 256.912 128.472 256.913 128.472C256.915 128.472 256.915 128.474 256.918 128.472C258.948 128.88 260.431 129.124 261.486 129.245C261.489 129.245 261.492 129.245 261.495 129.245C267.828 130.395 276.185 132.268 278.44 134.451C278.44 134.451 278.809 133.993 279.623 133.433C279.245 133.757 278.853 134.096 278.44 134.451C268.986 142.587 274.307 168.487 281.183 181.818C288.06 195.149 290.317 187.862 294.652 178.425C298.987 168.989 292.795 153.508 294.01 148.079C295.225 142.65 299.7 148.829 301.625 158.462C303.55 168.097 295.444 175.462 298.274 191.104C301.104 206.747 333.02 210.301 333.02 210.301C326.799 200.7 327.304 180.208 330.728 178.462C334.151 176.718 341.637 204.75 343.947 208.796C346.256 212.846 357.101 218.016 373.187 208.409Z" fill="#DFEBFD"/>
<path d="M134.693 95.6205C143.702 82.6236 166.374 95.748 166.374 95.748C166.374 95.748 173.904 126.777 178.484 129.081C183.064 131.385 177.227 101.296 177.227 101.296C186.834 103.7 206.456 123.504 206.456 123.504C206.456 123.504 194.515 152.334 199.523 153.439C204.531 154.544 208.793 127.372 208.793 127.372C216.823 133.266 221.484 146.735 221.484 146.735C225.898 167.542 198.95 172.136 198.95 172.136C198.95 172.136 195.028 182.216 197.164 196.139C197.164 196.139 197.818 198.801 197.957 202.982L195.506 202.111C195.54 201.383 195.545 200.669 195.517 199.972C195.519 199.967 195.519 199.964 195.517 199.959C195.517 199.949 195.516 199.94 195.516 199.928C195.482 199.489 195.433 198.865 195.366 198.102C195.366 198.1 195.366 198.1 195.366 198.099C195.366 198.097 195.364 198.097 195.366 198.096C195.138 196.364 195.017 195.101 194.975 194.206C194.975 194.203 194.975 194.199 194.975 194.198C194.369 188.8 193.268 181.656 191.56 179.633C191.56 179.633 191.966 179.347 192.484 178.695C192.189 178.994 191.882 179.307 191.56 179.633C184.169 187.13 162.662 181.17 151.83 174.617C140.997 168.065 147.263 166.579 155.457 163.469C163.651 160.358 176.333 166.455 180.973 165.744C185.615 165.03 180.667 160.91 172.665 158.739C164.661 156.567 157.996 162.972 144.986 159.697C131.977 156.42 130.805 129.341 130.805 129.341C138.535 135.128 155.82 135.873 157.485 133.09C159.15 130.307 135.973 122.402 132.696 120.225C129.418 118.046 125.683 108.617 134.693 95.6205Z" fill="#CDE0FB"/>
<path d="M298.738 115.009C298.708 114.938 298.672 114.862 298.63 114.783C298.488 114.228 297.243 111.287 297.106 110.966C296.715 110.05 296.075 110.537 296.075 111.221C296.075 111.432 296.165 112.943 296.112 113.16C295.055 112.383 294.403 111.573 291.679 110.802C291.679 110.802 289.599 110.118 290.599 112.213C291.267 113.614 292.064 113.79 293.037 115.748C294.011 117.707 295.81 119.054 297.419 118.931L299.147 119.515L300.894 116.932L299.771 116.239C299.303 115.95 298.953 115.514 298.738 115.009Z" fill="#FFB27D"/>
<path d="M296.075 55.8577H193.733V203.128H296.075V55.8577Z" fill="white"/>
<path d="M266.626 69.1201H219.978V71.5417H266.626V69.1201Z" fill="#F99746"/>
<path d="M237.273 74.7407H213.949V77.1623H237.273V74.7407Z" fill="#F99746"/>
<path d="M274.32 74.7407H240.086V77.1623H274.32V74.7407Z" fill="#F99746"/>
<path d="M266.787 129.297H216.459V131.141H266.787V129.297Z" fill="#AEC3FF"/>
<path d="M278.635 124.377H242.999V126.221H278.635V124.377Z" fill="#AEC3FF"/>
<path d="M239.326 124.377H204.611V126.221H239.326V124.377Z" fill="#AEC3FF"/>
<path d="M275.145 119.455H244.487V121.299H275.145V119.455Z" fill="#AEC3FF"/>
<path d="M238.758 119.455H208.1V121.299H238.758V119.455Z" fill="#AEC3FF"/>
<path d="M249.835 147.485H235.036C234.365 147.485 233.814 146.934 233.814 146.263C233.814 145.592 234.365 145.042 235.036 145.042H249.835C250.506 145.042 251.056 145.592 251.056 146.263C251.054 146.934 250.506 147.485 249.835 147.485Z" fill="#A8C3F7"/>
<path d="M270.479 147.485H255.68C255.009 147.485 254.458 146.934 254.458 146.263C254.458 145.592 255.009 145.042 255.68 145.042H270.479C271.15 145.042 271.7 145.592 271.7 146.263C271.7 146.934 271.15 147.485 270.479 147.485Z" fill="#A8C3F7"/>
<path d="M252.403 179.905C245.051 179.905 239.071 173.925 239.071 166.573C239.071 159.221 245.051 153.24 252.403 153.24C259.755 153.24 265.736 159.221 265.736 166.573C265.734 173.925 259.754 179.905 252.403 179.905ZM252.403 153.915C245.422 153.915 239.744 159.593 239.744 166.574C239.744 173.555 245.422 179.234 252.403 179.234C259.384 179.234 265.063 173.555 265.063 166.574C265.063 159.593 259.384 153.915 252.403 153.915Z" fill="#A8C3F7"/>
<path d="M252.404 177.317C246.48 177.317 241.661 172.498 241.661 166.574C241.661 160.65 246.48 155.831 252.404 155.831C258.328 155.831 263.147 160.65 263.147 166.574C263.147 172.498 258.327 177.317 252.404 177.317ZM252.404 156.505C246.851 156.505 242.334 161.022 242.334 166.575C242.334 172.128 246.851 176.646 252.404 176.646C257.957 176.646 262.475 172.128 262.475 166.575C262.475 161.022 257.957 156.505 252.404 156.505Z" fill="#A8C3F7"/>
<path d="M252.545 170.79C251.15 171.241 249.788 171.479 248.718 171.388C247.087 171.253 246.168 170.398 246.132 168.981C246.103 167.857 246.569 166.873 247.484 166.076C247.476 165.998 247.468 165.922 247.462 165.845C247.402 165.053 247.571 164.525 247.965 164.28C248.602 163.883 249.549 164.427 249.588 164.449L249.377 164.811C249.165 164.687 248.534 164.416 248.186 164.635C247.886 164.824 247.849 165.342 247.876 165.763C248.62 165.224 249.593 164.785 250.777 164.464C251.653 164.227 252.629 164.069 253.51 163.998C253.515 163.899 253.523 163.811 253.534 163.738C253.563 163.543 253.631 163.315 253.821 163.27C253.894 163.254 254.034 163.256 254.16 163.446C254.241 163.569 254.281 163.744 254.289 163.956C254.592 163.949 254.875 163.954 255.125 163.972C255.126 163.967 255.13 163.961 255.131 163.956C255.07 163.459 255.114 162.875 255.196 162.496C255.302 162.01 255.477 161.765 255.72 161.741C255.867 161.728 255.994 161.807 256.052 161.946C256.19 162.275 255.933 163.164 255.562 164.015C255.562 164.017 255.562 164.019 255.564 164.02C255.91 164.078 256.148 164.175 256.222 164.309C256.278 164.411 256.285 164.566 256.138 164.703C255.857 164.961 255.633 164.896 255.525 164.835C255.433 164.782 255.359 164.693 255.301 164.578C255.02 165.133 254.715 165.608 254.475 165.808C254.254 165.993 254.06 165.919 253.987 165.879C253.95 165.858 253.915 165.829 253.881 165.795C253.786 166.027 253.678 166.251 253.561 166.455C253.123 167.224 252.629 167.62 252.134 167.597C251.93 167.587 251.751 167.507 251.6 167.36C251.325 167.954 250.98 168.518 250.638 168.941C250.29 169.37 249.846 169.528 249.386 169.385C248.573 169.131 247.837 167.955 247.563 166.561C246.868 167.24 246.531 168.046 246.553 168.968C246.584 170.177 247.326 170.849 248.755 170.969C252.366 171.269 258.697 167.913 259.176 165.443C258.782 167.453 255.778 169.741 252.545 170.79ZM247.926 166.242C248.146 167.712 248.881 168.792 249.507 168.988C249.801 169.08 250.07 168.975 250.309 168.68C250.716 168.178 251.067 167.558 251.319 166.955C251.246 166.798 251.188 166.616 251.145 166.408C251.043 165.924 251.027 165.258 251.146 164.803C250.472 164.969 249.796 165.195 249.17 165.49C248.689 165.716 248.275 165.968 247.926 166.242ZM251.78 166.929C251.871 167.066 251.99 167.173 252.15 167.181C252.468 167.194 252.848 166.856 253.195 166.25C253.376 165.934 253.52 165.596 253.628 165.274C253.558 165.011 253.521 164.704 253.51 164.422C253.045 164.459 252.539 164.522 252.018 164.617C252.289 165.145 252.13 166.039 251.78 166.929ZM254.063 165.28C254.129 165.477 254.187 165.516 254.187 165.516C254.421 165.314 254.689 164.879 254.933 164.382C254.734 164.374 254.51 164.374 254.265 164.38C254.233 164.661 254.162 164.969 254.063 165.28ZM251.605 164.741C251.498 164.964 251.421 165.676 251.551 166.308C251.761 165.614 251.805 165.014 251.605 164.741ZM255.73 164.475C255.731 164.477 255.731 164.475 255.731 164.475C255.731 164.475 255.731 164.475 255.73 164.475ZM255.668 162.325C255.631 162.433 255.596 162.584 255.568 162.763C255.618 162.591 255.652 162.439 255.668 162.325Z" fill="#A8C3F7"/>
<path d="M269.718 106.896H213.522V108.74H269.718V106.896Z" fill="#AEC3FF"/>
<path d="M282.948 101.976H243.155V103.82H282.948V101.976Z" fill="#AEC3FF"/>
<path d="M239.056 101.976H200.292V103.82H239.056V101.976Z" fill="#AEC3FF"/>
<path d="M279.053 97.0542H244.82V98.8982H279.053V97.0542Z" fill="#AEC3FF"/>
<path d="M238.423 97.0542H204.19V98.8982H238.423V97.0542Z" fill="#AEC3FF"/>
<path d="M340.539 110.405C340.539 110.405 349.143 143.365 322.984 137.887C315.921 136.407 297.106 117.657 297.106 117.657C297.106 117.657 298.917 114.8 301.146 115.103C301.146 115.103 319.324 121.014 322.231 123.154C323.841 124.34 325.68 105.665 331.248 105.932C336.815 106.198 340.539 110.405 340.539 110.405Z" fill="#91CECF"/>
<path d="M352.327 249.777C352.327 249.777 351.847 257.529 350.346 257.64C350.146 257.655 342.739 257.655 342.739 257.655L333.284 257.6C333.284 257.6 333.345 255.322 336.11 254.84C338.874 254.357 343.501 252.415 345.175 248.762C346.936 244.919 352.327 249.777 352.327 249.777Z" fill="#163560"/>
<path d="M352.872 250.316C352.872 250.316 349.997 251.278 347.753 251.278C345.249 251.278 342.975 250.595 342.975 250.595C342.975 250.595 342.434 245.361 339.456 233.829C337.894 227.786 335.665 220.015 332.493 210.357C323.721 183.67 321.054 168.056 320.811 166.578C320.798 166.501 320.793 166.462 320.793 166.462L320.822 166.449L347.787 154.609C347.787 154.609 344.454 191.391 348.707 205.509C349.302 207.482 349.812 209.781 350.251 212.274C352.934 227.61 352.872 250.316 352.872 250.316Z" fill="#2B478B"/>
<path d="M350.249 212.274L339.456 233.829C337.895 227.786 335.665 220.015 332.493 210.357C323.721 183.67 321.055 168.056 320.811 166.578C320.814 166.535 320.816 166.493 320.821 166.449L347.786 154.609C347.786 154.609 344.453 191.391 348.705 205.509C349.301 207.484 349.812 209.783 350.249 212.274Z" fill="#233862"/>
<path d="M331.265 249.777C331.265 249.777 330.785 257.529 329.284 257.64C329.084 257.655 321.677 257.655 321.677 257.655L312.222 257.6C312.222 257.6 312.283 255.322 315.048 254.84C317.812 254.357 322.439 252.415 324.113 248.762C325.875 244.919 331.265 249.777 331.265 249.777Z" fill="#163560"/>
<path d="M315.978 155.476C315.978 155.476 315.627 179.312 319.751 208.577C323.875 237.843 322.478 250.265 322.478 250.265C322.478 250.265 325.311 251.183 326.455 251.277C329.368 251.514 332.354 250.595 332.354 250.595C332.354 250.595 338.258 221.318 336.565 206.67C334.873 192.023 344.648 156.406 344.648 156.406L315.978 155.476Z" fill="#2B478B"/>
<path d="M335.618 98.7572L330.89 102.91L323.16 102.57C323.178 101.947 323.32 99.3574 323.451 97.0116C323.459 96.8729 323.467 96.7341 323.475 96.6002C323.589 94.6029 323.688 92.888 323.688 92.888L330.283 88.7917L332.742 87.2639C332.74 87.3059 332.843 89.4484 332.859 89.7597C333.142 95.3096 335.618 98.7572 335.618 98.7572Z" fill="#FFB27D"/>
<path d="M314.406 156.508C314.515 169.088 315.353 198.52 315.971 199.119C322.525 205.445 351.347 197.384 352.875 190.416C354.401 183.449 347.067 101.066 335.875 97.7762C333.553 97.0954 321.136 101.109 321.136 101.109C321.136 101.109 319.188 106.204 317.911 112.695C317.438 115.1 315.892 132.258 314.99 143.725C314.753 146.783 314.558 149.433 314.444 151.292C314.395 152.058 314.385 153.931 314.406 156.508Z" fill="#ABDDDA"/>
<path d="M332.345 89.9307C331.17 92.7653 325.734 95.8403 323.451 97.0115C323.459 96.8728 323.467 96.7341 323.475 96.6002C323.589 94.6029 323.688 92.8879 323.688 92.8879L330.283 88.7917C331.835 88.5497 332.831 88.7642 332.345 89.9307Z" fill="#FCA56B"/>
<path d="M321.248 93.1652C321.248 93.1652 333.183 94.2752 333.759 86.8313C334.335 79.3891 336.265 74.5185 328.669 73.4956C321.074 72.4728 319.372 75.1977 318.575 77.6354C317.778 80.0747 318.159 92.6861 321.248 93.1652Z" fill="#FFB27D"/>
<path d="M318.871 76.8691C318.871 76.8691 321.318 84.8664 322.928 84.1549C324.538 83.4418 326.011 82.8545 326.287 85.3633C326.563 87.872 324.83 91.2067 330.115 90.5356C335.402 89.8644 340.018 74.8815 338.051 72.6487C332.379 66.2067 311.022 69.2074 318.871 76.8691Z" fill="#163560"/>
<path d="M324.178 97.9567C324.326 97.8938 332.696 94.1396 333.676 94.4623C334.655 94.785 335.875 97.7761 335.875 97.7761L321.135 101.108C321.135 101.108 322.295 98.7489 324.178 97.9567Z" fill="#91CECF"/>
<path d="M314.406 165.52C336.833 149.302 338.577 123.597 338.577 123.597C327.906 129.617 317.775 139.568 314.487 150.504C314.25 153.562 314.558 158.444 314.443 160.302C314.395 161.072 314.385 162.943 314.406 165.52Z" fill="#91CECF"/>
<path d="M300.325 157.222C300.325 157.222 300.044 156.998 299.415 156.946C298.873 156.764 297.362 156.099 297.103 155.864C296.284 155.12 295.997 155.912 296.568 156.703C296.692 156.874 297.136 157.166 297.291 157.329C296.063 157.793 294.424 158.748 292.296 160.618C292.296 160.618 290.592 161.993 292.894 162.291C294.433 162.491 295.013 161.918 297.187 162.165C299.36 162.414 301.469 161.635 302.24 160.216L303.67 159.084L302.452 156.214L300.325 157.222Z" fill="#FFB27D"/>
<path d="M329.052 101.703C329.052 101.703 352.673 100.569 331.312 140.31C327.895 146.666 303.486 160.476 303.486 160.476C303.486 160.476 301.191 157.992 302.058 155.916C302.058 155.916 317.954 137.825 320.083 137.09C321.973 136.436 321.582 114.411 323.273 109.098C324.964 103.786 329.052 101.703 329.052 101.703Z" fill="#ABDDDA"/>
<path opacity="0.5" d="M301.104 257.238L283.98 257.233L274.923 257.23C271.408 257.229 268.533 254.352 268.534 250.835L268.554 187.562C268.554 184.047 271.43 181.17 274.946 181.173L282.978 181.177L301.127 181.181C304.642 181.181 307.517 184.058 307.515 187.575L307.498 250.848C307.496 254.363 304.621 257.238 301.104 257.238Z" fill="#C0D8FB"/>
<path d="M304.736 239.3L304.281 235.97L303.826 232.638C303.71 231.79 303.256 231.064 302.619 230.58C301.982 230.096 301.162 229.854 300.312 229.968C300.219 229.981 300.127 229.999 300.036 230.02C300.348 229.57 300.525 229.062 300.573 228.545C301.151 229.931 302.671 230.743 304.176 230.381C305.846 229.981 306.885 228.29 306.485 226.621L305.702 223.352L304.92 220.082C304.72 219.248 304.197 218.57 303.515 218.152C302.834 217.734 301.993 217.573 301.159 217.773C299.489 218.173 298.452 219.866 298.85 221.534L300.03 226.459C299.851 226.203 299.631 225.969 299.37 225.769C298.833 225.357 298.2 225.151 297.568 225.133C297.878 224.733 298.081 224.268 298.171 223.781C298.287 223.146 298.207 222.474 297.915 221.868C298.268 220.7 297.915 219.375 296.919 218.552L291.737 214.269C290.414 213.175 288.438 213.362 287.344 214.687C286.333 215.911 286.42 217.692 287.485 218.817C287.21 218.815 286.931 218.848 286.654 218.923L283.411 219.811L280.17 220.698C279.042 221.006 278.227 221.906 277.964 222.971L277.624 222.157L276.328 219.056C275.667 217.471 273.831 216.718 272.247 217.379C270.662 218.041 269.909 219.877 270.57 221.461L271.866 224.562L272.697 226.55C271.597 226.988 270.79 228.035 270.725 229.291L270.556 232.648L270.387 236.005C270.343 236.862 270.654 237.659 271.192 238.253C271.727 238.846 272.489 239.237 273.345 239.28C273.712 239.298 274.065 239.25 274.399 239.148C274.076 239.797 273.986 240.545 274.15 241.257C273.575 241.589 273.1 242.102 272.828 242.759L271.543 245.864L270.259 248.972C269.932 249.764 269.959 250.619 270.266 251.358C270.572 252.097 271.158 252.719 271.952 253.047C273.189 253.558 274.575 253.205 275.436 252.272C275.64 252.753 275.964 253.189 276.406 253.528C277.769 254.571 279.737 254.31 280.78 252.947L282.822 250.278L284.866 247.608C285.144 247.245 285.326 246.84 285.423 246.419C286.133 246.49 286.872 246.322 287.502 245.889L288.038 245.519L287.297 246.487L285.255 249.155C284.211 250.519 284.472 252.487 285.836 253.529C287.199 254.573 289.167 254.312 290.209 252.948L292.252 250.28L294.296 247.61C294.322 247.576 294.344 247.539 294.369 247.503C294.533 247.77 294.736 248.005 294.967 248.207L294.24 249.157C293.196 250.52 293.457 252.489 294.82 253.531C296.184 254.575 298.152 254.313 299.194 252.95L303.281 247.612C303.802 246.931 303.997 246.098 303.892 245.304C303.787 244.512 303.382 243.759 302.7 243.238C302.467 243.059 302.216 242.922 301.954 242.818C301.993 242.815 302.03 242.814 302.067 242.809C303.766 242.581 304.968 241.002 304.736 239.3ZM276.617 236.323L276.675 235.178C276.872 235.51 277.132 235.812 277.458 236.06C277.579 236.154 277.708 236.233 277.839 236.305L276.409 237.291C276.525 236.988 276.599 236.664 276.617 236.323ZM297.644 233.482L298.255 237.961C297.991 237.423 297.581 236.98 297.085 236.676C296.482 236.305 295.754 236.139 295.016 236.244C295.335 236.049 295.625 235.797 295.866 235.484L297.619 233.193C297.623 233.288 297.631 233.385 297.644 233.482ZM290.547 221.384L291.332 222.034L290.522 222.592C290.608 222.202 290.621 221.794 290.547 221.384ZM291.224 231.278C291.144 230.793 290.952 230.341 290.671 229.954C290.903 229.867 291.129 229.754 291.342 229.607L293.801 227.911L291.224 231.278ZM293.265 237.117C292.607 236.567 291.75 236.315 290.913 236.407L290.979 235.566C291.127 235.747 291.297 235.917 291.49 236.063C292.181 236.593 293.028 236.785 293.83 236.67C293.623 236.797 293.435 236.949 293.265 237.117ZM286.98 225.307C286.294 226.34 286.26 227.731 287.004 228.81C287.017 228.829 287.033 228.847 287.047 228.866C286.82 228.953 286.605 229.063 286.405 229.199C286.547 228.755 286.589 228.287 286.528 227.834C286.423 227.042 286.016 226.288 285.336 225.767C285.332 225.766 285.329 225.762 285.326 225.761L286.98 225.307ZM283.874 232.811L285.077 231.238C285.06 231.335 285.047 231.433 285.039 231.533L284.811 234.419C284.361 234.011 283.808 233.753 283.227 233.656L283.874 232.811ZM278.24 245.998L278.594 245.143C278.852 244.519 278.887 243.859 278.744 243.246C278.815 243.204 278.886 243.164 278.955 243.115L284.49 239.298C284.526 239.274 284.558 239.245 284.592 239.221C284.666 239.524 284.785 239.811 284.944 240.074L283.958 240.753C283.295 241.21 282.867 241.884 282.698 242.615C281.657 242.513 280.589 242.931 279.91 243.817L278.24 245.998ZM292.921 242.152L293.094 242.873C292.817 242.749 292.525 242.667 292.229 242.628L292.921 242.152ZM299.512 242.881L299.271 241.876L299.226 241.684C299.565 242.099 300.004 242.423 300.501 242.62C300.16 242.654 299.826 242.739 299.512 242.881ZM280.612 226.805L278.918 229.016L276.875 231.685C276.866 231.698 276.859 231.711 276.85 231.722L276.956 229.605C276.959 229.55 276.956 229.497 276.956 229.444C277.053 229.415 277.148 229.381 277.242 229.341C278.513 228.81 279.247 227.522 279.147 226.217C279.576 226.533 280.079 226.738 280.612 226.805Z" fill="#AFCDFB"/>
<path opacity="0.5" d="M283.98 257.233L274.923 257.23C271.408 257.229 268.533 254.352 268.534 250.835L268.554 187.562C268.554 184.047 271.43 181.17 274.946 181.173L282.978 181.177C283.641 182.314 284.027 183.672 284.027 185.129L284.006 256.596C284.006 256.811 283.998 257.024 283.98 257.233Z" fill="#AFCDFB"/>
<path d="M307.096 184.163L282.777 184.155L268.975 184.15C268.291 184.152 267.732 183.592 267.732 182.906L267.734 176.948C267.734 176.266 268.294 175.706 268.978 175.706L282.761 175.709C282.762 175.709 282.762 175.709 282.764 175.709L307.099 175.715C307.782 175.715 308.341 176.274 308.341 176.959L308.34 182.917C308.34 183.605 307.782 184.164 307.096 184.163Z" fill="#F99746"/>
<path d="M282.777 184.156L268.975 184.151C268.291 184.153 267.732 183.593 267.732 182.908L267.734 176.95C267.734 176.267 268.294 175.707 268.978 175.707L282.761 175.711C282.762 175.711 282.762 175.711 282.764 175.711C283.445 175.712 284.003 176.27 284.003 176.954L284.001 182.912C284 183.592 283.453 184.147 282.777 184.156Z" fill="#EF7E29"/>
<path d="M396.67 253.449C396.67 254.601 396.199 255.648 395.438 256.41C394.676 257.171 393.631 257.642 392.477 257.642H372.685C370.379 257.642 368.495 255.755 368.495 253.451C368.495 252.299 368.966 251.252 369.726 250.49C370.486 249.732 371.533 249.26 372.687 249.26H392.479C394.784 249.258 396.67 251.144 396.67 253.449Z" fill="#EF7E29"/>
<path d="M386.459 253.449C386.459 254.601 385.988 255.648 385.228 256.41C384.469 257.17 383.422 257.642 382.268 257.642H372.685C370.379 257.642 368.495 255.755 368.495 253.451C368.495 252.299 368.966 251.252 369.726 250.49C370.486 249.732 371.533 249.26 372.687 249.26H382.27C384.575 249.258 386.459 251.144 386.459 253.449Z" fill="#F99746"/>
<path opacity="0.5" d="M392.815 251.51H373.935C373.61 251.51 373.342 251.242 373.342 250.916V250.782C373.342 250.455 373.61 250.188 373.935 250.188H392.815C393.142 250.188 393.408 250.456 393.408 250.782V250.916C393.408 251.242 393.14 251.51 392.815 251.51Z" fill="#FFE2CC"/>
<path d="M216.061 143.538V202.554C216.061 206.175 213.099 209.139 209.476 209.139H174.397C173.458 209.139 172.564 208.941 171.754 208.581C169.439 207.558 167.812 205.237 167.812 202.554V143.538C167.812 139.915 170.775 136.953 174.397 136.953H209.476C213.099 136.954 216.061 139.916 216.061 143.538Z" fill="#FCECDB"/>
<path d="M200.522 159.147C196.814 157.755 194.94 153.621 196.33 149.917C197.721 146.211 201.853 144.333 205.56 145.726C209.266 147.118 211.142 151.251 209.751 154.956C208.361 158.661 204.227 160.538 200.522 159.147Z" fill="#F7E0CB"/>
<path d="M209.753 154.956L196.332 149.916C197.723 146.21 201.854 144.332 205.562 145.724C209.268 147.117 211.144 151.25 209.753 154.956Z" fill="#EFCBAB"/>
<path d="M176.298 157.989C173.229 155.485 172.774 150.969 175.278 147.902C177.782 144.835 182.296 144.379 185.364 146.883C188.431 149.387 188.888 153.902 186.384 156.969C183.88 160.036 179.364 160.491 176.298 157.989Z" fill="#F7E0CB"/>
<path d="M186.384 156.969L175.278 147.902C177.782 144.835 182.296 144.379 185.365 146.883C188.432 149.387 188.888 153.902 186.384 156.969Z" fill="#EFCBAB"/>
<path d="M200.522 202.873C196.814 201.481 194.94 197.347 196.33 193.643C197.721 189.939 201.853 188.06 205.56 189.452C209.266 190.843 211.142 194.976 209.751 198.682C208.361 202.389 204.227 204.265 200.522 202.873Z" fill="#F7E0CB"/>
<path d="M209.753 199.171L196.332 194.131C197.723 190.425 201.854 188.547 205.562 189.939C209.268 191.332 211.144 195.465 209.753 199.171Z" fill="#EFCBAB"/>
<path d="M176.298 201.716C173.229 199.212 172.774 194.697 175.278 191.63C177.782 188.563 182.296 188.106 185.364 190.61C188.431 193.114 188.888 197.63 186.384 200.697C183.88 203.764 179.364 204.219 176.298 201.716Z" fill="#F7E0CB"/>
<path d="M186.384 201.182L175.278 192.115C177.782 189.048 182.296 188.592 185.365 191.096C188.432 193.599 188.888 198.117 186.384 201.182Z" fill="#EFCBAB"/>
<path d="M206.113 181.59C202.534 183.285 198.261 181.759 196.565 178.182C194.87 174.606 196.394 170.33 199.972 168.635C203.549 166.939 207.825 168.465 209.52 172.042C211.216 175.62 209.69 179.896 206.113 181.59Z" fill="#F7E0CB"/>
<path d="M209.52 172.044L196.565 178.184C194.87 174.607 196.394 170.332 199.972 168.636C203.551 166.941 207.826 168.465 209.52 172.044Z" fill="#EFCBAB"/>
<path d="M174.176 172.449C175.647 168.772 179.819 166.986 183.494 168.457C187.169 169.929 188.957 174.099 187.486 177.776C186.014 181.451 181.842 183.239 178.167 181.767C174.492 180.298 172.706 176.124 174.176 172.449Z" fill="#F7E0CB"/>
<path d="M178.167 181.768L183.494 168.458C187.169 169.929 188.957 174.1 187.486 177.776C186.016 181.451 181.842 183.239 178.167 181.768Z" fill="#EFCBAB"/>
<path opacity="0.5" d="M216.06 151.617V202.972C216.06 206.365 213.349 209.141 210.034 209.141H177.935C177.077 209.141 176.259 208.956 175.517 208.619V158.725C175.517 156.684 176.369 154.838 177.726 153.538C178.227 153.057 178.799 152.651 179.421 152.338C180.341 151.876 181.372 151.615 182.461 151.615H216.06V151.617Z" fill="#EFCBAB"/>
<path d="M176.66 217.55V158.533C176.66 154.911 179.623 151.948 183.245 151.948H218.324C221.946 151.948 224.909 154.911 224.909 158.533V217.55C224.909 221.172 221.946 224.136 218.324 224.136H183.245C179.623 224.134 176.66 221.172 176.66 217.55Z" fill="#FCECDB"/>
<path d="M209.37 174.14C205.662 172.748 203.788 168.615 205.178 164.911C206.569 161.206 210.701 159.327 214.408 160.719C218.114 162.111 219.99 166.245 218.6 169.949C217.209 173.656 213.076 175.533 209.37 174.14Z" fill="#F7E0CB"/>
<path d="M218.601 169.951L205.18 164.911C206.571 161.205 210.703 159.327 214.41 160.719C218.116 162.112 219.992 166.245 218.601 169.951Z" fill="#EFCBAB"/>
<path d="M185.146 172.984C182.077 170.48 181.622 165.964 184.126 162.897C186.63 159.83 191.144 159.374 194.213 161.878C197.28 164.382 197.736 168.897 195.232 171.964C192.728 175.031 188.213 175.486 185.146 172.984Z" fill="#F7E0CB"/>
<path d="M195.233 171.964L184.126 162.897C186.63 159.83 191.144 159.374 194.213 161.878C197.278 164.38 197.736 168.897 195.233 171.964Z" fill="#EFCBAB"/>
<path d="M209.37 217.868C205.662 216.476 203.788 212.344 205.178 208.639C206.569 204.933 210.701 203.055 214.408 204.447C218.114 205.838 219.99 209.973 218.6 213.677C217.209 217.383 213.076 219.261 209.37 217.868Z" fill="#F7E0CB"/>
<path d="M218.601 214.164L205.18 209.124C206.571 205.418 210.703 203.54 214.41 204.932C218.116 206.326 219.992 210.459 218.601 214.164Z" fill="#EFCBAB"/>
<path d="M196.211 214.091C197.83 210.479 196.214 206.238 192.601 204.619C188.989 203 184.748 204.616 183.129 208.228C181.51 211.84 183.126 216.081 186.738 217.701C190.35 219.32 194.591 217.704 196.211 214.091Z" fill="#F7E0CB"/>
<path d="M195.233 216.177L184.126 207.11C186.63 204.043 191.144 203.587 194.213 206.091C197.278 208.595 197.736 213.112 195.233 216.177Z" fill="#EFCBAB"/>
<path d="M214.959 196.585C211.381 198.281 207.107 196.754 205.412 193.178C203.716 189.601 205.241 185.326 208.819 183.63C212.396 181.934 216.671 183.461 218.367 187.037C220.062 190.616 218.536 194.891 214.959 196.585Z" fill="#F7E0CB"/>
<path d="M218.367 187.037L205.412 193.178C203.716 189.601 205.241 185.326 208.819 183.63C212.396 181.936 216.671 183.461 218.367 187.037Z" fill="#EFCBAB"/>
<path d="M183.025 187.444C184.496 183.767 188.668 181.981 192.343 183.452C196.018 184.924 197.806 189.094 196.334 192.771C194.863 196.446 190.691 198.234 187.016 196.762C183.341 195.293 181.553 191.119 183.025 187.444Z" fill="#F7E0CB"/>
<path d="M187.015 196.763L192.342 183.453C196.017 184.924 197.805 189.095 196.334 192.771C194.862 196.447 190.69 198.234 187.015 196.763Z" fill="#EFCBAB"/>
<path d="M219.481 175.488H164.387V257.708H219.481V175.488Z" fill="#EF7E29"/>
<path d="M227.155 175.486H172.062V257.708H227.155V175.486Z" fill="#F99746"/>
<path d="M172.062 180.258L169.421 184.364H164.387V175.488H172.062V180.258Z" fill="#D8661A"/>
<path d="M167.356 181.964H159.681L164.387 175.488H172.062L167.356 181.964Z" fill="#F99746"/>
<path opacity="0.5" d="M200.477 257.971H172.062V179.234L200.477 181.964V257.971Z" fill="#EFCBAB"/>
<path d="M227.155 181.964L222.684 184.364H174.717L172.062 180.259V175.486L227.155 181.964Z" fill="#EF7E29"/>
<path d="M231.046 181.964H175.953L172.062 175.488H227.155L231.046 181.964Z" fill="#F99746"/>
<path d="M110.06 154.351C108.601 149.669 102.261 148.791 99.7089 152.979C99.2507 153.733 98.9603 154.598 98.9345 155.59C98.7941 161.08 109.621 182.331 111.059 184.21C113.675 187.632 129.468 195.861 129.468 195.861L132.824 195.373C132.824 195.373 130.927 194.18 128.962 192.219C124.904 188.168 118.988 181.582 117.906 180.669C116.045 179.102 112.83 163.24 110.06 154.351Z" fill="#ED985F"/>
<path d="M203.976 257.516H131.927C127.466 257.516 123.817 253.867 123.817 249.406V205.783C123.817 201.322 127.466 197.673 131.927 197.673H203.976C208.437 197.673 212.087 201.322 212.087 205.783V249.406C212.087 253.867 208.437 257.516 203.976 257.516Z" fill="#FCECDB"/>
<path d="M150.955 216.947C149.253 221.545 144.198 223.872 139.668 222.146C135.136 220.419 132.84 215.295 134.544 210.697C136.246 206.101 141.299 203.773 145.831 205.499C150.361 207.224 152.657 212.351 150.955 216.947Z" fill="#F7E0CB"/>
<path d="M145.831 205.498L139.668 222.144C135.136 220.418 132.84 215.294 134.544 210.696C136.245 206.1 141.299 203.773 145.831 205.498Z" fill="#EFCBAB"/>
<path d="M149.54 246.992C146.478 250.796 140.957 251.361 137.208 248.257C133.458 245.153 132.898 239.553 135.96 235.747C139.021 231.945 144.543 231.378 148.293 234.482C152.042 237.586 152.6 243.188 149.54 246.992Z" fill="#F7E0CB"/>
<path d="M148.293 234.482L137.206 248.257C133.457 245.153 132.897 239.553 135.959 235.747C139.019 231.943 144.543 231.377 148.293 234.482Z" fill="#EFCBAB"/>
<path d="M204.425 216.947C202.722 221.545 197.67 223.872 193.138 222.146C188.606 220.419 186.31 215.295 188.014 210.697C189.716 206.101 194.769 203.773 199.301 205.499C203.831 207.224 206.125 212.351 204.425 216.947Z" fill="#F7E0CB"/>
<path d="M199.301 205.498L193.138 222.144C188.606 220.418 186.31 215.294 188.014 210.696C189.716 206.1 194.77 203.773 199.301 205.498Z" fill="#EFCBAB"/>
<path d="M203.008 246.991C200.051 250.666 194.802 251.318 191.068 248.559C190.934 248.465 190.805 248.362 190.676 248.255C186.927 245.151 186.367 239.552 189.429 235.746C192.49 231.942 198.012 231.375 201.761 234.481C201.889 234.587 202.013 234.694 202.134 234.807C205.546 237.966 205.964 243.317 203.008 246.991Z" fill="#F7E0CB"/>
<path d="M202.134 234.808L191.068 248.559C190.934 248.465 190.805 248.362 190.676 248.255C186.927 245.151 186.367 239.552 189.429 235.746C192.49 231.942 198.012 231.375 201.761 234.481C201.889 234.589 202.013 234.696 202.134 234.808Z" fill="#EFCBAB"/>
<path d="M178.401 210.013C180.474 214.451 178.607 219.752 174.234 221.855C169.86 223.957 164.633 222.068 162.56 217.628C160.487 213.191 162.353 207.888 166.727 205.786C171.099 203.684 176.328 205.576 178.401 210.013Z" fill="#F7E0CB"/>
<path d="M166.726 205.788L174.234 221.856C169.86 223.958 164.633 222.069 162.56 217.629C160.487 213.193 162.352 207.89 166.726 205.788Z" fill="#EFCBAB"/>
<path d="M167.221 249.624C162.725 247.799 160.542 242.624 162.341 238.066C164.14 233.508 169.24 231.29 173.736 233.116C178.229 234.941 180.415 240.117 178.616 244.674C176.818 249.23 171.715 251.447 167.221 249.624Z" fill="#F7E0CB"/>
<path d="M178.617 244.673L162.341 238.066C164.14 233.508 169.24 231.29 173.736 233.116C178.229 234.94 180.415 240.115 178.617 244.673Z" fill="#EFCBAB"/>
<path d="M114.645 127.491C114.732 127.139 106.984 130.993 106.592 131.429C102.958 135.461 103.994 140.72 106.074 140.77C107.408 140.802 107.148 143.019 107.148 143.019L122.005 136.734C122.004 136.735 120.216 126.304 114.645 127.491Z" fill="#B5453C"/>
<path d="M116.473 128.304C116.473 128.304 117.004 122.517 110.538 122.517C110.538 122.517 112.498 123.048 113.511 124.111C113.511 124.111 109.388 121.689 104.898 125.41C100.408 129.13 103.199 138.461 101.834 140.233C100.469 142.004 95.1532 142.359 95.8034 148.088C96.4536 153.817 112.672 160.991 111.632 165.731C111.632 165.731 117.988 156.387 113.443 152.123C113.443 152.123 115.659 154.209 115.884 156.69C115.884 156.69 116.486 151.847 113.405 150.298C110.678 148.927 108.444 143.914 108.679 143.019C108.915 142.124 116.473 128.304 116.473 128.304Z" fill="#B5453C"/>
<path d="M98.3108 253.447L95.0954 252.975C95.0954 252.975 84.2862 244.384 82.6761 228.355C82.5115 226.724 82.4776 225.067 82.5986 223.399C82.6132 223.207 82.5922 223.014 82.4857 222.852C82.4857 222.851 82.4841 222.851 82.4825 222.847C82.1356 222.317 81.2757 220.989 80.1093 219.098C78.9606 217.236 76.994 213.716 74.8289 209.767C70.9311 202.653 66.3928 194.146 64.836 191.438C59.8766 182.802 62.2676 176.995 62.2676 176.995C62.2676 176.995 76.1034 175.627 79.8947 172.31L81.2596 174.415C81.2596 174.415 84.2571 187.687 84.1152 187.748C84.262 188.2 84.412 188.658 84.5653 189.126C86.9304 196.428 89.6521 205.554 91.1364 212.987C91.9704 217.168 92.4125 220.813 92.1753 223.296C92.0947 224.148 92.1931 225.456 92.4206 227.073C93.7612 236.599 98.3108 253.447 98.3108 253.447Z" fill="#2B478B"/>
<path d="M105.054 257.515H91.6409C91.6409 257.515 91.3198 255.471 92.02 253.92C92.6911 252.433 93.6478 252.384 92.1426 250.052C92.9944 250.929 95.7355 251.292 97.6747 251.031C97.9118 251.416 99.2057 254.001 99.9995 254.57C100.876 255.201 104.785 254.977 105.054 257.515Z" fill="#233862"/>
<path d="M84.5684 189.127C83.3971 195.589 80.6286 206.343 74.8304 209.767C70.9326 202.653 66.3943 194.146 64.8374 191.438C59.8781 182.802 62.269 176.995 62.269 176.995C62.269 176.995 76.1049 175.627 79.8962 172.31L81.2611 174.415C81.2611 174.415 84.2586 187.687 84.1166 187.748C84.2651 188.201 84.4151 188.659 84.5684 189.127Z" fill="#233862"/>
<path d="M75.1607 177.994L75.2059 175.485C70.2078 176.116 57.9724 169.513 57.9724 169.513C57.9724 169.513 52.7436 172.991 52.0273 182.923C51.6772 187.771 49.4669 208.273 49.2233 214.395C49.1346 216.614 49.1039 218.198 49.0942 218.83C49.0958 218.834 49.0958 218.835 49.0942 218.837C49.091 219.03 49.0007 219.2 48.8813 219.353C47.8471 220.668 46.9501 222.06 46.1725 223.504C38.5463 237.695 42.5345 256.976 42.5345 256.976L44.3059 256.526C44.3059 256.526 50.7543 236.537 54.97 227.891C55.6847 226.424 56.3348 225.284 56.8785 224.624C58.4628 222.699 60.1342 219.431 61.7814 215.496C64.8951 208.058 67.9185 198.244 70.0739 190.646C70.2255 190.673 75.1607 177.994 75.1607 177.994Z" fill="#2B478B"/>
<path d="M104.411 161.251C96.2392 159.376 101.46 147.894 101.934 148.096C103.067 147.865 105.553 145.878 107.778 141.994L108.078 142.256L113.097 146.655C113.097 146.655 111.937 148.367 110.961 150.043C110.198 151.355 109.551 152.649 109.652 153.092C110.054 153.41 106.59 161.751 104.411 161.251Z" fill="#FFB27D"/>
<path d="M109.568 152.721C109.568 152.721 111.004 155.556 111.772 158.011C112.538 160.467 114.457 168.277 114.457 168.277C114.457 168.277 110.501 172.791 104.999 172.526C104.999 172.526 102.041 167.894 103.083 163.713C104.125 159.531 109.568 152.721 109.568 152.721Z" fill="#91CECF"/>
<path d="M113.095 146.657C113.095 146.657 111.935 148.366 110.959 150.045C107.838 148.122 107.835 144.258 108.076 142.258L113.095 146.657Z" fill="#ED985F"/>
<path d="M113.233 148.861C113.233 148.861 105.657 144.645 108.355 139.968C111.052 135.291 111.891 131.597 116.842 134.091C121.794 136.585 121.695 138.907 121.174 140.688C120.655 142.466 115.273 149.837 113.233 148.861Z" fill="#FFB27D"/>
<path d="M122.455 137.958C122.108 135.882 121.053 135.684 120.318 135.822C117.52 131.195 112.948 133.001 112.948 133.001C110.507 136.064 106.977 136.587 106.977 136.587C106.977 136.587 107.856 138.223 111.478 139.236C112.585 139.546 113.84 139.359 115.052 138.951C112.538 140.351 109.91 140.888 109.91 140.888C114.684 141.325 119.225 136.961 119.696 136.493C119.918 137.169 120.303 138.586 120.072 139.62C119.758 141.027 118.509 143.574 119.272 143.903C119.272 143.905 122.976 141.072 122.455 137.958Z" fill="#B5453C"/>
<path d="M53.202 257.515H39.7888C39.7888 257.515 39.4677 255.471 40.1679 253.92C40.8391 252.433 41.891 251.755 41.6393 249.955C42.4911 250.832 43.8802 251.815 45.8194 251.553C46.0566 251.939 47.3537 254.001 48.1474 254.57C49.0235 255.201 52.9309 254.977 53.202 257.515Z" fill="#233862"/>
<path d="M105.372 170.353C103.646 170.955 101.224 171.286 98.7462 171.555C95.2195 171.941 91.5766 172.202 89.6696 172.965C89.2969 173.114 88.2128 173.567 87.1254 174.354V174.356C87.1254 174.356 87.098 174.372 87.0512 174.412C86.6914 174.675 86.33 174.979 85.9993 175.321C85.4927 175.842 85.0523 176.45 84.7684 177.147C84.0682 178.875 84.9958 183.666 85.5879 186.286C85.8267 187.34 85.3298 188.429 84.3699 188.927C83.0292 189.621 81.7111 190.262 80.4156 190.847C80.3462 190.878 80.2801 190.907 80.2123 190.939C80.2252 190.673 80.2285 190.409 80.2285 190.15C80.2301 188.343 80.001 186.84 80.001 186.84C79.6832 188.665 78.4812 190.634 77.3616 192.149C59.3618 199.372 46.7843 196.233 46.9908 192.635C47.7006 180.141 56.1254 169.516 56.1254 169.516C71.8376 151.245 103.62 146.434 103.62 146.434C103.62 146.434 105.141 146.25 106.979 148.457C109.622 151.637 109.752 152.465 109.752 152.465C109.752 152.465 110.451 168.582 105.372 170.353Z" fill="#ABDDDA"/>
<path d="M98.7445 171.555C95.2178 171.941 91.5765 172.204 89.6679 172.964C88.8887 161.315 94.3853 152.553 94.3853 152.553C94.3853 152.553 97.9717 167.146 98.7445 171.555Z" fill="#91CECF"/>
<path d="M102.448 150.3C102.448 150.3 93.609 151.172 92.9007 156.917C92.1925 162.661 101.375 186.056 102.69 188.174C105.085 192.03 119.183 205.249 119.183 205.249L121.782 203.675C121.782 203.675 111.781 186.745 110.234 185.16C107.803 182.673 105.443 152.289 102.448 150.3Z" fill="#FFB27D"/>
<path d="M106.979 161.272C106.979 161.272 107.887 146.463 96.5523 150.043C85.2171 153.625 98.3108 179.096 98.3108 179.096C98.3108 179.096 104.964 178.767 107.323 172.962L106.979 161.272Z" fill="#ABDDDA"/>
<path d="M85.5895 186.285C85.8282 187.338 85.3313 188.427 84.3714 188.926C83.0307 189.62 81.7127 190.26 80.4172 190.846C80.3478 190.625 80.2865 190.394 80.23 190.149C80.0251 189.237 79.9315 188.145 80.0025 186.838C80.3026 181.308 84.0697 177.121 85.9993 175.322C85.4927 175.843 85.0522 176.452 84.7683 177.149C84.0681 178.873 84.9958 183.665 85.5895 186.285Z" fill="#91CECF"/>
<path d="M103.62 146.431C103.62 146.431 105.004 144.682 105.938 144.739C105.938 144.739 109.72 150.034 109.75 152.463C109.752 152.463 105.035 146.186 103.62 146.431Z" fill="#91CECF"/>
<path d="M139.908 197.672C139.908 197.672 137.896 197.707 137.462 197.646C137.037 197.585 136.467 197.399 135.894 197.38C135.331 197.359 134.813 197.541 134.284 197.651C134.205 197.667 134.124 197.673 134.045 197.673H130.709C130.709 197.673 130.375 197.514 130.009 196.925C129.851 196.67 129.83 196.063 129.47 195.861C127.45 194.734 132.826 195.373 132.826 195.373C132.826 195.373 136.201 195.311 136.512 195.544C137.066 195.96 140.034 197.512 139.908 197.672Z" fill="#ED985F"/>
<path d="M130.709 197.673C130.709 197.673 132.756 198.264 133.313 198.644L133.9 199.015C133.9 199.015 134.241 198.636 133.705 198.214C133.423 197.991 132.642 197.341 132.618 196.594C132.593 195.848 130.281 196.5 130.709 197.673Z" fill="#ED985F"/>
<path d="M121.782 203.675C121.782 203.675 123.246 204.975 124.359 205.249C125.472 205.524 126.737 208.712 126.939 209.167C127.14 209.622 125.875 208.965 125.37 208.189C124.864 207.413 124.519 207.11 124.372 207.277C124.223 207.447 124.46 209.572 125.303 210.751C126.146 211.932 126.651 212.977 126.045 212.91C125.438 212.842 121.829 211.966 121.087 209.773C120.345 207.581 120.889 207.503 119.183 205.249C117.478 202.994 121.782 203.675 121.782 203.675Z" fill="#FFB27D"/>
<path d="M283.225 252.808C283.225 254.078 282.706 255.23 281.869 256.067C281.031 256.904 279.878 257.424 278.608 257.424H256.81C254.273 257.424 252.196 255.346 252.196 252.808C252.196 251.539 252.716 250.387 253.551 249.549C254.389 248.714 255.542 248.194 256.81 248.194H278.608C281.147 248.194 283.225 250.27 283.225 252.808Z" fill="#2B478B"/>
<path d="M271.98 252.808C271.98 254.078 271.461 255.23 270.625 256.067C269.788 256.904 268.634 257.424 267.365 257.424H256.81C254.273 257.424 252.196 255.346 252.196 252.808C252.196 251.539 252.716 250.387 253.551 249.549C254.389 248.714 255.542 248.194 256.81 248.194H267.365C269.904 248.194 271.98 250.27 271.98 252.808Z" fill="#699FF0"/>
<path opacity="0.4" d="M278.978 250.672H258.185C257.825 250.672 257.532 250.379 257.532 250.019V249.872C257.532 249.512 257.827 249.219 258.185 249.219H278.978C279.337 249.219 279.631 249.512 279.631 249.872V250.019C279.633 250.379 279.339 250.672 278.978 250.672Z" fill="#E9F3FE"/>
<path d="M264.625 239.733C265.228 240.936 265.283 242.275 264.888 243.466C264.492 244.656 263.645 245.697 262.442 246.3L241.78 256.655C239.375 257.86 236.419 256.877 235.214 254.472C234.61 253.268 234.556 251.929 234.951 250.739C235.348 249.55 236.193 248.509 237.397 247.906L258.057 237.551C260.464 236.346 263.419 237.327 264.625 239.733Z" fill="#EF7E29"/>
<path d="M253.967 245.075C254.57 246.278 254.625 247.617 254.231 248.808C253.836 249.998 252.989 251.039 251.786 251.642L241.781 256.657C239.376 257.862 236.42 256.879 235.215 254.474C234.612 253.27 234.557 251.931 234.952 250.741C235.349 249.552 236.195 248.511 237.398 247.908L247.402 242.895C249.806 241.687 252.762 242.668 253.967 245.075Z" fill="#F99746"/>
<path opacity="0.5" d="M259.585 239.726L239.876 249.602C239.536 249.773 239.116 249.635 238.945 249.293L238.876 249.152C238.705 248.812 238.844 248.392 239.186 248.221L258.894 238.345C259.234 238.174 259.654 238.312 259.825 238.654L259.894 238.795C260.065 239.135 259.927 239.555 259.585 239.726Z" fill="#FFE2CC"/>
<path d="M458.497 258.485H0.504971C0.227479 258.485 0 258.258 0 257.98V257.84C0 257.562 0.227479 257.335 0.504971 257.335H458.495C458.772 257.335 459 257.562 459 257.84V257.98C459.002 258.258 458.774 258.485 458.497 258.485Z" fill="#2E3552"/>
</svg>
