<svg width="25" height="22" viewBox="0 0 25 22" fill="none" xmlns="http://www.w3.org/2000/svg">
<path d="M8.01619 21.375C17.1361 21.375 22.1235 13.4729 22.1235 6.62037C22.1235 6.39595 22.1191 6.17256 22.1094 5.9501C23.0799 5.21569 23.9174 4.30638 24.5827 3.26479C23.6943 3.67788 22.7383 3.95591 21.7353 4.08127C22.759 3.43929 23.5449 2.42366 23.9157 1.21304C22.9424 1.81691 21.8776 2.2426 20.7672 2.47178C19.8625 1.4638 18.5744 0.833374 17.148 0.833374C14.4099 0.833374 12.1896 3.15571 12.1896 6.01835C12.1896 6.42533 12.2331 6.82106 12.3182 7.20078C8.19734 6.98391 4.54326 4.9204 2.09776 1.78271C1.6573 2.57409 1.42563 3.47352 1.4264 4.38914C1.4264 6.18828 2.3017 7.77651 3.63283 8.70571C2.84545 8.68056 2.07536 8.45812 1.3873 8.05711C1.38656 8.07888 1.38656 8.10009 1.38656 8.12335C1.38656 10.6347 3.09562 12.7316 5.36434 13.2067C4.93824 13.3281 4.49856 13.3894 4.05693 13.3892C3.738 13.3892 3.42717 13.3563 3.12509 13.2957C3.75632 15.3561 5.5867 16.8555 7.75684 16.8974C6.05982 18.2886 3.9221 19.1172 1.59871 19.1172C1.20347 19.1175 0.808555 19.0935 0.416016 19.0453C2.61037 20.5163 5.21595 21.3747 8.01643 21.3747" fill="#213360"/>
</svg>
