<svg width="141" height="83" viewBox="0 0 141 83" fill="none" xmlns="http://www.w3.org/2000/svg">
<path d="M110.882 22.8694C108.892 22.8694 106.97 23.0754 105.099 23.436C98.3715 9.58041 84.2302 0 67.8063 0C46.0795 0 28.2655 16.74 26.4978 38.0126C25.245 37.7894 23.9579 37.6692 22.6536 37.6692C10.1426 37.6692 0 47.8162 0 60.3326C0 72.8489 10.1426 82.9959 22.6536 82.9959C30.3249 82.9959 103.4 82.9959 110.9 82.9959C127.495 82.9959 140.95 69.5352 140.95 52.9326C140.933 36.33 127.478 22.8694 110.882 22.8694Z" fill="#DC3545"/>
<path d="M87.1516 47.9373C85.4952 47.9373 84.1524 49.28 84.1524 50.9364V55.1338C84.1524 59.1083 80.9305 62.3303 76.9559 62.3303H63.9942C60.0197 62.3303 56.7977 59.1083 56.7977 55.1338V50.9365C56.7977 49.28 55.4549 47.9373 53.7985 47.9373C52.1421 47.9373 50.7993 49.28 50.7993 50.9365V59.9708C50.7993 64.389 54.381 67.9708 58.7993 67.9708H82.1508C86.5691 67.9708 90.1508 64.389 90.1508 59.9708V50.9364C90.1508 49.28 88.808 47.9373 87.1516 47.9373Z" fill="white"/>
<path d="M81.5598 41.6663C81.9562 41.2743 81.9556 40.6339 81.5584 40.2428L71.1848 30.0254C70.7958 29.6422 70.1712 29.6419 69.7819 30.0248L59.3924 40.2428C58.9948 40.6338 58.9939 41.2746 59.3905 41.6668L61.157 43.4136C61.5458 43.7982 62.1714 43.799 62.5613 43.4156L68.1138 37.9548V51.2301C68.1138 51.7824 68.5615 52.2301 69.1138 52.2301H71.8534C72.4057 52.2301 72.8534 51.7824 72.8534 51.2301V37.9548L78.3884 43.4136C78.7782 43.798 79.4045 43.7976 79.7938 43.4127L81.5598 41.6663Z" fill="white"/>
</svg>
