<svg width="48" height="48" viewBox="0 0 48 48" fill="none" xmlns="http://www.w3.org/2000/svg">
<path d="M19.3851 15.0207L19.3854 15.0213C19.6447 15.599 20.0776 16.6534 20.4266 17.5033L20.4301 17.5118C20.7106 18.1948 20.9237 18.7126 20.9689 18.8027C21.1333 19.1301 21.2752 19.601 21.011 20.1424M19.3851 15.0207L19.4804 22.469C19.432 22.3855 19.4208 22.3362 19.4182 22.315C19.416 22.2976 19.418 22.2884 19.4221 22.2774C19.428 22.2617 19.4423 22.2341 19.4782 22.1898C19.5155 22.1437 19.5621 22.0962 19.6281 22.0305L19.6283 22.0303C19.7906 21.8687 19.9723 21.6491 20.1344 21.4532L20.1452 21.4402C20.2429 21.3221 20.3359 21.2097 20.4242 21.1083L20.4243 21.1082C20.6954 20.7969 20.8158 20.547 20.951 20.2665L20.9555 20.2571L20.514 20.0443L20.9555 20.2571C20.9736 20.2196 20.9918 20.1818 21.011 20.1424M19.3851 15.0207C19.1679 14.5384 18.9122 14.2173 18.5937 14.0327C18.2837 13.853 17.9791 13.845 17.7968 13.8402L17.7882 13.84C17.7876 13.84 17.7871 13.8399 17.7865 13.8399C17.4819 13.8299 17.1296 13.8299 16.7879 13.8299H16.7823C16.3216 13.8299 15.6255 13.9991 15.0405 14.6299L19.3851 15.0207ZM21.011 20.1424L20.5627 19.9236L21.011 20.1423C21.011 20.1424 21.011 20.1424 21.011 20.1424ZM22.2488 25.9005L22.2496 25.9012C23.838 27.3153 25.2134 27.9088 25.921 28.2141L25.9222 28.2146L25.9334 28.2195C26.0647 28.2761 26.1892 28.3298 26.2852 28.3776M22.2488 25.9005L26.0624 28.8252M22.2488 25.9005C20.7748 24.5943 19.7679 22.9647 19.4804 22.4691L22.2488 25.9005ZM26.2852 28.3776L26.0624 28.8252M26.2852 28.3776C26.2852 28.3776 26.2851 28.3775 26.2851 28.3775L26.0624 28.8252M26.2852 28.3776C26.5096 28.4892 26.6094 28.494 26.6447 28.4898L26.6453 28.4898C26.6593 28.4881 26.7052 28.4828 26.8016 28.3709L26.8016 28.3709C27.1084 28.0147 28.0697 26.8935 28.3971 26.4106M26.0624 28.8252C26.577 29.0812 26.8836 29.0418 27.1804 28.6972C27.4774 28.3524 28.4666 27.2003 28.813 26.6883M28.3971 26.4106C28.3965 26.4117 28.3958 26.4127 28.3951 26.4137L28.813 26.6883M28.3971 26.4106C28.3977 26.4098 28.3983 26.4089 28.3989 26.4081L28.813 26.6883M28.3971 26.4106C28.6187 26.0746 28.9045 25.8497 29.2813 25.8053C29.6054 25.7671 29.9187 25.8793 30.1453 25.9638L30.1454 25.9638C30.4102 26.0627 31.1894 26.431 31.9336 26.7892C32.6921 27.1543 33.4559 27.5295 33.7153 27.6586L33.7154 27.6586C33.8133 27.7074 33.9052 27.7515 33.9937 27.7939L34.0094 27.8014C34.1755 27.8811 34.3455 27.9626 34.4859 28.0483C34.6301 28.1364 34.7986 28.2609 34.9119 28.4517M28.813 26.6883C29.1493 26.1763 29.4956 26.2551 29.9706 26.4323C30.4454 26.6095 32.9781 27.8502 33.4925 28.1062C33.5942 28.1569 33.6893 28.2025 33.7775 28.2448C34.1355 28.4164 34.3787 28.5331 34.4819 28.707M34.9119 28.4517L34.4819 28.707M34.9119 28.4517C34.9119 28.4518 34.9119 28.4518 34.9119 28.4519L34.4819 28.707M34.9119 28.4517C35.0076 28.613 35.0361 28.8198 35.0481 28.9718C35.0621 29.1503 35.0598 29.3643 35.0395 29.6014C34.9988 30.0767 34.8835 30.6748 34.6565 31.316L34.6553 31.3194C34.3796 32.0802 33.6277 32.744 32.9076 33.2078C32.1811 33.6758 31.3398 34.0338 30.7495 34.089C30.6672 34.0968 30.5843 34.1068 30.4911 34.1181L30.4311 33.6217L30.4911 34.1181C30.0336 34.1734 29.4863 34.2384 28.5422 34.0801C27.6165 33.9248 26.3198 33.5572 24.3361 32.7764C19.3407 30.812 16.0684 25.9751 15.4106 25.0028L15.4047 24.9941L15.8188 24.7139L15.4047 24.9941C15.3494 24.9124 15.3232 24.8739 15.3131 24.8604C15.3131 24.8603 15.313 24.8602 15.313 24.8601L15.3023 24.8458L15.3022 24.8458L15.3022 24.8457C15.1494 24.6413 14.6049 23.9127 14.098 22.9109C13.5945 21.9159 13.1064 20.6096 13.1064 19.2537C13.1064 16.6783 14.3889 15.3191 14.9504 14.7257L15.3136 15.0693L14.9504 14.7257L34.1851 31.1491C34.6105 29.9478 34.6105 28.9236 34.4819 28.707M14.7944 40.8029C14.6829 40.7425 14.5526 40.7267 14.4299 40.7588L5.2152 43.1656C4.99166 43.224 4.7888 43.0184 4.85016 42.7957L7.31138 33.8618C7.34699 33.7325 7.3292 33.5944 7.26201 33.4784C5.56131 30.5419 4.66675 27.212 4.66797 23.8229V23.8227C4.66797 13.1706 13.3857 4.5 24.0837 4.5C29.2843 4.5 34.1539 6.5156 37.8196 10.1642C41.4847 13.8124 43.4998 18.6676 43.4998 23.8325C43.4998 34.4844 34.7821 43.1551 24.0839 43.1551H24.074C20.8233 43.1551 17.6303 42.339 14.7944 40.8029Z" fill="#213360" stroke="#213360" stroke-linejoin="round"/>
</svg>
