<svg width="388" height="333" viewBox="0 0 388 333" fill="none" xmlns="http://www.w3.org/2000/svg">
<path d="M193.41 7.13003C123.9 38.4 187 94.12 146.9 124.47C106.8 154.82 -2.34005 119.74 39.2499 198.54C88.0999 291.11 302.02 278.26 348.14 164.71C394.26 51.16 262.9 -24.13 193.41 7.13003Z" fill="#F99370"/>
<path opacity="0.9" d="M193.41 7.13003C123.9 38.4 187 94.12 146.9 124.47C106.8 154.82 -2.34005 119.74 39.2499 198.54C88.0999 291.11 302.02 278.26 348.14 164.71C394.26 51.16 262.9 -24.13 193.41 7.13003Z" fill="white"/>
<path d="M193.9 332.76C300.982 332.76 387.79 327.692 387.79 321.44C387.79 315.188 300.982 310.12 193.9 310.12C86.8175 310.12 0.0100098 315.188 0.0100098 321.44C0.0100098 327.692 86.8175 332.76 193.9 332.76Z" fill="#F5F5F5"/>
<path d="M252.3 102.27C258.62 107.44 266.71 114.89 273.46 119.27L273.6 119.36C273.66 119.36 273.6 119.36 273.6 119.36C273.6 119.36 273.76 119.53 274.32 119.5C279.38 118.42 284.23 113.92 288.47 110.5C288.923 110.066 289.52 109.813 290.147 109.79C290.775 109.767 291.389 109.975 291.872 110.375C292.356 110.775 292.676 111.339 292.772 111.959C292.867 112.579 292.731 113.213 292.39 113.74C289.92 117.682 286.861 121.223 283.32 124.24C281.252 126.043 278.821 127.38 276.19 128.16C273.942 128.787 271.546 128.603 269.42 127.64L268.33 127.08C259.91 122.39 252.69 116.3 245.5 110C240.64 105.36 247.06 98.0601 252.28 102.29L252.3 102.27Z" fill="#EBC0BB"/>
<path d="M251.6 117.4C253.596 118.284 255.527 119.306 257.38 120.46C262.14 123.28 267.68 126.92 267.68 126.92L272.22 117.23C263.53 108.31 250.49 101.29 250.49 101.29C250.49 101.29 249.98 104.29 249.75 107.64C249.45 111.82 249.58 116.66 251.6 117.4Z" fill="#E0004D"/>
<path d="M267.03 126.76L272.22 115.53L274.82 119.26L269.5 128.58L267.03 126.76Z" fill="#E0004D"/>
<path opacity="0.6" d="M267.03 126.76L272.22 115.53L274.82 119.26L269.5 128.58L267.03 126.76Z" fill="white"/>
<path opacity="0.2" d="M251.6 115.25C253.583 116.005 255.514 116.891 257.38 117.9C256.31 113.414 253.887 109.364 250.44 106.3C250.2 106.449 249.97 106.613 249.75 106.79C249.45 110.41 249.58 114.61 251.6 115.25Z" fill="black"/>
<path d="M225.9 154.42C225.9 154.42 226.38 162.54 230.34 176.76C232.824 185.561 235.846 194.2 239.39 202.63C241.39 207.39 243.67 212.43 246.23 217.75C247.41 220.17 248.66 222.63 249.98 225.15C251.5 268.23 275.67 312.02 275.67 312.02C277.01 312.71 281.67 311.95 281.67 310.59C278.09 304.91 271.05 249.72 266.51 223.54C266.23 219.98 265.82 216.17 265.32 212.23C263.99 201.67 262.03 190.17 260.12 180.06C257.12 164.14 254.26 151.66 254.26 151.66L246.26 152.43L225.9 154.42Z" fill="#EEC1BB"/>
<path d="M216.38 214.05C217.047 218.67 217.877 223.623 218.87 228.91C210.23 257.72 227.99 313.91 227.99 313.91C230.99 314.5 233.65 314.11 234.99 313.11C231.64 296.17 234.05 252.11 236.65 225.8C236.88 223.42 237.17 220.8 237.49 217.98C238.03 213.24 238.67 207.98 239.35 202.6C240.49 193.55 241.78 184.02 242.94 175.6C244.36 165.39 245.6 156.76 246.23 152.42C246.51 150.51 246.66 149.42 246.66 149.42L221.73 152.12C221.73 152.12 215.39 159.23 214.43 181.43C214.097 192.34 214.75 203.258 216.38 214.05V214.05Z" fill="#EEC1BB"/>
<path opacity="0.2" d="M216.38 214.05C223.2 216.36 230.308 217.706 237.5 218.05C238.04 213.31 238.68 208.05 239.36 202.67C241.36 207.43 243.64 212.47 246.2 217.79C252.861 217.175 259.34 215.276 265.28 212.2C263.95 201.64 261.99 190.14 260.08 180.03C257.439 178.485 254.585 177.336 251.61 176.62C248.775 175.953 245.872 175.617 242.96 175.62C238.72 175.596 234.487 175.981 230.32 176.77C224.881 177.777 219.562 179.349 214.45 181.46C214.113 192.359 214.759 203.267 216.38 214.05V214.05Z" fill="black"/>
<path d="M216.24 102.03C216.24 102.03 217.35 106.15 218.55 113.03C218.86 114.73 219.17 116.62 219.46 118.64C219.67 120.11 219.87 121.64 220.07 123.26C220.29 125.09 220.5 127.02 220.69 129.01C221.422 136.653 221.699 144.334 221.52 152.01H254.35C254.35 152.01 259.53 113.61 250.98 101.23C250.98 101.31 234.15 93.38 216.24 102.03Z" fill="#E0004D"/>
<path opacity="0.2" d="M218.55 113.07C218.86 114.77 219.17 116.66 219.46 118.68C219.67 120.15 219.87 121.68 220.07 123.3C221.487 118.395 221.452 113.185 219.97 108.3L218.55 113.07Z" fill="black"/>
<path d="M233.22 95.73C222.92 95.73 221.63 104.2 221.63 104.2L226.44 102.13L240.59 111.59L244.06 102.04L248.42 102.85C248.42 102.85 242.16 95.74 233.22 95.73Z" fill="#E0004D"/>
<path opacity="0.6" d="M233.22 95.73C222.92 95.73 221.63 104.2 221.63 104.2L226.44 102.13L240.59 111.59L244.06 102.04L248.42 102.85C248.42 102.85 242.16 95.74 233.22 95.73Z" fill="white"/>
<path d="M226.84 100.42L240.19 110.42C240.19 110.34 242.26 100.42 242.26 100.42C239.11 99.73 237.82 98.2 237.48 96.36C237.297 94.8543 237.454 93.3267 237.94 91.89L230.55 86.04L228.55 84.47C229.48 89.03 230.35 97.38 226.84 100.42Z" fill="#EEC1BB"/>
<path opacity="0.2" d="M230.49 89.41C230.77 92.28 234.29 95.27 237.49 96.36C237.307 94.8544 237.464 93.3268 237.95 91.89L230.56 86.04C230.387 87.1553 230.363 88.2886 230.49 89.41V89.41Z" fill="black"/>
<path d="M252.41 74.32L251.71 74.07L253.98 67.8C253.659 67.4709 253.307 67.1729 252.93 66.91L253.36 66.3C253.869 66.6399 254.324 67.0545 254.71 67.53L254.81 67.68L252.41 74.32Z" fill="#E0004D"/>
<path d="M250.9 81.56C250.9 81.56 257.42 68.29 244.31 60.51C231.2 52.73 221.71 68.98 223.03 77.13C223.59 80.64 224.91 84.92 228.29 87.03C229.65 87.87 229.75 84.03 229.75 84.03C229.75 84.03 242.49 88.54 250.9 81.56Z" fill="#263238"/>
<path d="M229.23 72.74C228.06 80.81 227.4 84.1901 230.49 89.3001C235.13 96.9901 245.05 97.15 248.55 89.72C251.69 83.02 253.07 70.96 246.11 65.78C244.654 64.6185 242.913 63.8678 241.069 63.6059C239.224 63.344 237.343 63.5803 235.621 64.2905C233.899 65.0006 232.398 66.1586 231.274 67.6444C230.15 69.1301 229.445 70.8895 229.23 72.74V72.74Z" fill="#EEC1BB"/>
<path d="M237.62 69.49C231.62 73.49 238.06 82.6 229.62 79.31C221.18 76.02 228.79 65.07 234.83 64.06C240.87 63.05 237.62 69.49 237.62 69.49Z" fill="#263238"/>
<path d="M246.29 80.8201C246.571 82.5068 247.069 84.1504 247.77 85.7101C247.388 85.8682 246.975 85.9369 246.563 85.9109C246.15 85.8849 245.749 85.7649 245.39 85.5601L246.29 80.8201Z" fill="#D4827D"/>
<path d="M243.9 73.2C243.849 73.1929 243.797 73.1963 243.747 73.2101C243.697 73.2239 243.65 73.2476 243.61 73.28C243.241 73.5954 242.799 73.8143 242.324 73.9173C241.85 74.0202 241.357 74.004 240.89 73.87C240.842 73.8531 240.791 73.8462 240.741 73.8497C240.69 73.8533 240.641 73.8672 240.596 73.8907C240.551 73.9141 240.511 73.9466 240.479 73.986C240.447 74.0255 240.424 74.0711 240.41 74.12C240.384 74.2234 240.397 74.3328 240.447 74.427C240.497 74.5213 240.58 74.5936 240.68 74.63C241.267 74.8115 241.89 74.8415 242.491 74.7174C243.093 74.5933 243.653 74.319 244.12 73.92C244.193 73.8452 244.234 73.7447 244.234 73.64C244.234 73.5353 244.193 73.4348 244.12 73.36C244.066 73.2843 243.989 73.2281 243.9 73.2V73.2Z" fill="#263238"/>
<path d="M249.46 74.2001C249.367 74.1648 249.263 74.1648 249.17 74.2001C249.078 74.2508 249.009 74.336 248.979 74.4371C248.949 74.5383 248.96 74.6472 249.01 74.7401C249.273 75.327 249.668 75.8452 250.164 76.2546C250.66 76.6639 251.244 76.9532 251.87 77.1001C251.921 77.1086 251.973 77.1063 252.023 77.0934C252.073 77.0806 252.12 77.0574 252.16 77.0254C252.201 76.9933 252.234 76.9532 252.258 76.9075C252.282 76.8618 252.297 76.8116 252.3 76.7601C252.305 76.6545 252.273 76.5506 252.209 76.4665C252.145 76.3823 252.053 76.3235 251.95 76.3001C251.455 76.1788 250.995 75.9453 250.605 75.6176C250.214 75.2898 249.905 74.8767 249.7 74.4101C249.65 74.3119 249.564 74.2367 249.46 74.2001V74.2001Z" fill="#263238"/>
<path d="M241.17 66.04C241.17 66.04 237.49 72.25 231.99 73.73C226.49 75.21 226.11 72.51 226.11 72.51C226.11 72.51 226.52 64.61 233.77 62.97C233.77 62.97 234.84 60.63 241.15 61.16C247.46 61.69 254.74 66.89 252.32 74.37C250.953 73.4165 249.374 72.8091 247.72 72.6C247.084 70.0249 245.539 67.7662 243.37 66.24C244.821 67.9315 245.725 70.0238 245.96 72.24C245.96 72.24 244.54 67.66 241.17 66.04Z" fill="#263238"/>
<path d="M242.58 78.6501L244.22 78.5901C244.22 78.5901 243.19 79.6401 242.58 78.6501Z" fill="#263238"/>
<path d="M242.58 78.65C242.172 78.9701 241.675 79.1555 241.157 79.1806C240.64 79.2057 240.127 79.0692 239.69 78.79C239.69 78.79 241.12 79.97 242.03 79.79C242.301 79.7457 242.558 79.6385 242.78 79.477C243.003 79.3155 243.184 79.1042 243.31 78.86L242.58 78.65Z" fill="#263238"/>
<path d="M249.24 79.68L250.87 79.62C250.87 79.62 249.84 80.67 249.24 79.68Z" fill="#263238"/>
<path d="M249.24 79.6801C249.24 79.6801 248.8 80.6801 247.06 79.7901C247.06 79.7901 247.77 81.0001 248.68 80.8601C248.951 80.8157 249.208 80.7085 249.43 80.547C249.653 80.3855 249.834 80.1742 249.96 79.9301L249.24 79.6801Z" fill="#263238"/>
<path d="M244.07 88.81C244.012 88.8112 243.954 88.7918 243.909 88.7552C243.863 88.7187 243.832 88.6673 243.82 88.61C243.82 88.61 243.38 86.48 240.34 85.15C240.31 85.1369 240.282 85.118 240.259 85.0944C240.236 85.0707 240.218 85.0427 240.206 85.012C240.194 84.9813 240.188 84.9486 240.189 84.9156C240.19 84.8827 240.197 84.8502 240.21 84.82C240.238 84.7606 240.288 84.7141 240.349 84.69C240.411 84.6658 240.479 84.6658 240.54 84.69C243.84 86.14 244.3 88.42 244.31 88.52C244.322 88.5849 244.307 88.6519 244.27 88.7062C244.232 88.7605 244.175 88.7978 244.11 88.81H244.07Z" fill="#263238"/>
<path d="M241.03 65.2C238.82 65.2 237.14 64.3 237.14 63.11C237.14 61.92 238.82 61.01 241.03 61.01C243.24 61.01 244.92 61.91 244.92 63.11C244.92 64.31 243.25 65.2 241.03 65.2ZM241.03 61.76C239.18 61.76 237.89 62.47 237.89 63.11C237.89 63.75 239.18 64.45 241.03 64.45C242.88 64.45 244.17 63.74 244.17 63.11C244.17 62.48 242.9 61.78 241.03 61.78V61.76Z" fill="#E0004D"/>
<path d="M251.9 67.53C250.908 67.4842 249.944 67.1846 249.1 66.66C247.18 65.56 246.18 63.94 246.78 62.9C247.38 61.9 249.27 61.9 251.19 63.03C253.11 64.16 254.11 65.76 253.51 66.79C253.333 67.0471 253.09 67.2515 252.807 67.3818C252.524 67.5121 252.21 67.5633 251.9 67.53V67.53ZM247.43 63.28C247.11 63.83 247.87 65.09 249.43 66.01C250.99 66.93 252.5 67.01 252.82 66.42C253.14 65.83 252.38 64.61 250.82 63.68C249.26 62.75 247.75 62.73 247.43 63.28V63.28Z" fill="#E0004D"/>
<path d="M246.65 63.75C246.381 63.4089 245.997 63.1777 245.57 63.1C245.428 63.0923 245.285 63.115 245.153 63.1668C245.02 63.2185 244.9 63.298 244.8 63.4L244.29 62.85C244.465 62.6765 244.675 62.5422 244.906 62.456C245.137 62.3698 245.384 62.3337 245.63 62.35C246.262 62.4528 246.835 62.7836 247.24 63.28L246.65 63.75Z" fill="#E0004D"/>
<path d="M230.27 77.81L229.57 77.55L234.49 63.83L234.57 63.76C235.463 63.2578 236.438 62.9192 237.45 62.76L237.59 63.5C236.732 63.6371 235.899 63.9035 235.12 64.29L230.27 77.81Z" fill="#E0004D"/>
<path d="M226 79.8C226.081 80.5753 226.324 81.325 226.713 82.0003C227.103 82.6756 227.63 83.2616 228.26 83.72C229.86 84.79 231.32 83.03 231.42 80.81C231.51 78.81 230.79 75.81 228.91 75.7C227.03 75.59 225.72 77.72 226 79.8Z" fill="#EEC1BB"/>
<path d="M227.37 321.3H228.76L229.15 319.58L233.74 321.66H245.4C245.4 321.66 247.25 319.79 241.7 318.31C241.428 318.236 241.163 318.135 240.91 318.01C237.96 316.62 233.74 311.94 233.74 311.94H227.35C227.158 312.235 226.984 312.543 226.83 312.86C226.13 314.26 224.9 317.2 227.37 321.3Z" fill="#263238"/>
<path d="M226.83 312.86C227.67 311.92 231.51 316.05 234.33 317.46C236.84 318.71 239.66 319.26 240.91 317.99C237.96 316.6 233.3 310.54 233.3 310.54H228.16C228.16 310.54 227.13 312.26 226.83 312.86Z" fill="#FFC2BC"/>
<path d="M275.9 321.3H277.29L277.67 319.58L282.27 321.66H293.9C293.9 321.66 295.76 319.79 290.21 318.31C289.937 318.238 289.672 318.137 289.42 318.01C286.42 316.62 282.25 311.94 282.25 311.94H275.9C275.708 312.235 275.534 312.543 275.38 312.86C274.67 314.26 273.46 317.2 275.9 321.3Z" fill="#263238"/>
<path d="M275.37 312.86C276.21 311.92 280.05 316.05 282.86 317.46C285.38 318.71 288.2 319.26 289.45 317.99C286.45 316.6 281.84 310.54 281.84 310.54H276.7C276.7 310.54 275.67 312.26 275.37 312.86Z" fill="#FFC2BC"/>
<path d="M254.67 149.45H221.57L220.68 153.71C220.68 153.71 208.52 170.54 214.68 212.51C214.68 212.51 241.31 215.58 266.39 210.2C266.39 210.2 260.76 167.09 254.87 153.02L254.67 149.45Z" fill="#263238"/>
<path d="M231.44 153.11H220.33L221 149.95H231.44V153.11Z" fill="#263238"/>
<path d="M251.61 149.95H254.94L255.22 153.11H251.61V149.95Z" fill="#263238"/>
<path d="M250.51 149.95H232.52V153.12H250.51V149.95Z" fill="#263238"/>
<path opacity="0.6" d="M231.44 153.11H220.33L221 149.95H231.44V153.11Z" fill="white"/>
<path opacity="0.6" d="M251.61 149.95H254.94L255.22 153.11H251.61V149.95Z" fill="white"/>
<path opacity="0.6" d="M250.51 149.95H232.52V153.12H250.51V149.95Z" fill="white"/>
<path d="M240.5 153.35H245.5C245.798 153.35 246.04 153.108 246.04 152.81V150.24C246.04 149.942 245.798 149.7 245.5 149.7H240.5C240.202 149.7 239.96 149.942 239.96 150.24V152.81C239.96 153.108 240.202 153.35 240.5 153.35Z" fill="white"/>
<path d="M298.13 105.04L298.26 107.57C298.281 108.037 298.193 108.503 298.002 108.931C297.811 109.358 297.523 109.734 297.16 110.03L293.67 112.81C292.986 113.359 292.181 113.736 291.322 113.91C290.462 114.084 289.573 114.05 288.73 113.81L287.67 113.51C287.16 109.33 289.67 104.43 289.67 104.43L290.23 102.96C290.336 102.653 290.503 102.371 290.719 102.129C290.936 101.887 291.198 101.691 291.491 101.551C291.784 101.412 292.102 101.332 292.427 101.316C292.751 101.3 293.075 101.349 293.38 101.46L296.32 102.55C296.831 102.744 297.275 103.083 297.596 103.525C297.918 103.967 298.103 104.494 298.13 105.04V105.04Z" fill="#EEC1BB"/>
<path d="M218.63 113.52C214.22 118.27 208.99 123.96 204.7 128.82L205.22 127.99C205.32 127.74 205.28 127.6 205.22 127.67C205.34 130.53 207.22 133.25 208.77 135.9C211.05 139.57 213.77 143.22 216.34 146.69C216.707 147.187 216.882 147.799 216.833 148.414C216.783 149.029 216.514 149.606 216.073 150.038C215.632 150.471 215.05 150.729 214.434 150.766C213.818 150.803 213.209 150.616 212.72 150.24C210.83 148.77 209.13 147.24 207.41 145.62C203.817 142.323 200.715 138.528 198.2 134.35C196.42 131.19 194.93 126.6 197.37 123.1C201.52 117.077 206.206 111.44 211.37 106.26C216.3 101.81 223.08 108.59 218.63 113.52V113.52Z" fill="#EBC0BB"/>
<path d="M216.24 102.02C216.24 102.02 208.79 105.88 198.53 120.2L206.68 126.85L219.11 116.4C220.359 113.463 220.781 110.24 220.33 107.08C219.44 102.38 216.24 102.02 216.24 102.02Z" fill="#E0004D"/>
<path d="M207.84 126.37L197.76 118.41L196.22 122.82L205.82 128.58L207.84 126.37Z" fill="#E0004D"/>
<path opacity="0.6" d="M207.84 126.37L197.76 118.41L196.22 122.82L205.82 128.58L207.84 126.37Z" fill="white"/>
<path d="M221.31 154.85L221.51 152.33C221.542 151.862 221.464 151.393 221.281 150.96C221.099 150.528 220.818 150.144 220.46 149.84L217.05 146.98C216.377 146.418 215.579 146.026 214.723 145.834C213.867 145.643 212.978 145.659 212.13 145.88L211.06 146.16C210.45 150.32 212.85 155.28 212.85 155.28L213.38 156.77C213.481 157.079 213.641 157.364 213.853 157.611C214.065 157.857 214.323 158.059 214.613 158.205C214.903 158.351 215.219 158.438 215.543 158.461C215.867 158.484 216.192 158.443 216.5 158.34L219.5 157.34C220.011 157.146 220.455 156.807 220.776 156.365C221.098 155.923 221.283 155.396 221.31 154.85V154.85Z" fill="#EEC1BB"/>
<path d="M231.43 61.08C231.43 61.08 228.75 49.96 218.55 51.94C208.35 53.92 214.69 70.81 212.55 77.13C210.41 83.45 209.99 93.33 218.55 95.13C217.395 94.0947 216.602 92.7167 216.287 91.1979C215.972 89.679 216.152 88.0993 216.8 86.69C216.522 88.2397 216.851 89.8371 217.72 91.15C217.23 90.1367 217.047 89.0018 217.194 87.8857C217.342 86.7696 217.813 85.7212 218.55 84.87C221.15 81.95 226.33 71.08 226.84 67.68C227.35 64.28 231.43 61.08 231.43 61.08Z" fill="#263238"/>
<path d="M294.788 117.143L293.803 117.317C293.466 117.376 293.119 117.3 292.839 117.104C292.559 116.908 292.368 116.608 292.308 116.271L283.069 64.032L286.574 63.412L295.807 115.612C295.836 115.779 295.832 115.95 295.796 116.115C295.759 116.28 295.69 116.437 295.593 116.576C295.496 116.715 295.373 116.833 295.23 116.924C295.087 117.015 294.928 117.077 294.761 117.107L294.788 117.143Z" fill="#263238"/>
<path d="M284.945 74.6043C296.42 72.5748 303.986 61.1113 301.844 48.9998C299.702 36.8884 288.663 28.7155 277.188 30.7451C265.713 32.7746 258.147 44.2382 260.289 56.3496C262.431 68.461 273.47 76.6339 284.945 74.6043Z" fill="#E0004D"/>
<path opacity="0.6" d="M284.945 74.6043C296.42 72.5748 303.986 61.1113 301.844 48.9998C299.702 36.8884 288.663 28.7155 277.188 30.7451C265.713 32.7746 258.147 44.2382 260.289 56.3496C262.431 68.461 273.47 76.6339 284.945 74.6043Z" fill="white"/>
<path d="M286.914 74.2566C298.389 72.227 305.955 60.7635 303.813 48.6521C301.671 36.5407 290.632 28.3677 279.157 30.3973C267.682 32.4269 260.116 43.8904 262.258 56.0018C264.4 68.1132 275.439 76.2861 286.914 74.2566Z" fill="#E0004D"/>
<path opacity="0.7" d="M286.914 74.2566C298.389 72.227 305.955 60.7635 303.813 48.6521C301.671 36.5407 290.632 28.3677 279.157 30.3973C267.682 32.4269 260.116 43.8904 262.258 56.0018C264.4 68.1132 275.439 76.2861 286.914 74.2566Z" fill="white"/>
<path d="M273.41 63.69L281.1 52.69L270.1 45L271.69 42.73L282.69 50.42L290.38 39.42L292.65 41.01L284.96 52.01L295.96 59.7L294.37 61.97L283.37 54.28L275.68 65.28L273.41 63.69Z" fill="#E0004D"/>
<path d="M155.725 177.974V249.436C155.725 253.822 152.114 257.411 147.697 257.411H104.935C103.791 257.411 102.703 257.171 101.713 256.736C98.89 255.498 96.9073 252.685 96.9073 249.436V177.974C96.9073 173.587 100.52 170 104.935 170H147.697C152.114 170.002 155.725 173.589 155.725 177.974Z" fill="#FCECDB"/>
<path d="M136.784 196.873C132.265 195.187 129.979 190.184 131.674 185.697C133.37 181.21 138.408 178.937 142.926 180.622C147.444 182.306 149.732 187.311 148.036 191.798C146.34 196.285 141.301 198.558 136.784 196.873Z" fill="#F7E0CB"/>
<path d="M148.034 191.798L131.672 185.695C133.368 181.208 138.405 178.935 142.924 180.62C147.443 182.306 149.731 187.311 148.034 191.798Z" fill="#EFCBAB"/>
<path d="M107.252 195.472C103.512 192.44 102.958 186.972 106.009 183.259C109.06 179.547 114.564 178.992 118.305 182.025C122.042 185.056 122.599 190.526 119.547 194.238C116.495 197.95 110.989 198.503 107.252 195.472Z" fill="#F7E0CB"/>
<path d="M119.546 194.238L106.008 183.259C109.059 179.547 114.563 178.992 118.303 182.025C122.042 185.056 122.599 190.524 119.546 194.238Z" fill="#EFCBAB"/>
<path d="M136.784 249.822C132.265 248.136 129.979 243.133 131.674 238.646C133.37 234.159 138.408 231.884 142.926 233.57C147.444 235.255 149.732 240.26 148.036 244.747C146.34 249.234 141.301 251.507 136.784 249.822Z" fill="#F7E0CB"/>
<path d="M148.034 245.337L131.672 239.234C133.368 234.747 138.405 232.474 142.924 234.159C147.443 235.845 149.731 240.85 148.034 245.337Z" fill="#EFCBAB"/>
<path d="M116.221 249.677C120.657 247.791 122.713 242.689 120.814 238.283C118.915 233.876 113.779 231.833 109.342 233.72C104.906 235.607 102.85 240.708 104.749 245.115C106.648 249.521 111.784 251.564 116.221 249.677Z" fill="#F7E0CB"/>
<path d="M119.546 247.775L106.008 236.797C109.059 233.085 114.563 232.53 118.303 235.562C122.042 238.593 122.599 244.063 119.546 247.775Z" fill="#EFCBAB"/>
<path d="M143.594 224.051C139.231 226.106 134.021 224.256 131.954 219.924C129.887 215.594 131.746 210.417 136.107 208.364C140.469 206.312 145.68 208.16 147.747 212.49C149.813 216.822 147.953 221.999 143.594 224.051Z" fill="#F7E0CB"/>
<path d="M147.747 212.491L131.954 219.925C129.887 215.595 131.746 210.418 136.107 208.365C140.469 206.311 145.68 208.159 147.747 212.491Z" fill="#EFCBAB"/>
<path d="M104.667 212.983C106.46 208.531 111.548 206.368 116.027 208.149C120.507 209.931 122.686 214.981 120.893 219.433C119.1 223.883 114.012 226.047 109.533 224.266C105.053 222.485 102.874 217.433 104.667 212.983Z" fill="#F7E0CB"/>
<path d="M109.531 224.266L116.026 208.149C120.506 209.93 122.685 214.98 120.892 219.432C119.099 223.883 114.011 226.047 109.531 224.266Z" fill="#EFCBAB"/>
<path opacity="0.5" d="M155.725 187.754V249.938C155.725 254.047 152.421 257.409 148.38 257.409H109.251C108.205 257.409 107.208 257.185 106.302 256.776V196.363C106.302 193.892 107.341 191.656 108.995 190.083C109.605 189.501 110.301 189.008 111.063 188.63C112.183 188.07 113.442 187.755 114.768 187.755H155.725V187.754Z" fill="#EFCBAB"/>
<path d="M107.702 267.591V196.129C107.702 191.744 111.315 188.155 115.73 188.155H158.492C162.907 188.155 166.52 191.744 166.52 196.129V267.591C166.52 271.976 162.907 275.565 158.492 275.565H115.728C111.313 275.564 107.702 271.976 107.702 267.591Z" fill="#FCECDB"/>
<path d="M147.575 215.029C143.056 213.342 140.77 208.339 142.466 203.852C144.162 199.365 149.199 197.091 153.718 198.777C158.235 200.461 160.523 205.466 158.827 209.953C157.132 214.44 152.093 216.713 147.575 215.029Z" fill="#F7E0CB"/>
<path d="M158.828 209.953L142.467 203.852C144.163 199.365 149.2 197.091 153.719 198.777C158.236 200.461 160.524 205.466 158.828 209.953Z" fill="#EFCBAB"/>
<path d="M118.047 213.626C114.306 210.593 113.753 205.125 116.804 201.413C119.855 197.7 125.358 197.146 129.099 200.178C132.836 203.209 133.393 208.677 130.342 212.391C127.291 216.105 121.784 216.658 118.047 213.626Z" fill="#F7E0CB"/>
<path d="M130.344 212.391L116.805 201.413C119.857 197.7 125.36 197.146 129.101 200.178C132.838 203.21 133.395 208.679 130.344 212.391Z" fill="#EFCBAB"/>
<path d="M147.575 267.975C143.056 266.289 140.77 261.286 142.466 256.799C144.162 252.312 149.199 250.037 153.718 251.724C158.235 253.408 160.523 258.413 158.827 262.9C157.132 267.389 152.093 269.662 147.575 267.975Z" fill="#F7E0CB"/>
<path d="M158.828 263.492L142.467 257.391C144.163 252.904 149.2 250.629 153.719 252.316C158.236 254 160.524 259.005 158.828 263.492Z" fill="#EFCBAB"/>
<path d="M118.047 266.575C114.306 263.543 113.753 258.075 116.804 254.362C119.855 250.65 125.358 250.095 129.099 253.128C132.836 256.159 133.393 261.627 130.342 265.341C127.291 269.053 121.784 269.606 118.047 266.575Z" fill="#F7E0CB"/>
<path d="M130.344 265.93L116.805 254.952C119.857 251.239 125.36 250.685 129.101 253.717C132.838 256.748 133.395 262.216 130.344 265.93Z" fill="#EFCBAB"/>
<path d="M154.393 242.206C150.03 244.26 144.82 242.41 142.754 238.08C140.687 233.748 142.546 228.573 146.907 226.519C151.266 224.466 156.48 226.314 158.546 230.644C160.613 234.976 158.753 240.153 154.393 242.206Z" fill="#F7E0CB"/>
<path d="M158.546 230.646L142.754 238.08C140.687 233.748 142.546 228.573 146.907 226.518C151.268 224.466 156.48 226.314 158.546 230.646Z" fill="#EFCBAB"/>
<path d="M127.641 242.032C131.911 239.8 133.551 234.552 131.303 230.31C129.056 226.069 123.773 224.44 119.502 226.672C115.232 228.904 113.592 234.152 115.84 238.394C118.087 242.635 123.37 244.264 127.641 242.032Z" fill="#F7E0CB"/>
<path d="M120.325 242.42L126.819 226.304C131.299 228.085 133.478 233.135 131.685 237.587C129.893 242.037 124.806 244.202 120.325 242.42Z" fill="#EFCBAB"/>
<path d="M159.897 216.658H92.736V316.217H159.897V216.658Z" fill="#EF7E29"/>
<path d="M169.255 216.658H102.093V316.218H169.255V216.658Z" fill="#F99746"/>
<path d="M102.091 222.435L98.8736 227.406H92.736V216.658H102.091V222.435Z" fill="#D8661A"/>
<path d="M96.3549 224.501H87L92.7367 216.658H102.092L96.3549 224.501Z" fill="#F99746"/>
<path opacity="0.5" d="M136.733 316.535H102.093V221.195L136.733 224.5V316.535Z" fill="#EFCBAB"/>
<path d="M169.255 224.501L163.806 227.406H105.331L102.093 222.435V216.658L169.255 224.501Z" fill="#EF7E29"/>
<path d="M174 224.501H106.839L102.093 216.658H169.255L174 224.501Z" fill="#F99746"/>
<path d="M118.834 321.526H55.1664C51.2255 321.526 48 318.323 48 314.408V276.118C48 272.204 51.2255 269 55.1664 269H118.834C122.775 269 126 272.204 126 276.118V314.408C126 318.323 122.776 321.526 118.834 321.526Z" fill="#FCECDB"/>
<path d="M71.9804 285.916C70.4755 289.952 66.0113 291.993 62.0068 290.478C58.0023 288.963 55.9742 284.465 57.479 280.429C58.9823 276.395 63.4481 274.351 67.4526 275.867C71.4556 277.382 73.4837 281.882 71.9804 285.916Z" fill="#F7E0CB"/>
<path d="M67.4526 275.868L62.0068 290.479C58.0023 288.964 55.9742 284.467 57.479 280.43C58.9823 276.395 63.4481 274.353 67.4526 275.868Z" fill="#EFCBAB"/>
<path d="M70.7322 312.287C68.0256 315.628 63.1475 316.122 59.8348 313.397C56.5221 310.672 56.0269 305.758 58.7335 302.417C61.4386 299.08 66.3183 298.582 69.631 301.307C72.9437 304.032 73.4359 308.95 70.7322 312.287Z" fill="#F7E0CB"/>
<path d="M69.6283 301.307L59.8321 313.397C56.5194 310.672 56.0242 305.758 58.7308 302.417C61.436 299.08 66.3156 298.582 69.6283 301.307Z" fill="#EFCBAB"/>
<path d="M119.23 285.916C117.726 289.952 113.261 291.993 109.257 290.478C105.252 288.963 103.224 284.465 104.729 280.429C106.232 276.395 110.698 274.351 114.703 275.867C118.706 277.382 120.734 281.882 119.23 285.916Z" fill="#F7E0CB"/>
<path d="M114.703 275.868L109.257 290.479C105.252 288.964 103.224 284.467 104.729 280.43C106.232 276.395 110.7 274.353 114.703 275.868Z" fill="#EFCBAB"/>
<path d="M117.977 312.288C115.365 315.512 110.727 316.086 107.427 313.665C107.309 313.583 107.195 313.492 107.08 313.398C103.766 310.674 103.272 305.758 105.979 302.418C108.682 299.079 113.562 298.582 116.876 301.308C116.989 301.401 117.098 301.495 117.206 301.594C120.22 304.366 120.59 309.063 117.977 312.288Z" fill="#F7E0CB"/>
<path d="M117.203 301.595L107.425 313.665C107.306 313.583 107.193 313.492 107.077 313.398C103.763 310.674 103.269 305.758 105.976 302.418C108.68 299.079 113.559 298.582 116.874 301.308C116.987 301.402 117.097 301.495 117.203 301.595Z" fill="#EFCBAB"/>
<path d="M96.2318 279.832C98.0648 283.728 96.4151 288.381 92.5496 290.227C88.684 292.072 84.0661 290.413 82.2331 286.518C80.4015 282.624 82.0498 277.969 85.9153 276.123C89.7809 274.278 94.4003 275.938 96.2318 279.832Z" fill="#F7E0CB"/>
<path d="M85.9151 276.121L92.5493 290.225C88.6838 292.07 84.0658 290.411 82.2328 286.516C80.4013 282.622 82.051 277.967 85.9151 276.121Z" fill="#EFCBAB"/>
<path d="M86.3559 314.598C82.3824 312.996 80.4533 308.455 82.0439 304.453C83.633 300.452 88.1401 298.507 92.1121 300.109C96.0826 301.71 98.0146 306.252 96.4241 310.253C94.835 314.254 90.3264 316.2 86.3559 314.598Z" fill="#F7E0CB"/>
<path d="M96.4252 310.253L82.0436 304.453C83.6327 300.452 88.1398 298.507 92.1118 300.109C96.0823 301.71 98.0143 306.252 96.4252 310.253Z" fill="#EFCBAB"/>
<path opacity="0.5" d="M340.078 317.7L322.592 317.695L313.344 317.694C309.754 317.692 306.819 314.773 306.819 311.206L306.839 247.024C306.839 243.458 309.775 240.541 313.367 240.543L321.569 240.546L340.101 240.551C343.691 240.551 346.626 243.47 346.626 247.037L346.608 311.219C346.605 314.783 343.668 317.7 340.078 317.7Z" fill="#FFE0CB"/>
<path d="M343.785 299.506L343.321 296.128L342.858 292.749C342.74 291.887 342.276 291.151 341.626 290.66C340.976 290.17 340.139 289.924 339.271 290.041C339.175 290.055 339.082 290.073 338.989 290.094C339.306 289.637 339.487 289.122 339.537 288.598C340.127 290.005 341.679 290.827 343.217 290.461C344.922 290.054 345.982 288.339 345.575 286.645L344.776 283.331L343.976 280.014C343.772 279.169 343.238 278.482 342.542 278.056C341.846 277.632 340.988 277.468 340.135 277.671C338.43 278.078 337.37 279.794 337.777 281.487L338.98 286.484C338.797 286.223 338.573 285.985 338.307 285.784C337.759 285.366 337.112 285.158 336.467 285.14C336.783 284.734 336.991 284.262 337.082 283.77C337.202 283.124 337.119 282.444 336.82 281.828C337.18 280.643 336.821 279.301 335.804 278.466L330.513 274.121C329.161 273.011 327.144 273.201 326.027 274.543C324.995 275.785 325.083 277.591 326.17 278.733C325.889 278.731 325.605 278.764 325.32 278.842L322.008 279.742L318.697 280.641C317.546 280.955 316.713 281.866 316.445 282.948L316.098 282.121L314.775 278.974C314.099 277.368 312.224 276.602 310.607 277.274C308.99 277.946 308.219 279.808 308.895 281.414L310.218 284.56L311.066 286.576C309.942 287.02 309.118 288.083 309.053 289.356L308.88 292.762L308.707 296.168C308.662 297.036 308.982 297.845 309.528 298.447C310.075 299.05 310.853 299.445 311.729 299.489C312.103 299.507 312.463 299.458 312.804 299.355C312.475 300.012 312.382 300.772 312.551 301.495C311.963 301.832 311.478 302.352 311.2 303.019L309.889 306.17L308.578 309.322C308.244 310.126 308.27 310.994 308.584 311.742C308.897 312.491 309.497 313.122 310.306 313.455C311.569 313.974 312.985 313.615 313.864 312.669C314.072 313.156 314.403 313.599 314.855 313.942C316.248 315 318.257 314.736 319.322 313.353L321.408 310.646L323.496 307.938C323.778 307.57 323.964 307.159 324.064 306.733C324.79 306.806 325.543 306.636 326.188 306.195L326.735 305.82L325.979 306.802L323.893 309.51C322.828 310.893 323.093 312.889 324.486 313.947C325.879 315.005 327.888 314.741 328.954 313.358L331.039 310.65L333.127 307.941C333.153 307.907 333.177 307.87 333.202 307.834C333.369 308.103 333.577 308.343 333.812 308.547L333.069 309.511C332.003 310.895 332.271 312.891 333.662 313.949C335.055 315.007 337.064 314.743 338.129 313.36L342.303 307.945C342.834 307.255 343.034 306.409 342.926 305.605C342.818 304.802 342.404 304.037 341.708 303.509C341.47 303.327 341.212 303.189 340.946 303.085C340.985 303.081 341.023 303.08 341.063 303.075C342.796 302.834 344.021 301.231 343.785 299.506ZM315.069 296.485L315.129 295.322C315.33 295.659 315.596 295.966 315.927 296.219C316.052 296.313 316.181 296.394 316.316 296.468L314.857 297.468C314.976 297.161 315.053 296.831 315.069 296.485ZM336.542 293.604L337.165 298.147C336.894 297.601 336.477 297.153 335.97 296.844C335.354 296.468 334.611 296.3 333.856 296.405C334.182 296.207 334.48 295.951 334.724 295.634L336.516 293.31C336.522 293.407 336.529 293.505 336.542 293.604ZM329.294 281.331L330.097 281.99L329.271 282.556C329.359 282.162 329.371 281.747 329.294 281.331ZM329.987 291.369C329.906 290.877 329.71 290.418 329.422 290.025C329.66 289.936 329.891 289.822 330.109 289.673L332.62 287.953L329.987 291.369ZM332.071 297.292C331.398 296.734 330.526 296.478 329.67 296.572L329.738 295.72C329.889 295.903 330.062 296.075 330.26 296.225C330.966 296.762 331.829 296.957 332.648 296.839C332.437 296.967 332.244 297.12 332.071 297.292ZM325.653 285.312C324.953 286.358 324.918 287.77 325.678 288.864C325.691 288.884 325.708 288.902 325.723 288.922C325.492 289.01 325.271 289.122 325.068 289.259C325.212 288.808 325.256 288.334 325.194 287.874C325.086 287.07 324.672 286.305 323.976 285.777C323.973 285.775 323.969 285.772 323.966 285.771L325.653 285.312ZM322.48 292.922L323.708 291.327C323.69 291.426 323.677 291.525 323.668 291.628L323.436 294.556C322.975 294.144 322.41 293.88 321.817 293.782L322.48 292.922ZM316.728 306.301L317.089 305.434C317.351 304.802 317.388 304.131 317.242 303.509C317.315 303.468 317.388 303.425 317.458 303.377L323.11 299.506C323.147 299.481 323.178 299.453 323.215 299.426C323.291 299.735 323.413 300.026 323.574 300.293L322.568 300.983C321.892 301.447 321.455 302.13 321.28 302.872C320.218 302.769 319.126 303.192 318.433 304.092L316.728 306.301ZM331.721 302.398L331.897 303.131C331.613 303.004 331.315 302.921 331.014 302.883L331.721 302.398ZM338.45 303.137L338.204 302.117L338.158 301.922C338.503 302.343 338.952 302.672 339.459 302.872C339.113 302.908 338.771 302.994 338.45 303.137ZM319.15 286.832L317.421 289.076L315.335 291.783C315.325 291.796 315.319 291.809 315.309 291.821L315.418 289.675C315.422 289.62 315.418 289.566 315.418 289.511C315.516 289.482 315.615 289.447 315.711 289.407C317.009 288.869 317.758 287.563 317.657 286.239C318.091 286.556 318.606 286.763 319.15 286.832Z" fill="#F08964"/>
<path opacity="0.5" d="M322.592 317.695L313.344 317.694C309.754 317.692 306.819 314.773 306.819 311.206L306.839 247.024C306.839 243.458 309.775 240.541 313.367 240.543L321.569 240.546C322.245 241.7 322.641 243.079 322.639 244.556L322.617 317.048C322.619 317.266 322.611 317.482 322.592 317.695Z" fill="#F99746"/>
<path d="M346.198 243.578L321.363 243.57L307.268 243.565C306.568 243.566 306 242.997 306 242.303L306.002 236.26C306.002 235.566 306.573 235 307.271 235L321.347 235.003C321.348 235.003 321.348 235.003 321.35 235.003L346.202 235.01C346.9 235.01 347.47 235.578 347.47 236.271L347.468 242.315C347.468 243.01 346.896 243.578 346.198 243.578Z" fill="#F99746"/>
<path d="M321.363 243.57L307.268 243.565C306.568 243.566 306 242.997 306 242.303L306.002 236.26C306.002 235.566 306.573 235 307.271 235L321.347 235.003C321.348 235.003 321.348 235.003 321.35 235.003C322.045 235.005 322.615 235.571 322.615 236.265L322.613 242.308C322.611 242.997 322.053 243.56 321.363 243.57Z" fill="#EF7E29"/>
<path d="M206.633 314.479C206.633 316.288 205.887 317.931 204.686 319.125C203.485 320.318 201.83 321.058 200.009 321.058H168.731C165.089 321.058 162.11 318.096 162.11 314.479C162.11 312.669 162.855 311.026 164.055 309.833C165.256 308.642 166.911 307.9 168.732 307.9H200.01C203.652 307.902 206.633 310.862 206.633 314.479Z" fill="#F99746"/>
<path d="M190.496 314.479C190.496 316.288 189.751 317.931 188.551 319.125C187.349 320.318 185.695 321.058 183.874 321.058H168.728C165.086 321.058 162.107 318.096 162.107 314.479C162.107 312.669 162.852 311.026 164.052 309.833C165.253 308.642 166.908 307.9 168.729 307.9H183.875C187.516 307.902 190.496 310.862 190.496 314.479Z" fill="#FFB27D"/>
<path opacity="0.4" d="M200.538 311.437H170.703C170.187 311.437 169.765 311.018 169.765 310.505V310.294C169.765 309.781 170.187 309.362 170.703 309.362H200.538C201.055 309.362 201.477 309.781 201.477 310.294V310.505C201.477 311.016 201.055 311.437 200.538 311.437Z" fill="#E9F3FE"/>
<path d="M179.942 295.844C180.806 297.558 180.886 299.469 180.317 301.166C179.75 302.863 178.535 304.347 176.809 305.205L147.163 319.962C143.711 321.681 139.47 320.279 137.74 316.851C136.875 315.137 136.795 313.226 137.361 311.53C137.93 309.835 139.144 308.353 140.871 307.492L170.517 292.735C173.97 291.017 178.211 292.414 179.942 295.844Z" fill="#E0004D"/>
<path d="M164.648 303.456C165.512 305.17 165.592 307.081 165.027 308.777C164.459 310.474 163.244 311.957 161.518 312.816L147.163 319.961C143.711 321.68 139.47 320.277 137.74 316.849C136.875 315.135 136.795 313.225 137.361 311.529C137.93 309.833 139.144 308.351 140.871 307.491L155.226 300.346C158.679 298.627 162.917 300.028 164.648 303.456Z" fill="#FF636C"/>
<path opacity="0.5" d="M172.709 295.833L144.431 309.909C143.943 310.154 143.341 309.954 143.095 309.469L142.995 309.269C142.749 308.784 142.95 308.186 143.438 307.942L171.716 293.865C172.205 293.621 172.807 293.821 173.052 294.306L173.153 294.506C173.399 294.993 173.199 295.59 172.709 295.833Z" fill="#FFE2CC"/>
</svg>
